# MagicaVoxel @ Ephtracy

# group
o 

# material
mtllib ResourcesIron1-0.mtl
usemtl palette

# normals
vn -1 0 0
vn 1 0 0
vn 0 0 1
vn 0 0 -1
vn 0 -1 0
vn 0 1 0

# texcoords
vt 0.310547 0.5
vt 0.619141 0.5
vt 0.978516 0.5
vt 0.994141 0.5

# verts
v -0.6 0 0.4
v -0.6 0 -0.4
v -0.6 0.1 0.2
v -0.6 0.1 -0.2
v -0.6 1.2 0.4
v -0.6 1.2 0.2
v -0.6 1.2 -0.2
v -0.6 1.2 -0.4
v -0.5 0.1 0.2
v -0.5 0.1 -0.2
v -0.5 0.2 0.2
v -0.5 0.2 -0.2
v -0.5 0.3 0.2
v -0.5 0.3 -0.2
v -0.5 0.5 0.2
v -0.5 0.5 -0.2
v -0.5 0.6 0.2
v -0.5 0.6 -0.2
v -0.5 0.7 0.2
v -0.5 0.7 -0.2
v -0.5 0.9 0.2
v -0.5 0.9 -0.2
v -0.5 1 0.2
v -0.5 1 -0.2
v -0.5 1.1 0.2
v -0.5 1.1 -0.2
v -0.5 1.2 0.2
v -0.5 1.2 -0.2
v -5.96046e-08 0.1 0.4
v -5.96046e-08 0.1 0.3
v -5.96046e-08 0.1 -0.3
v -5.96046e-08 0.1 -0.4
v -5.96046e-08 0.2 0.3
v -5.96046e-08 0.2 -0.3
v -5.96046e-08 0.3 0.3
v -5.96046e-08 0.3 -0.3
v -5.96046e-08 0.5 0.3
v -5.96046e-08 0.5 -0.3
v -5.96046e-08 0.6 0.3
v -5.96046e-08 0.6 -0.3
v -5.96046e-08 0.7 0.3
v -5.96046e-08 0.7 -0.3
v -5.96046e-08 0.9 0.3
v -5.96046e-08 0.9 -0.3
v -5.96046e-08 1 0.3
v -5.96046e-08 1 -0.3
v -5.96046e-08 1.1 0.3
v -5.96046e-08 1.1 -0.3
v -5.96046e-08 1.2 0.4
v -5.96046e-08 1.2 0.3
v -5.96046e-08 1.2 -0.3
v -5.96046e-08 1.2 -0.4
v 0.3 0.1 0.1
v 0.3 0.1 -0.1
v 0.3 0.2 0.1
v 0.3 0.2 -0.1
v 0.5 0.2 0.1
v 0.5 0.2 -0.1
v 0.5 0.3 0.1
v 0.5 0.3 -0.1
v -0.4 0.1 0.4
v -0.4 0.1 0.3
v -0.4 0.1 -0.3
v -0.4 0.1 -0.4
v -0.4 0.2 0.3
v -0.4 0.2 -0.3
v -0.4 0.3 0.3
v -0.4 0.3 -0.3
v -0.4 0.5 0.3
v -0.4 0.5 -0.3
v -0.4 0.6 0.3
v -0.4 0.6 -0.3
v -0.4 0.7 0.3
v -0.4 0.7 -0.3
v -0.4 0.9 0.3
v -0.4 0.9 -0.3
v -0.4 1 0.3
v -0.4 1 -0.3
v -0.4 1.1 0.3
v -0.4 1.1 -0.3
v -0.4 1.2 0.4
v -0.4 1.2 0.3
v -0.4 1.2 -0.3
v -0.4 1.2 -0.4
v 0.1 0.1 0.2
v 0.1 0.1 -0.2
v 0.1 0.2 0.2
v 0.1 0.2 -0.2
v 0.1 0.3 0.2
v 0.1 0.3 -0.2
v 0.1 0.5 0.2
v 0.1 0.5 -0.2
v 0.1 0.6 0.2
v 0.1 0.6 -0.2
v 0.1 0.7 0.2
v 0.1 0.7 -0.2
v 0.1 0.9 0.2
v 0.1 0.9 -0.2
v 0.1 1 0.2
v 0.1 1 -0.2
v 0.1 1.1 0.2
v 0.1 1.1 -0.2
v 0.1 1.2 0.2
v 0.1 1.2 -0.2
v 0.2 0 0.4
v 0.2 0 0.1
v 0.2 0 -0.1
v 0.2 0 -0.4
v 0.2 0.1 0.2
v 0.2 0.1 0.1
v 0.2 0.1 -0.1
v 0.2 0.1 -0.2
v 0.2 1.2 0.4
v 0.2 1.2 0.2
v 0.2 1.2 -0.2
v 0.2 1.2 -0.4
v 0.6 0 0.1
v 0.6 0 -0.1
v 0.6 0.3 0.1
v 0.6 0.3 -0.1
v -0.6 0 0.4
v -0.6 1.2 0.4
v -0.4 0.1 0.4
v -0.4 1.2 0.4
v -5.96046e-08 0.1 0.4
v -5.96046e-08 1.2 0.4
v 0.2 0 0.4
v 0.2 1.2 0.4
v -0.4 0.1 0.3
v -0.4 0.2 0.3
v -0.4 0.3 0.3
v -0.4 0.5 0.3
v -0.4 0.6 0.3
v -0.4 0.7 0.3
v -0.4 0.9 0.3
v -0.4 1 0.3
v -0.4 1.1 0.3
v -0.4 1.2 0.3
v -5.96046e-08 0.1 0.3
v -5.96046e-08 0.2 0.3
v -5.96046e-08 0.3 0.3
v -5.96046e-08 0.5 0.3
v -5.96046e-08 0.6 0.3
v -5.96046e-08 0.7 0.3
v -5.96046e-08 0.9 0.3
v -5.96046e-08 1 0.3
v -5.96046e-08 1.1 0.3
v -5.96046e-08 1.2 0.3
v 0.2 0 0.1
v 0.2 0.1 0.1
v 0.3 0.1 0.1
v 0.3 0.2 0.1
v 0.5 0.2 0.1
v 0.5 0.3 0.1
v 0.6 0 0.1
v 0.6 0.3 0.1
v -0.6 0.1 -0.2
v -0.6 1.2 -0.2
v -0.5 0.1 -0.2
v -0.5 0.2 -0.2
v -0.5 0.3 -0.2
v -0.5 0.5 -0.2
v -0.5 0.6 -0.2
v -0.5 0.7 -0.2
v -0.5 0.9 -0.2
v -0.5 1 -0.2
v -0.5 1.1 -0.2
v -0.5 1.2 -0.2
v 0.1 0.1 -0.2
v 0.1 0.2 -0.2
v 0.1 0.3 -0.2
v 0.1 0.5 -0.2
v 0.1 0.6 -0.2
v 0.1 0.7 -0.2
v 0.1 0.9 -0.2
v 0.1 1 -0.2
v 0.1 1.1 -0.2
v 0.1 1.2 -0.2
v 0.2 0.1 -0.2
v 0.2 1.2 -0.2
v -0.6 0.1 0.2
v -0.6 1.2 0.2
v -0.5 0.1 0.2
v -0.5 0.2 0.2
v -0.5 0.3 0.2
v -0.5 0.5 0.2
v -0.5 0.6 0.2
v -0.5 0.7 0.2
v -0.5 0.9 0.2
v -0.5 1 0.2
v -0.5 1.1 0.2
v -0.5 1.2 0.2
v 0.1 0.1 0.2
v 0.1 0.2 0.2
v 0.1 0.3 0.2
v 0.1 0.5 0.2
v 0.1 0.6 0.2
v 0.1 0.7 0.2
v 0.1 0.9 0.2
v 0.1 1 0.2
v 0.1 1.1 0.2
v 0.1 1.2 0.2
v 0.2 0.1 0.2
v 0.2 1.2 0.2
v 0.2 0 -0.1
v 0.2 0.1 -0.1
v 0.3 0.1 -0.1
v 0.3 0.2 -0.1
v 0.5 0.2 -0.1
v 0.5 0.3 -0.1
v 0.6 0 -0.1
v 0.6 0.3 -0.1
v -0.4 0.1 -0.3
v -0.4 0.2 -0.3
v -0.4 0.3 -0.3
v -0.4 0.5 -0.3
v -0.4 0.6 -0.3
v -0.4 0.7 -0.3
v -0.4 0.9 -0.3
v -0.4 1 -0.3
v -0.4 1.1 -0.3
v -0.4 1.2 -0.3
v -5.96046e-08 0.1 -0.3
v -5.96046e-08 0.2 -0.3
v -5.96046e-08 0.3 -0.3
v -5.96046e-08 0.5 -0.3
v -5.96046e-08 0.6 -0.3
v -5.96046e-08 0.7 -0.3
v -5.96046e-08 0.9 -0.3
v -5.96046e-08 1 -0.3
v -5.96046e-08 1.1 -0.3
v -5.96046e-08 1.2 -0.3
v -0.6 0 -0.4
v -0.6 1.2 -0.4
v -0.4 0.1 -0.4
v -0.4 1.2 -0.4
v -5.96046e-08 0.1 -0.4
v -5.96046e-08 1.2 -0.4
v 0.2 0 -0.4
v 0.2 1.2 -0.4
v -0.6 0 0.4
v 0.2 0 0.4
v 0.2 0 0.1
v 0.6 0 0.1
v 0.2 0 -0.1
v 0.6 0 -0.1
v -0.6 0 -0.4
v 0.2 0 -0.4
v -0.4 0.1 0.4
v -5.96046e-08 0.1 0.4
v -0.4 0.1 0.3
v -5.96046e-08 0.1 0.3
v -0.6 0.1 0.2
v -0.5 0.1 0.2
v 0.1 0.1 0.2
v 0.2 0.1 0.2
v 0.2 0.1 0.1
v 0.3 0.1 0.1
v 0.2 0.1 -0.1
v 0.3 0.1 -0.1
v -0.6 0.1 -0.2
v -0.5 0.1 -0.2
v 0.1 0.1 -0.2
v 0.2 0.1 -0.2
v -0.4 0.1 -0.3
v -5.96046e-08 0.1 -0.3
v -0.4 0.1 -0.4
v -5.96046e-08 0.1 -0.4
v 0.3 0.2 0.1
v 0.5 0.2 0.1
v 0.3 0.2 -0.1
v 0.5 0.2 -0.1
v 0.5 0.3 0.1
v 0.6 0.3 0.1
v 0.5 0.3 -0.1
v 0.6 0.3 -0.1
v -0.6 1.2 0.4
v -0.4 1.2 0.4
v -5.96046e-08 1.2 0.4
v 0.2 1.2 0.4
v -0.4 1.2 0.3
v -5.96046e-08 1.2 0.3
v -0.6 1.2 0.2
v -0.5 1.2 0.2
v 0.1 1.2 0.2
v 0.2 1.2 0.2
v -0.6 1.2 -0.2
v -0.5 1.2 -0.2
v 0.1 1.2 -0.2
v 0.2 1.2 -0.2
v -0.4 1.2 -0.3
v -5.96046e-08 1.2 -0.3
v -0.6 1.2 -0.4
v -0.4 1.2 -0.4
v -5.96046e-08 1.2 -0.4
v 0.2 1.2 -0.4

# faces
f 3/4/1 2/4/1 1/4/1
f 4/4/1 2/4/1 3/4/1
f 5/4/1 3/4/1 1/4/1
f 6/4/1 3/4/1 5/4/1
f 7/4/1 2/4/1 4/4/1
f 8/4/1 2/4/1 7/4/1
f 11/1/1 10/1/1 9/1/1
f 12/1/1 10/1/1 11/1/1
f 13/3/1 12/3/1 11/3/1
f 14/3/1 12/3/1 13/3/1
f 15/4/1 14/4/1 13/4/1
f 16/4/1 14/4/1 15/4/1
f 17/1/1 16/1/1 15/1/1
f 18/1/1 16/1/1 17/1/1
f 19/3/1 18/3/1 17/3/1
f 20/3/1 18/3/1 19/3/1
f 21/4/1 20/4/1 19/4/1
f 22/4/1 20/4/1 21/4/1
f 23/1/1 22/1/1 21/1/1
f 24/1/1 22/1/1 23/1/1
f 25/3/1 24/3/1 23/3/1
f 26/3/1 24/3/1 25/3/1
f 27/4/1 26/4/1 25/4/1
f 28/4/1 26/4/1 27/4/1
f 33/4/1 30/4/1 29/4/1
f 34/4/1 32/4/1 31/4/1
f 35/4/1 33/4/1 29/4/1
f 36/4/1 32/4/1 34/4/1
f 37/4/1 35/4/1 29/4/1
f 38/4/1 32/4/1 36/4/1
f 39/4/1 37/4/1 29/4/1
f 40/4/1 32/4/1 38/4/1
f 41/4/1 39/4/1 29/4/1
f 42/4/1 32/4/1 40/4/1
f 43/4/1 41/4/1 29/4/1
f 44/4/1 32/4/1 42/4/1
f 45/4/1 43/4/1 29/4/1
f 46/4/1 32/4/1 44/4/1
f 47/4/1 45/4/1 29/4/1
f 48/4/1 32/4/1 46/4/1
f 49/4/1 47/4/1 29/4/1
f 50/4/1 47/4/1 49/4/1
f 51/4/1 32/4/1 48/4/1
f 52/4/1 32/4/1 51/4/1
f 55/2/1 54/2/1 53/2/1
f 56/2/1 54/2/1 55/2/1
f 59/2/1 58/2/1 57/2/1
f 60/2/1 58/2/1 59/2/1
f 61/4/2 62/4/2 65/4/2
f 63/4/2 64/4/2 66/4/2
f 61/4/2 65/4/2 67/4/2
f 66/4/2 64/4/2 68/4/2
f 61/4/2 67/4/2 69/4/2
f 68/4/2 64/4/2 70/4/2
f 61/4/2 69/4/2 71/4/2
f 70/4/2 64/4/2 72/4/2
f 61/4/2 71/4/2 73/4/2
f 72/4/2 64/4/2 74/4/2
f 61/4/2 73/4/2 75/4/2
f 74/4/2 64/4/2 76/4/2
f 61/4/2 75/4/2 77/4/2
f 76/4/2 64/4/2 78/4/2
f 61/4/2 77/4/2 79/4/2
f 78/4/2 64/4/2 80/4/2
f 61/4/2 79/4/2 81/4/2
f 81/4/2 79/4/2 82/4/2
f 80/4/2 64/4/2 83/4/2
f 83/4/2 64/4/2 84/4/2
f 85/1/2 86/1/2 87/1/2
f 87/1/2 86/1/2 88/1/2
f 87/3/2 88/3/2 89/3/2
f 89/3/2 88/3/2 90/3/2
f 89/4/2 90/4/2 91/4/2
f 91/4/2 90/4/2 92/4/2
f 91/1/2 92/1/2 93/1/2
f 93/1/2 92/1/2 94/1/2
f 93/3/2 94/3/2 95/3/2
f 95/3/2 94/3/2 96/3/2
f 95/4/2 96/4/2 97/4/2
f 97/4/2 96/4/2 98/4/2
f 97/1/2 98/1/2 99/1/2
f 99/1/2 98/1/2 100/1/2
f 99/3/2 100/3/2 101/3/2
f 101/3/2 100/3/2 102/3/2
f 101/4/2 102/4/2 103/4/2
f 103/4/2 102/4/2 104/4/2
f 105/4/2 106/4/2 109/4/2
f 109/4/2 106/4/2 110/4/2
f 107/4/2 108/4/2 111/4/2
f 111/4/2 108/4/2 112/4/2
f 105/4/2 109/4/2 113/4/2
f 113/4/2 109/4/2 114/4/2
f 112/4/2 108/4/2 115/4/2
f 115/4/2 108/4/2 116/4/2
f 117/2/2 118/2/2 119/2/2
f 119/2/2 118/2/2 120/2/2
f 123/4/3 122/4/3 121/4/3
f 124/4/3 122/4/3 123/4/3
f 125/4/3 123/4/3 121/4/3
f 127/4/3 125/4/3 121/4/3
f 127/4/3 126/4/3 125/4/3
f 128/4/3 126/4/3 127/4/3
f 139/1/3 130/1/3 129/1/3
f 140/3/3 131/3/3 130/3/3
f 140/1/3 130/1/3 139/1/3
f 141/4/3 132/4/3 131/4/3
f 141/3/3 131/3/3 140/3/3
f 142/1/3 133/1/3 132/1/3
f 142/4/3 132/4/3 141/4/3
f 143/3/3 134/3/3 133/3/3
f 143/1/3 133/1/3 142/1/3
f 144/4/3 135/4/3 134/4/3
f 144/3/3 134/3/3 143/3/3
f 145/1/3 136/1/3 135/1/3
f 145/4/3 135/4/3 144/4/3
f 146/3/3 137/3/3 136/3/3
f 146/1/3 136/1/3 145/1/3
f 147/4/3 138/4/3 137/4/3
f 147/3/3 137/3/3 146/3/3
f 148/4/3 138/4/3 147/4/3
f 151/2/3 150/2/3 149/2/3
f 153/2/3 152/2/3 151/2/3
f 155/2/3 151/2/3 149/2/3
f 155/2/3 154/2/3 153/2/3
f 155/2/3 153/2/3 151/2/3
f 156/2/3 154/2/3 155/2/3
f 159/4/3 158/4/3 157/4/3
f 160/4/3 158/4/3 159/4/3
f 161/4/3 158/4/3 160/4/3
f 162/4/3 158/4/3 161/4/3
f 163/4/3 158/4/3 162/4/3
f 164/4/3 158/4/3 163/4/3
f 165/4/3 158/4/3 164/4/3
f 166/4/3 158/4/3 165/4/3
f 167/4/3 158/4/3 166/4/3
f 168/4/3 158/4/3 167/4/3
f 179/4/3 170/4/3 169/4/3
f 179/4/3 178/4/3 177/4/3
f 179/4/3 177/4/3 176/4/3
f 179/4/3 176/4/3 175/4/3
f 179/4/3 175/4/3 174/4/3
f 179/4/3 174/4/3 173/4/3
f 179/4/3 173/4/3 172/4/3
f 179/4/3 172/4/3 171/4/3
f 179/4/3 171/4/3 170/4/3
f 180/4/3 178/4/3 179/4/3
f 181/4/4 182/4/4 183/4/4
f 183/4/4 182/4/4 184/4/4
f 184/4/4 182/4/4 185/4/4
f 185/4/4 182/4/4 186/4/4
f 186/4/4 182/4/4 187/4/4
f 187/4/4 182/4/4 188/4/4
f 188/4/4 182/4/4 189/4/4
f 189/4/4 182/4/4 190/4/4
f 190/4/4 182/4/4 191/4/4
f 191/4/4 182/4/4 192/4/4
f 193/4/4 194/4/4 203/4/4
f 201/4/4 202/4/4 203/4/4
f 200/4/4 201/4/4 203/4/4
f 199/4/4 200/4/4 203/4/4
f 198/4/4 199/4/4 203/4/4
f 197/4/4 198/4/4 203/4/4
f 196/4/4 197/4/4 203/4/4
f 195/4/4 196/4/4 203/4/4
f 194/4/4 195/4/4 203/4/4
f 203/4/4 202/4/4 204/4/4
f 205/2/4 206/2/4 207/2/4
f 207/2/4 208/2/4 209/2/4
f 205/2/4 207/2/4 211/2/4
f 209/2/4 210/2/4 211/2/4
f 207/2/4 209/2/4 211/2/4
f 211/2/4 210/2/4 212/2/4
f 213/1/4 214/1/4 223/1/4
f 214/3/4 215/3/4 224/3/4
f 223/1/4 214/1/4 224/1/4
f 215/4/4 216/4/4 225/4/4
f 224/3/4 215/3/4 225/3/4
f 216/1/4 217/1/4 226/1/4
f 225/4/4 216/4/4 226/4/4
f 217/3/4 218/3/4 227/3/4
f 226/1/4 217/1/4 227/1/4
f 218/4/4 219/4/4 228/4/4
f 227/3/4 218/3/4 228/3/4
f 219/1/4 220/1/4 229/1/4
f 228/4/4 219/4/4 229/4/4
f 220/3/4 221/3/4 230/3/4
f 229/1/4 220/1/4 230/1/4
f 221/4/4 222/4/4 231/4/4
f 230/3/4 221/3/4 231/3/4
f 231/4/4 222/4/4 232/4/4
f 233/4/4 234/4/4 235/4/4
f 235/4/4 234/4/4 236/4/4
f 233/4/4 235/4/4 237/4/4
f 233/4/4 237/4/4 239/4/4
f 237/4/4 238/4/4 239/4/4
f 239/4/4 238/4/4 240/4/4
f 243/4/5 242/4/5 241/4/5
f 245/4/5 243/4/5 241/4/5
f 245/2/5 244/2/5 243/2/5
f 246/2/5 244/2/5 245/2/5
f 247/4/5 245/4/5 241/4/5
f 248/4/5 245/4/5 247/4/5
f 249/4/6 250/4/6 251/4/6
f 251/4/6 250/4/6 252/4/6
f 255/4/6 256/4/6 257/4/6
f 255/4/6 257/4/6 259/4/6
f 257/2/6 258/2/6 259/2/6
f 259/2/6 258/2/6 260/2/6
f 253/4/6 254/4/6 261/4/6
f 261/4/6 254/4/6 262/4/6
f 255/4/6 259/4/6 263/4/6
f 263/4/6 259/4/6 264/4/6
f 265/4/6 266/4/6 267/4/6
f 267/4/6 266/4/6 268/4/6
f 269/2/6 270/2/6 271/2/6
f 271/2/6 270/2/6 272/2/6
f 273/2/6 274/2/6 275/2/6
f 275/2/6 274/2/6 276/2/6
f 277/4/6 278/4/6 281/4/6
f 279/4/6 280/4/6 282/4/6
f 277/4/6 281/4/6 283/4/6
f 281/4/6 282/4/6 283/4/6
f 283/4/6 282/4/6 284/4/6
f 282/4/6 280/4/6 285/4/6
f 284/4/6 282/4/6 285/4/6
f 285/4/6 280/4/6 286/4/6
f 284/4/6 285/4/6 288/4/6
f 288/4/6 285/4/6 289/4/6
f 287/4/6 288/4/6 291/4/6
f 289/4/6 290/4/6 291/4/6
f 288/4/6 289/4/6 291/4/6
f 291/4/6 290/4/6 292/4/6
f 287/4/6 291/4/6 293/4/6
f 293/4/6 291/4/6 294/4/6
f 292/4/6 290/4/6 295/4/6
f 295/4/6 290/4/6 296/4/6
