# MagicaVoxel @ Ephtracy

# group
o 

# material
mtllib Turret1-1.mtl
usemtl palette

# normals
vn -1 0 0
vn 1 0 0
vn 0 0 1
vn 0 0 -1
vn 0 -1 0
vn 0 1 0

# texcoords
vt 0.158203 0.5
vt 0.970703 0.5
vt 0.974609 0.5
vt 0.978516 0.5
vt 0.994141 0.5

# verts
v -2 0.1 0.0999999
v -2 0.1 -0.1
v -2 0.4 0.0999999
v -2 0.4 -0.1
v -0.9 0.1 0.4
v -0.9 0.1 -0.4
v -0.9 0.2 0.4
v -0.9 0.2 0.3
v -0.9 0.2 0.0999999
v -0.9 0.2 -0.1
v -0.9 0.2 -0.3
v -0.9 0.2 -0.4
v -0.9 0.3 0.3
v -0.9 0.3 0.2
v -0.9 0.3 0.0999999
v -0.9 0.3 -0.1
v -0.9 0.3 -0.2
v -0.9 0.3 -0.3
v -0.9 0.4 0.2
v -0.9 0.4 -0.2
v -0.8 0 0.2
v -0.8 0 -0.1
v -0.8 0.1 0.2
v -0.8 0.1 -0.1
v -0.6 0 0.3
v -0.6 0 0.2
v -0.6 0 -0.1
v -0.6 0 -0.2
v -0.6 0.1 0.3
v -0.6 0.1 0.2
v -0.6 0.1 -0.1
v -0.6 0.1 -0.2
v -0.2 0 0.4
v -0.2 0 0.3
v -0.2 0 -0.2
v -0.2 0 -0.3
v -0.2 0.1 0.4
v -0.2 0.1 0.3
v -0.2 0.1 -0.2
v -0.2 0.1 -0.3
v 0.3 0.3 0.3
v 0.3 0.3 0.2
v 0.3 0.3 -0.2
v 0.3 0.3 -0.3
v 0.3 0.4 0.3
v 0.3 0.4 0.2
v 0.3 0.4 -0.2
v 0.3 0.4 -0.3
v 0.4 0.1 1.2
v 0.4 0.1 1.1
v 0.4 0.1 1
v 0.4 0.1 0.7
v 0.4 0.1 0.6
v 0.4 0.3 1.1
v 0.4 0.3 1
v 0.4 0.3 0.7
v 0.4 0.4 1.1
v 0.4 0.4 0.7
v 0.4 0.5 1.2
v 0.4 0.5 1.1
v 0.4 0.5 0.7
v 0.4 0.5 0.6
v 0.5 0.4 1.1
v 0.5 0.4 1
v 0.5 0.4 0.7
v 0.5 0.5 1.1
v 0.5 0.5 1
v 0.5 0.5 0.7
v 1 0.2 0.6
v 1 0.2 0.3
v 1 0.4 0.6
v 1 0.4 0.3
v 1 0.4 0.0999999
v 1 0.4 -0.1
v 1 0.4 -0.3
v 1 0.5 0.3
v 1 0.5 0.0999999
v 1 0.5 -0.1
v 1 0.5 -0.3
v 1.6 0.2 1.2
v 1.6 0.2 1.1
v 1.6 0.3 1.1
v 1.6 0.4 1.2
v 1.6 0.4 1.1
v -1.5 0.1 0.0999999
v -1.5 0.1 -0.1
v -1.5 0.2 0.0999999
v -1.5 0.2 -0.1
v -1.5 0.3 0.0999999
v -1.5 0.3 -0.1
v -1.5 0.4 0.0999999
v -1.5 0.4 -0.1
v 0.5 0.2 1.2
v 0.5 0.2 1.1
v 0.5 0.4 1.2
v 0.5 0.4 1.1
v 0.9 0 0.4
v 0.9 0 0.3
v 0.9 0 -0.2
v 0.9 0 -0.3
v 0.9 0.1 -0.2
v 0.9 0.1 -0.3
v 0.9 0.1 -0.4
v 0.9 0.2 0.4
v 0.9 0.2 0.3
v 0.9 0.2 -0.3
v 0.9 0.2 -0.4
v 1.3 0 0.3
v 1.3 0 0.2
v 1.3 0 -0.1
v 1.3 0 -0.2
v 1.3 0.1 0.3
v 1.3 0.1 0.2
v 1.3 0.1 -0.1
v 1.3 0.1 -0.2
v 1.4 0.2 0.6
v 1.4 0.2 0.3
v 1.4 0.4 0.6
v 1.4 0.4 0.3
v 1.5 0 0.2
v 1.5 0 0.0999999
v 1.5 0 -0.1
v 1.5 0.1 0.3
v 1.5 0.1 0.2
v 1.5 0.1 -0.1
v 1.5 0.1 -0.3
v 1.5 0.5 0.3
v 1.5 0.5 0.0999999
v 1.5 0.5 -0.1
v 1.5 0.5 -0.3
v 1.6 0.1 1.1
v 1.6 0.1 0.7
v 1.6 0.3 1.1
v 1.6 0.3 1
v 1.6 0.3 0.7
v 1.6 0.4 1.1
v 1.6 0.4 1
v 1.6 0.4 0.7
v 1.7 0.1 1.2
v 1.7 0.1 1.1
v 1.7 0.1 0.7
v 1.7 0.1 0.6
v 1.7 0.4 1.1
v 1.7 0.4 0.7
v 1.7 0.5 1.2
v 1.7 0.5 0.6
v 0.4 0.1 1.2
v 0.4 0.5 1.2
v 0.5 0.2 1.2
v 0.5 0.4 1.2
v 1.6 0.2 1.2
v 1.6 0.4 1.2
v 1.7 0.1 1.2
v 1.7 0.5 1.2
v 0.5 0.2 1.1
v 0.5 0.4 1.1
v 0.6 0.2 1.1
v 0.6 0.3 1.1
v 0.7 0.2 1.1
v 0.7 0.3 1.1
v 0.7 0.4 1.1
v 0.8 0.3 1.1
v 0.8 0.4 1.1
v 0.9 0.2 1.1
v 0.9 0.3 1.1
v 1 0.2 1.1
v 1 0.3 1.1
v 1 0.4 1.1
v 1.1 0.3 1.1
v 1.1 0.4 1.1
v 1.2 0.2 1.1
v 1.2 0.3 1.1
v 1.3 0.2 1.1
v 1.3 0.3 1.1
v 1.3 0.4 1.1
v 1.4 0.3 1.1
v 1.4 0.4 1.1
v 1.5 0.2 1.1
v 1.5 0.3 1.1
v 1.6 0.2 1.1
v 1.6 0.3 1.1
v 1.6 0.4 1.1
v 0.4 0.4 0.7
v 0.4 0.5 0.7
v 0.5 0.4 0.7
v 0.5 0.5 0.7
v 1.6 0.1 0.7
v 1.6 0.3 0.7
v 1.6 0.4 0.7
v 1.7 0.1 0.7
v 1.7 0.4 0.7
v -0.9 0.1 0.4
v -0.9 0.2 0.4
v -0.2 0 0.4
v -0.2 0.1 0.4
v 0.9 0 0.4
v 0.9 0.2 0.4
v -0.9 0.2 0.3
v -0.9 0.3 0.3
v -0.6 0 0.3
v -0.6 0.1 0.3
v -0.2 0 0.3
v -0.2 0.1 0.3
v 0.3 0.3 0.3
v 0.3 0.4 0.3
v 0.9 0 0.3
v 0.9 0.2 0.3
v 1 0.2 0.3
v 1 0.4 0.3
v 1 0.5 0.3
v 1.3 0 0.3
v 1.3 0.1 0.3
v 1.4 0.2 0.3
v 1.4 0.4 0.3
v 1.5 0.1 0.3
v 1.5 0.5 0.3
v -0.9 0.3 0.2
v -0.9 0.4 0.2
v -0.8 0 0.2
v -0.8 0.1 0.2
v -0.6 0 0.2
v -0.6 0.1 0.2
v 0.3 0.3 0.2
v 0.3 0.4 0.2
v 1.3 0 0.2
v 1.3 0.1 0.2
v 1.5 0 0.2
v 1.5 0.1 0.2
v -2 0.1 0.0999999
v -2 0.4 0.0999999
v -1.5 0.1 0.0999999
v -1.5 0.2 0.0999999
v -1.5 0.3 0.0999999
v -1.5 0.4 0.0999999
v -0.9 0.2 0.0999999
v -0.9 0.3 0.0999999
v 0.4 0.4 1.1
v 0.4 0.5 1.1
v 0.5 0.4 1.1
v 0.5 0.5 1.1
v 1.6 0.1 1.1
v 1.6 0.3 1.1
v 1.6 0.4 1.1
v 1.7 0.1 1.1
v 1.7 0.4 1.1
v 0.4 0.1 0.6
v 0.4 0.5 0.6
v 1 0.2 0.6
v 1 0.4 0.6
v 1.4 0.2 0.6
v 1.4 0.4 0.6
v 1.7 0.1 0.6
v 1.7 0.5 0.6
v -2 0.1 -0.1
v -2 0.4 -0.1
v -1.5 0.1 -0.1
v -1.5 0.2 -0.1
v -1.5 0.3 -0.1
v -1.5 0.4 -0.1
v -0.9 0.2 -0.1
v -0.9 0.3 -0.1
v -0.8 0 -0.1
v -0.8 0.1 -0.1
v -0.6 0 -0.1
v -0.6 0.1 -0.1
v 1.3 0 -0.1
v 1.3 0.1 -0.1
v 1.5 0 -0.1
v 1.5 0.1 -0.1
v -0.9 0.3 -0.2
v -0.9 0.4 -0.2
v -0.6 0 -0.2
v -0.6 0.1 -0.2
v -0.2 0 -0.2
v -0.2 0.1 -0.2
v 0.3 0.3 -0.2
v 0.3 0.4 -0.2
v 0.9 0 -0.2
v 0.9 0.1 -0.2
v 1.3 0 -0.2
v 1.3 0.1 -0.2
v -0.9 0.2 -0.3
v -0.9 0.3 -0.3
v -0.2 0 -0.3
v -0.2 0.1 -0.3
v 0.3 0.3 -0.3
v 0.3 0.4 -0.3
v 0.9 0 -0.3
v 0.9 0.1 -0.3
v 0.9 0.2 -0.3
v 1 0.4 -0.3
v 1 0.5 -0.3
v 1.5 0.1 -0.3
v 1.5 0.5 -0.3
v -0.9 0.1 -0.4
v -0.9 0.2 -0.4
v 0.9 0.1 -0.4
v 0.9 0.2 -0.4
v -0.2 0 0.4
v 0.9 0 0.4
v -0.6 0 0.3
v -0.2 0 0.3
v 0.9 0 0.3
v 1.3 0 0.3
v -0.8 0 0.2
v -0.6 0 0.2
v 1.3 0 0.2
v 1.5 0 0.2
v 1 0 0.0999999
v 1.5 0 0.0999999
v -0.8 0 -0.1
v -0.6 0 -0.1
v 1 0 -0.1
v 1.3 0 -0.1
v 1.5 0 -0.1
v -0.6 0 -0.2
v -0.2 0 -0.2
v 0.9 0 -0.2
v 1.3 0 -0.2
v -0.2 0 -0.3
v 0.9 0 -0.3
v 0.4 0.1 1.2
v 1.7 0.1 1.2
v 0.4 0.1 1.1
v 0.6 0.1 1.1
v 0.7 0.1 1.1
v 0.9 0.1 1.1
v 1 0.1 1.1
v 1.2 0.1 1.1
v 1.3 0.1 1.1
v 1.5 0.1 1.1
v 1.6 0.1 1.1
v 1.7 0.1 1.1
v 0.4 0.1 1
v 0.6 0.1 1
v 0.7 0.1 1
v 0.9 0.1 1
v 1 0.1 1
v 1.2 0.1 1
v 1.3 0.1 1
v 1.5 0.1 1
v 0.4 0.1 0.7
v 0.6 0.1 0.7
v 0.7 0.1 0.7
v 0.9 0.1 0.7
v 1 0.1 0.7
v 1.2 0.1 0.7
v 1.3 0.1 0.7
v 1.5 0.1 0.7
v 1.6 0.1 0.7
v 1.7 0.1 0.7
v 0.4 0.1 0.6
v 1.7 0.1 0.6
v -0.9 0.1 0.4
v -0.2 0.1 0.4
v -0.6 0.1 0.3
v -0.2 0.1 0.3
v 1.3 0.1 0.3
v 1.5 0.1 0.3
v -0.8 0.1 0.2
v -0.6 0.1 0.2
v 1.3 0.1 0.2
v 1.5 0.1 0.2
v -2 0.1 0.0999999
v -1.5 0.1 0.0999999
v -2 0.1 -0.1
v -1.5 0.1 -0.1
v -0.8 0.1 -0.1
v -0.6 0.1 -0.1
v 1.3 0.1 -0.1
v 1.5 0.1 -0.1
v -0.6 0.1 -0.2
v -0.2 0.1 -0.2
v 0.9 0.1 -0.2
v 1.3 0.1 -0.2
v -0.2 0.1 -0.3
v 0.9 0.1 -0.3
v 1.5 0.1 -0.3
v -0.9 0.1 -0.4
v 0.9 0.1 -0.4
v 1 0.2 0.6
v 1.4 0.2 0.6
v 1 0.2 0.3
v 1.4 0.2 0.3
v -1.5 0.2 0.0999999
v -0.9 0.2 0.0999999
v -1.5 0.2 -0.1
v -0.9 0.2 -0.1
v 0.5 0.4 1.2
v 1.6 0.4 1.2
v 0.5 0.4 1.1
v 0.7 0.4 1.1
v 0.8 0.4 1.1
v 1 0.4 1.1
v 1.1 0.4 1.1
v 1.3 0.4 1.1
v 1.4 0.4 1.1
v 1.6 0.4 1.1
v 1.7 0.4 1.1
v 1.6 0.4 1
v 1.6 0.4 0.7
v 1.7 0.4 0.7
v 0.5 0.2 1.2
v 1.6 0.2 1.2
v 0.5 0.2 1.1
v 0.6 0.2 1.1
v 0.7 0.2 1.1
v 0.9 0.2 1.1
v 1 0.2 1.1
v 1.2 0.2 1.1
v 1.3 0.2 1.1
v 1.5 0.2 1.1
v 1.6 0.2 1.1
v -0.9 0.2 0.4
v 0.9 0.2 0.4
v -0.9 0.2 0.3
v 0.9 0.2 0.3
v -0.9 0.2 -0.3
v 0.9 0.2 -0.3
v -0.9 0.2 -0.4
v 0.9 0.2 -0.4
v -0.9 0.3 0.3
v 0.3 0.3 0.3
v -0.9 0.3 0.2
v 0.3 0.3 0.2
v -1.5 0.3 0.0999999
v -0.9 0.3 0.0999999
v -1.5 0.3 -0.1
v -0.9 0.3 -0.1
v -0.9 0.3 -0.2
v 0.3 0.3 -0.2
v -0.9 0.3 -0.3
v 0.3 0.3 -0.3
v 0.4 0.4 1.1
v 0.5 0.4 1.1
v 0.5 0.4 1
v 0.4 0.4 0.7
v 0.5 0.4 0.7
v 1 0.4 0.6
v 1.4 0.4 0.6
v 0.3 0.4 0.3
v 1 0.4 0.3
v 1.4 0.4 0.3
v -0.9 0.4 0.2
v 0.3 0.4 0.2
v 0.6 0.4 0.2
v 0.8 0.4 0.2
v -2 0.4 0.0999999
v -1.5 0.4 0.0999999
v 0.8 0.4 0.0999999
v 1 0.4 0.0999999
v -2 0.4 -0.1
v -1.5 0.4 -0.1
v 0.8 0.4 -0.1
v 1 0.4 -0.1
v -0.9 0.4 -0.2
v 0.3 0.4 -0.2
v 0.6 0.4 -0.2
v 0.8 0.4 -0.2
v 0.3 0.4 -0.3
v 1 0.4 -0.3
v 0.4 0.5 1.2
v 1.7 0.5 1.2
v 0.4 0.5 1.1
v 0.5 0.5 1.1
v 0.7 0.5 1.1
v 0.8 0.5 1.1
v 1 0.5 1.1
v 1.1 0.5 1.1
v 1.3 0.5 1.1
v 1.4 0.5 1.1
v 1.6 0.5 1.1
v 0.5 0.5 1
v 0.7 0.5 1
v 0.8 0.5 1
v 1 0.5 1
v 1.1 0.5 1
v 1.3 0.5 1
v 1.4 0.5 1
v 1.6 0.5 1
v 0.4 0.5 0.7
v 0.5 0.5 0.7
v 0.7 0.5 0.7
v 0.8 0.5 0.7
v 1 0.5 0.7
v 1.1 0.5 0.7
v 1.3 0.5 0.7
v 1.4 0.5 0.7
v 1.6 0.5 0.7
v 0.4 0.5 0.6
v 1.7 0.5 0.6
v 1 0.5 0.3
v 1.5 0.5 0.3
v 1 0.5 0.0999999
v 1.5 0.5 0.0999999
v 1 0.5 -0.1
v 1.5 0.5 -0.1
v 1 0.5 -0.3
v 1.5 0.5 -0.3

# faces
f 3/5/1 2/5/1 1/5/1
f 4/5/1 2/5/1 3/5/1
f 7/3/1 6/3/1 5/3/1
f 8/3/1 6/3/1 7/3/1
f 9/3/1 6/3/1 8/3/1
f 10/3/1 6/3/1 9/3/1
f 11/3/1 6/3/1 10/3/1
f 12/3/1 6/3/1 11/3/1
f 13/3/1 9/3/1 8/3/1
f 14/3/1 9/3/1 13/3/1
f 15/3/1 9/3/1 14/3/1
f 16/3/1 11/3/1 10/3/1
f 17/3/1 11/3/1 16/3/1
f 18/3/1 11/3/1 17/3/1
f 19/3/1 15/3/1 14/3/1
f 19/3/1 17/3/1 16/3/1
f 19/3/1 16/3/1 15/3/1
f 20/3/1 17/3/1 19/3/1
f 23/3/1 22/3/1 21/3/1
f 24/3/1 22/3/1 23/3/1
f 29/3/1 26/3/1 25/3/1
f 30/3/1 26/3/1 29/3/1
f 31/3/1 28/3/1 27/3/1
f 32/3/1 28/3/1 31/3/1
f 37/3/1 34/3/1 33/3/1
f 38/3/1 34/3/1 37/3/1
f 39/3/1 36/3/1 35/3/1
f 40/3/1 36/3/1 39/3/1
f 45/3/1 42/3/1 41/3/1
f 46/3/1 42/3/1 45/3/1
f 47/3/1 44/3/1 43/3/1
f 48/3/1 44/3/1 47/3/1
f 54/4/1 50/4/1 49/4/1
f 54/2/1 51/2/1 50/2/1
f 55/1/1 52/1/1 51/1/1
f 55/2/1 51/2/1 54/2/1
f 56/4/1 53/4/1 52/4/1
f 56/1/1 52/1/1 55/1/1
f 57/4/1 55/4/1 54/4/1
f 57/4/1 54/4/1 49/4/1
f 57/4/1 56/4/1 55/4/1
f 58/4/1 53/4/1 56/4/1
f 58/4/1 56/4/1 57/4/1
f 59/4/1 57/4/1 49/4/1
f 60/4/1 57/4/1 59/4/1
f 61/4/1 53/4/1 58/4/1
f 62/4/1 53/4/1 61/4/1
f 66/2/1 64/2/1 63/2/1
f 67/1/1 65/1/1 64/1/1
f 67/2/1 64/2/1 66/2/1
f 68/1/1 65/1/1 67/1/1
f 71/4/1 70/4/1 69/4/1
f 72/4/1 70/4/1 71/4/1
f 76/3/1 73/3/1 72/3/1
f 77/5/1 74/5/1 73/5/1
f 77/3/1 73/3/1 76/3/1
f 78/3/1 75/3/1 74/3/1
f 78/5/1 74/5/1 77/5/1
f 79/3/1 75/3/1 78/3/1
f 82/4/1 81/4/1 80/4/1
f 83/4/1 82/4/1 80/4/1
f 84/4/1 82/4/1 83/4/1
f 85/5/2 86/5/2 87/5/2
f 87/5/2 86/5/2 88/5/2
f 89/5/2 90/5/2 91/5/2
f 91/5/2 90/5/2 92/5/2
f 93/4/2 94/4/2 95/4/2
f 95/4/2 94/4/2 96/4/2
f 99/3/2 100/3/2 101/3/2
f 101/3/2 100/3/2 102/3/2
f 97/3/2 98/3/2 104/3/2
f 104/3/2 98/3/2 105/3/2
f 102/3/2 103/3/2 106/3/2
f 106/3/2 103/3/2 107/3/2
f 108/3/2 109/3/2 112/3/2
f 112/3/2 109/3/2 113/3/2
f 110/3/2 111/3/2 114/3/2
f 114/3/2 111/3/2 115/3/2
f 116/4/2 117/4/2 118/4/2
f 118/4/2 117/4/2 119/4/2
f 120/3/2 121/3/2 124/3/2
f 121/5/2 122/5/2 125/5/2
f 123/3/2 124/3/2 127/3/2
f 124/3/2 121/3/2 128/3/2
f 127/3/2 124/3/2 128/3/2
f 121/5/2 125/5/2 128/5/2
f 125/3/2 126/3/2 129/3/2
f 128/5/2 125/5/2 129/5/2
f 129/3/2 126/3/2 130/3/2
f 131/4/2 132/4/2 133/4/2
f 133/4/2 132/4/2 134/4/2
f 134/4/2 132/4/2 135/4/2
f 133/2/2 134/2/2 136/2/2
f 134/1/2 135/1/2 137/1/2
f 136/2/2 134/2/2 137/2/2
f 137/1/2 135/1/2 138/1/2
f 139/4/2 140/4/2 143/4/2
f 141/4/2 142/4/2 144/4/2
f 139/4/2 143/4/2 145/4/2
f 143/4/2 144/4/2 145/4/2
f 144/4/2 142/4/2 146/4/2
f 145/4/2 144/4/2 146/4/2
f 149/4/3 148/4/3 147/4/3
f 150/4/3 148/4/3 149/4/3
f 151/4/3 149/4/3 147/4/3
f 152/4/3 148/4/3 150/4/3
f 153/4/3 151/4/3 147/4/3
f 153/4/3 152/4/3 151/4/3
f 154/4/3 148/4/3 152/4/3
f 154/4/3 152/4/3 153/4/3
f 157/2/3 156/2/3 155/2/3
f 158/2/3 156/2/3 157/2/3
f 159/4/3 158/4/3 157/4/3
f 160/2/3 156/2/3 158/2/3
f 160/4/3 158/4/3 159/4/3
f 161/2/3 156/2/3 160/2/3
f 162/2/3 160/2/3 159/2/3
f 162/4/3 161/4/3 160/4/3
f 163/4/3 161/4/3 162/4/3
f 164/2/3 162/2/3 159/2/3
f 164/2/3 163/2/3 162/2/3
f 165/2/3 163/2/3 164/2/3
f 166/4/3 165/4/3 164/4/3
f 167/2/3 163/2/3 165/2/3
f 167/4/3 165/4/3 166/4/3
f 168/2/3 163/2/3 167/2/3
f 169/2/3 167/2/3 166/2/3
f 169/4/3 168/4/3 167/4/3
f 170/4/3 168/4/3 169/4/3
f 171/2/3 169/2/3 166/2/3
f 171/2/3 170/2/3 169/2/3
f 172/2/3 170/2/3 171/2/3
f 173/4/3 172/4/3 171/4/3
f 174/2/3 170/2/3 172/2/3
f 174/4/3 172/4/3 173/4/3
f 175/2/3 170/2/3 174/2/3
f 176/2/3 174/2/3 173/2/3
f 176/4/3 175/4/3 174/4/3
f 177/4/3 175/4/3 176/4/3
f 178/2/3 176/2/3 173/2/3
f 178/2/3 177/2/3 176/2/3
f 179/2/3 177/2/3 178/2/3
f 180/4/3 179/4/3 178/4/3
f 181/2/3 177/2/3 179/2/3
f 181/4/3 179/4/3 180/4/3
f 182/2/3 177/2/3 181/2/3
f 185/4/3 184/4/3 183/4/3
f 186/4/3 184/4/3 185/4/3
f 190/4/3 188/4/3 187/4/3
f 190/4/3 189/4/3 188/4/3
f 191/4/3 189/4/3 190/4/3
f 195/3/3 193/3/3 192/3/3
f 196/3/3 195/3/3 194/3/3
f 197/3/3 193/3/3 195/3/3
f 197/3/3 195/3/3 196/3/3
f 202/3/3 201/3/3 200/3/3
f 203/3/3 201/3/3 202/3/3
f 204/3/3 199/3/3 198/3/3
f 207/3/3 204/3/3 198/3/3
f 207/3/3 205/3/3 204/3/3
f 208/3/3 205/3/3 207/3/3
f 208/3/3 207/3/3 206/3/3
f 209/3/3 205/3/3 208/3/3
f 211/3/3 208/3/3 206/3/3
f 212/3/3 208/3/3 211/3/3
f 213/3/3 208/3/3 212/3/3
f 214/3/3 210/3/3 209/3/3
f 215/3/3 213/3/3 212/3/3
f 215/3/3 214/3/3 213/3/3
f 216/3/3 210/3/3 214/3/3
f 216/3/3 214/3/3 215/3/3
f 221/3/3 220/3/3 219/3/3
f 222/3/3 220/3/3 221/3/3
f 223/3/3 218/3/3 217/3/3
f 224/3/3 218/3/3 223/3/3
f 227/3/3 226/3/3 225/3/3
f 228/3/3 226/3/3 227/3/3
f 231/5/3 230/5/3 229/5/3
f 232/5/3 230/5/3 231/5/3
f 233/5/3 230/5/3 232/5/3
f 234/5/3 230/5/3 233/5/3
f 235/3/3 233/3/3 232/3/3
f 236/3/3 233/3/3 235/3/3
f 237/4/4 238/4/4 239/4/4
f 239/4/4 238/4/4 240/4/4
f 241/4/4 242/4/4 244/4/4
f 242/4/4 243/4/4 244/4/4
f 244/4/4 243/4/4 245/4/4
f 246/4/4 247/4/4 248/4/4
f 248/4/4 247/4/4 249/4/4
f 246/4/4 248/4/4 250/4/4
f 249/4/4 247/4/4 251/4/4
f 246/4/4 250/4/4 252/4/4
f 250/4/4 251/4/4 252/4/4
f 251/4/4 247/4/4 253/4/4
f 252/4/4 251/4/4 253/4/4
f 254/5/4 255/5/4 256/5/4
f 256/5/4 255/5/4 257/5/4
f 257/5/4 255/5/4 258/5/4
f 258/5/4 255/5/4 259/5/4
f 257/3/4 258/3/4 260/3/4
f 260/3/4 258/3/4 261/3/4
f 262/3/4 263/3/4 264/3/4
f 264/3/4 263/3/4 265/3/4
f 266/5/4 267/5/4 268/5/4
f 268/5/4 267/5/4 269/5/4
f 272/3/4 273/3/4 274/3/4
f 274/3/4 273/3/4 275/3/4
f 270/3/4 271/3/4 276/3/4
f 276/3/4 271/3/4 277/3/4
f 278/3/4 279/3/4 280/3/4
f 280/3/4 279/3/4 281/3/4
f 282/3/4 283/3/4 286/3/4
f 284/3/4 285/3/4 288/3/4
f 288/3/4 285/3/4 289/3/4
f 286/3/4 287/3/4 290/3/4
f 282/3/4 286/3/4 290/3/4
f 289/3/4 290/3/4 291/3/4
f 290/3/4 287/3/4 291/3/4
f 289/3/4 291/3/4 293/3/4
f 291/3/4 292/3/4 293/3/4
f 293/3/4 292/3/4 294/3/4
f 295/3/4 296/3/4 297/3/4
f 297/3/4 296/3/4 298/3/4
f 302/3/5 300/3/5 299/3/5
f 303/3/5 300/3/5 302/3/5
f 306/3/5 302/3/5 301/3/5
f 306/3/5 304/3/5 303/3/5
f 306/3/5 303/3/5 302/3/5
f 307/3/5 304/3/5 306/3/5
f 309/3/5 306/3/5 305/3/5
f 309/3/5 308/3/5 307/3/5
f 309/3/5 307/3/5 306/3/5
f 310/3/5 308/3/5 309/3/5
f 311/3/5 309/3/5 305/3/5
f 312/3/5 309/3/5 311/3/5
f 313/5/5 310/5/5 309/5/5
f 313/3/5 309/3/5 312/3/5
f 314/5/5 310/5/5 313/5/5
f 315/5/5 310/5/5 314/5/5
f 316/3/5 313/3/5 312/3/5
f 316/3/5 314/3/5 313/3/5
f 317/3/5 314/3/5 316/3/5
f 318/3/5 314/3/5 317/3/5
f 319/3/5 314/3/5 318/3/5
f 320/3/5 318/3/5 317/3/5
f 321/3/5 318/3/5 320/3/5
f 324/4/5 323/4/5 322/4/5
f 325/4/5 323/4/5 324/4/5
f 326/4/5 323/4/5 325/4/5
f 327/4/5 323/4/5 326/4/5
f 328/4/5 323/4/5 327/4/5
f 329/4/5 323/4/5 328/4/5
f 330/4/5 323/4/5 329/4/5
f 331/4/5 323/4/5 330/4/5
f 332/4/5 323/4/5 331/4/5
f 333/4/5 323/4/5 332/4/5
f 334/2/5 325/2/5 324/2/5
f 335/4/5 326/4/5 325/4/5
f 335/2/5 325/2/5 334/2/5
f 336/2/5 327/2/5 326/2/5
f 336/4/5 326/4/5 335/4/5
f 337/4/5 328/4/5 327/4/5
f 337/2/5 327/2/5 336/2/5
f 338/2/5 329/2/5 328/2/5
f 338/4/5 328/4/5 337/4/5
f 339/4/5 330/4/5 329/4/5
f 339/2/5 329/2/5 338/2/5
f 340/2/5 331/2/5 330/2/5
f 340/4/5 330/4/5 339/4/5
f 341/4/5 332/4/5 331/4/5
f 341/2/5 331/2/5 340/2/5
f 342/1/5 335/1/5 334/1/5
f 343/4/5 336/4/5 335/4/5
f 343/1/5 335/1/5 342/1/5
f 344/1/5 337/1/5 336/1/5
f 344/4/5 336/4/5 343/4/5
f 345/4/5 338/4/5 337/4/5
f 345/1/5 337/1/5 344/1/5
f 346/1/5 339/1/5 338/1/5
f 346/4/5 338/4/5 345/4/5
f 347/4/5 340/4/5 339/4/5
f 347/1/5 339/1/5 346/1/5
f 348/1/5 341/1/5 340/1/5
f 348/4/5 340/4/5 347/4/5
f 349/4/5 332/4/5 341/4/5
f 349/1/5 341/1/5 348/1/5
f 350/4/5 332/4/5 349/4/5
f 352/4/5 348/4/5 347/4/5
f 352/4/5 351/4/5 350/4/5
f 352/4/5 350/4/5 349/4/5
f 352/4/5 349/4/5 348/4/5
f 352/4/5 347/4/5 346/4/5
f 352/4/5 346/4/5 345/4/5
f 352/4/5 345/4/5 344/4/5
f 352/4/5 344/4/5 343/4/5
f 352/4/5 343/4/5 342/4/5
f 353/4/5 351/4/5 352/4/5
f 356/3/5 355/3/5 354/3/5
f 357/3/5 355/3/5 356/3/5
f 360/3/5 356/3/5 354/3/5
f 361/3/5 356/3/5 360/3/5
f 362/3/5 359/3/5 358/3/5
f 363/3/5 359/3/5 362/3/5
f 366/5/5 365/5/5 364/5/5
f 367/5/5 365/5/5 366/5/5
f 368/3/5 360/3/5 354/3/5
f 372/3/5 369/3/5 368/3/5
f 375/3/5 371/3/5 370/3/5
f 376/3/5 373/3/5 372/3/5
f 377/3/5 375/3/5 374/3/5
f 378/3/5 371/3/5 375/3/5
f 378/3/5 375/3/5 377/3/5
f 379/3/5 376/3/5 372/3/5
f 379/3/5 368/3/5 354/3/5
f 379/3/5 372/3/5 368/3/5
f 379/3/5 377/3/5 376/3/5
f 380/3/5 377/3/5 379/3/5
f 383/4/5 382/4/5 381/4/5
f 384/4/5 382/4/5 383/4/5
f 387/3/5 386/3/5 385/3/5
f 388/3/5 386/3/5 387/3/5
f 391/4/5 390/4/5 389/4/5
f 392/4/5 390/4/5 391/4/5
f 393/4/5 390/4/5 392/4/5
f 394/4/5 390/4/5 393/4/5
f 395/4/5 390/4/5 394/4/5
f 396/4/5 390/4/5 395/4/5
f 397/4/5 390/4/5 396/4/5
f 398/4/5 390/4/5 397/4/5
f 400/4/5 399/4/5 398/4/5
f 401/4/5 399/4/5 400/4/5
f 402/4/5 399/4/5 401/4/5
f 403/4/6 404/4/6 405/4/6
f 405/4/6 404/4/6 406/4/6
f 406/4/6 404/4/6 407/4/6
f 407/4/6 404/4/6 408/4/6
f 408/4/6 404/4/6 409/4/6
f 409/4/6 404/4/6 410/4/6
f 410/4/6 404/4/6 411/4/6
f 411/4/6 404/4/6 412/4/6
f 412/4/6 404/4/6 413/4/6
f 414/3/6 415/3/6 416/3/6
f 416/3/6 415/3/6 417/3/6
f 418/3/6 419/3/6 420/3/6
f 420/3/6 419/3/6 421/3/6
f 422/3/6 423/3/6 424/3/6
f 424/3/6 423/3/6 425/3/6
f 426/3/6 427/3/6 428/3/6
f 428/3/6 427/3/6 429/3/6
f 430/3/6 431/3/6 432/3/6
f 432/3/6 431/3/6 433/3/6
f 434/4/6 435/4/6 436/4/6
f 434/4/6 436/4/6 437/4/6
f 437/4/6 436/4/6 438/4/6
f 439/4/6 440/4/6 442/4/6
f 442/4/6 440/4/6 443/4/6
f 441/3/6 442/3/6 445/3/6
f 445/3/6 442/3/6 446/3/6
f 446/3/6 442/3/6 447/3/6
f 446/5/6 447/5/6 450/5/6
f 447/3/6 442/3/6 450/3/6
f 450/3/6 442/3/6 451/3/6
f 448/5/6 449/5/6 452/5/6
f 452/5/6 449/5/6 453/5/6
f 446/5/6 450/5/6 454/5/6
f 450/5/6 451/5/6 454/5/6
f 454/5/6 451/5/6 455/5/6
f 444/3/6 445/3/6 456/3/6
f 445/3/6 446/3/6 456/3/6
f 456/3/6 446/3/6 457/3/6
f 446/5/6 454/5/6 458/5/6
f 457/3/6 446/3/6 458/3/6
f 454/3/6 455/3/6 459/3/6
f 458/5/6 454/5/6 459/5/6
f 457/3/6 458/3/6 460/3/6
f 458/3/6 459/3/6 460/3/6
f 459/3/6 455/3/6 461/3/6
f 460/3/6 459/3/6 461/3/6
f 462/4/6 463/4/6 464/4/6
f 464/4/6 463/4/6 465/4/6
f 465/4/6 463/4/6 466/4/6
f 466/4/6 463/4/6 467/4/6
f 467/4/6 463/4/6 468/4/6
f 468/4/6 463/4/6 469/4/6
f 469/4/6 463/4/6 470/4/6
f 470/4/6 463/4/6 471/4/6
f 471/4/6 463/4/6 472/4/6
f 465/2/6 466/2/6 473/2/6
f 466/4/6 467/4/6 474/4/6
f 473/2/6 466/2/6 474/2/6
f 467/2/6 468/2/6 475/2/6
f 474/4/6 467/4/6 475/4/6
f 468/4/6 469/4/6 476/4/6
f 475/2/6 468/2/6 476/2/6
f 469/2/6 470/2/6 477/2/6
f 476/4/6 469/4/6 477/4/6
f 470/4/6 471/4/6 478/4/6
f 477/2/6 470/2/6 478/2/6
f 471/2/6 472/2/6 479/2/6
f 478/4/6 471/4/6 479/4/6
f 472/4/6 463/4/6 480/4/6
f 479/2/6 472/2/6 480/2/6
f 473/1/6 474/1/6 482/1/6
f 474/4/6 475/4/6 483/4/6
f 482/1/6 474/1/6 483/1/6
f 475/1/6 476/1/6 484/1/6
f 483/4/6 475/4/6 484/4/6
f 476/4/6 477/4/6 485/4/6
f 484/1/6 476/1/6 485/1/6
f 477/1/6 478/1/6 486/1/6
f 485/4/6 477/4/6 486/4/6
f 478/4/6 479/4/6 487/4/6
f 486/1/6 478/1/6 487/1/6
f 479/1/6 480/1/6 488/1/6
f 487/4/6 479/4/6 488/4/6
f 480/4/6 463/4/6 489/4/6
f 488/1/6 480/1/6 489/1/6
f 485/4/6 486/4/6 490/4/6
f 484/4/6 485/4/6 490/4/6
f 488/4/6 489/4/6 490/4/6
f 487/4/6 488/4/6 490/4/6
f 486/4/6 487/4/6 490/4/6
f 483/4/6 484/4/6 490/4/6
f 482/4/6 483/4/6 490/4/6
f 481/4/6 482/4/6 490/4/6
f 489/4/6 463/4/6 491/4/6
f 490/4/6 489/4/6 491/4/6
f 492/3/6 493/3/6 494/3/6
f 494/3/6 493/3/6 495/3/6
f 494/5/6 495/5/6 496/5/6
f 496/5/6 495/5/6 497/5/6
f 496/3/6 497/3/6 498/3/6
f 498/3/6 497/3/6 499/3/6
