# MagicaVoxel @ Ephtracy

# group
o 

# material
mtllib MiniPanel-3.mtl
usemtl palette

# normals
vn -1 0 0
vn 1 0 0
vn 0 0 1
vn 0 0 -1
vn 0 -1 0
vn 0 1 0

# texcoords
vt 0.103516 0.5
vt 0.130859 0.5
vt 0.560547 0.5

# verts
v -0.5 0 0
v -0.5 0 -0.1
v -0.5 0.2 0
v -0.5 0.2 -0.1
v -0.5 0.4 0
v -0.5 0.4 -0.1
v -0.5 0.8 0
v -0.5 0.8 -0.1
v -0.5 0.9 0
v -0.5 0.9 -0.1
v -0.4 0.3 0
v -0.4 0.3 -0.1
v -0.4 0.4 0.1
v -0.4 0.4 0
v -0.4 0.4 -0.1
v -0.4 0.4 -0.2
v -0.4 0.5 0.1
v -0.4 0.5 0
v -0.4 0.5 -0.1
v -0.4 0.5 -0.2
v -0.4 0.8 0.1
v -0.4 0.8 0
v -0.4 0.8 -0.1
v -0.4 0.8 -0.2
v -0.4 0.9 0
v -0.4 0.9 -0.1
v -0.4 1 0
v -0.4 1 -0.1
v -0.3 0.5 0.2
v -0.3 0.5 0.1
v -0.3 0.5 -0.2
v -0.3 0.5 -0.3
v -0.3 0.8 0.2
v -0.3 0.8 0.1
v -0.3 0.8 0
v -0.3 0.8 -0.1
v -0.3 0.8 -0.2
v -0.3 0.8 -0.3
v -0.3 0.9 0.1
v -0.3 0.9 0
v -0.3 0.9 -0.1
v -0.3 0.9 -0.2
v -0.2 0.1 0
v -0.2 0.1 -0.1
v -0.2 0.2 0
v -0.2 0.2 -0.1
v -0.1 0 0
v -0.1 0 -0.1
v -0.1 0.1 0.1
v -0.1 0.1 0
v -0.1 0.1 -0.1
v -0.1 0.1 -0.2
v -0.1 0.2 0.2
v -0.1 0.2 0.1
v -0.1 0.2 0
v -0.1 0.2 -0.1
v -0.1 0.2 -0.2
v -0.1 0.2 -0.3
v -0.1 0.4 0.2
v -0.1 0.4 0.1
v -0.1 0.4 -0.2
v -0.1 0.4 -0.3
v 0 0.4 0.2
v 0 0.4 0.1
v 0 0.4 -0.2
v 0 0.4 -0.3
v 0 0.6 0.2
v 0 0.6 0.1
v 0 0.6 -0.2
v 0 0.6 -0.3
v 0.1 0.6 0.2
v 0.1 0.6 0.1
v 0.1 0.6 -0.2
v 0.1 0.6 -0.3
v 0.1 0.7 0.2
v 0.1 0.7 0.1
v 0.1 0.7 0
v 0.1 0.7 -0.1
v 0.1 0.7 -0.2
v 0.1 0.7 -0.3
v 0.1 0.8 0
v 0.1 0.8 -0.1
v 0.1 0.9 0
v 0.1 0.9 -0.1
v 0.2 0.7 0.2
v 0.2 0.7 0.1
v 0.2 0.7 0
v 0.2 0.7 -0.1
v 0.2 0.7 -0.2
v 0.2 0.7 -0.3
v 0.2 0.8 0.2
v 0.2 0.8 0.1
v 0.2 0.8 0
v 0.2 0.8 -0.1
v 0.2 0.8 -0.2
v 0.2 0.8 -0.3
v 0.2 0.9 0
v 0.2 0.9 -0.1
v 0.2 1 0
v 0.2 1 -0.1
v 0.3 0.8 0
v 0.3 0.8 -0.1
v 0.3 0.9 0
v 0.3 0.9 -0.1
v -0.4 0.1 0
v -0.4 0.1 -0.1
v -0.4 0.2 0
v -0.4 0.2 -0.1
v -0.3 0 0
v -0.3 0 -0.1
v -0.3 0.1 0
v -0.3 0.1 -0.1
v -0.3 0.3 0
v -0.3 0.3 -0.1
v -0.3 0.4 0.1
v -0.3 0.4 0
v -0.3 0.4 -0.1
v -0.3 0.4 -0.2
v -0.3 0.5 0.1
v -0.3 0.5 -0.2
v -0.2 0.5 0.2
v -0.2 0.5 0.1
v -0.2 0.5 -0.2
v -0.2 0.5 -0.3
v -0.2 0.6 0.2
v -0.2 0.6 0.1
v -0.2 0.6 -0.2
v -0.2 0.6 -0.3
v -0.2 0.7 0.2
v -0.2 0.7 0.1
v -0.2 0.7 -0.2
v -0.2 0.7 -0.3
v -0.2 0.8 0.2
v -0.2 0.8 0.1
v -0.2 0.8 0
v -0.2 0.8 -0.1
v -0.2 0.8 -0.2
v -0.2 0.8 -0.3
v -0.2 0.9 0.1
v -0.2 0.9 0
v -0.2 0.9 -0.1
v -0.2 0.9 -0.2
v -0.2 1 0
v -0.2 1 -0.1
v -0.1 0.6 0.2
v -0.1 0.6 0.1
v -0.1 0.6 -0.2
v -0.1 0.6 -0.3
v -0.1 0.7 0.2
v -0.1 0.7 0.1
v -0.1 0.7 0
v -0.1 0.7 -0.1
v -0.1 0.7 -0.2
v -0.1 0.7 -0.3
v -0.1 0.8 0.1
v -0.1 0.8 0
v -0.1 0.8 -0.1
v -0.1 0.8 -0.2
v -0.1 0.9 0
v -0.1 0.9 -0.1
v 0 0.6 0.1
v 0 0.6 -0.2
v 0 0.7 0.1
v 0 0.7 0
v 0 0.7 -0.1
v 0 0.7 -0.2
v 0.1 0 0
v 0.1 0 -0.1
v 0.1 0.1 0.1
v 0.1 0.1 0
v 0.1 0.1 -0.1
v 0.1 0.1 -0.2
v 0.1 0.2 0.2
v 0.1 0.2 0.1
v 0.1 0.2 0
v 0.1 0.2 -0.1
v 0.1 0.2 -0.2
v 0.1 0.2 -0.3
v 0.1 0.3 0.2
v 0.1 0.3 0.1
v 0.1 0.3 -0.2
v 0.1 0.3 -0.3
v 0.1 0.7 0
v 0.1 0.7 -0.1
v 0.1 0.8 0
v 0.1 0.8 -0.1
v 0.2 0.1 0
v 0.2 0.1 -0.1
v 0.2 0.2 0.1
v 0.2 0.2 0
v 0.2 0.2 -0.1
v 0.2 0.2 -0.2
v 0.2 0.3 0.2
v 0.2 0.3 0.1
v 0.2 0.3 0
v 0.2 0.3 -0.1
v 0.2 0.3 -0.2
v 0.2 0.3 -0.3
v 0.2 0.4 0.2
v 0.2 0.4 0.1
v 0.2 0.4 -0.2
v 0.2 0.4 -0.3
v 0.2 0.8 0
v 0.2 0.8 -0.1
v 0.2 0.9 0
v 0.2 0.9 -0.1
v 0.3 0.2 0
v 0.3 0.2 -0.1
v 0.3 0.3 0.1
v 0.3 0.3 0
v 0.3 0.3 -0.1
v 0.3 0.3 -0.2
v 0.3 0.4 0.2
v 0.3 0.4 0.1
v 0.3 0.4 0
v 0.3 0.4 -0.1
v 0.3 0.4 -0.2
v 0.3 0.4 -0.3
v 0.3 0.8 0.2
v 0.3 0.8 0.1
v 0.3 0.8 -0.2
v 0.3 0.8 -0.3
v 0.4 0.3 0
v 0.4 0.3 -0.1
v 0.4 0.4 0.1
v 0.4 0.4 0
v 0.4 0.4 -0.1
v 0.4 0.4 -0.2
v 0.4 0.8 0.1
v 0.4 0.8 0
v 0.4 0.8 -0.1
v 0.4 0.8 -0.2
v 0.4 0.9 0
v 0.4 0.9 -0.1
v 0.4 1 0
v 0.4 1 -0.1
v 0.5 0.4 0
v 0.5 0.4 -0.1
v 0.5 0.8 0
v 0.5 0.8 -0.1
v 0.5 0.9 0
v 0.5 0.9 -0.1
v -0.3 0.5 0.2
v -0.3 0.8 0.2
v -0.2 0.5 0.2
v -0.2 0.6 0.2
v -0.2 0.7 0.2
v -0.2 0.8 0.2
v -0.1 0.2 0.2
v -0.1 0.4 0.2
v -0.1 0.6 0.2
v -0.1 0.7 0.2
v 0 0.4 0.2
v 0 0.6 0.2
v 0.1 0.2 0.2
v 0.1 0.3 0.2
v 0.1 0.6 0.2
v 0.1 0.7 0.2
v 0.2 0.3 0.2
v 0.2 0.4 0.2
v 0.2 0.7 0.2
v 0.2 0.8 0.2
v 0.3 0.4 0.2
v 0.3 0.8 0.2
v -0.4 0.4 0.1
v -0.4 0.5 0.1
v -0.4 0.8 0.1
v -0.3 0.4 0.1
v -0.3 0.5 0.1
v -0.3 0.8 0.1
v -0.3 0.9 0.1
v -0.2 0.7 0.1
v -0.2 0.8 0.1
v -0.2 0.9 0.1
v -0.1 0.1 0.1
v -0.1 0.2 0.1
v -0.1 0.6 0.1
v -0.1 0.7 0.1
v -0.1 0.8 0.1
v 0 0.1 0.1
v 0 0.2 0.1
v 0 0.6 0.1
v 0 0.7 0.1
v 0.1 0.1 0.1
v 0.1 0.2 0.1
v 0.1 0.3 0.1
v 0.2 0.2 0.1
v 0.2 0.3 0.1
v 0.2 0.4 0.1
v 0.3 0.3 0.1
v 0.3 0.4 0.1
v 0.3 0.8 0.1
v 0.4 0.4 0.1
v 0.4 0.8 0.1
v -0.5 0 0
v -0.5 0.2 0
v -0.5 0.4 0
v -0.5 0.8 0
v -0.5 0.9 0
v -0.4 0.1 0
v -0.4 0.2 0
v -0.4 0.3 0
v -0.4 0.4 0
v -0.4 0.5 0
v -0.4 0.8 0
v -0.4 0.9 0
v -0.4 1 0
v -0.3 0 0
v -0.3 0.1 0
v -0.3 0.3 0
v -0.3 0.4 0
v -0.3 0.8 0
v -0.3 0.9 0
v -0.3 1 0
v -0.2 0.1 0
v -0.2 0.2 0
v -0.2 0.8 0
v -0.2 0.9 0
v -0.2 1 0
v -0.1 0 0
v -0.1 0.1 0
v -0.1 0.2 0
v -0.1 0.7 0
v -0.1 0.8 0
v -0.1 0.9 0
v 0 0.1 0
v 0 0.7 0
v 0.1 0 0
v 0.1 0.1 0
v 0.1 0.2 0
v 0.1 0.7 0
v 0.1 0.8 0
v 0.1 0.9 0
v 0.2 0.1 0
v 0.2 0.2 0
v 0.2 0.3 0
v 0.2 0.8 0
v 0.2 0.9 0
v 0.2 1 0
v 0.3 0.2 0
v 0.3 0.3 0
v 0.3 0.4 0
v 0.3 0.8 0
v 0.3 0.9 0
v 0.3 1 0
v 0.4 0.3 0
v 0.4 0.4 0
v 0.4 0.8 0
v 0.4 0.9 0
v 0.4 1 0
v 0.5 0.4 0
v 0.5 0.8 0
v 0.5 0.9 0
v -0.5 0 -0.1
v -0.5 0.2 -0.1
v -0.5 0.4 -0.1
v -0.5 0.8 -0.1
v -0.5 0.9 -0.1
v -0.4 0.1 -0.1
v -0.4 0.2 -0.1
v -0.4 0.3 -0.1
v -0.4 0.4 -0.1
v -0.4 0.5 -0.1
v -0.4 0.8 -0.1
v -0.4 0.9 -0.1
v -0.4 1 -0.1
v -0.3 0 -0.1
v -0.3 0.1 -0.1
v -0.3 0.3 -0.1
v -0.3 0.4 -0.1
v -0.3 0.8 -0.1
v -0.3 0.9 -0.1
v -0.3 1 -0.1
v -0.2 0.1 -0.1
v -0.2 0.2 -0.1
v -0.2 0.8 -0.1
v -0.2 0.9 -0.1
v -0.2 1 -0.1
v -0.1 0 -0.1
v -0.1 0.1 -0.1
v -0.1 0.2 -0.1
v -0.1 0.7 -0.1
v -0.1 0.8 -0.1
v -0.1 0.9 -0.1
v 0 0.1 -0.1
v 0 0.7 -0.1
v 0.1 0 -0.1
v 0.1 0.1 -0.1
v 0.1 0.2 -0.1
v 0.1 0.7 -0.1
v 0.1 0.8 -0.1
v 0.1 0.9 -0.1
v 0.2 0.1 -0.1
v 0.2 0.2 -0.1
v 0.2 0.3 -0.1
v 0.2 0.8 -0.1
v 0.2 0.9 -0.1
v 0.2 1 -0.1
v 0.3 0.2 -0.1
v 0.3 0.3 -0.1
v 0.3 0.4 -0.1
v 0.3 0.8 -0.1
v 0.3 0.9 -0.1
v 0.3 1 -0.1
v 0.4 0.3 -0.1
v 0.4 0.4 -0.1
v 0.4 0.8 -0.1
v 0.4 0.9 -0.1
v 0.4 1 -0.1
v 0.5 0.4 -0.1
v 0.5 0.8 -0.1
v 0.5 0.9 -0.1
v -0.4 0.4 -0.2
v -0.4 0.5 -0.2
v -0.4 0.8 -0.2
v -0.3 0.4 -0.2
v -0.3 0.5 -0.2
v -0.3 0.8 -0.2
v -0.3 0.9 -0.2
v -0.2 0.7 -0.2
v -0.2 0.8 -0.2
v -0.2 0.9 -0.2
v -0.1 0.1 -0.2
v -0.1 0.2 -0.2
v -0.1 0.6 -0.2
v -0.1 0.7 -0.2
v -0.1 0.8 -0.2
v 0 0.1 -0.2
v 0 0.2 -0.2
v 0 0.6 -0.2
v 0 0.7 -0.2
v 0.1 0.1 -0.2
v 0.1 0.2 -0.2
v 0.1 0.3 -0.2
v 0.2 0.2 -0.2
v 0.2 0.3 -0.2
v 0.2 0.4 -0.2
v 0.3 0.3 -0.2
v 0.3 0.4 -0.2
v 0.3 0.8 -0.2
v 0.4 0.4 -0.2
v 0.4 0.8 -0.2
v -0.3 0.5 -0.3
v -0.3 0.8 -0.3
v -0.2 0.5 -0.3
v -0.2 0.6 -0.3
v -0.2 0.7 -0.3
v -0.2 0.8 -0.3
v -0.1 0.2 -0.3
v -0.1 0.4 -0.3
v -0.1 0.6 -0.3
v -0.1 0.7 -0.3
v 0 0.4 -0.3
v 0 0.6 -0.3
v 0.1 0.2 -0.3
v 0.1 0.3 -0.3
v 0.1 0.6 -0.3
v 0.1 0.7 -0.3
v 0.2 0.3 -0.3
v 0.2 0.4 -0.3
v 0.2 0.7 -0.3
v 0.2 0.8 -0.3
v 0.3 0.4 -0.3
v 0.3 0.8 -0.3
v -0.5 0 0
v -0.3 0 0
v -0.1 0 0
v 0.1 0 0
v -0.5 0 -0.1
v -0.3 0 -0.1
v -0.1 0 -0.1
v 0.1 0 -0.1
v -0.1 0.1 0.1
v 0 0.1 0.1
v 0.1 0.1 0.1
v -0.2 0.1 0
v -0.1 0.1 0
v 0 0.1 0
v 0.1 0.1 0
v 0.2 0.1 0
v -0.2 0.1 -0.1
v -0.1 0.1 -0.1
v 0 0.1 -0.1
v 0.1 0.1 -0.1
v 0.2 0.1 -0.1
v -0.1 0.1 -0.2
v 0 0.1 -0.2
v 0.1 0.1 -0.2
v -0.1 0.2 0.2
v 0.1 0.2 0.2
v -0.1 0.2 0.1
v 0 0.2 0.1
v 0.1 0.2 0.1
v 0.2 0.2 0.1
v 0.1 0.2 0
v 0.2 0.2 0
v 0.3 0.2 0
v 0.1 0.2 -0.1
v 0.2 0.2 -0.1
v 0.3 0.2 -0.1
v -0.1 0.2 -0.2
v 0 0.2 -0.2
v 0.1 0.2 -0.2
v 0.2 0.2 -0.2
v -0.1 0.2 -0.3
v 0.1 0.2 -0.3
v 0.1 0.3 0.2
v 0.2 0.3 0.2
v 0.1 0.3 0.1
v 0.2 0.3 0.1
v 0.3 0.3 0.1
v -0.4 0.3 0
v -0.3 0.3 0
v 0.2 0.3 0
v 0.3 0.3 0
v 0.4 0.3 0
v -0.4 0.3 -0.1
v -0.3 0.3 -0.1
v 0.2 0.3 -0.1
v 0.3 0.3 -0.1
v 0.4 0.3 -0.1
v 0.1 0.3 -0.2
v 0.2 0.3 -0.2
v 0.3 0.3 -0.2
v 0.1 0.3 -0.3
v 0.2 0.3 -0.3
v 0.2 0.4 0.2
v 0.3 0.4 0.2
v -0.4 0.4 0.1
v -0.3 0.4 0.1
v 0.2 0.4 0.1
v 0.3 0.4 0.1
v 0.4 0.4 0.1
v -0.5 0.4 0
v -0.4 0.4 0
v -0.3 0.4 0
v 0.3 0.4 0
v 0.4 0.4 0
v 0.5 0.4 0
v -0.5 0.4 -0.1
v -0.4 0.4 -0.1
v -0.3 0.4 -0.1
v 0.3 0.4 -0.1
v 0.4 0.4 -0.1
v 0.5 0.4 -0.1
v -0.4 0.4 -0.2
v -0.3 0.4 -0.2
v 0.2 0.4 -0.2
v 0.3 0.4 -0.2
v 0.4 0.4 -0.2
v 0.2 0.4 -0.3
v 0.3 0.4 -0.3
v -0.3 0.5 0.2
v -0.2 0.5 0.2
v -0.3 0.5 0.1
v -0.2 0.5 0.1
v -0.3 0.5 -0.2
v -0.2 0.5 -0.2
v -0.3 0.5 -0.3
v -0.2 0.5 -0.3
v -0.2 0.6 0.2
v -0.1 0.6 0.2
v -0.2 0.6 0.1
v -0.1 0.6 0.1
v 0 0.6 0.1
v -0.2 0.6 -0.2
v -0.1 0.6 -0.2
v 0 0.6 -0.2
v -0.2 0.6 -0.3
v -0.1 0.6 -0.3
v 0 0.7 0
v 0.1 0.7 0
v 0 0.7 -0.1
v 0.1 0.7 -0.1
v 0.1 0.8 0
v 0.2 0.8 0
v 0.1 0.8 -0.1
v 0.2 0.8 -0.1
v 0.2 0.9 0
v 0.3 0.9 0
v 0.2 0.9 -0.1
v 0.3 0.9 -0.1
v -0.4 0.1 0
v -0.3 0.1 0
v -0.4 0.1 -0.1
v -0.3 0.1 -0.1
v -0.5 0.2 0
v -0.4 0.2 0
v -0.2 0.2 0
v -0.1 0.2 0
v -0.5 0.2 -0.1
v -0.4 0.2 -0.1
v -0.2 0.2 -0.1
v -0.1 0.2 -0.1
v -0.1 0.4 0.2
v 0 0.4 0.2
v -0.1 0.4 0.1
v 0 0.4 0.1
v -0.1 0.4 -0.2
v 0 0.4 -0.2
v -0.1 0.4 -0.3
v 0 0.4 -0.3
v 0 0.6 0.2
v 0.1 0.6 0.2
v 0 0.6 0.1
v 0.1 0.6 0.1
v 0 0.6 -0.2
v 0.1 0.6 -0.2
v 0 0.6 -0.3
v 0.1 0.6 -0.3
v -0.2 0.7 0.2
v -0.1 0.7 0.2
v 0.1 0.7 0.2
v 0.2 0.7 0.2
v -0.2 0.7 0.1
v -0.1 0.7 0.1
v 0 0.7 0.1
v 0.1 0.7 0.1
v 0.2 0.7 0.1
v -0.1 0.7 0
v 0 0.7 0
v 0.1 0.7 0
v 0.2 0.7 0
v -0.1 0.7 -0.1
v 0 0.7 -0.1
v 0.1 0.7 -0.1
v 0.2 0.7 -0.1
v -0.2 0.7 -0.2
v -0.1 0.7 -0.2
v 0 0.7 -0.2
v 0.1 0.7 -0.2
v 0.2 0.7 -0.2
v -0.2 0.7 -0.3
v -0.1 0.7 -0.3
v 0.1 0.7 -0.3
v 0.2 0.7 -0.3
v -0.3 0.8 0.2
v -0.2 0.8 0.2
v 0.2 0.8 0.2
v 0.3 0.8 0.2
v -0.4 0.8 0.1
v -0.3 0.8 0.1
v -0.2 0.8 0.1
v -0.1 0.8 0.1
v 0.2 0.8 0.1
v 0.3 0.8 0.1
v 0.4 0.8 0.1
v -0.4 0.8 0
v -0.3 0.8 0
v -0.2 0.8 0
v -0.1 0.8 0
v 0.1 0.8 0
v 0.2 0.8 0
v 0.3 0.8 0
v 0.4 0.8 0
v -0.4 0.8 -0.1
v -0.3 0.8 -0.1
v -0.2 0.8 -0.1
v -0.1 0.8 -0.1
v 0.1 0.8 -0.1
v 0.2 0.8 -0.1
v 0.3 0.8 -0.1
v 0.4 0.8 -0.1
v -0.4 0.8 -0.2
v -0.3 0.8 -0.2
v -0.2 0.8 -0.2
v -0.1 0.8 -0.2
v 0.2 0.8 -0.2
v 0.3 0.8 -0.2
v 0.4 0.8 -0.2
v -0.3 0.8 -0.3
v -0.2 0.8 -0.3
v 0.2 0.8 -0.3
v 0.3 0.8 -0.3
v -0.3 0.9 0.1
v -0.2 0.9 0.1
v -0.5 0.9 0
v -0.4 0.9 0
v -0.3 0.9 0
v -0.2 0.9 0
v -0.1 0.9 0
v 0.1 0.9 0
v 0.2 0.9 0
v 0.4 0.9 0
v 0.5 0.9 0
v -0.5 0.9 -0.1
v -0.4 0.9 -0.1
v -0.3 0.9 -0.1
v -0.2 0.9 -0.1
v -0.1 0.9 -0.1
v 0.1 0.9 -0.1
v 0.2 0.9 -0.1
v 0.4 0.9 -0.1
v 0.5 0.9 -0.1
v -0.3 0.9 -0.2
v -0.2 0.9 -0.2
v -0.4 1 0
v -0.3 1 0
v -0.2 1 0
v 0.2 1 0
v 0.3 1 0
v 0.4 1 0
v -0.4 1 -0.1
v -0.3 1 -0.1
v -0.2 1 -0.1
v 0.2 1 -0.1
v 0.3 1 -0.1
v 0.4 1 -0.1

# faces
f 3/3/1 2/3/1 1/3/1
f 4/3/1 2/3/1 3/3/1
f 7/2/1 6/2/1 5/2/1
f 8/2/1 6/2/1 7/2/1
f 9/1/1 8/1/1 7/1/1
f 10/1/1 8/1/1 9/1/1
f 14/3/1 12/3/1 11/3/1
f 15/3/1 12/3/1 14/3/1
f 17/3/1 14/3/1 13/3/1
f 18/3/1 14/3/1 17/3/1
f 19/3/1 16/3/1 15/3/1
f 20/3/1 16/3/1 19/3/1
f 21/1/1 18/1/1 17/1/1
f 22/1/1 18/1/1 21/1/1
f 23/1/1 20/1/1 19/1/1
f 24/1/1 20/1/1 23/1/1
f 27/1/1 26/1/1 25/1/1
f 28/1/1 26/1/1 27/1/1
f 33/2/1 30/2/1 29/2/1
f 34/2/1 30/2/1 33/2/1
f 37/2/1 32/2/1 31/2/1
f 38/2/1 32/2/1 37/2/1
f 39/1/1 35/1/1 34/1/1
f 40/1/1 35/1/1 39/1/1
f 41/1/1 37/1/1 36/1/1
f 42/1/1 37/1/1 41/1/1
f 45/3/1 44/3/1 43/3/1
f 46/3/1 44/3/1 45/3/1
f 50/2/1 48/2/1 47/2/1
f 51/2/1 48/2/1 50/2/1
f 54/3/1 50/3/1 49/3/1
f 55/3/1 50/3/1 54/3/1
f 56/3/1 52/3/1 51/3/1
f 57/3/1 52/3/1 56/3/1
f 59/2/1 54/2/1 53/2/1
f 60/3/1 55/3/1 54/3/1
f 60/2/1 54/2/1 59/2/1
f 60/3/1 56/3/1 55/3/1
f 60/3/1 57/3/1 56/3/1
f 61/2/1 58/2/1 57/2/1
f 61/3/1 57/3/1 60/3/1
f 62/2/1 58/2/1 61/2/1
f 67/2/1 64/2/1 63/2/1
f 68/3/1 65/3/1 64/3/1
f 68/2/1 64/2/1 67/2/1
f 69/2/1 66/2/1 65/2/1
f 69/3/1 65/3/1 68/3/1
f 70/2/1 66/2/1 69/2/1
f 75/2/1 72/2/1 71/2/1
f 76/3/1 73/3/1 72/3/1
f 76/2/1 72/2/1 75/2/1
f 77/3/1 73/3/1 76/3/1
f 78/3/1 73/3/1 77/3/1
f 79/2/1 74/2/1 73/2/1
f 79/3/1 73/3/1 78/3/1
f 80/2/1 74/2/1 79/2/1
f 83/2/1 82/2/1 81/2/1
f 84/2/1 82/2/1 83/2/1
f 91/2/1 86/2/1 85/2/1
f 92/1/1 87/1/1 86/1/1
f 92/2/1 86/2/1 91/2/1
f 93/3/1 88/3/1 87/3/1
f 93/1/1 87/1/1 92/1/1
f 94/1/1 89/1/1 88/1/1
f 94/3/1 88/3/1 93/3/1
f 95/2/1 90/2/1 89/2/1
f 95/1/1 89/1/1 94/1/1
f 96/2/1 90/2/1 95/2/1
f 99/2/1 98/2/1 97/2/1
f 100/2/1 98/2/1 99/2/1
f 103/2/1 102/2/1 101/2/1
f 104/2/1 102/2/1 103/2/1
f 105/3/2 106/3/2 107/3/2
f 107/3/2 106/3/2 108/3/2
f 109/3/2 110/3/2 111/3/2
f 111/3/2 110/3/2 112/3/2
f 113/3/2 114/3/2 116/3/2
f 116/3/2 114/3/2 117/3/2
f 116/3/2 117/3/2 119/3/2
f 117/3/2 118/3/2 119/3/2
f 115/3/2 116/3/2 119/3/2
f 119/3/2 118/3/2 120/3/2
f 121/2/2 122/2/2 125/2/2
f 122/3/2 123/3/2 126/3/2
f 125/2/2 122/2/2 126/2/2
f 123/2/2 124/2/2 127/2/2
f 126/3/2 123/3/2 127/3/2
f 127/2/2 124/2/2 128/2/2
f 129/2/2 130/2/2 133/2/2
f 133/2/2 130/2/2 134/2/2
f 131/2/2 132/2/2 137/2/2
f 137/2/2 132/2/2 138/2/2
f 134/1/2 135/1/2 139/1/2
f 139/1/2 135/1/2 140/1/2
f 136/1/2 137/1/2 141/1/2
f 141/1/2 137/1/2 142/1/2
f 140/2/2 141/2/2 143/2/2
f 143/2/2 141/2/2 144/2/2
f 145/2/2 146/2/2 149/2/2
f 149/2/2 146/2/2 150/2/2
f 147/2/2 148/2/2 153/2/2
f 153/2/2 148/2/2 154/2/2
f 150/1/2 151/1/2 155/1/2
f 155/1/2 151/1/2 156/1/2
f 152/1/2 153/1/2 157/1/2
f 157/1/2 153/1/2 158/1/2
f 156/2/2 157/2/2 159/2/2
f 159/2/2 157/2/2 160/2/2
f 161/3/2 162/3/2 163/3/2
f 163/3/2 162/3/2 164/3/2
f 164/3/2 162/3/2 165/3/2
f 165/3/2 162/3/2 166/3/2
f 167/2/2 168/2/2 170/2/2
f 170/2/2 168/2/2 171/2/2
f 169/1/2 170/1/2 174/1/2
f 174/1/2 170/1/2 175/1/2
f 171/1/2 172/1/2 176/1/2
f 176/1/2 172/1/2 177/1/2
f 173/2/2 174/2/2 179/2/2
f 179/2/2 174/2/2 180/2/2
f 177/2/2 178/2/2 181/2/2
f 181/2/2 178/2/2 182/2/2
f 183/2/2 184/2/2 185/2/2
f 185/2/2 184/2/2 186/2/2
f 187/2/2 188/2/2 190/2/2
f 190/2/2 188/2/2 191/2/2
f 189/1/2 190/1/2 194/1/2
f 194/1/2 190/1/2 195/1/2
f 191/1/2 192/1/2 196/1/2
f 196/1/2 192/1/2 197/1/2
f 193/2/2 194/2/2 199/2/2
f 199/2/2 194/2/2 200/2/2
f 197/2/2 198/2/2 201/2/2
f 201/2/2 198/2/2 202/2/2
f 203/2/2 204/2/2 205/2/2
f 205/2/2 204/2/2 206/2/2
f 207/2/2 208/2/2 210/2/2
f 210/2/2 208/2/2 211/2/2
f 209/1/2 210/1/2 214/1/2
f 214/1/2 210/1/2 215/1/2
f 211/1/2 212/1/2 216/1/2
f 216/1/2 212/1/2 217/1/2
f 213/2/2 214/2/2 219/2/2
f 219/2/2 214/2/2 220/2/2
f 217/2/2 218/2/2 221/2/2
f 221/2/2 218/2/2 222/2/2
f 223/2/2 224/2/2 226/2/2
f 226/2/2 224/2/2 227/2/2
f 225/1/2 226/1/2 229/1/2
f 229/1/2 226/1/2 230/1/2
f 227/1/2 228/1/2 231/1/2
f 231/1/2 228/1/2 232/1/2
f 233/1/2 234/1/2 235/1/2
f 235/1/2 234/1/2 236/1/2
f 237/2/2 238/2/2 239/2/2
f 239/2/2 238/2/2 240/2/2
f 239/1/2 240/1/2 241/1/2
f 241/1/2 240/1/2 242/1/2
f 245/2/3 244/2/3 243/2/3
f 246/2/3 244/2/3 245/2/3
f 247/2/3 244/2/3 246/2/3
f 248/2/3 244/2/3 247/2/3
f 251/2/3 247/2/3 246/2/3
f 252/2/3 247/2/3 251/2/3
f 253/2/3 250/2/3 249/2/3
f 255/2/3 253/2/3 249/2/3
f 255/2/3 254/2/3 253/2/3
f 256/2/3 254/2/3 255/2/3
f 257/2/3 254/2/3 256/2/3
f 259/2/3 258/2/3 257/2/3
f 259/2/3 257/2/3 256/2/3
f 260/2/3 258/2/3 259/2/3
f 261/2/3 258/2/3 260/2/3
f 263/2/3 261/2/3 260/2/3
f 263/2/3 262/2/3 261/2/3
f 264/2/3 262/2/3 263/2/3
f 268/3/3 266/3/3 265/3/3
f 269/1/3 267/1/3 266/1/3
f 269/3/3 266/3/3 268/3/3
f 270/1/3 267/1/3 269/1/3
f 273/1/3 271/1/3 270/1/3
f 274/1/3 271/1/3 273/1/3
f 278/1/3 273/1/3 272/1/3
f 279/1/3 273/1/3 278/1/3
f 280/3/3 276/3/3 275/3/3
f 281/3/3 276/3/3 280/3/3
f 282/3/3 278/3/3 277/3/3
f 283/3/3 278/3/3 282/3/3
f 284/1/3 281/1/3 280/1/3
f 285/1/3 281/1/3 284/1/3
f 287/1/3 286/1/3 285/1/3
f 288/1/3 286/1/3 287/1/3
f 290/1/3 289/1/3 288/1/3
f 291/1/3 289/1/3 290/1/3
f 293/1/3 292/1/3 291/1/3
f 294/1/3 292/1/3 293/1/3
f 300/3/3 296/3/3 295/3/3
f 301/3/3 296/3/3 300/3/3
f 303/2/3 298/2/3 297/2/3
f 304/2/3 298/2/3 303/2/3
f 305/1/3 299/1/3 298/1/3
f 305/2/3 298/2/3 304/2/3
f 306/1/3 299/1/3 305/1/3
f 308/3/3 300/3/3 295/3/3
f 309/3/3 300/3/3 308/3/3
f 310/3/3 303/3/3 302/3/3
f 311/3/3 303/3/3 310/3/3
f 312/2/3 306/2/3 305/2/3
f 313/1/3 307/1/3 306/1/3
f 313/2/3 306/2/3 312/2/3
f 314/1/3 307/1/3 313/1/3
f 318/2/3 314/2/3 313/2/3
f 319/2/3 314/2/3 318/2/3
f 321/3/3 316/3/3 315/3/3
f 322/3/3 316/3/3 321/3/3
f 324/2/3 318/2/3 317/2/3
f 325/2/3 318/2/3 324/2/3
f 326/2/3 321/2/3 320/2/3
f 327/2/3 324/2/3 323/2/3
f 328/2/3 326/2/3 320/2/3
f 329/2/3 326/2/3 328/2/3
f 331/2/3 324/2/3 327/2/3
f 332/2/3 324/2/3 331/2/3
f 334/2/3 330/2/3 329/2/3
f 335/2/3 330/2/3 334/2/3
f 337/2/3 333/2/3 332/2/3
f 338/2/3 333/2/3 337/2/3
f 340/2/3 336/2/3 335/2/3
f 341/2/3 336/2/3 340/2/3
f 344/2/3 339/2/3 338/2/3
f 345/2/3 339/2/3 344/2/3
f 346/2/3 342/2/3 341/2/3
f 347/2/3 342/2/3 346/2/3
f 348/2/3 344/2/3 343/2/3
f 349/1/3 345/1/3 344/1/3
f 349/2/3 344/2/3 348/2/3
f 350/1/3 345/1/3 349/1/3
f 351/2/3 348/2/3 347/2/3
f 352/1/3 349/1/3 348/1/3
f 352/2/3 348/2/3 351/2/3
f 353/1/3 349/1/3 352/1/3
f 354/3/4 355/3/4 359/3/4
f 359/3/4 355/3/4 360/3/4
f 356/2/4 357/2/4 362/2/4
f 362/2/4 357/2/4 363/2/4
f 357/1/4 358/1/4 364/1/4
f 363/2/4 357/2/4 364/2/4
f 364/1/4 358/1/4 365/1/4
f 354/3/4 359/3/4 367/3/4
f 367/3/4 359/3/4 368/3/4
f 361/3/4 362/3/4 369/3/4
f 369/3/4 362/3/4 370/3/4
f 364/2/4 365/2/4 371/2/4
f 365/1/4 366/1/4 372/1/4
f 371/2/4 365/2/4 372/2/4
f 372/1/4 366/1/4 373/1/4
f 372/2/4 373/2/4 377/2/4
f 377/2/4 373/2/4 378/2/4
f 374/3/4 375/3/4 380/3/4
f 380/3/4 375/3/4 381/3/4
f 376/2/4 377/2/4 383/2/4
f 383/2/4 377/2/4 384/2/4
f 379/2/4 380/2/4 385/2/4
f 382/2/4 383/2/4 386/2/4
f 379/2/4 385/2/4 387/2/4
f 387/2/4 385/2/4 388/2/4
f 386/2/4 383/2/4 390/2/4
f 390/2/4 383/2/4 391/2/4
f 388/2/4 389/2/4 393/2/4
f 393/2/4 389/2/4 394/2/4
f 391/2/4 392/2/4 396/2/4
f 396/2/4 392/2/4 397/2/4
f 394/2/4 395/2/4 399/2/4
f 399/2/4 395/2/4 400/2/4
f 397/2/4 398/2/4 403/2/4
f 403/2/4 398/2/4 404/2/4
f 400/2/4 401/2/4 405/2/4
f 405/2/4 401/2/4 406/2/4
f 402/2/4 403/2/4 407/2/4
f 403/1/4 404/1/4 408/1/4
f 407/2/4 403/2/4 408/2/4
f 408/1/4 404/1/4 409/1/4
f 406/2/4 407/2/4 410/2/4
f 407/1/4 408/1/4 411/1/4
f 410/2/4 407/2/4 411/2/4
f 411/1/4 408/1/4 412/1/4
f 413/3/4 414/3/4 416/3/4
f 414/1/4 415/1/4 417/1/4
f 416/3/4 414/3/4 417/3/4
f 417/1/4 415/1/4 418/1/4
f 418/1/4 419/1/4 421/1/4
f 421/1/4 419/1/4 422/1/4
f 420/1/4 421/1/4 426/1/4
f 426/1/4 421/1/4 427/1/4
f 423/3/4 424/3/4 428/3/4
f 428/3/4 424/3/4 429/3/4
f 425/3/4 426/3/4 430/3/4
f 430/3/4 426/3/4 431/3/4
f 428/1/4 429/1/4 432/1/4
f 432/1/4 429/1/4 433/1/4
f 433/1/4 434/1/4 435/1/4
f 435/1/4 434/1/4 436/1/4
f 436/1/4 437/1/4 438/1/4
f 438/1/4 437/1/4 439/1/4
f 439/1/4 440/1/4 441/1/4
f 441/1/4 440/1/4 442/1/4
f 443/2/4 444/2/4 445/2/4
f 445/2/4 444/2/4 446/2/4
f 446/2/4 444/2/4 447/2/4
f 447/2/4 444/2/4 448/2/4
f 446/2/4 447/2/4 451/2/4
f 451/2/4 447/2/4 452/2/4
f 449/2/4 450/2/4 453/2/4
f 449/2/4 453/2/4 455/2/4
f 453/2/4 454/2/4 455/2/4
f 455/2/4 454/2/4 456/2/4
f 456/2/4 454/2/4 457/2/4
f 457/2/4 458/2/4 459/2/4
f 456/2/4 457/2/4 459/2/4
f 459/2/4 458/2/4 460/2/4
f 460/2/4 458/2/4 461/2/4
f 460/2/4 461/2/4 463/2/4
f 461/2/4 462/2/4 463/2/4
f 463/2/4 462/2/4 464/2/4
f 469/3/5 466/3/5 465/3/5
f 470/3/5 466/3/5 469/3/5
f 471/2/5 468/2/5 467/2/5
f 472/2/5 468/2/5 471/2/5
f 477/3/5 474/3/5 473/3/5
f 478/1/5 475/1/5 474/1/5
f 478/3/5 474/3/5 477/3/5
f 479/1/5 475/1/5 478/1/5
f 481/3/5 477/3/5 476/3/5
f 482/3/5 477/3/5 481/3/5
f 484/2/5 480/2/5 479/2/5
f 485/2/5 480/2/5 484/2/5
f 486/3/5 483/3/5 482/3/5
f 487/1/5 484/1/5 483/1/5
f 487/3/5 483/3/5 486/3/5
f 488/1/5 484/1/5 487/1/5
f 491/2/5 490/2/5 489/2/5
f 492/2/5 490/2/5 491/2/5
f 493/2/5 490/2/5 492/2/5
f 495/1/5 494/1/5 493/1/5
f 496/1/5 494/1/5 495/1/5
f 499/2/5 497/2/5 496/2/5
f 500/2/5 497/2/5 499/2/5
f 503/1/5 499/1/5 498/1/5
f 504/1/5 499/1/5 503/1/5
f 505/2/5 502/2/5 501/2/5
f 505/2/5 503/2/5 502/2/5
f 506/2/5 503/2/5 505/2/5
f 509/2/5 508/2/5 507/2/5
f 510/2/5 508/2/5 509/2/5
f 514/1/5 511/1/5 510/1/5
f 515/1/5 511/1/5 514/1/5
f 517/3/5 513/3/5 512/3/5
f 518/3/5 513/3/5 517/3/5
f 520/2/5 516/2/5 515/2/5
f 521/2/5 516/2/5 520/2/5
f 523/1/5 520/1/5 519/1/5
f 524/1/5 520/1/5 523/1/5
f 525/2/5 523/2/5 522/2/5
f 526/2/5 523/2/5 525/2/5
f 531/2/5 528/2/5 527/2/5
f 532/2/5 528/2/5 531/2/5
f 535/3/5 530/3/5 529/3/5
f 536/3/5 530/3/5 535/3/5
f 537/1/5 533/1/5 532/1/5
f 538/1/5 533/1/5 537/1/5
f 540/2/5 535/2/5 534/2/5
f 541/2/5 535/2/5 540/2/5
f 544/2/5 539/2/5 538/2/5
f 545/2/5 539/2/5 544/2/5
f 546/3/5 542/3/5 541/3/5
f 547/3/5 542/3/5 546/3/5
f 549/1/5 544/1/5 543/1/5
f 550/1/5 544/1/5 549/1/5
f 551/2/5 549/2/5 548/2/5
f 552/2/5 549/2/5 551/2/5
f 555/2/5 554/2/5 553/2/5
f 556/2/5 554/2/5 555/2/5
f 557/3/5 556/3/5 555/3/5
f 558/3/5 556/3/5 557/3/5
f 559/2/5 558/2/5 557/2/5
f 560/2/5 558/2/5 559/2/5
f 563/2/5 562/2/5 561/2/5
f 564/2/5 562/2/5 563/2/5
f 566/3/5 564/3/5 563/3/5
f 566/3/5 565/3/5 564/3/5
f 567/3/5 565/3/5 566/3/5
f 568/3/5 565/3/5 567/3/5
f 569/2/5 567/2/5 566/2/5
f 570/2/5 567/2/5 569/2/5
f 573/2/5 572/2/5 571/2/5
f 574/2/5 572/2/5 573/2/5
f 577/2/5 576/2/5 575/2/5
f 578/2/5 576/2/5 577/2/5
f 581/2/5 580/2/5 579/2/5
f 582/2/5 580/2/5 581/2/5
f 583/3/6 584/3/6 585/3/6
f 585/3/6 584/3/6 586/3/6
f 587/3/6 588/3/6 591/3/6
f 591/3/6 588/3/6 592/3/6
f 589/3/6 590/3/6 593/3/6
f 593/3/6 590/3/6 594/3/6
f 595/2/6 596/2/6 597/2/6
f 597/2/6 596/2/6 598/2/6
f 597/3/6 598/3/6 599/3/6
f 599/3/6 598/3/6 600/3/6
f 599/2/6 600/2/6 601/2/6
f 601/2/6 600/2/6 602/2/6
f 603/2/6 604/2/6 605/2/6
f 605/2/6 604/2/6 606/2/6
f 605/3/6 606/3/6 607/3/6
f 607/3/6 606/3/6 608/3/6
f 607/2/6 608/2/6 609/2/6
f 609/2/6 608/2/6 610/2/6
f 611/2/6 612/2/6 615/2/6
f 615/2/6 612/2/6 616/2/6
f 613/2/6 614/2/6 618/2/6
f 618/2/6 614/2/6 619/2/6
f 616/3/6 617/3/6 620/3/6
f 620/3/6 617/3/6 621/3/6
f 618/3/6 619/3/6 622/3/6
f 622/3/6 619/3/6 623/3/6
f 622/3/6 623/3/6 626/3/6
f 626/3/6 623/3/6 627/3/6
f 624/3/6 625/3/6 629/3/6
f 629/3/6 625/3/6 630/3/6
f 626/3/6 627/3/6 631/3/6
f 631/3/6 627/3/6 632/3/6
f 628/2/6 629/2/6 633/2/6
f 633/2/6 629/2/6 634/2/6
f 631/2/6 632/2/6 635/2/6
f 635/2/6 632/2/6 636/2/6
f 637/2/6 638/2/6 642/2/6
f 642/2/6 638/2/6 643/2/6
f 639/2/6 640/2/6 645/2/6
f 645/2/6 640/2/6 646/2/6
f 641/1/6 642/1/6 648/1/6
f 648/1/6 642/1/6 649/1/6
f 643/1/6 644/1/6 650/1/6
f 650/1/6 644/1/6 651/1/6
f 646/1/6 647/1/6 653/1/6
f 645/1/6 646/1/6 653/1/6
f 653/1/6 647/1/6 654/1/6
f 654/1/6 647/1/6 655/1/6
f 651/2/6 652/2/6 659/2/6
f 659/2/6 652/2/6 660/2/6
f 653/3/6 654/3/6 661/3/6
f 661/3/6 654/3/6 662/3/6
f 656/1/6 657/1/6 664/1/6
f 664/1/6 657/1/6 665/1/6
f 658/1/6 659/1/6 666/1/6
f 666/1/6 659/1/6 667/1/6
f 662/1/6 663/1/6 668/1/6
f 661/1/6 662/1/6 668/1/6
f 668/1/6 663/1/6 669/1/6
f 669/1/6 663/1/6 670/1/6
f 665/2/6 666/2/6 671/2/6
f 671/2/6 666/2/6 672/2/6
f 668/2/6 669/2/6 673/2/6
f 673/2/6 669/2/6 674/2/6
f 675/1/6 676/1/6 679/1/6
f 679/1/6 676/1/6 680/1/6
f 677/1/6 678/1/6 686/1/6
f 686/1/6 678/1/6 687/1/6
f 680/2/6 681/2/6 689/2/6
f 689/2/6 681/2/6 690/2/6
f 682/2/6 683/2/6 691/2/6
f 691/2/6 683/2/6 692/2/6
f 684/1/6 685/1/6 693/1/6
f 693/1/6 685/1/6 694/1/6
f 688/1/6 689/1/6 695/1/6
f 695/1/6 689/1/6 696/1/6
f 697/1/6 698/1/6 703/1/6
f 698/2/6 699/2/6 704/2/6
f 703/1/6 698/1/6 704/1/6
f 704/2/6 699/2/6 705/2/6
f 700/2/6 701/2/6 706/2/6
f 701/1/6 702/1/6 707/1/6
f 706/2/6 701/2/6 707/2/6
f 707/1/6 702/1/6 708/1/6
