# MagicaVoxel @ Ephtracy

# group
o 

# material
mtllib Mortar1-1.mtl
usemtl palette

# normals
vn -1 0 0
vn 1 0 0
vn 0 0 1
vn 0 0 -1
vn 0 -1 0
vn 0 1 0

# texcoords
vt 0.751953 0.5
vt 0.970703 0.5
vt 0.990234 0.5
vt 0.994141 0.5

# verts
v -0.3 0.2 0.3
v -0.3 0.2 -0.3
v -0.3 0.7 0.3
v -0.3 0.7 0.2
v -0.3 0.7 -0.2
v -0.3 0.7 -0.3
v -0.3 0.8 0.3
v -0.3 0.8 0.2
v -0.3 0.8 -0.2
v -0.3 0.8 -0.3
v -0.2 0.8 0.1
v -0.2 0.8 -0.1
v -0.2 0.9 0.1
v -0.2 0.9 -0.1
v 1.5 0.2 0.1
v 1.5 0.2 -0.1
v 1.5 0.3 0.2
v 1.5 0.3 0.1
v 1.5 0.3 -0.1
v 1.5 0.3 -0.2
v 1.5 0.4 0.3
v 1.5 0.4 0.2
v 1.5 0.4 0.1
v 1.5 0.4 -0.1
v 1.5 0.4 -0.2
v 1.5 0.4 -0.3
v 1.5 0.6 0.3
v 1.5 0.6 0.2
v 1.5 0.6 0.1
v 1.5 0.6 -0.1
v 1.5 0.6 -0.2
v 1.5 0.6 -0.3
v 1.5 0.7 0.2
v 1.5 0.7 0.1
v 1.5 0.7 -0.1
v 1.5 0.7 -0.2
v 1.5 0.8 0.1
v 1.5 0.8 -0.1
v 0.2 0.2 0.3
v 0.2 0.2 -0.3
v 0.2 0.3 0.2
v 0.2 0.3 -0.2
v 0.2 0.4 0.2
v 0.2 0.4 -0.2
v 0.2 0.6 0.3
v 0.2 0.6 0.2
v 0.2 0.6 -0.2
v 0.2 0.6 -0.3
v 0.3 0.7 0.1
v 0.3 0.7 -0.1
v 0.3 0.8 0.1
v 0.3 0.8 -0.1
v 0.3 0.9 0.1
v 0.3 0.9 -0.1
v 0.5 0.6 0.3
v 0.5 0.6 0.2
v 0.5 0.6 0.1
v 0.5 0.6 -0.1
v 0.5 0.6 -0.2
v 0.5 0.6 -0.3
v 0.5 0.7 0.1
v 0.5 0.7 -0.1
v 0.5 0.8 0.3
v 0.5 0.8 0.1
v 0.5 0.8 -0.1
v 0.5 0.8 -0.3
v 0.9 0.3 0.2
v 0.9 0.3 0.1
v 0.9 0.3 -0.1
v 0.9 0.3 -0.2
v 0.9 0.4 0.2
v 0.9 0.4 0.1
v 0.9 0.4 -0.1
v 0.9 0.4 -0.2
v 1.7 0.2 0.1
v 1.7 0.2 -0.1
v 1.7 0.3 0.2
v 1.7 0.3 0.1
v 1.7 0.3 -0.1
v 1.7 0.3 -0.2
v 1.7 0.4 0.3
v 1.7 0.4 0.2
v 1.7 0.4 0.1
v 1.7 0.4 -0.1
v 1.7 0.4 -0.2
v 1.7 0.4 -0.3
v 1.7 0.6 0.3
v 1.7 0.6 0.2
v 1.7 0.6 0.1
v 1.7 0.6 -0.1
v 1.7 0.6 -0.2
v 1.7 0.6 -0.3
v 1.7 0.7 0.2
v 1.7 0.7 0.1
v 1.7 0.7 -0.1
v 1.7 0.7 -0.2
v 1.7 0.8 0.1
v 1.7 0.8 -0.1
v -0.3 0.2 0.3
v -0.3 0.7 0.3
v -0.3 0.8 0.3
v 0.2 0.2 0.3
v 0.2 0.6 0.3
v 0.2 0.7 0.3
v 0.5 0.6 0.3
v 0.5 0.8 0.3
v 1.5 0.4 0.3
v 1.5 0.6 0.3
v 1.7 0.4 0.3
v 1.7 0.6 0.3
v 0.2 0.3 0.2
v 0.2 0.4 0.2
v 0.2 0.6 0.2
v 0.5 0.6 0.2
v 0.9 0.3 0.2
v 0.9 0.4 0.2
v 1.5 0.3 0.2
v 1.5 0.4 0.2
v 1.5 0.6 0.2
v 1.5 0.7 0.2
v 1.7 0.3 0.2
v 1.7 0.4 0.2
v 1.7 0.6 0.2
v 1.7 0.7 0.2
v -0.2 0.8 0.1
v -0.2 0.9 0.1
v 0.2 0.8 0.1
v 0.3 0.8 0.1
v 0.3 0.9 0.1
v 0.5 0.6 0.1
v 0.5 0.7 0.1
v 0.9 0.3 0.1
v 0.9 0.4 0.1
v 0.9 0.6 0.1
v 0.9 0.7 0.1
v 1.1 0.3 0.1
v 1.1 0.4 0.1
v 1.5 0.2 0.1
v 1.5 0.3 0.1
v 1.5 0.4 0.1
v 1.5 0.6 0.1
v 1.5 0.7 0.1
v 1.5 0.8 0.1
v 1.7 0.2 0.1
v 1.7 0.3 0.1
v 1.7 0.7 0.1
v 1.7 0.8 0.1
v 0.3 0.7 -0.1
v 0.3 0.8 -0.1
v 0.5 0.7 -0.1
v 0.5 0.8 -0.1
v 0.3 0.7 0.1
v 0.3 0.8 0.1
v 0.5 0.7 0.1
v 0.5 0.8 0.1
v -0.2 0.8 -0.1
v -0.2 0.9 -0.1
v 0.2 0.8 -0.1
v 0.3 0.8 -0.1
v 0.3 0.9 -0.1
v 0.5 0.6 -0.1
v 0.5 0.7 -0.1
v 0.9 0.3 -0.1
v 0.9 0.4 -0.1
v 0.9 0.6 -0.1
v 0.9 0.7 -0.1
v 1.1 0.3 -0.1
v 1.1 0.4 -0.1
v 1.5 0.2 -0.1
v 1.5 0.3 -0.1
v 1.5 0.4 -0.1
v 1.5 0.6 -0.1
v 1.5 0.7 -0.1
v 1.5 0.8 -0.1
v 1.7 0.2 -0.1
v 1.7 0.3 -0.1
v 1.7 0.7 -0.1
v 1.7 0.8 -0.1
v 0.2 0.3 -0.2
v 0.2 0.4 -0.2
v 0.2 0.6 -0.2
v 0.5 0.6 -0.2
v 0.9 0.3 -0.2
v 0.9 0.4 -0.2
v 1.5 0.3 -0.2
v 1.5 0.4 -0.2
v 1.5 0.6 -0.2
v 1.5 0.7 -0.2
v 1.7 0.3 -0.2
v 1.7 0.4 -0.2
v 1.7 0.6 -0.2
v 1.7 0.7 -0.2
v -0.3 0.2 -0.3
v -0.3 0.7 -0.3
v -0.3 0.8 -0.3
v 0.2 0.2 -0.3
v 0.2 0.6 -0.3
v 0.2 0.7 -0.3
v 0.5 0.6 -0.3
v 0.5 0.8 -0.3
v 1.5 0.4 -0.3
v 1.5 0.6 -0.3
v 1.7 0.4 -0.3
v 1.7 0.6 -0.3
v -0.3 0.2 0.3
v 0.2 0.2 0.3
v 1.5 0.2 0.1
v 1.7 0.2 0.1
v 1.5 0.2 -0.1
v 1.7 0.2 -0.1
v -0.3 0.2 -0.3
v 0.2 0.2 -0.3
v 0.2 0.3 0.2
v 0.9 0.3 0.2
v 1.5 0.3 0.2
v 1.7 0.3 0.2
v 0.9 0.3 0.1
v 1.1 0.3 0.1
v 1.5 0.3 0.1
v 1.7 0.3 0.1
v 0.9 0.3 -0.1
v 1.1 0.3 -0.1
v 1.5 0.3 -0.1
v 1.7 0.3 -0.1
v 0.2 0.3 -0.2
v 0.9 0.3 -0.2
v 1.5 0.3 -0.2
v 1.7 0.3 -0.2
v 1.5 0.4 0.3
v 1.7 0.4 0.3
v 0.9 0.4 0.2
v 1.5 0.4 0.2
v 1.7 0.4 0.2
v 0.9 0.4 0.1
v 1.1 0.4 0.1
v 1.5 0.4 0.1
v 0.9 0.4 -0.1
v 1.1 0.4 -0.1
v 1.5 0.4 -0.1
v 0.9 0.4 -0.2
v 1.5 0.4 -0.2
v 1.7 0.4 -0.2
v 1.5 0.4 -0.3
v 1.7 0.4 -0.3
v 0.2 0.6 0.3
v 0.5 0.6 0.3
v 0.2 0.6 0.2
v 0.5 0.6 0.2
v 0.2 0.6 -0.2
v 0.5 0.6 -0.2
v 0.2 0.6 -0.3
v 0.5 0.6 -0.3
v 1.5 0.6 0.3
v 1.7 0.6 0.3
v 0.5 0.6 0.2
v 1.5 0.6 0.2
v 1.7 0.6 0.2
v 0.5 0.6 0.1
v 0.9 0.6 0.1
v 1.5 0.6 0.1
v 0.5 0.6 -0.1
v 0.9 0.6 -0.1
v 1.5 0.6 -0.1
v 0.5 0.6 -0.2
v 1.5 0.6 -0.2
v 1.7 0.6 -0.2
v 1.5 0.6 -0.3
v 1.7 0.6 -0.3
v 1.5 0.7 0.2
v 1.7 0.7 0.2
v 0.3 0.7 0.1
v 0.5 0.7 0.1
v 0.9 0.7 0.1
v 1.5 0.7 0.1
v 1.7 0.7 0.1
v 0.3 0.7 -0.1
v 0.5 0.7 -0.1
v 0.9 0.7 -0.1
v 1.5 0.7 -0.1
v 1.7 0.7 -0.1
v 1.5 0.7 -0.2
v 1.7 0.7 -0.2
v -0.3 0.8 0.3
v 0.5 0.8 0.3
v -0.3 0.8 0.2
v 0.2 0.8 0.2
v -0.2 0.8 0.1
v 0.2 0.8 0.1
v 0.3 0.8 0.1
v 0.5 0.8 0.1
v 1.5 0.8 0.1
v 1.7 0.8 0.1
v -0.2 0.8 -0.1
v 0.2 0.8 -0.1
v 0.3 0.8 -0.1
v 0.5 0.8 -0.1
v 1.5 0.8 -0.1
v 1.7 0.8 -0.1
v -0.3 0.8 -0.2
v 0.2 0.8 -0.2
v -0.3 0.8 -0.3
v 0.5 0.8 -0.3
v -0.2 0.9 0.1
v 0.3 0.9 0.1
v -0.2 0.9 -0.1
v 0.3 0.9 -0.1

# faces
f 3/2/1 2/2/1 1/2/1
f 4/2/1 2/2/1 3/2/1
f 5/2/1 2/2/1 4/2/1
f 6/2/1 2/2/1 5/2/1
f 7/4/1 4/4/1 3/4/1
f 8/2/1 5/2/1 4/2/1
f 8/4/1 4/4/1 7/4/1
f 9/4/1 6/4/1 5/4/1
f 9/2/1 5/2/1 8/2/1
f 10/4/1 6/4/1 9/4/1
f 13/1/1 12/1/1 11/1/1
f 14/1/1 12/1/1 13/1/1
f 18/3/1 16/3/1 15/3/1
f 19/3/1 16/3/1 18/3/1
f 22/3/1 18/3/1 17/3/1
f 23/3/1 18/3/1 22/3/1
f 24/3/1 20/3/1 19/3/1
f 25/3/1 20/3/1 24/3/1
f 27/3/1 22/3/1 21/3/1
f 28/3/1 22/3/1 27/3/1
f 31/3/1 26/3/1 25/3/1
f 32/3/1 26/3/1 31/3/1
f 33/3/1 29/3/1 28/3/1
f 34/3/1 29/3/1 33/3/1
f 35/3/1 31/3/1 30/3/1
f 36/3/1 31/3/1 35/3/1
f 37/3/1 35/3/1 34/3/1
f 38/3/1 35/3/1 37/3/1
f 39/2/2 40/2/2 41/2/2
f 41/2/2 40/2/2 42/2/2
f 39/2/2 41/2/2 43/2/2
f 42/2/2 40/2/2 44/2/2
f 39/2/2 43/2/2 45/2/2
f 45/2/2 43/2/2 46/2/2
f 44/2/2 40/2/2 47/2/2
f 47/2/2 40/2/2 48/2/2
f 49/1/2 50/1/2 51/1/2
f 51/1/2 50/1/2 52/1/2
f 51/1/2 52/1/2 53/1/2
f 53/1/2 52/1/2 54/1/2
f 55/4/2 56/4/2 61/4/2
f 56/4/2 57/4/2 61/4/2
f 59/4/2 60/4/2 62/4/2
f 58/4/2 59/4/2 62/4/2
f 55/4/2 61/4/2 63/4/2
f 63/4/2 61/4/2 64/4/2
f 62/4/2 60/4/2 65/4/2
f 65/4/2 60/4/2 66/4/2
f 67/4/2 68/4/2 71/4/2
f 71/4/2 68/4/2 72/4/2
f 69/4/2 70/4/2 73/4/2
f 73/4/2 70/4/2 74/4/2
f 75/3/2 76/3/2 78/3/2
f 78/3/2 76/3/2 79/3/2
f 77/3/2 78/3/2 82/3/2
f 78/2/2 79/2/2 83/2/2
f 82/3/2 78/3/2 83/3/2
f 79/3/2 80/3/2 84/3/2
f 83/2/2 79/2/2 84/2/2
f 84/3/2 80/3/2 85/3/2
f 81/3/2 82/3/2 87/3/2
f 82/2/2 83/2/2 88/2/2
f 87/3/2 82/3/2 88/3/2
f 83/2/2 84/2/2 88/2/2
f 84/2/2 85/2/2 88/2/2
f 88/2/2 85/2/2 89/2/2
f 89/2/2 85/2/2 90/2/2
f 85/3/2 86/3/2 91/3/2
f 90/2/2 85/2/2 91/2/2
f 91/3/2 86/3/2 92/3/2
f 88/3/2 89/3/2 93/3/2
f 89/2/2 90/2/2 94/2/2
f 93/3/2 89/3/2 94/3/2
f 90/3/2 91/3/2 95/3/2
f 94/2/2 90/2/2 95/2/2
f 95/3/2 91/3/2 96/3/2
f 94/3/2 95/3/2 97/3/2
f 97/3/2 95/3/2 98/3/2
f 102/2/3 100/2/3 99/2/3
f 103/2/3 100/2/3 102/2/3
f 104/4/3 101/4/3 100/4/3
f 104/2/3 100/2/3 103/2/3
f 105/4/3 104/4/3 103/4/3
f 106/4/3 101/4/3 104/4/3
f 106/4/3 104/4/3 105/4/3
f 109/3/3 108/3/3 107/3/3
f 110/3/3 108/3/3 109/3/3
f 114/2/3 113/2/3 112/2/3
f 115/4/3 112/4/3 111/4/3
f 116/2/3 114/2/3 112/2/3
f 116/4/3 112/4/3 115/4/3
f 118/2/3 114/2/3 116/2/3
f 119/2/3 114/2/3 118/2/3
f 121/3/3 118/3/3 117/3/3
f 122/3/3 118/3/3 121/3/3
f 123/3/3 120/3/3 119/3/3
f 124/3/3 120/3/3 123/3/3
f 127/1/3 126/1/3 125/1/3
f 128/1/3 126/1/3 127/1/3
f 129/1/3 126/1/3 128/1/3
f 134/1/3 131/1/3 130/1/3
f 135/1/3 131/1/3 134/1/3
f 136/4/3 133/4/3 132/4/3
f 137/4/3 133/4/3 136/4/3
f 139/2/3 137/2/3 136/2/3
f 140/2/3 137/2/3 139/2/3
f 141/2/3 135/2/3 134/2/3
f 142/2/3 135/2/3 141/2/3
f 144/3/3 139/3/3 138/3/3
f 145/3/3 139/3/3 144/3/3
f 146/3/3 143/3/3 142/3/3
f 147/3/3 143/3/3 146/3/3
f 150/4/3 149/4/3 148/4/3
f 151/4/3 149/4/3 150/4/3
f 152/4/4 153/4/4 154/4/4
f 154/4/4 153/4/4 155/4/4
f 156/1/4 157/1/4 158/1/4
f 158/1/4 157/1/4 159/1/4
f 159/1/4 157/1/4 160/1/4
f 161/1/4 162/1/4 165/1/4
f 165/1/4 162/1/4 166/1/4
f 163/4/4 164/4/4 167/4/4
f 167/4/4 164/4/4 168/4/4
f 167/2/4 168/2/4 170/2/4
f 170/2/4 168/2/4 171/2/4
f 165/2/4 166/2/4 172/2/4
f 172/2/4 166/2/4 173/2/4
f 169/3/4 170/3/4 175/3/4
f 175/3/4 170/3/4 176/3/4
f 173/3/4 174/3/4 177/3/4
f 177/3/4 174/3/4 178/3/4
f 180/2/4 181/2/4 182/2/4
f 179/4/4 180/4/4 183/4/4
f 180/2/4 182/2/4 184/2/4
f 183/4/4 180/4/4 184/4/4
f 184/2/4 182/2/4 186/2/4
f 186/2/4 182/2/4 187/2/4
f 185/3/4 186/3/4 189/3/4
f 189/3/4 186/3/4 190/3/4
f 187/3/4 188/3/4 191/3/4
f 191/3/4 188/3/4 192/3/4
f 193/2/4 194/2/4 196/2/4
f 196/2/4 194/2/4 197/2/4
f 194/4/4 195/4/4 198/4/4
f 197/2/4 194/2/4 198/2/4
f 197/4/4 198/4/4 199/4/4
f 198/4/4 195/4/4 200/4/4
f 199/4/4 198/4/4 200/4/4
f 201/3/4 202/3/4 203/3/4
f 203/3/4 202/3/4 204/3/4
f 209/3/5 208/3/5 207/3/5
f 210/3/5 208/3/5 209/3/5
f 211/2/5 206/2/5 205/2/5
f 212/2/5 206/2/5 211/2/5
f 217/4/5 214/4/5 213/4/5
f 219/3/5 216/3/5 215/3/5
f 220/3/5 216/3/5 219/3/5
f 221/4/5 218/4/5 217/4/5
f 221/4/5 217/4/5 213/4/5
f 222/2/5 219/2/5 218/2/5
f 222/4/5 218/4/5 221/4/5
f 223/2/5 219/2/5 222/2/5
f 225/4/5 221/4/5 213/4/5
f 226/4/5 221/4/5 225/4/5
f 227/3/5 224/3/5 223/3/5
f 228/3/5 224/3/5 227/3/5
f 232/3/5 230/3/5 229/3/5
f 233/3/5 230/3/5 232/3/5
f 234/2/5 232/2/5 231/2/5
f 235/2/5 232/2/5 234/2/5
f 236/2/5 232/2/5 235/2/5
f 240/2/5 238/2/5 237/2/5
f 240/2/5 239/2/5 238/2/5
f 241/2/5 239/2/5 240/2/5
f 243/3/5 242/3/5 241/3/5
f 244/3/5 242/3/5 243/3/5
f 247/4/5 246/4/5 245/4/5
f 248/4/5 246/4/5 247/4/5
f 251/4/5 250/4/5 249/4/5
f 252/4/5 250/4/5 251/4/5
f 253/3/6 254/3/6 256/3/6
f 256/3/6 254/3/6 257/3/6
f 255/2/6 256/2/6 258/2/6
f 258/2/6 256/2/6 259/2/6
f 259/2/6 256/2/6 260/2/6
f 261/2/6 262/2/6 264/2/6
f 262/2/6 263/2/6 264/2/6
f 264/2/6 263/2/6 265/2/6
f 265/3/6 266/3/6 267/3/6
f 267/3/6 266/3/6 268/3/6
f 269/3/6 270/3/6 274/3/6
f 274/3/6 270/3/6 275/3/6
f 272/1/6 273/1/6 276/1/6
f 271/1/6 272/1/6 276/1/6
f 276/1/6 273/1/6 277/1/6
f 273/2/6 274/2/6 278/2/6
f 277/1/6 273/1/6 278/1/6
f 278/2/6 274/2/6 279/2/6
f 279/3/6 280/3/6 281/3/6
f 281/3/6 280/3/6 282/3/6
f 283/4/6 284/4/6 285/4/6
f 285/4/6 284/4/6 286/4/6
f 285/2/6 286/2/6 287/2/6
f 286/4/6 284/4/6 288/4/6
f 287/2/6 286/2/6 288/2/6
f 288/4/6 284/4/6 289/4/6
f 289/4/6 284/4/6 290/4/6
f 285/2/6 287/2/6 293/2/6
f 291/3/6 292/3/6 297/3/6
f 297/3/6 292/3/6 298/3/6
f 285/2/6 293/2/6 299/2/6
f 293/2/6 294/2/6 299/2/6
f 295/4/6 296/4/6 300/4/6
f 299/2/6 294/2/6 300/2/6
f 294/4/6 295/4/6 300/4/6
f 299/4/6 300/4/6 301/4/6
f 300/4/6 296/4/6 302/4/6
f 301/4/6 300/4/6 302/4/6
f 303/1/6 304/1/6 305/1/6
f 305/1/6 304/1/6 306/1/6
