# MagicaVoxel @ Ephtracy

# group
o 

# material
mtllib Mortar1-2.mtl
usemtl palette

# normals
vn -1 0 0
vn 1 0 0
vn 0 0 1
vn 0 0 -1
vn 0 -1 0
vn 0 1 0

# texcoords
vt 0.646484 0.5
vt 0.650391 0.5
vt 0.994141 0.5

# verts
v -0.8 0.1 0.4
v -0.8 0.1 -0.4
v -0.8 0.2 0.4
v -0.8 0.2 -0.4
v -0.7 0.1 0.7
v -0.7 0.1 0.4
v -0.7 0.1 -0.4
v -0.7 0.1 -0.7
v -0.7 0.2 0.7
v -0.7 0.2 0.4
v -0.7 0.2 -0.4
v -0.7 0.2 -0.7
v -0.5 0.1 0.8
v -0.5 0.1 0.7
v -0.5 0.1 0.3
v -0.5 0.1 0.2
v -0.5 0.1 -0.2
v -0.5 0.1 -0.3
v -0.5 0.1 -0.7
v -0.5 0.1 -0.8
v -0.5 0.2 0.8
v -0.5 0.2 0.7
v -0.5 0.2 0.5
v -0.5 0.2 0.3
v -0.5 0.2 -0.3
v -0.5 0.2 -0.5
v -0.5 0.2 -0.7
v -0.5 0.2 -0.8
v -0.5 0.4 0.3
v -0.5 0.4 0.2
v -0.5 0.4 -0.2
v -0.5 0.4 -0.3
v -0.5 0.5 0.5
v -0.5 0.5 0.3
v -0.5 0.5 -0.3
v -0.5 0.5 -0.5
v -0.4 0.1 0.2
v -0.4 0.1 0.1
v -0.4 0.1 -0.1
v -0.4 0.1 -0.2
v -0.4 0.2 0.2
v -0.4 0.2 0.1
v -0.4 0.2 -0.1
v -0.4 0.2 -0.2
v -0.3 0.5 0.5
v -0.3 0.5 0.3
v -0.3 0.5 -0.3
v -0.3 0.5 -0.5
v -0.3 0.7 0.5
v -0.3 0.7 0.3
v -0.3 0.7 -0.3
v -0.3 0.7 -0.5
v -0.2 0.2 0.8
v -0.2 0.2 0.6
v -0.2 0.2 -0.6
v -0.2 0.2 -0.8
v -0.2 0.3 0.8
v -0.2 0.3 0.6
v -0.2 0.3 -0.6
v -0.2 0.3 -0.8
v -0.1 0.3 0.8
v -0.1 0.3 0.6
v -0.1 0.3 0.5
v -0.1 0.3 -0.5
v -0.1 0.3 -0.6
v -0.1 0.3 -0.8
v -0.1 0.5 0.8
v -0.1 0.5 0.6
v -0.1 0.5 0.5
v -0.1 0.5 -0.5
v -0.1 0.5 -0.6
v -0.1 0.5 -0.8
v -0.1 0.6 0.6
v -0.1 0.6 0.5
v -0.1 0.6 -0.5
v -0.1 0.6 -0.6
v 0.3 0.1 0.6
v 0.3 0.1 0.5
v 0.3 0.1 -0.5
v 0.3 0.1 -0.6
v 0.3 0.2 0.3
v 0.3 0.2 0.2
v 0.3 0.2 -0.2
v 0.3 0.2 -0.3
v 0.3 0.3 0.6
v 0.3 0.3 0.5
v 0.3 0.3 -0.5
v 0.3 0.3 -0.6
v 0.3 0.6 0.3
v 0.3 0.6 0.2
v 0.3 0.6 -0.2
v 0.3 0.6 -0.3
v -0.6 0.1 0.6
v -0.6 0.1 0.5
v -0.6 0.1 0.3
v -0.6 0.1 0.1
v -0.6 0.1 -0.1
v -0.6 0.1 -0.3
v -0.6 0.1 -0.5
v -0.6 0.1 -0.6
v -0.6 0.2 0.6
v -0.6 0.2 0.5
v -0.6 0.2 0.3
v -0.6 0.2 0.1
v -0.6 0.2 -0.1
v -0.6 0.2 -0.3
v -0.6 0.2 -0.5
v -0.6 0.2 -0.6
v -0.4 0.2 0.3
v -0.4 0.2 0.2
v -0.4 0.2 -0.2
v -0.4 0.2 -0.3
v -0.4 0.4 0.3
v -0.4 0.4 0.2
v -0.4 0.4 -0.2
v -0.4 0.4 -0.3
v 0 0.1 0.8
v 0 0.1 0.6
v 0 0.1 -0.6
v 0 0.1 -0.8
v 0 0.2 0.8
v 0 0.2 0.6
v 0 0.2 -0.6
v 0 0.2 -0.8
v 0.1 0.2 0.8
v 0.1 0.2 0.6
v 0.1 0.2 -0.6
v 0.1 0.2 -0.8
v 0.1 0.3 0.6
v 0.1 0.3 -0.6
v 0.1 0.5 0.8
v 0.1 0.5 0.6
v 0.1 0.5 -0.6
v 0.1 0.5 -0.8
v 0.2 0.4 0.6
v 0.2 0.4 0.5
v 0.2 0.4 -0.5
v 0.2 0.4 -0.6
v 0.2 0.6 0.6
v 0.2 0.6 0.5
v 0.2 0.6 -0.5
v 0.2 0.6 -0.6
v 0.3 0.6 0.5
v 0.3 0.6 0.3
v 0.3 0.6 -0.3
v 0.3 0.6 -0.5
v 0.3 0.7 0.5
v 0.3 0.7 0.3
v 0.3 0.7 -0.3
v 0.3 0.7 -0.5
v 0.4 0.2 0.3
v 0.4 0.2 0.2
v 0.4 0.2 -0.2
v 0.4 0.2 -0.3
v 0.4 0.3 0.6
v 0.4 0.3 0.5
v 0.4 0.3 -0.5
v 0.4 0.3 -0.6
v 0.4 0.4 0.6
v 0.4 0.4 0.5
v 0.4 0.4 0.3
v 0.4 0.4 -0.3
v 0.4 0.4 -0.5
v 0.4 0.4 -0.6
v 0.4 0.5 0.5
v 0.4 0.5 0.3
v 0.4 0.5 -0.3
v 0.4 0.5 -0.5
v 0.4 0.6 0.5
v 0.4 0.6 0.2
v 0.4 0.6 -0.2
v 0.4 0.6 -0.5
v 0.5 0.1 0.6
v 0.5 0.1 0.5
v 0.5 0.1 -0.5
v 0.5 0.1 -0.6
v 0.5 0.2 0.5
v 0.5 0.2 0.3
v 0.5 0.2 -0.3
v 0.5 0.2 -0.5
v 0.5 0.3 0.6
v 0.5 0.3 0.5
v 0.5 0.3 -0.5
v 0.5 0.3 -0.6
v 0.5 0.4 0.5
v 0.5 0.4 0.3
v 0.5 0.4 -0.3
v 0.5 0.4 -0.5
v 0.6 0.1 0.5
v 0.6 0.1 -0.5
v 0.6 0.2 0.5
v 0.6 0.2 -0.5
v -0.5 0.1 0.8
v -0.5 0.2 0.8
v -0.2 0.2 0.8
v -0.2 0.3 0.8
v -0.1 0.3 0.8
v -0.1 0.5 0.8
v 0 0.1 0.8
v 0 0.2 0.8
v 0.1 0.2 0.8
v 0.1 0.5 0.8
v -0.7 0.1 0.7
v -0.7 0.2 0.7
v -0.5 0.1 0.7
v -0.5 0.2 0.7
v -0.1 0.5 0.6
v -0.1 0.6 0.6
v 0.1 0.3 0.6
v 0.1 0.5 0.6
v 0.2 0.4 0.6
v 0.2 0.6 0.6
v 0.3 0.1 0.6
v 0.3 0.3 0.6
v 0.4 0.3 0.6
v 0.4 0.4 0.6
v 0.5 0.1 0.6
v 0.5 0.3 0.6
v -0.6 0.1 0.5
v -0.6 0.2 0.5
v -0.5 0.1 0.5
v -0.5 0.2 0.5
v -0.5 0.5 0.5
v -0.4 0.2 0.5
v -0.4 0.5 0.5
v -0.3 0.5 0.5
v -0.3 0.7 0.5
v -0.1 0.3 0.5
v -0.1 0.5 0.5
v -0.1 0.6 0.5
v 0.1 0.3 0.5
v 0.2 0.4 0.5
v 0.2 0.6 0.5
v 0.3 0.1 0.5
v 0.3 0.3 0.5
v 0.3 0.5 0.5
v 0.3 0.6 0.5
v 0.3 0.7 0.5
v 0.4 0.3 0.5
v 0.4 0.4 0.5
v 0.4 0.5 0.5
v 0.4 0.6 0.5
v 0.5 0.1 0.5
v 0.5 0.2 0.5
v 0.5 0.3 0.5
v 0.5 0.4 0.5
v 0.6 0.1 0.5
v 0.6 0.2 0.5
v -0.8 0.1 0.4
v -0.8 0.2 0.4
v -0.7 0.1 0.4
v -0.7 0.2 0.4
v -0.6 0.1 0.1
v -0.6 0.2 0.1
v -0.4 0.1 0.1
v -0.4 0.2 0.1
v -0.5 0.1 -0.2
v -0.5 0.4 -0.2
v -0.4 0.1 -0.2
v -0.4 0.2 -0.2
v -0.4 0.4 -0.2
v 0.3 0.2 -0.2
v 0.3 0.6 -0.2
v 0.4 0.2 -0.2
v 0.4 0.6 -0.2
v -0.6 0.1 -0.3
v -0.6 0.2 -0.3
v -0.5 0.1 -0.3
v -0.5 0.2 -0.3
v -0.5 0.4 -0.3
v -0.5 0.5 -0.3
v -0.4 0.2 -0.3
v -0.4 0.4 -0.3
v -0.4 0.5 -0.3
v -0.3 0.5 -0.3
v -0.3 0.7 -0.3
v 0.3 0.2 -0.3
v 0.3 0.6 -0.3
v 0.3 0.7 -0.3
v 0.4 0.2 -0.3
v 0.4 0.4 -0.3
v 0.5 0.2 -0.3
v 0.5 0.4 -0.3
v -0.6 0.1 -0.6
v -0.6 0.2 -0.6
v -0.2 0.2 -0.6
v -0.2 0.3 -0.6
v -0.1 0.3 -0.6
v 0 0.1 -0.6
v 0 0.2 -0.6
v 0.1 0.2 -0.6
v 0.1 0.3 -0.6
v -0.6 0.1 0.6
v -0.6 0.2 0.6
v -0.2 0.2 0.6
v -0.2 0.3 0.6
v -0.1 0.3 0.6
v 0 0.1 0.6
v 0 0.2 0.6
v 0.1 0.2 0.6
v 0.1 0.3 0.6
v -0.6 0.1 0.3
v -0.6 0.2 0.3
v -0.5 0.1 0.3
v -0.5 0.2 0.3
v -0.5 0.4 0.3
v -0.5 0.5 0.3
v -0.4 0.2 0.3
v -0.4 0.4 0.3
v -0.4 0.5 0.3
v -0.3 0.5 0.3
v -0.3 0.7 0.3
v 0.3 0.2 0.3
v 0.3 0.6 0.3
v 0.3 0.7 0.3
v 0.4 0.2 0.3
v 0.4 0.4 0.3
v 0.5 0.2 0.3
v 0.5 0.4 0.3
v -0.5 0.1 0.2
v -0.5 0.4 0.2
v -0.4 0.1 0.2
v -0.4 0.2 0.2
v -0.4 0.4 0.2
v 0.3 0.2 0.2
v 0.3 0.6 0.2
v 0.4 0.2 0.2
v 0.4 0.6 0.2
v -0.6 0.1 -0.1
v -0.6 0.2 -0.1
v -0.4 0.1 -0.1
v -0.4 0.2 -0.1
v -0.8 0.1 -0.4
v -0.8 0.2 -0.4
v -0.7 0.1 -0.4
v -0.7 0.2 -0.4
v -0.6 0.1 -0.5
v -0.6 0.2 -0.5
v -0.5 0.1 -0.5
v -0.5 0.2 -0.5
v -0.5 0.5 -0.5
v -0.4 0.2 -0.5
v -0.4 0.5 -0.5
v -0.3 0.5 -0.5
v -0.3 0.7 -0.5
v -0.1 0.3 -0.5
v -0.1 0.5 -0.5
v -0.1 0.6 -0.5
v 0.1 0.3 -0.5
v 0.2 0.4 -0.5
v 0.2 0.6 -0.5
v 0.3 0.1 -0.5
v 0.3 0.3 -0.5
v 0.3 0.5 -0.5
v 0.3 0.6 -0.5
v 0.3 0.7 -0.5
v 0.4 0.3 -0.5
v 0.4 0.4 -0.5
v 0.4 0.5 -0.5
v 0.4 0.6 -0.5
v 0.5 0.1 -0.5
v 0.5 0.2 -0.5
v 0.5 0.3 -0.5
v 0.5 0.4 -0.5
v 0.6 0.1 -0.5
v 0.6 0.2 -0.5
v -0.1 0.5 -0.6
v -0.1 0.6 -0.6
v 0.1 0.3 -0.6
v 0.1 0.5 -0.6
v 0.2 0.4 -0.6
v 0.2 0.6 -0.6
v 0.3 0.1 -0.6
v 0.3 0.3 -0.6
v 0.4 0.3 -0.6
v 0.4 0.4 -0.6
v 0.5 0.1 -0.6
v 0.5 0.3 -0.6
v -0.7 0.1 -0.7
v -0.7 0.2 -0.7
v -0.5 0.1 -0.7
v -0.5 0.2 -0.7
v -0.5 0.1 -0.8
v -0.5 0.2 -0.8
v -0.2 0.2 -0.8
v -0.2 0.3 -0.8
v -0.1 0.3 -0.8
v -0.1 0.5 -0.8
v 0 0.1 -0.8
v 0 0.2 -0.8
v 0.1 0.2 -0.8
v 0.1 0.5 -0.8
v -0.5 0.1 0.8
v 0 0.1 0.8
v -0.7 0.1 0.7
v -0.5 0.1 0.7
v -0.6 0.1 0.6
v 0 0.1 0.6
v 0.3 0.1 0.6
v 0.5 0.1 0.6
v -0.6 0.1 0.5
v -0.5 0.1 0.5
v 0.3 0.1 0.5
v 0.5 0.1 0.5
v 0.6 0.1 0.5
v -0.8 0.1 0.4
v -0.7 0.1 0.4
v -0.6 0.1 0.3
v -0.5 0.1 0.3
v 0.5 0.1 0.3
v -0.5 0.1 0.2
v -0.4 0.1 0.2
v -0.6 0.1 0.1
v -0.4 0.1 0.1
v -0.3 0.1 0.1
v -0.6 0.1 -0.1
v -0.4 0.1 -0.1
v -0.3 0.1 -0.1
v -0.5 0.1 -0.2
v -0.4 0.1 -0.2
v -0.6 0.1 -0.3
v -0.5 0.1 -0.3
v 0.5 0.1 -0.3
v -0.8 0.1 -0.4
v -0.7 0.1 -0.4
v -0.6 0.1 -0.5
v -0.5 0.1 -0.5
v 0.3 0.1 -0.5
v 0.5 0.1 -0.5
v 0.6 0.1 -0.5
v -0.6 0.1 -0.6
v 0 0.1 -0.6
v 0.3 0.1 -0.6
v 0.5 0.1 -0.6
v -0.7 0.1 -0.7
v -0.5 0.1 -0.7
v -0.5 0.1 -0.8
v 0 0.1 -0.8
v 0 0.2 0.8
v 0.1 0.2 0.8
v 0 0.2 0.6
v 0.1 0.2 0.6
v 0 0.2 -0.6
v 0.1 0.2 -0.6
v 0 0.2 -0.8
v 0.1 0.2 -0.8
v -0.1 0.3 0.6
v 0.1 0.3 0.6
v 0.3 0.3 0.6
v -0.1 0.3 0.5
v 0.1 0.3 0.5
v 0.3 0.3 0.5
v -0.1 0.3 -0.5
v 0.1 0.3 -0.5
v 0.3 0.3 -0.5
v -0.1 0.3 -0.6
v 0.1 0.3 -0.6
v 0.3 0.3 -0.6
v -0.5 0.2 0.8
v -0.2 0.2 0.8
v -0.7 0.2 0.7
v -0.5 0.2 0.7
v -0.6 0.2 0.6
v -0.2 0.2 0.6
v -0.6 0.2 0.5
v -0.5 0.2 0.5
v 0.5 0.2 0.5
v 0.6 0.2 0.5
v -0.8 0.2 0.4
v -0.7 0.2 0.4
v -0.6 0.2 0.3
v -0.5 0.2 0.3
v -0.4 0.2 0.3
v 0.3 0.2 0.3
v 0.4 0.2 0.3
v 0.5 0.2 0.3
v -0.4 0.2 0.2
v 0.3 0.2 0.2
v 0.4 0.2 0.2
v -0.6 0.2 0.1
v -0.4 0.2 0.1
v -0.3 0.2 0.1
v -0.6 0.2 -0.1
v -0.4 0.2 -0.1
v -0.3 0.2 -0.1
v -0.4 0.2 -0.2
v 0.3 0.2 -0.2
v 0.4 0.2 -0.2
v -0.6 0.2 -0.3
v -0.5 0.2 -0.3
v -0.4 0.2 -0.3
v 0.3 0.2 -0.3
v 0.4 0.2 -0.3
v 0.5 0.2 -0.3
v -0.8 0.2 -0.4
v -0.7 0.2 -0.4
v -0.6 0.2 -0.5
v -0.5 0.2 -0.5
v 0.5 0.2 -0.5
v 0.6 0.2 -0.5
v -0.6 0.2 -0.6
v -0.2 0.2 -0.6
v -0.7 0.2 -0.7
v -0.5 0.2 -0.7
v -0.5 0.2 -0.8
v -0.2 0.2 -0.8
v -0.2 0.3 0.8
v -0.1 0.3 0.8
v -0.2 0.3 0.6
v -0.1 0.3 0.6
v 0.4 0.3 0.6
v 0.5 0.3 0.6
v 0.4 0.3 0.5
v 0.5 0.3 0.5
v 0.4 0.3 -0.5
v 0.5 0.3 -0.5
v -0.2 0.3 -0.6
v -0.1 0.3 -0.6
v 0.4 0.3 -0.6
v 0.5 0.3 -0.6
v -0.2 0.3 -0.8
v -0.1 0.3 -0.8
v 0.2 0.4 0.6
v 0.4 0.4 0.6
v 0.2 0.4 0.5
v 0.4 0.4 0.5
v 0.5 0.4 0.5
v -0.5 0.4 0.3
v -0.4 0.4 0.3
v 0.4 0.4 0.3
v 0.5 0.4 0.3
v -0.5 0.4 0.2
v -0.4 0.4 0.2
v -0.5 0.4 -0.2
v -0.4 0.4 -0.2
v -0.5 0.4 -0.3
v -0.4 0.4 -0.3
v 0.4 0.4 -0.3
v 0.5 0.4 -0.3
v 0.2 0.4 -0.5
v 0.4 0.4 -0.5
v 0.5 0.4 -0.5
v 0.2 0.4 -0.6
v 0.4 0.4 -0.6
v -0.1 0.5 0.8
v 0.1 0.5 0.8
v -0.1 0.5 0.6
v 0.1 0.5 0.6
v -0.5 0.5 0.5
v -0.4 0.5 0.5
v -0.3 0.5 0.5
v -0.5 0.5 0.3
v -0.4 0.5 0.3
v -0.3 0.5 0.3
v -0.5 0.5 -0.3
v -0.4 0.5 -0.3
v -0.3 0.5 -0.3
v -0.5 0.5 -0.5
v -0.4 0.5 -0.5
v -0.3 0.5 -0.5
v -0.1 0.5 -0.6
v 0.1 0.5 -0.6
v -0.1 0.5 -0.8
v 0.1 0.5 -0.8
v -0.1 0.6 0.6
v 0.2 0.6 0.6
v -0.1 0.6 0.5
v 0.2 0.6 0.5
v 0.3 0.6 0.5
v 0.4 0.6 0.5
v 0.3 0.6 0.3
v 0.3 0.6 0.2
v 0.4 0.6 0.2
v 0.3 0.6 -0.2
v 0.4 0.6 -0.2
v 0.3 0.6 -0.3
v -0.1 0.6 -0.5
v 0.2 0.6 -0.5
v 0.3 0.6 -0.5
v 0.4 0.6 -0.5
v -0.1 0.6 -0.6
v 0.2 0.6 -0.6
v -0.3 0.7 0.5
v 0.3 0.7 0.5
v -0.3 0.7 0.3
v 0.3 0.7 0.3
v -0.3 0.7 -0.3
v 0.3 0.7 -0.3
v -0.3 0.7 -0.5
v 0.3 0.7 -0.5

# faces
f 3/1/1 2/1/1 1/1/1
f 4/1/1 2/1/1 3/1/1
f 9/1/1 6/1/1 5/1/1
f 10/1/1 6/1/1 9/1/1
f 11/1/1 8/1/1 7/1/1
f 12/1/1 8/1/1 11/1/1
f 21/1/1 14/1/1 13/1/1
f 22/1/1 14/1/1 21/1/1
f 24/3/1 16/3/1 15/3/1
f 25/3/1 18/3/1 17/3/1
f 27/1/1 20/1/1 19/1/1
f 28/1/1 20/1/1 27/1/1
f 29/3/1 24/3/1 23/3/1
f 29/3/1 16/3/1 24/3/1
f 30/3/1 16/3/1 29/3/1
f 31/3/1 26/3/1 25/3/1
f 31/3/1 25/3/1 17/3/1
f 32/3/1 26/3/1 31/3/1
f 33/3/1 29/3/1 23/3/1
f 34/3/1 29/3/1 33/3/1
f 35/3/1 26/3/1 32/3/1
f 36/3/1 26/3/1 35/3/1
f 41/3/1 38/3/1 37/3/1
f 42/3/1 38/3/1 41/3/1
f 43/3/1 40/3/1 39/3/1
f 44/3/1 40/3/1 43/3/1
f 49/2/1 46/2/1 45/2/1
f 50/2/1 46/2/1 49/2/1
f 51/2/1 48/2/1 47/2/1
f 52/2/1 48/2/1 51/2/1
f 57/1/1 54/1/1 53/1/1
f 58/1/1 54/1/1 57/1/1
f 59/1/1 56/1/1 55/1/1
f 60/1/1 56/1/1 59/1/1
f 67/1/1 62/1/1 61/1/1
f 67/1/1 63/1/1 62/1/1
f 68/1/1 63/1/1 67/1/1
f 69/1/1 63/1/1 68/1/1
f 70/1/1 66/1/1 65/1/1
f 70/1/1 65/1/1 64/1/1
f 71/1/1 66/1/1 70/1/1
f 72/1/1 66/1/1 71/1/1
f 73/3/1 69/3/1 68/3/1
f 74/3/1 69/3/1 73/3/1
f 75/3/1 71/3/1 70/3/1
f 76/3/1 71/3/1 75/3/1
f 85/3/1 78/3/1 77/3/1
f 86/3/1 78/3/1 85/3/1
f 87/3/1 80/3/1 79/3/1
f 88/3/1 80/3/1 87/3/1
f 89/3/1 82/3/1 81/3/1
f 90/3/1 82/3/1 89/3/1
f 91/3/1 84/3/1 83/3/1
f 92/3/1 84/3/1 91/3/1
f 93/1/2 94/1/2 101/1/2
f 101/1/2 94/1/2 102/1/2
f 95/1/2 96/1/2 103/1/2
f 103/1/2 96/1/2 104/1/2
f 97/1/2 98/1/2 105/1/2
f 105/1/2 98/1/2 106/1/2
f 99/1/2 100/1/2 107/1/2
f 107/1/2 100/1/2 108/1/2
f 109/3/2 110/3/2 113/3/2
f 113/3/2 110/3/2 114/3/2
f 111/3/2 112/3/2 115/3/2
f 115/3/2 112/3/2 116/3/2
f 117/1/2 118/1/2 121/1/2
f 121/1/2 118/1/2 122/1/2
f 119/1/2 120/1/2 123/1/2
f 123/1/2 120/1/2 124/1/2
f 125/1/2 126/1/2 129/1/2
f 127/1/2 128/1/2 130/1/2
f 125/1/2 129/1/2 131/1/2
f 131/1/2 129/1/2 132/1/2
f 130/1/2 128/1/2 133/1/2
f 133/1/2 128/1/2 134/1/2
f 135/3/2 136/3/2 139/3/2
f 139/3/2 136/3/2 140/3/2
f 137/3/2 138/3/2 141/3/2
f 141/3/2 138/3/2 142/3/2
f 143/2/2 144/2/2 147/2/2
f 147/2/2 144/2/2 148/2/2
f 145/2/2 146/2/2 149/2/2
f 149/2/2 146/2/2 150/2/2
f 155/3/2 156/3/2 159/3/2
f 159/3/2 156/3/2 160/3/2
f 151/3/2 152/3/2 161/3/2
f 153/3/2 154/3/2 162/3/2
f 157/3/2 158/3/2 163/3/2
f 163/3/2 158/3/2 164/3/2
f 160/2/2 161/2/2 165/2/2
f 161/3/2 152/3/2 166/3/2
f 165/2/2 161/2/2 166/2/2
f 162/2/2 163/2/2 167/2/2
f 153/3/2 162/3/2 167/3/2
f 167/2/2 163/2/2 168/2/2
f 165/3/2 166/3/2 169/3/2
f 166/3/2 152/3/2 170/3/2
f 169/3/2 166/3/2 170/3/2
f 153/3/2 167/3/2 171/3/2
f 167/3/2 168/3/2 171/3/2
f 171/3/2 168/3/2 172/3/2
f 173/3/2 174/3/2 177/3/2
f 175/3/2 176/3/2 180/3/2
f 177/3/2 178/3/2 181/3/2
f 173/3/2 177/3/2 181/3/2
f 181/3/2 178/3/2 182/3/2
f 179/3/2 180/3/2 183/3/2
f 180/3/2 176/3/2 183/3/2
f 183/3/2 176/3/2 184/3/2
f 182/3/2 178/3/2 185/3/2
f 185/3/2 178/3/2 186/3/2
f 179/3/2 183/3/2 187/3/2
f 187/3/2 183/3/2 188/3/2
f 189/3/2 190/3/2 191/3/2
f 191/3/2 190/3/2 192/3/2
f 195/1/3 194/1/3 193/1/3
f 197/1/3 196/1/3 195/1/3
f 199/1/3 195/1/3 193/1/3
f 199/1/3 198/1/3 197/1/3
f 199/1/3 197/1/3 195/1/3
f 200/1/3 198/1/3 199/1/3
f 201/1/3 198/1/3 200/1/3
f 202/1/3 198/1/3 201/1/3
f 205/1/3 204/1/3 203/1/3
f 206/1/3 204/1/3 205/1/3
f 210/3/3 208/3/3 207/3/3
f 211/3/3 210/3/3 209/3/3
f 212/3/3 208/3/3 210/3/3
f 212/3/3 210/3/3 211/3/3
f 214/3/3 211/3/3 209/3/3
f 215/3/3 211/3/3 214/3/3
f 215/3/3 214/3/3 213/3/3
f 216/3/3 211/3/3 215/3/3
f 217/3/3 215/3/3 213/3/3
f 218/3/3 215/3/3 217/3/3
f 221/3/3 220/3/3 219/3/3
f 222/3/3 220/3/3 221/3/3
f 224/2/3 222/2/3 221/2/3
f 224/3/3 223/3/3 222/3/3
f 225/3/3 223/3/3 224/3/3
f 226/2/3 225/2/3 224/2/3
f 228/2/3 226/2/3 224/2/3
f 228/2/3 227/2/3 226/2/3
f 229/2/3 227/2/3 228/2/3
f 230/2/3 227/2/3 229/2/3
f 231/2/3 228/2/3 224/2/3
f 233/2/3 227/2/3 230/2/3
f 234/2/3 224/2/3 221/2/3
f 234/2/3 231/2/3 224/2/3
f 235/2/3 231/2/3 234/2/3
f 236/2/3 233/2/3 232/2/3
f 237/2/3 227/2/3 233/2/3
f 237/2/3 233/2/3 236/2/3
f 238/2/3 227/2/3 237/2/3
f 240/2/3 236/2/3 232/2/3
f 241/3/3 237/3/3 236/3/3
f 241/2/3 236/2/3 240/2/3
f 242/3/3 237/3/3 241/3/3
f 245/3/3 240/3/3 239/3/3
f 246/3/3 240/3/3 245/3/3
f 247/3/3 244/3/3 243/3/3
f 248/3/3 244/3/3 247/3/3
f 251/1/3 250/1/3 249/1/3
f 252/1/3 250/1/3 251/1/3
f 255/1/3 254/1/3 253/1/3
f 256/1/3 254/1/3 255/1/3
f 259/3/3 258/3/3 257/3/3
f 260/3/3 258/3/3 259/3/3
f 261/3/3 258/3/3 260/3/3
f 264/3/3 263/3/3 262/3/3
f 265/3/3 263/3/3 264/3/3
f 268/3/3 267/3/3 266/3/3
f 269/3/3 267/3/3 268/3/3
f 273/3/3 271/3/3 270/3/3
f 274/3/3 271/3/3 273/3/3
f 275/2/3 273/2/3 272/2/3
f 275/2/3 274/2/3 273/2/3
f 277/2/3 275/2/3 272/2/3
f 277/2/3 276/2/3 275/2/3
f 278/2/3 276/2/3 277/2/3
f 279/2/3 276/2/3 278/2/3
f 282/3/3 281/3/3 280/3/3
f 283/3/3 281/3/3 282/3/3
f 286/1/3 285/1/3 284/1/3
f 288/1/3 287/1/3 286/1/3
f 289/1/3 286/1/3 284/1/3
f 289/1/3 288/1/3 286/1/3
f 290/1/3 288/1/3 289/1/3
f 291/1/3 288/1/3 290/1/3
f 292/1/3 288/1/3 291/1/3
f 293/1/4 294/1/4 295/1/4
f 295/1/4 296/1/4 297/1/4
f 293/1/4 295/1/4 298/1/4
f 295/1/4 297/1/4 298/1/4
f 298/1/4 297/1/4 299/1/4
f 299/1/4 297/1/4 300/1/4
f 300/1/4 297/1/4 301/1/4
f 302/3/4 303/3/4 304/3/4
f 304/3/4 303/3/4 305/3/4
f 306/3/4 307/3/4 309/3/4
f 309/3/4 307/3/4 310/3/4
f 308/2/4 309/2/4 311/2/4
f 309/2/4 310/2/4 311/2/4
f 308/2/4 311/2/4 313/2/4
f 311/2/4 312/2/4 313/2/4
f 313/2/4 312/2/4 314/2/4
f 314/2/4 312/2/4 315/2/4
f 316/3/4 317/3/4 318/3/4
f 318/3/4 317/3/4 319/3/4
f 320/3/4 321/3/4 322/3/4
f 322/3/4 321/3/4 323/3/4
f 323/3/4 321/3/4 324/3/4
f 325/3/4 326/3/4 327/3/4
f 327/3/4 326/3/4 328/3/4
f 329/1/4 330/1/4 331/1/4
f 331/1/4 330/1/4 332/1/4
f 333/1/4 334/1/4 335/1/4
f 335/1/4 334/1/4 336/1/4
f 337/3/4 338/3/4 339/3/4
f 339/3/4 338/3/4 340/3/4
f 339/2/4 340/2/4 342/2/4
f 340/3/4 341/3/4 342/3/4
f 342/3/4 341/3/4 343/3/4
f 342/2/4 343/2/4 344/2/4
f 342/2/4 344/2/4 346/2/4
f 344/2/4 345/2/4 346/2/4
f 346/2/4 345/2/4 347/2/4
f 347/2/4 345/2/4 348/2/4
f 342/2/4 346/2/4 349/2/4
f 348/2/4 345/2/4 351/2/4
f 339/2/4 342/2/4 352/2/4
f 342/2/4 349/2/4 352/2/4
f 352/2/4 349/2/4 353/2/4
f 350/2/4 351/2/4 354/2/4
f 351/2/4 345/2/4 355/2/4
f 354/2/4 351/2/4 355/2/4
f 355/2/4 345/2/4 356/2/4
f 350/2/4 354/2/4 358/2/4
f 354/3/4 355/3/4 359/3/4
f 358/2/4 354/2/4 359/2/4
f 359/3/4 355/3/4 360/3/4
f 357/3/4 358/3/4 363/3/4
f 363/3/4 358/3/4 364/3/4
f 361/3/4 362/3/4 365/3/4
f 365/3/4 362/3/4 366/3/4
f 367/3/4 368/3/4 370/3/4
f 369/3/4 370/3/4 371/3/4
f 370/3/4 368/3/4 372/3/4
f 371/3/4 370/3/4 372/3/4
f 369/3/4 371/3/4 374/3/4
f 374/3/4 371/3/4 375/3/4
f 373/3/4 374/3/4 375/3/4
f 375/3/4 371/3/4 376/3/4
f 373/3/4 375/3/4 377/3/4
f 377/3/4 375/3/4 378/3/4
f 379/1/4 380/1/4 381/1/4
f 381/1/4 380/1/4 382/1/4
f 383/1/4 384/1/4 385/1/4
f 385/1/4 386/1/4 387/1/4
f 383/1/4 385/1/4 389/1/4
f 387/1/4 388/1/4 389/1/4
f 385/1/4 387/1/4 389/1/4
f 389/1/4 388/1/4 390/1/4
f 390/1/4 388/1/4 391/1/4
f 391/1/4 388/1/4 392/1/4
f 396/1/5 394/1/5 393/1/5
f 397/1/5 396/1/5 395/1/5
f 398/1/5 394/1/5 396/1/5
f 398/1/5 396/1/5 397/1/5
f 401/1/5 397/1/5 395/1/5
f 403/3/5 400/3/5 399/3/5
f 404/3/5 400/3/5 403/3/5
f 407/1/5 401/1/5 395/1/5
f 408/3/5 402/3/5 401/3/5
f 408/1/5 407/1/5 406/1/5
f 408/1/5 401/1/5 407/1/5
f 409/2/5 403/2/5 402/2/5
f 409/3/5 402/3/5 408/3/5
f 409/2/5 404/2/5 403/2/5
f 410/3/5 405/3/5 404/3/5
f 410/2/5 404/2/5 409/2/5
f 411/3/5 410/3/5 409/3/5
f 412/3/5 410/3/5 411/3/5
f 413/1/5 408/1/5 406/1/5
f 414/3/5 410/3/5 412/3/5
f 415/3/5 410/3/5 414/3/5
f 416/1/5 413/1/5 406/1/5
f 416/1/5 414/1/5 413/1/5
f 416/1/5 415/1/5 414/1/5
f 417/1/5 415/1/5 416/1/5
f 418/3/5 410/3/5 415/3/5
f 418/1/5 415/1/5 417/1/5
f 420/3/5 418/3/5 417/3/5
f 421/1/5 416/1/5 406/1/5
f 422/3/5 420/3/5 419/3/5
f 423/3/5 405/3/5 410/3/5
f 423/3/5 410/3/5 418/3/5
f 423/3/5 420/3/5 422/3/5
f 423/3/5 418/3/5 420/3/5
f 424/1/5 421/1/5 406/1/5
f 425/1/5 421/1/5 424/1/5
f 426/3/5 422/3/5 421/3/5
f 426/1/5 421/1/5 425/1/5
f 427/2/5 423/2/5 422/2/5
f 427/3/5 422/3/5 426/3/5
f 428/2/5 423/2/5 427/2/5
f 429/3/5 405/3/5 423/3/5
f 429/2/5 423/2/5 428/2/5
f 430/3/5 405/3/5 429/3/5
f 431/1/5 426/1/5 425/1/5
f 433/3/5 429/3/5 428/3/5
f 434/3/5 429/3/5 433/3/5
f 435/1/5 432/1/5 431/1/5
f 435/1/5 431/1/5 425/1/5
f 436/1/5 432/1/5 435/1/5
f 437/1/5 432/1/5 436/1/5
f 438/1/5 432/1/5 437/1/5
f 441/1/5 440/1/5 439/1/5
f 442/1/5 440/1/5 441/1/5
f 445/1/5 444/1/5 443/1/5
f 446/1/5 444/1/5 445/1/5
f 450/1/5 448/1/5 447/1/5
f 451/3/5 449/3/5 448/3/5
f 451/1/5 448/1/5 450/1/5
f 452/3/5 449/3/5 451/3/5
f 456/1/5 454/1/5 453/1/5
f 457/3/5 455/3/5 454/3/5
f 457/1/5 454/1/5 456/1/5
f 458/3/5 455/3/5 457/3/5
f 459/1/6 460/1/6 462/1/6
f 461/1/6 462/1/6 463/1/6
f 462/1/6 460/1/6 464/1/6
f 463/1/6 462/1/6 464/1/6
f 461/1/6 463/1/6 465/1/6
f 461/1/6 465/1/6 470/1/6
f 465/3/6 466/3/6 471/3/6
f 469/1/6 470/1/6 471/1/6
f 470/1/6 465/1/6 471/1/6
f 471/3/6 466/3/6 472/3/6
f 467/3/6 468/3/6 476/3/6
f 473/3/6 474/3/6 477/3/6
f 477/3/6 474/3/6 478/3/6
f 475/3/6 476/3/6 479/3/6
f 469/1/6 471/1/6 480/1/6
f 477/3/6 478/3/6 481/3/6
f 478/3/6 479/3/6 481/3/6
f 481/3/6 479/3/6 482/3/6
f 469/1/6 480/1/6 483/1/6
f 480/1/6 481/1/6 483/1/6
f 481/1/6 482/1/6 483/1/6
f 483/1/6 482/1/6 484/1/6
f 482/3/6 479/3/6 485/3/6
f 484/1/6 482/1/6 485/1/6
f 484/3/6 485/3/6 486/3/6
f 485/3/6 479/3/6 487/3/6
f 486/3/6 485/3/6 487/3/6
f 479/3/6 476/3/6 488/3/6
f 487/3/6 479/3/6 488/3/6
f 469/1/6 483/1/6 489/1/6
f 486/3/6 487/3/6 491/3/6
f 491/3/6 487/3/6 492/3/6
f 488/3/6 476/3/6 493/3/6
f 476/3/6 468/3/6 494/3/6
f 493/3/6 476/3/6 494/3/6
f 469/1/6 489/1/6 495/1/6
f 495/1/6 489/1/6 496/1/6
f 489/3/6 490/3/6 497/3/6
f 496/1/6 489/1/6 497/1/6
f 497/3/6 490/3/6 498/3/6
f 494/3/6 468/3/6 499/3/6
f 499/3/6 468/3/6 500/3/6
f 496/1/6 497/1/6 501/1/6
f 496/1/6 501/1/6 503/1/6
f 501/1/6 502/1/6 503/1/6
f 503/1/6 502/1/6 504/1/6
f 504/1/6 502/1/6 505/1/6
f 505/1/6 502/1/6 506/1/6
f 507/1/6 508/1/6 509/1/6
f 509/1/6 508/1/6 510/1/6
f 511/3/6 512/3/6 513/3/6
f 513/3/6 512/3/6 514/3/6
f 515/3/6 516/3/6 519/3/6
f 519/3/6 516/3/6 520/3/6
f 517/1/6 518/1/6 521/1/6
f 521/1/6 518/1/6 522/1/6
f 523/3/6 524/3/6 525/3/6
f 525/3/6 524/3/6 526/3/6
f 526/3/6 527/3/6 530/3/6
f 530/3/6 527/3/6 531/3/6
f 528/3/6 529/3/6 532/3/6
f 532/3/6 529/3/6 533/3/6
f 534/3/6 535/3/6 536/3/6
f 536/3/6 535/3/6 537/3/6
f 538/3/6 539/3/6 541/3/6
f 541/3/6 539/3/6 542/3/6
f 540/3/6 541/3/6 543/3/6
f 543/3/6 541/3/6 544/3/6
f 545/1/6 546/1/6 547/1/6
f 547/1/6 546/1/6 548/1/6
f 549/3/6 550/3/6 552/3/6
f 550/2/6 551/2/6 553/2/6
f 552/3/6 550/3/6 553/3/6
f 553/2/6 551/2/6 554/2/6
f 555/3/6 556/3/6 558/3/6
f 556/2/6 557/2/6 559/2/6
f 558/3/6 556/3/6 559/3/6
f 559/2/6 557/2/6 560/2/6
f 561/1/6 562/1/6 563/1/6
f 563/1/6 562/1/6 564/1/6
f 565/3/6 566/3/6 567/3/6
f 567/3/6 566/3/6 568/3/6
f 569/3/6 570/3/6 571/3/6
f 571/3/6 570/3/6 572/3/6
f 572/3/6 570/3/6 573/3/6
f 574/3/6 575/3/6 576/3/6
f 576/3/6 575/3/6 579/3/6
f 579/3/6 575/3/6 580/3/6
f 577/3/6 578/3/6 581/3/6
f 581/3/6 578/3/6 582/3/6
f 583/2/6 584/2/6 585/2/6
f 585/2/6 584/2/6 586/2/6
f 587/2/6 588/2/6 589/2/6
f 589/2/6 588/2/6 590/2/6
