# MagicaVoxel @ Ephtracy

# group
o 

# material
mtllib RocketLauncher1-7.mtl
usemtl palette

# normals
vn -1 0 0
vn 1 0 0
vn 0 0 1
vn 0 0 -1
vn 0 -1 0
vn 0 1 0

# texcoords
vt 0.857422 0.5
vt 0.904297 0.5
vt 0.958984 0.5
vt 0.994141 0.5

# verts
v -0.8 0.4 -0.6
v -0.8 0.4 -1
v -0.8 0.5 -0.6
v -0.8 0.5 -1
v -0.7 0.4 -0.2
v -0.7 0.4 -0.6
v -0.7 0.5 -0.2
v -0.7 0.5 -0.6
v -0.7 0.5 -0.7
v -0.7 0.5 -0.9
v -0.7 1 -0.2
v -0.7 1 -0.4
v -0.7 1.4 -0.7
v -0.7 1.4 -0.9
v -0.7 2 -0.2
v -0.7 2 -0.4
v -0.6 0.5 -0.3
v -0.6 0.5 -0.7
v -0.6 1 -0.3
v -0.6 1 -0.4
v -0.6 1.4 -0.7
v -0.6 1.4 -0.8
v -0.6 2 -0.3
v -0.6 2 -0.4
v -0.6 2 -0.8
v -0.6 2.1 -0.3
v -0.6 2.1 -0.8
v -0.5 0.4 -0.1
v -0.5 0.4 -0.2
v -0.5 0.5 -0.2
v -0.5 0.5 -0.3
v -0.5 0.6 -0.1
v -0.5 0.6 -0.2
v -0.5 1 -0.2
v -0.5 1 -0.3
v -0.4 0.4 0.3
v -0.4 0.4 -0.1
v -0.4 0.5 0.3
v -0.4 0.5 0
v -0.4 0.6 0
v -0.4 0.6 -0.1
v -0.3 0.4 0.4
v -0.3 0.4 0.3
v -0.3 0.5 0.4
v -0.3 0.5 0.3
v -0.3 0.5 0.2
v -0.3 0.5 0
v -0.3 0.6 0.2
v -0.3 0.6 0.1
v -0.3 0.6 0
v -0.3 0.6 -0.2
v -0.3 0.8 0.1
v -0.3 0.8 -0.1
v -0.3 0.9 -0.1
v -0.3 0.9 -0.2
v -0.1 0.5 -0.8
v -0.1 0.5 -0.9
v -0.1 0.9 -0.8
v -0.1 0.9 -0.9
v 0.1 0.4 0.4
v 0.1 0.4 0.3
v 0.1 0.4 -0.3
v 0.1 0.4 -0.7
v 0.1 0.5 0.4
v 0.1 0.5 0.3
v 0.1 0.5 0.2
v 0.1 0.5 0.1
v 0.1 0.6 0.2
v 0.1 0.6 0.1
v 0.1 0.6 -0.1
v 0.1 0.7 -0.1
v 0.1 0.7 -0.3
v 0.1 0.8 0.1
v 0.1 0.8 -0.1
v 0.1 0.9 -0.1
v 0.1 0.9 -0.2
v 0.1 0.9 -0.3
v 0.1 0.9 -0.7
v 0.1 1 -0.2
v 0.1 1 -0.3
v 0.1 1.1 -0.3
v 0.1 1.1 -0.7
v 0.1 1.3 -0.7
v 0.1 1.3 -0.8
v 0.1 2 -0.3
v 0.1 2 -0.8
v 0.1 2.1 -0.3
v 0.1 2.1 -0.8
v 0.3 1.2 -0.8
v 0.3 1.2 -0.9
v 0.3 1.3 -0.8
v 0.3 1.3 -0.9
v 0.3 1.8 -0.2
v 0.3 1.8 -0.3
v 0.3 2 -0.2
v 0.3 2 -0.3
v 0.4 0.4 -0.9
v 0.4 0.4 -1
v 0.4 0.5 -0.9
v 0.4 0.5 -1
v 0.4 1.1 -0.2
v 0.4 1.1 -0.3
v 0.4 1.8 -0.2
v 0.4 1.8 -0.3
v 0.5 0.5 -0.8
v 0.5 0.5 -0.9
v 0.5 0.9 -0.8
v 0.5 0.9 -0.9
v 0.5 1.3 -0.8
v 0.5 1.3 -0.9
v 0.5 1.4 -0.8
v 0.5 1.4 -0.9
v -0.5 0.5 -0.8
v -0.5 0.5 -0.9
v -0.5 0.9 -0.8
v -0.5 0.9 -0.9
v -0.5 1.3 -0.8
v -0.5 1.3 -0.9
v -0.5 1.4 -0.8
v -0.5 1.4 -0.9
v -0.4 0.4 -0.9
v -0.4 0.4 -1
v -0.4 0.5 -0.9
v -0.4 0.5 -1
v -0.4 1.1 -0.2
v -0.4 1.1 -0.3
v -0.4 1.8 -0.2
v -0.4 1.8 -0.3
v -0.3 1.2 -0.8
v -0.3 1.2 -0.9
v -0.3 1.3 -0.8
v -0.3 1.3 -0.9
v -0.3 1.8 -0.2
v -0.3 1.8 -0.3
v -0.3 2 -0.2
v -0.3 2 -0.3
v -0.1 0.4 0.4
v -0.1 0.4 0.3
v -0.1 0.4 -0.3
v -0.1 0.4 -0.7
v -0.1 0.5 0.4
v -0.1 0.5 0.3
v -0.1 0.5 0.2
v -0.1 0.5 0.1
v -0.1 0.6 0.2
v -0.1 0.6 0.1
v -0.1 0.6 -0.1
v -0.1 0.7 -0.1
v -0.1 0.7 -0.3
v -0.1 0.8 0.1
v -0.1 0.8 -0.1
v -0.1 0.9 -0.1
v -0.1 0.9 -0.2
v -0.1 0.9 -0.3
v -0.1 0.9 -0.7
v -0.1 1 -0.2
v -0.1 1 -0.3
v -0.1 1.1 -0.3
v -0.1 1.1 -0.7
v -0.1 1.3 -0.7
v -0.1 1.3 -0.8
v -0.1 2 -0.3
v -0.1 2 -0.8
v -0.1 2.1 -0.3
v -0.1 2.1 -0.8
v 0.1 0.5 -0.8
v 0.1 0.5 -0.9
v 0.1 0.9 -0.8
v 0.1 0.9 -0.9
v 0.3 0.4 0.4
v 0.3 0.4 0.3
v 0.3 0.5 0.4
v 0.3 0.5 0.3
v 0.3 0.5 0.2
v 0.3 0.5 0
v 0.3 0.6 0.2
v 0.3 0.6 0.1
v 0.3 0.6 0
v 0.3 0.6 -0.2
v 0.3 0.8 0.1
v 0.3 0.8 -0.1
v 0.3 0.9 -0.1
v 0.3 0.9 -0.2
v 0.4 0.4 0.3
v 0.4 0.4 -0.1
v 0.4 0.5 0.3
v 0.4 0.5 0
v 0.4 0.6 0
v 0.4 0.6 -0.1
v 0.5 0.4 -0.1
v 0.5 0.4 -0.2
v 0.5 0.5 -0.2
v 0.5 0.5 -0.3
v 0.5 0.6 -0.1
v 0.5 0.6 -0.2
v 0.5 1 -0.2
v 0.5 1 -0.3
v 0.6 0.5 -0.3
v 0.6 0.5 -0.7
v 0.6 1 -0.3
v 0.6 1 -0.4
v 0.6 1.4 -0.7
v 0.6 1.4 -0.8
v 0.6 2 -0.3
v 0.6 2 -0.4
v 0.6 2 -0.8
v 0.6 2.1 -0.3
v 0.6 2.1 -0.8
v 0.7 0.4 -0.2
v 0.7 0.4 -0.6
v 0.7 0.5 -0.2
v 0.7 0.5 -0.6
v 0.7 0.5 -0.7
v 0.7 0.5 -0.9
v 0.7 1 -0.2
v 0.7 1 -0.4
v 0.7 1.4 -0.7
v 0.7 1.4 -0.9
v 0.7 2 -0.2
v 0.7 2 -0.4
v 0.8 0.4 -0.6
v 0.8 0.4 -1
v 0.8 0.5 -0.6
v 0.8 0.5 -1
v -0.3 0.4 0.4
v -0.3 0.5 0.4
v -0.1 0.4 0.4
v -0.1 0.5 0.4
v 0.1 0.4 0.4
v 0.1 0.5 0.4
v 0.3 0.4 0.4
v 0.3 0.5 0.4
v -0.4 0.4 0.3
v -0.4 0.5 0.3
v -0.3 0.4 0.3
v -0.3 0.5 0.3
v -0.1 0.4 0.3
v -0.1 0.5 0.3
v 0.1 0.4 0.3
v 0.1 0.5 0.3
v 0.3 0.4 0.3
v 0.3 0.5 0.3
v 0.4 0.4 0.3
v 0.4 0.5 0.3
v -0.3 0.5 0.2
v -0.3 0.6 0.2
v -0.1 0.5 0.2
v -0.1 0.6 0.2
v 0.1 0.5 0.2
v 0.1 0.6 0.2
v 0.3 0.5 0.2
v 0.3 0.6 0.2
v -0.3 0.6 0.1
v -0.3 0.8 0.1
v -0.1 0.5 0.1
v -0.1 0.6 0.1
v -0.1 0.8 0.1
v 0.1 0.5 0.1
v 0.1 0.6 0.1
v 0.1 0.8 0.1
v 0.3 0.6 0.1
v 0.3 0.8 0.1
v -0.4 0.5 0
v -0.4 0.6 0
v -0.3 0.5 0
v -0.3 0.6 0
v 0.3 0.5 0
v 0.3 0.6 0
v 0.4 0.5 0
v 0.4 0.6 0
v -0.5 0.4 -0.1
v -0.5 0.6 -0.1
v -0.4 0.4 -0.1
v -0.4 0.6 -0.1
v -0.3 0.8 -0.1
v -0.3 0.9 -0.1
v -0.1 0.6 -0.1
v -0.1 0.7 -0.1
v -0.1 0.8 -0.1
v -0.1 0.9 -0.1
v 0.1 0.6 -0.1
v 0.1 0.7 -0.1
v 0.1 0.8 -0.1
v 0.1 0.9 -0.1
v 0.3 0.8 -0.1
v 0.3 0.9 -0.1
v 0.4 0.4 -0.1
v 0.4 0.6 -0.1
v 0.5 0.4 -0.1
v 0.5 0.6 -0.1
v -0.7 0.4 -0.2
v -0.7 0.5 -0.2
v -0.7 1 -0.2
v -0.7 2 -0.2
v -0.5 0.4 -0.2
v -0.5 0.5 -0.2
v -0.5 0.6 -0.2
v -0.5 1 -0.2
v -0.5 1.1 -0.2
v -0.5 2 -0.2
v -0.4 1.1 -0.2
v -0.4 1.8 -0.2
v -0.3 0.6 -0.2
v -0.3 0.9 -0.2
v -0.3 1 -0.2
v -0.3 1.8 -0.2
v -0.3 2 -0.2
v -0.1 0.9 -0.2
v -0.1 1 -0.2
v 0.1 0.9 -0.2
v 0.1 1 -0.2
v 0.3 0.6 -0.2
v 0.3 0.9 -0.2
v 0.3 1 -0.2
v 0.3 1.8 -0.2
v 0.3 2 -0.2
v 0.4 1.1 -0.2
v 0.4 1.8 -0.2
v 0.5 0.4 -0.2
v 0.5 0.5 -0.2
v 0.5 0.6 -0.2
v 0.5 1 -0.2
v 0.5 1.1 -0.2
v 0.5 2 -0.2
v 0.7 0.4 -0.2
v 0.7 0.5 -0.2
v 0.7 1 -0.2
v 0.7 2 -0.2
v -0.6 0.5 -0.3
v -0.6 1 -0.3
v -0.6 2 -0.3
v -0.6 2.1 -0.3
v -0.5 0.5 -0.3
v -0.5 1 -0.3
v -0.5 2 -0.3
v -0.4 1.1 -0.3
v -0.4 1.8 -0.3
v -0.3 1.8 -0.3
v -0.3 2 -0.3
v -0.1 0.9 -0.3
v -0.1 1 -0.3
v -0.1 1.1 -0.3
v -0.1 2 -0.3
v -0.1 2.1 -0.3
v 0.1 0.9 -0.3
v 0.1 1 -0.3
v 0.1 1.1 -0.3
v 0.1 2 -0.3
v 0.1 2.1 -0.3
v 0.3 1.8 -0.3
v 0.3 2 -0.3
v 0.4 1.1 -0.3
v 0.4 1.8 -0.3
v 0.5 0.5 -0.3
v 0.5 1 -0.3
v 0.5 2 -0.3
v 0.6 0.5 -0.3
v 0.6 1 -0.3
v 0.6 2 -0.3
v 0.6 2.1 -0.3
v -0.8 0.4 -0.6
v -0.8 0.5 -0.6
v -0.7 0.4 -0.6
v -0.7 0.5 -0.6
v 0.7 0.4 -0.6
v 0.7 0.5 -0.6
v 0.8 0.4 -0.6
v 0.8 0.5 -0.6
v -0.7 0.5 -0.7
v -0.7 1.4 -0.7
v -0.6 0.5 -0.7
v -0.6 1.4 -0.7
v -0.1 0.4 -0.7
v -0.1 0.9 -0.7
v -0.1 1.1 -0.7
v -0.1 1.3 -0.7
v 0.1 0.4 -0.7
v 0.1 0.9 -0.7
v 0.1 1.1 -0.7
v 0.1 1.3 -0.7
v 0.6 0.5 -0.7
v 0.6 1.4 -0.7
v 0.7 0.5 -0.7
v 0.7 1.4 -0.7
v -0.1 0.4 -0.3
v -0.1 0.7 -0.3
v 0.1 0.4 -0.3
v 0.1 0.7 -0.3
v -0.7 1 -0.4
v -0.7 2 -0.4
v -0.6 1 -0.4
v -0.6 2 -0.4
v 0.6 1 -0.4
v 0.6 2 -0.4
v 0.7 1 -0.4
v 0.7 2 -0.4
v -0.6 1.4 -0.8
v -0.6 2 -0.8
v -0.6 2.1 -0.8
v -0.5 0.5 -0.8
v -0.5 0.9 -0.8
v -0.5 1.3 -0.8
v -0.5 1.4 -0.8
v -0.3 1.2 -0.8
v -0.3 1.3 -0.8
v -0.1 0.5 -0.8
v -0.1 0.9 -0.8
v -0.1 1.2 -0.8
v -0.1 1.3 -0.8
v -0.1 2 -0.8
v -0.1 2.1 -0.8
v 0.1 0.5 -0.8
v 0.1 0.9 -0.8
v 0.1 1.2 -0.8
v 0.1 1.3 -0.8
v 0.1 2 -0.8
v 0.1 2.1 -0.8
v 0.3 1.2 -0.8
v 0.3 1.3 -0.8
v 0.5 0.5 -0.8
v 0.5 0.9 -0.8
v 0.5 1.3 -0.8
v 0.5 1.4 -0.8
v 0.6 1.4 -0.8
v 0.6 2 -0.8
v 0.6 2.1 -0.8
v -0.7 0.5 -0.9
v -0.7 1.4 -0.9
v -0.5 0.5 -0.9
v -0.5 0.9 -0.9
v -0.5 1.1 -0.9
v -0.5 1.3 -0.9
v -0.5 1.4 -0.9
v -0.4 0.4 -0.9
v -0.4 0.5 -0.9
v -0.3 1.2 -0.9
v -0.3 1.3 -0.9
v -0.1 0.5 -0.9
v -0.1 0.9 -0.9
v 0.1 0.5 -0.9
v 0.1 0.9 -0.9
v 0.3 1.2 -0.9
v 0.3 1.3 -0.9
v 0.4 0.4 -0.9
v 0.4 0.5 -0.9
v 0.5 0.5 -0.9
v 0.5 0.9 -0.9
v 0.5 1.1 -0.9
v 0.5 1.3 -0.9
v 0.5 1.4 -0.9
v 0.7 0.5 -0.9
v 0.7 1.4 -0.9
v -0.8 0.4 -1
v -0.8 0.5 -1
v -0.4 0.4 -1
v -0.4 0.5 -1
v 0.4 0.4 -1
v 0.4 0.5 -1
v 0.8 0.4 -1
v 0.8 0.5 -1
v -0.3 0.4 0.4
v -0.1 0.4 0.4
v 0.1 0.4 0.4
v 0.3 0.4 0.4
v -0.4 0.4 0.3
v -0.3 0.4 0.3
v -0.1 0.4 0.3
v 0.1 0.4 0.3
v 0.3 0.4 0.3
v 0.4 0.4 0.3
v -0.1 0.4 0.2
v 0.1 0.4 0.2
v -0.5 0.4 -0.1
v -0.4 0.4 -0.1
v 0.4 0.4 -0.1
v 0.5 0.4 -0.1
v -0.7 0.4 -0.2
v -0.5 0.4 -0.2
v 0.5 0.4 -0.2
v 0.7 0.4 -0.2
v -0.6 0.4 -0.3
v -0.3 0.4 -0.3
v -0.1 0.4 -0.3
v 0.1 0.4 -0.3
v 0.3 0.4 -0.3
v 0.6 0.4 -0.3
v -0.8 0.4 -0.6
v -0.7 0.4 -0.6
v 0.7 0.4 -0.6
v 0.8 0.4 -0.6
v -0.7 0.4 -0.7
v -0.6 0.4 -0.7
v -0.1 0.4 -0.7
v 0.1 0.4 -0.7
v 0.6 0.4 -0.7
v 0.7 0.4 -0.7
v -0.6 0.4 -0.8
v -0.5 0.4 -0.8
v -0.1 0.4 -0.8
v 0.1 0.4 -0.8
v 0.5 0.4 -0.8
v 0.6 0.4 -0.8
v -0.7 0.4 -0.9
v -0.5 0.4 -0.9
v -0.4 0.4 -0.9
v 0.4 0.4 -0.9
v 0.5 0.4 -0.9
v 0.7 0.4 -0.9
v -0.8 0.4 -1
v -0.4 0.4 -1
v 0.4 0.4 -1
v 0.8 0.4 -1
v -0.1 0.9 -0.3
v 0.1 0.9 -0.3
v -0.1 0.9 -0.7
v 0.1 0.9 -0.7
v -0.5 0.9 -0.8
v -0.1 0.9 -0.8
v 0.1 0.9 -0.8
v 0.5 0.9 -0.8
v -0.5 0.9 -0.9
v -0.1 0.9 -0.9
v 0.1 0.9 -0.9
v 0.5 0.9 -0.9
v -0.7 1 -0.2
v -0.5 1 -0.2
v -0.1 1 -0.2
v 0.1 1 -0.2
v 0.5 1 -0.2
v 0.7 1 -0.2
v -0.6 1 -0.3
v -0.5 1 -0.3
v -0.1 1 -0.3
v 0.1 1 -0.3
v 0.5 1 -0.3
v 0.6 1 -0.3
v -0.7 1 -0.4
v -0.6 1 -0.4
v 0.6 1 -0.4
v 0.7 1 -0.4
v -0.4 1.8 -0.2
v -0.3 1.8 -0.2
v 0.3 1.8 -0.2
v 0.4 1.8 -0.2
v -0.4 1.8 -0.3
v -0.3 1.8 -0.3
v 0.3 1.8 -0.3
v 0.4 1.8 -0.3
v -0.3 0.5 0.4
v -0.1 0.5 0.4
v 0.1 0.5 0.4
v 0.3 0.5 0.4
v -0.4 0.5 0.3
v -0.3 0.5 0.3
v -0.1 0.5 0.3
v 0.1 0.5 0.3
v 0.3 0.5 0.3
v 0.4 0.5 0.3
v -0.3 0.5 0.2
v -0.1 0.5 0.2
v 0.1 0.5 0.2
v 0.3 0.5 0.2
v -0.1 0.5 0.1
v 0.1 0.5 0.1
v -0.4 0.5 0
v -0.3 0.5 0
v 0.3 0.5 0
v 0.4 0.5 0
v -0.7 0.5 -0.2
v -0.5 0.5 -0.2
v 0.5 0.5 -0.2
v 0.7 0.5 -0.2
v -0.6 0.5 -0.3
v -0.5 0.5 -0.3
v 0.5 0.5 -0.3
v 0.6 0.5 -0.3
v -0.8 0.5 -0.6
v -0.7 0.5 -0.6
v 0.7 0.5 -0.6
v 0.8 0.5 -0.6
v -0.7 0.5 -0.7
v -0.6 0.5 -0.7
v 0.6 0.5 -0.7
v 0.7 0.5 -0.7
v -0.5 0.5 -0.8
v -0.1 0.5 -0.8
v 0.1 0.5 -0.8
v 0.5 0.5 -0.8
v -0.7 0.5 -0.9
v -0.5 0.5 -0.9
v -0.4 0.5 -0.9
v -0.1 0.5 -0.9
v 0.1 0.5 -0.9
v 0.4 0.5 -0.9
v 0.5 0.5 -0.9
v 0.7 0.5 -0.9
v -0.8 0.5 -1
v -0.4 0.5 -1
v 0.4 0.5 -1
v 0.8 0.5 -1
v -0.3 0.6 0.2
v -0.1 0.6 0.2
v 0.1 0.6 0.2
v 0.3 0.6 0.2
v -0.3 0.6 0.1
v -0.1 0.6 0.1
v 0.1 0.6 0.1
v 0.3 0.6 0.1
v -0.4 0.6 0
v -0.3 0.6 0
v 0.3 0.6 0
v 0.4 0.6 0
v -0.5 0.6 -0.1
v -0.4 0.6 -0.1
v -0.1 0.6 -0.1
v 0.1 0.6 -0.1
v 0.4 0.6 -0.1
v 0.5 0.6 -0.1
v -0.5 0.6 -0.2
v -0.3 0.6 -0.2
v 0.3 0.6 -0.2
v 0.5 0.6 -0.2
v -0.1 0.7 -0.1
v 0.1 0.7 -0.1
v -0.1 0.7 -0.3
v 0.1 0.7 -0.3
v -0.3 0.8 0.1
v -0.1 0.8 0.1
v 0.1 0.8 0.1
v 0.3 0.8 0.1
v -0.3 0.8 -0.1
v -0.1 0.8 -0.1
v 0.1 0.8 -0.1
v 0.3 0.8 -0.1
v -0.3 0.9 -0.1
v -0.1 0.9 -0.1
v 0.1 0.9 -0.1
v 0.3 0.9 -0.1
v -0.3 0.9 -0.2
v -0.1 0.9 -0.2
v 0.1 0.9 -0.2
v 0.3 0.9 -0.2
v -0.4 1.1 -0.2
v 0.4 1.1 -0.2
v -0.4 1.1 -0.3
v -0.1 1.1 -0.3
v 0.1 1.1 -0.3
v 0.4 1.1 -0.3
v -0.1 1.1 -0.7
v 0.1 1.1 -0.7
v -0.3 1.2 -0.8
v -0.1 1.2 -0.8
v 0.1 1.2 -0.8
v 0.3 1.2 -0.8
v -0.3 1.2 -0.9
v 0.3 1.2 -0.9
v -0.1 1.3 -0.7
v 0.1 1.3 -0.7
v -0.5 1.3 -0.8
v -0.3 1.3 -0.8
v -0.1 1.3 -0.8
v 0.1 1.3 -0.8
v 0.3 1.3 -0.8
v 0.5 1.3 -0.8
v -0.5 1.3 -0.9
v -0.3 1.3 -0.9
v 0.3 1.3 -0.9
v 0.5 1.3 -0.9
v -0.7 1.4 -0.7
v -0.6 1.4 -0.7
v 0.6 1.4 -0.7
v 0.7 1.4 -0.7
v -0.6 1.4 -0.8
v -0.5 1.4 -0.8
v 0.5 1.4 -0.8
v 0.6 1.4 -0.8
v -0.7 1.4 -0.9
v -0.5 1.4 -0.9
v 0.5 1.4 -0.9
v 0.7 1.4 -0.9
v -0.7 2 -0.2
v -0.5 2 -0.2
v -0.3 2 -0.2
v 0.3 2 -0.2
v 0.5 2 -0.2
v 0.7 2 -0.2
v -0.6 2 -0.3
v -0.5 2 -0.3
v -0.3 2 -0.3
v 0.3 2 -0.3
v 0.5 2 -0.3
v 0.6 2 -0.3
v -0.7 2 -0.4
v -0.6 2 -0.4
v 0.6 2 -0.4
v 0.7 2 -0.4
v -0.6 2.1 -0.3
v -0.1 2.1 -0.3
v 0.1 2.1 -0.3
v 0.6 2.1 -0.3
v -0.5 2.1 -0.4
v -0.2 2.1 -0.4
v 0.2 2.1 -0.4
v 0.5 2.1 -0.4
v -0.5 2.1 -0.7
v -0.2 2.1 -0.7
v 0.2 2.1 -0.7
v 0.5 2.1 -0.7
v -0.6 2.1 -0.8
v -0.1 2.1 -0.8
v 0.1 2.1 -0.8
v 0.6 2.1 -0.8

# faces
f 3/2/1 2/2/1 1/2/1
f 4/2/1 2/2/1 3/2/1
f 7/2/1 6/2/1 5/2/1
f 8/2/1 6/2/1 7/2/1
f 13/4/1 10/4/1 9/4/1
f 14/4/1 10/4/1 13/4/1
f 15/4/1 12/4/1 11/4/1
f 16/4/1 12/4/1 15/4/1
f 19/1/1 18/1/1 17/1/1
f 20/1/1 18/1/1 19/1/1
f 21/1/1 18/1/1 20/1/1
f 24/1/1 21/1/1 20/1/1
f 24/1/1 22/1/1 21/1/1
f 25/1/1 22/1/1 24/1/1
f 26/2/1 24/2/1 23/2/1
f 26/2/1 25/2/1 24/2/1
f 27/2/1 25/2/1 26/2/1
f 30/2/1 29/2/1 28/2/1
f 32/2/1 30/2/1 28/2/1
f 32/2/1 31/2/1 30/2/1
f 33/2/1 31/2/1 32/2/1
f 34/2/1 31/2/1 33/2/1
f 35/2/1 31/2/1 34/2/1
f 38/2/1 37/2/1 36/2/1
f 39/2/1 37/2/1 38/2/1
f 40/2/1 37/2/1 39/2/1
f 41/2/1 37/2/1 40/2/1
f 44/2/1 43/2/1 42/2/1
f 45/2/1 43/2/1 44/2/1
f 48/1/1 47/1/1 46/1/1
f 49/1/1 47/1/1 48/1/1
f 50/1/1 47/1/1 49/1/1
f 52/1/1 51/1/1 50/1/1
f 52/1/1 50/1/1 49/1/1
f 53/1/1 51/1/1 52/1/1
f 54/1/1 51/1/1 53/1/1
f 55/1/1 51/1/1 54/1/1
f 58/2/1 57/2/1 56/2/1
f 59/2/1 57/2/1 58/2/1
f 64/2/1 61/2/1 60/2/1
f 65/2/1 61/2/1 64/2/1
f 68/1/1 67/1/1 66/1/1
f 69/1/1 67/1/1 68/1/1
f 71/1/1 70/1/1 69/1/1
f 72/1/1 63/1/1 62/1/1
f 73/1/1 71/1/1 69/1/1
f 73/1/1 72/1/1 71/1/1
f 74/1/1 72/1/1 73/1/1
f 75/1/1 72/1/1 74/1/1
f 76/1/1 72/1/1 75/1/1
f 77/1/1 63/1/1 72/1/1
f 77/1/1 72/1/1 76/1/1
f 78/1/1 63/1/1 77/1/1
f 79/1/1 77/1/1 76/1/1
f 80/1/1 77/1/1 79/1/1
f 83/1/1 82/1/1 81/1/1
f 85/1/1 83/1/1 81/1/1
f 85/1/1 84/1/1 83/1/1
f 86/1/1 84/1/1 85/1/1
f 87/2/1 86/2/1 85/2/1
f 88/2/1 86/2/1 87/2/1
f 91/2/1 90/2/1 89/2/1
f 92/2/1 90/2/1 91/2/1
f 95/2/1 94/2/1 93/2/1
f 96/2/1 94/2/1 95/2/1
f 99/2/1 98/2/1 97/2/1
f 100/2/1 98/2/1 99/2/1
f 103/2/1 102/2/1 101/2/1
f 104/2/1 102/2/1 103/2/1
f 107/4/1 106/4/1 105/4/1
f 108/4/1 106/4/1 107/4/1
f 111/4/1 110/4/1 109/4/1
f 112/4/1 110/4/1 111/4/1
f 113/4/2 114/4/2 115/4/2
f 115/4/2 114/4/2 116/4/2
f 117/4/2 118/4/2 119/4/2
f 119/4/2 118/4/2 120/4/2
f 121/2/2 122/2/2 123/2/2
f 123/2/2 122/2/2 124/2/2
f 125/2/2 126/2/2 127/2/2
f 127/2/2 126/2/2 128/2/2
f 129/2/2 130/2/2 131/2/2
f 131/2/2 130/2/2 132/2/2
f 133/2/2 134/2/2 135/2/2
f 135/2/2 134/2/2 136/2/2
f 137/2/2 138/2/2 141/2/2
f 141/2/2 138/2/2 142/2/2
f 143/1/2 144/1/2 145/1/2
f 145/1/2 144/1/2 146/1/2
f 146/1/2 147/1/2 148/1/2
f 139/1/2 140/1/2 149/1/2
f 146/1/2 148/1/2 150/1/2
f 148/1/2 149/1/2 150/1/2
f 150/1/2 149/1/2 151/1/2
f 151/1/2 149/1/2 152/1/2
f 152/1/2 149/1/2 153/1/2
f 149/1/2 140/1/2 154/1/2
f 153/1/2 149/1/2 154/1/2
f 154/1/2 140/1/2 155/1/2
f 153/1/2 154/1/2 156/1/2
f 156/1/2 154/1/2 157/1/2
f 158/1/2 159/1/2 160/1/2
f 158/1/2 160/1/2 162/1/2
f 160/1/2 161/1/2 162/1/2
f 162/1/2 161/1/2 163/1/2
f 162/2/2 163/2/2 164/2/2
f 164/2/2 163/2/2 165/2/2
f 166/2/2 167/2/2 168/2/2
f 168/2/2 167/2/2 169/2/2
f 170/2/2 171/2/2 172/2/2
f 172/2/2 171/2/2 173/2/2
f 174/1/2 175/1/2 176/1/2
f 176/1/2 175/1/2 177/1/2
f 177/1/2 175/1/2 178/1/2
f 178/1/2 179/1/2 180/1/2
f 177/1/2 178/1/2 180/1/2
f 180/1/2 179/1/2 181/1/2
f 181/1/2 179/1/2 182/1/2
f 182/1/2 179/1/2 183/1/2
f 184/2/2 185/2/2 186/2/2
f 186/2/2 185/2/2 187/2/2
f 187/2/2 185/2/2 188/2/2
f 188/2/2 185/2/2 189/2/2
f 190/2/2 191/2/2 192/2/2
f 190/2/2 192/2/2 194/2/2
f 192/2/2 193/2/2 194/2/2
f 194/2/2 193/2/2 195/2/2
f 195/2/2 193/2/2 196/2/2
f 196/2/2 193/2/2 197/2/2
f 198/1/2 199/1/2 200/1/2
f 200/1/2 199/1/2 201/1/2
f 201/1/2 199/1/2 202/1/2
f 201/1/2 202/1/2 205/1/2
f 202/1/2 203/1/2 205/1/2
f 205/1/2 203/1/2 206/1/2
f 204/2/2 205/2/2 207/2/2
f 205/2/2 206/2/2 207/2/2
f 207/2/2 206/2/2 208/2/2
f 209/2/2 210/2/2 211/2/2
f 211/2/2 210/2/2 212/2/2
f 213/4/2 214/4/2 217/4/2
f 217/4/2 214/4/2 218/4/2
f 215/4/2 216/4/2 219/4/2
f 219/4/2 216/4/2 220/4/2
f 221/2/2 222/2/2 223/2/2
f 223/2/2 222/2/2 224/2/2
f 227/2/3 226/2/3 225/2/3
f 228/2/3 226/2/3 227/2/3
f 231/2/3 230/2/3 229/2/3
f 232/2/3 230/2/3 231/2/3
f 235/2/3 234/2/3 233/2/3
f 236/2/3 234/2/3 235/2/3
f 239/2/3 238/2/3 237/2/3
f 240/2/3 238/2/3 239/2/3
f 243/2/3 242/2/3 241/2/3
f 244/2/3 242/2/3 243/2/3
f 247/1/3 246/1/3 245/1/3
f 248/1/3 246/1/3 247/1/3
f 251/1/3 250/1/3 249/1/3
f 252/1/3 250/1/3 251/1/3
f 256/1/3 254/1/3 253/1/3
f 257/1/3 254/1/3 256/1/3
f 258/1/3 256/1/3 255/1/3
f 259/1/3 256/1/3 258/1/3
f 261/1/3 260/1/3 259/1/3
f 262/1/3 260/1/3 261/1/3
f 265/2/3 264/2/3 263/2/3
f 266/2/3 264/2/3 265/2/3
f 269/2/3 268/2/3 267/2/3
f 270/2/3 268/2/3 269/2/3
f 273/2/3 272/2/3 271/2/3
f 274/2/3 272/2/3 273/2/3
f 279/1/3 276/1/3 275/1/3
f 280/1/3 276/1/3 279/1/3
f 281/1/3 278/1/3 277/1/3
f 282/1/3 278/1/3 281/1/3
f 285/1/3 284/1/3 283/1/3
f 286/1/3 284/1/3 285/1/3
f 289/2/3 288/2/3 287/2/3
f 290/2/3 288/2/3 289/2/3
f 295/2/3 292/2/3 291/2/3
f 296/2/3 292/2/3 295/2/3
f 298/4/3 294/4/3 293/4/3
f 299/4/3 294/4/3 298/4/3
f 300/4/3 294/4/3 299/4/3
f 301/4/3 299/4/3 298/4/3
f 301/2/3 300/2/3 299/2/3
f 302/2/3 300/2/3 301/2/3
f 303/2/3 298/2/3 297/2/3
f 304/2/3 298/2/3 303/2/3
f 305/4/3 301/4/3 298/4/3
f 305/2/3 298/2/3 304/2/3
f 306/2/3 300/2/3 302/2/3
f 307/2/3 300/2/3 306/2/3
f 308/1/3 305/1/3 304/1/3
f 309/4/3 301/4/3 305/4/3
f 309/1/3 305/1/3 308/1/3
f 311/4/3 301/4/3 309/4/3
f 313/1/3 311/1/3 310/1/3
f 314/4/3 301/4/3 311/4/3
f 314/1/3 311/1/3 313/1/3
f 317/4/3 301/4/3 314/4/3
f 318/2/3 316/2/3 315/2/3
f 321/2/3 313/2/3 312/2/3
f 321/2/3 314/2/3 313/2/3
f 322/4/3 317/4/3 314/4/3
f 322/2/3 314/2/3 321/2/3
f 323/2/3 318/2/3 317/2/3
f 323/4/3 317/4/3 322/4/3
f 324/2/3 316/2/3 318/2/3
f 324/2/3 318/2/3 323/2/3
f 325/2/3 320/2/3 319/2/3
f 326/2/3 320/2/3 325/2/3
f 327/4/3 324/4/3 323/4/3
f 327/4/3 323/4/3 322/4/3
f 328/4/3 324/4/3 327/4/3
f 333/1/3 330/1/3 329/1/3
f 334/1/3 330/1/3 333/1/3
f 335/2/3 332/2/3 331/2/3
f 338/1/3 337/1/3 336/1/3
f 339/2/3 332/2/3 335/2/3
f 342/1/3 338/1/3 336/1/3
f 342/1/3 339/1/3 338/1/3
f 343/2/3 332/2/3 339/2/3
f 343/1/3 339/1/3 342/1/3
f 344/2/3 332/2/3 343/2/3
f 345/4/3 341/4/3 340/4/3
f 346/4/3 341/4/3 345/4/3
f 350/1/3 348/1/3 347/1/3
f 351/2/3 349/2/3 348/2/3
f 351/1/3 348/1/3 350/1/3
f 352/1/3 350/1/3 347/1/3
f 353/1/3 350/1/3 352/1/3
f 356/2/3 349/2/3 351/2/3
f 357/1/3 355/1/3 354/1/3
f 358/1/3 355/1/3 357/1/3
f 359/2/3 349/2/3 356/2/3
f 360/2/3 349/2/3 359/2/3
f 363/2/3 362/2/3 361/2/3
f 364/2/3 362/2/3 363/2/3
f 367/2/3 366/2/3 365/2/3
f 368/2/3 366/2/3 367/2/3
f 371/4/3 370/4/3 369/4/3
f 372/4/3 370/4/3 371/4/3
f 377/2/3 374/2/3 373/2/3
f 378/2/3 374/2/3 377/2/3
f 379/2/3 376/2/3 375/2/3
f 380/2/3 376/2/3 379/2/3
f 383/4/3 382/4/3 381/4/3
f 384/4/3 382/4/3 383/4/3
f 385/1/4 386/1/4 387/1/4
f 387/1/4 386/1/4 388/1/4
f 389/4/4 390/4/4 391/4/4
f 391/4/4 390/4/4 392/4/4
f 393/4/4 394/4/4 395/4/4
f 395/4/4 394/4/4 396/4/4
f 397/1/4 398/1/4 403/1/4
f 402/1/4 403/1/4 405/1/4
f 400/1/4 401/1/4 406/1/4
f 406/1/4 401/1/4 407/1/4
f 404/1/4 405/1/4 408/1/4
f 405/1/4 403/1/4 409/1/4
f 408/1/4 405/1/4 409/1/4
f 398/2/4 399/2/4 410/2/4
f 409/1/4 403/1/4 410/1/4
f 403/1/4 398/1/4 410/1/4
f 410/2/4 399/2/4 411/2/4
f 408/2/4 409/2/4 414/2/4
f 414/2/4 409/2/4 415/2/4
f 414/1/4 415/1/4 418/1/4
f 415/1/4 416/1/4 418/1/4
f 418/1/4 416/1/4 419/1/4
f 412/1/4 413/1/4 420/1/4
f 420/1/4 413/1/4 421/1/4
f 419/1/4 416/1/4 422/1/4
f 422/1/4 416/1/4 423/1/4
f 423/1/4 416/1/4 424/1/4
f 416/2/4 417/2/4 425/2/4
f 424/1/4 416/1/4 425/1/4
f 425/2/4 417/2/4 426/2/4
f 427/4/4 428/4/4 429/4/4
f 429/4/4 428/4/4 430/4/4
f 430/4/4 428/4/4 431/4/4
f 431/4/4 428/4/4 432/4/4
f 432/4/4 428/4/4 433/4/4
f 431/2/4 432/2/4 436/2/4
f 436/2/4 432/2/4 437/2/4
f 434/2/4 435/2/4 438/2/4
f 430/4/4 431/4/4 439/4/4
f 434/2/4 438/2/4 440/2/4
f 438/2/4 439/2/4 440/2/4
f 439/4/4 431/4/4 441/4/4
f 440/2/4 439/2/4 441/2/4
f 431/2/4 436/2/4 442/2/4
f 434/2/4 440/2/4 444/2/4
f 444/2/4 440/2/4 445/2/4
f 441/4/4 431/4/4 447/4/4
f 442/2/4 443/2/4 448/2/4
f 431/2/4 442/2/4 448/2/4
f 447/4/4 431/4/4 448/4/4
f 448/2/4 443/2/4 449/2/4
f 446/4/4 447/4/4 451/4/4
f 449/4/4 450/4/4 451/4/4
f 447/4/4 448/4/4 451/4/4
f 448/4/4 449/4/4 451/4/4
f 451/4/4 450/4/4 452/4/4
f 453/2/4 454/2/4 455/2/4
f 455/2/4 454/2/4 456/2/4
f 457/2/4 458/2/4 459/2/4
f 459/2/4 458/2/4 460/2/4
f 466/2/5 462/2/5 461/2/5
f 467/2/5 462/2/5 466/2/5
f 468/2/5 464/2/5 463/2/5
f 469/2/5 464/2/5 468/2/5
f 471/1/5 467/1/5 466/1/5
f 471/2/5 468/2/5 467/2/5
f 472/1/5 469/1/5 468/1/5
f 472/2/5 468/2/5 471/2/5
f 474/2/5 466/2/5 465/2/5
f 475/2/5 470/2/5 469/2/5
f 478/2/5 474/2/5 473/2/5
f 479/2/5 476/2/5 475/2/5
f 481/2/5 478/2/5 477/2/5
f 482/1/5 471/1/5 466/1/5
f 482/2/5 478/2/5 481/2/5
f 482/1/5 472/1/5 471/1/5
f 482/2/5 466/2/5 474/2/5
f 482/2/5 474/2/5 478/2/5
f 483/1/5 472/1/5 482/1/5
f 484/1/5 469/1/5 472/1/5
f 484/1/5 472/1/5 483/1/5
f 485/2/5 480/2/5 479/2/5
f 485/1/5 469/1/5 484/1/5
f 485/2/5 479/2/5 475/2/5
f 485/2/5 475/2/5 469/2/5
f 486/2/5 480/2/5 485/2/5
f 488/2/5 481/2/5 477/2/5
f 489/2/5 480/2/5 486/2/5
f 491/2/5 488/2/5 487/2/5
f 491/2/5 481/2/5 488/2/5
f 492/1/5 483/1/5 482/1/5
f 492/2/5 481/2/5 491/2/5
f 492/1/5 482/1/5 481/1/5
f 493/1/5 483/1/5 492/1/5
f 494/1/5 486/1/5 485/1/5
f 494/1/5 485/1/5 484/1/5
f 495/2/5 490/2/5 489/2/5
f 495/2/5 489/2/5 486/2/5
f 495/1/5 486/1/5 494/1/5
f 496/2/5 490/2/5 495/2/5
f 497/1/5 493/1/5 492/1/5
f 497/4/5 492/4/5 491/4/5
f 498/1/5 493/1/5 497/1/5
f 499/2/5 494/2/5 493/2/5
f 499/1/5 493/1/5 498/1/5
f 500/1/5 495/1/5 494/1/5
f 500/2/5 494/2/5 499/2/5
f 501/1/5 495/1/5 500/1/5
f 502/4/5 496/4/5 495/4/5
f 502/1/5 495/1/5 501/1/5
f 503/4/5 498/4/5 497/4/5
f 503/2/5 491/2/5 487/2/5
f 503/4/5 497/4/5 491/4/5
f 504/2/5 501/2/5 500/2/5
f 504/4/5 498/4/5 503/4/5
f 504/2/5 499/2/5 498/2/5
f 504/2/5 500/2/5 499/2/5
f 505/2/5 501/2/5 504/2/5
f 506/2/5 501/2/5 505/2/5
f 507/4/5 502/4/5 501/4/5
f 507/2/5 501/2/5 506/2/5
f 508/4/5 496/4/5 502/4/5
f 508/4/5 502/4/5 507/4/5
f 508/2/5 490/2/5 496/2/5
f 509/2/5 505/2/5 504/2/5
f 509/2/5 503/2/5 487/2/5
f 509/2/5 504/2/5 503/2/5
f 510/2/5 505/2/5 509/2/5
f 511/2/5 507/2/5 506/2/5
f 511/2/5 508/2/5 507/2/5
f 512/2/5 490/2/5 508/2/5
f 512/2/5 508/2/5 511/2/5
f 515/4/5 514/4/5 513/4/5
f 516/4/5 514/4/5 515/4/5
f 521/4/5 518/4/5 517/4/5
f 522/4/5 518/4/5 521/4/5
f 523/4/5 520/4/5 519/4/5
f 524/4/5 520/4/5 523/4/5
f 531/4/5 526/4/5 525/4/5
f 532/4/5 526/4/5 531/4/5
f 533/4/5 528/4/5 527/4/5
f 534/4/5 528/4/5 533/4/5
f 535/4/5 530/4/5 529/4/5
f 536/4/5 530/4/5 535/4/5
f 537/4/5 531/4/5 525/4/5
f 538/4/5 531/4/5 537/4/5
f 539/4/5 530/4/5 536/4/5
f 540/4/5 530/4/5 539/4/5
f 545/2/5 542/2/5 541/2/5
f 546/2/5 542/2/5 545/2/5
f 547/2/5 544/2/5 543/2/5
f 548/2/5 544/2/5 547/2/5
f 549/2/6 550/2/6 554/2/6
f 554/2/6 550/2/6 555/2/6
f 551/2/6 552/2/6 556/2/6
f 556/2/6 552/2/6 557/2/6
f 554/1/6 555/1/6 559/1/6
f 553/2/6 554/2/6 559/2/6
f 555/2/6 556/2/6 560/2/6
f 559/1/6 555/1/6 560/1/6
f 556/1/6 557/1/6 561/1/6
f 560/2/6 556/2/6 561/2/6
f 557/2/6 558/2/6 562/2/6
f 561/1/6 557/1/6 562/1/6
f 560/1/6 561/1/6 563/1/6
f 563/1/6 561/1/6 564/1/6
f 553/2/6 559/2/6 565/2/6
f 565/2/6 559/2/6 566/2/6
f 562/2/6 558/2/6 567/2/6
f 567/2/6 558/2/6 568/2/6
f 569/2/6 570/2/6 573/2/6
f 573/2/6 570/2/6 574/2/6
f 571/2/6 572/2/6 575/2/6
f 575/2/6 572/2/6 576/2/6
f 569/2/6 573/2/6 578/2/6
f 576/2/6 572/2/6 579/2/6
f 577/2/6 578/2/6 581/2/6
f 578/2/6 573/2/6 581/2/6
f 581/2/6 573/2/6 582/2/6
f 579/2/6 580/2/6 583/2/6
f 576/2/6 579/2/6 583/2/6
f 583/2/6 580/2/6 584/2/6
f 577/2/6 581/2/6 589/2/6
f 585/2/6 586/2/6 590/2/6
f 590/2/6 586/2/6 591/2/6
f 591/2/6 586/2/6 592/2/6
f 587/2/6 588/2/6 593/2/6
f 593/2/6 588/2/6 594/2/6
f 594/2/6 588/2/6 595/2/6
f 584/2/6 580/2/6 596/2/6
f 577/2/6 589/2/6 597/2/6
f 589/2/6 590/2/6 597/2/6
f 590/2/6 591/2/6 597/2/6
f 597/2/6 591/2/6 598/2/6
f 594/2/6 595/2/6 599/2/6
f 595/2/6 596/2/6 599/2/6
f 596/2/6 580/2/6 600/2/6
f 599/2/6 596/2/6 600/2/6
f 601/1/6 602/1/6 605/1/6
f 605/1/6 602/1/6 606/1/6
f 603/1/6 604/1/6 607/1/6
f 607/1/6 604/1/6 608/1/6
f 609/2/6 610/2/6 614/2/6
f 606/1/6 607/1/6 615/1/6
f 615/1/6 607/1/6 616/1/6
f 611/2/6 612/2/6 617/2/6
f 613/2/6 614/2/6 619/2/6
f 614/2/6 610/2/6 620/2/6
f 619/2/6 614/2/6 620/2/6
f 617/2/6 618/2/6 621/2/6
f 611/2/6 617/2/6 621/2/6
f 621/2/6 618/2/6 622/2/6
f 623/1/6 624/1/6 625/1/6
f 625/1/6 624/1/6 626/1/6
f 627/1/6 628/1/6 631/1/6
f 631/1/6 628/1/6 632/1/6
f 629/1/6 630/1/6 633/1/6
f 633/1/6 630/1/6 634/1/6
f 635/1/6 636/1/6 639/1/6
f 639/1/6 636/1/6 640/1/6
f 637/1/6 638/1/6 641/1/6
f 641/1/6 638/1/6 642/1/6
f 643/4/6 644/4/6 645/4/6
f 645/4/6 644/4/6 646/4/6
f 646/4/6 644/4/6 647/4/6
f 647/4/6 644/4/6 648/4/6
f 646/4/6 647/4/6 649/4/6
f 649/4/6 647/4/6 650/4/6
f 651/2/6 652/2/6 655/2/6
f 653/2/6 654/2/6 655/2/6
f 652/2/6 653/2/6 655/2/6
f 655/2/6 654/2/6 656/2/6
f 657/2/6 658/2/6 661/2/6
f 661/2/6 658/2/6 662/2/6
f 659/2/6 660/2/6 665/2/6
f 665/2/6 660/2/6 666/2/6
f 663/2/6 664/2/6 667/2/6
f 667/2/6 664/2/6 668/2/6
f 669/4/6 670/4/6 673/4/6
f 671/4/6 672/4/6 676/4/6
f 673/4/6 674/4/6 677/4/6
f 669/4/6 673/4/6 677/4/6
f 677/4/6 674/4/6 678/4/6
f 675/4/6 676/4/6 679/4/6
f 676/4/6 672/4/6 680/4/6
f 679/4/6 676/4/6 680/4/6
f 681/4/6 682/4/6 687/4/6
f 682/2/6 683/2/6 688/2/6
f 687/4/6 682/4/6 688/4/6
f 688/2/6 683/2/6 689/2/6
f 684/2/6 685/2/6 690/2/6
f 685/4/6 686/4/6 691/4/6
f 690/2/6 685/2/6 691/2/6
f 691/4/6 686/4/6 692/4/6
f 681/4/6 687/4/6 693/4/6
f 693/4/6 687/4/6 694/4/6
f 692/4/6 686/4/6 695/4/6
f 695/4/6 686/4/6 696/4/6
f 697/2/6 698/2/6 701/2/6
f 701/2/6 698/2/6 702/2/6
f 699/2/6 700/2/6 703/2/6
f 703/2/6 700/2/6 704/2/6
f 697/2/6 701/2/6 705/2/6
f 701/3/6 702/3/6 705/3/6
f 702/2/6 698/2/6 706/2/6
f 705/3/6 702/3/6 706/3/6
f 703/3/6 704/3/6 707/3/6
f 699/2/6 703/2/6 707/2/6
f 704/2/6 700/2/6 708/2/6
f 707/3/6 704/3/6 708/3/6
f 697/2/6 705/2/6 709/2/6
f 705/2/6 706/2/6 709/2/6
f 706/2/6 698/2/6 710/2/6
f 709/2/6 706/2/6 710/2/6
f 699/2/6 707/2/6 711/2/6
f 707/2/6 708/2/6 711/2/6
f 708/2/6 700/2/6 712/2/6
f 711/2/6 708/2/6 712/2/6
