# MagicaVoxel @ Ephtracy

# group
o 

# material
mtllib RocketLauncher1-10.mtl
usemtl palette

# normals
vn -1 0 0
vn 1 0 0
vn 0 0 1
vn 0 0 -1
vn 0 -1 0
vn 0 1 0

# texcoords
vt 0.154297 0.5
vt 0.873047 0.5

# verts
v -2 0 1.5
v -2 0 -1.5
v -2 0.2 1.5
v -2 0.2 -1.5
v -1.9 0 1.8
v -1.9 0 1.5
v -1.9 0 -1.5
v -1.9 0 -1.8
v -1.9 0.2 1.8
v -1.9 0.2 1.5
v -1.9 0.2 1.4
v -1.9 0.2 1.2
v -1.9 0.2 -1.2
v -1.9 0.2 -1.4
v -1.9 0.2 -1.5
v -1.9 0.2 -1.8
v -1.9 0.3 1.4
v -1.9 0.3 1.2
v -1.9 0.3 -1.2
v -1.9 0.3 -1.4
v -1.8 0 1.9
v -1.8 0 1.8
v -1.8 0 -1.8
v -1.8 0 -1.9
v -1.8 0.2 1.9
v -1.8 0.2 1.8
v -1.8 0.2 1.7
v -1.8 0.2 1.4
v -1.8 0.2 1.2
v -1.8 0.2 -1.2
v -1.8 0.2 -1.4
v -1.8 0.2 -1.7
v -1.8 0.2 -1.8
v -1.8 0.2 -1.9
v -1.8 0.3 1.7
v -1.8 0.3 1.4
v -1.8 0.3 1.2
v -1.8 0.3 -1.2
v -1.8 0.3 -1.4
v -1.8 0.3 -1.7
v -1.7 0.2 1.8
v -1.7 0.2 1.7
v -1.7 0.2 -1.7
v -1.7 0.2 -1.8
v -1.7 0.3 1.8
v -1.7 0.3 1.7
v -1.7 0.3 -1.7
v -1.7 0.3 -1.8
v -1.5 0 2
v -1.5 0 1.9
v -1.5 0 -1.9
v -1.5 0 -2
v -1.5 0.2 2
v -1.5 0.2 1.9
v -1.5 0.2 -1.9
v -1.5 0.2 -2
v -1.4 0.2 1.9
v -1.4 0.2 1.8
v -1.4 0.2 -1.8
v -1.4 0.2 -1.9
v -1.4 0.3 1.9
v -1.4 0.3 1.8
v -1.4 0.3 -1.8
v -1.4 0.3 -1.9
v -1.2 0.3 1.2
v -1.2 0.3 -1.2
v -1.2 0.4 1.2
v -1.2 0.4 -1.2
v 1.2 0.2 1.9
v 1.2 0.2 1.8
v 1.2 0.2 -1.8
v 1.2 0.2 -1.9
v 1.2 0.3 1.9
v 1.2 0.3 1.8
v 1.2 0.3 -1.8
v 1.2 0.3 -1.9
v -1.2 0.2 1.9
v -1.2 0.2 1.8
v -1.2 0.2 -1.8
v -1.2 0.2 -1.9
v -1.2 0.3 1.9
v -1.2 0.3 1.8
v -1.2 0.3 -1.8
v -1.2 0.3 -1.9
v 1.2 0.3 1.2
v 1.2 0.3 -1.2
v 1.2 0.4 1.2
v 1.2 0.4 -1.2
v 1.4 0.2 1.9
v 1.4 0.2 1.8
v 1.4 0.2 -1.8
v 1.4 0.2 -1.9
v 1.4 0.3 1.9
v 1.4 0.3 1.8
v 1.4 0.3 -1.8
v 1.4 0.3 -1.9
v 1.5 0 2
v 1.5 0 1.9
v 1.5 0 -1.9
v 1.5 0 -2
v 1.5 0.2 2
v 1.5 0.2 1.9
v 1.5 0.2 -1.9
v 1.5 0.2 -2
v 1.7 0.2 1.8
v 1.7 0.2 1.7
v 1.7 0.2 -1.7
v 1.7 0.2 -1.8
v 1.7 0.3 1.8
v 1.7 0.3 1.7
v 1.7 0.3 -1.7
v 1.7 0.3 -1.8
v 1.8 0 1.9
v 1.8 0 1.8
v 1.8 0 -1.8
v 1.8 0 -1.9
v 1.8 0.2 1.9
v 1.8 0.2 1.8
v 1.8 0.2 1.7
v 1.8 0.2 1.4
v 1.8 0.2 1.2
v 1.8 0.2 -1.2
v 1.8 0.2 -1.4
v 1.8 0.2 -1.7
v 1.8 0.2 -1.8
v 1.8 0.2 -1.9
v 1.8 0.3 1.7
v 1.8 0.3 1.4
v 1.8 0.3 1.2
v 1.8 0.3 -1.2
v 1.8 0.3 -1.4
v 1.8 0.3 -1.7
v 1.9 0 1.8
v 1.9 0 1.5
v 1.9 0 -1.5
v 1.9 0 -1.8
v 1.9 0.2 1.8
v 1.9 0.2 1.5
v 1.9 0.2 1.4
v 1.9 0.2 1.2
v 1.9 0.2 -1.2
v 1.9 0.2 -1.4
v 1.9 0.2 -1.5
v 1.9 0.2 -1.8
v 1.9 0.3 1.4
v 1.9 0.3 1.2
v 1.9 0.3 -1.2
v 1.9 0.3 -1.4
v 2 0 1.5
v 2 0 -1.5
v 2 0.2 1.5
v 2 0.2 -1.5
v -1.5 0 2
v -1.5 0.2 2
v 1.5 0 2
v 1.5 0.2 2
v -1.8 0 1.9
v -1.8 0.2 1.9
v -1.5 0 1.9
v -1.5 0.2 1.9
v -1.4 0.2 1.9
v -1.4 0.3 1.9
v -1.2 0.2 1.9
v -1.2 0.3 1.9
v 1.2 0.2 1.9
v 1.2 0.3 1.9
v 1.4 0.2 1.9
v 1.4 0.3 1.9
v 1.5 0 1.9
v 1.5 0.2 1.9
v 1.8 0 1.9
v 1.8 0.2 1.9
v -1.9 0 1.8
v -1.9 0.2 1.8
v -1.8 0 1.8
v -1.8 0.2 1.8
v -1.7 0.2 1.8
v -1.7 0.3 1.8
v -1.4 0.2 1.8
v -1.4 0.3 1.8
v -1.2 0.2 1.8
v -1.2 0.3 1.8
v 1.2 0.2 1.8
v 1.2 0.3 1.8
v 1.4 0.2 1.8
v 1.4 0.3 1.8
v 1.7 0.2 1.8
v 1.7 0.3 1.8
v 1.8 0 1.8
v 1.8 0.2 1.8
v 1.9 0 1.8
v 1.9 0.2 1.8
v -1.8 0.2 1.7
v -1.8 0.3 1.7
v -1.7 0.2 1.7
v -1.7 0.3 1.7
v 1.7 0.2 1.7
v 1.7 0.3 1.7
v 1.8 0.2 1.7
v 1.8 0.3 1.7
v -2 0 1.5
v -2 0.2 1.5
v -1.9 0 1.5
v -1.9 0.2 1.5
v 1.9 0 1.5
v 1.9 0.2 1.5
v 2 0 1.5
v 2 0.2 1.5
v -1.9 0.2 1.4
v -1.9 0.3 1.4
v -1.8 0.2 1.4
v -1.8 0.3 1.4
v 1.8 0.2 1.4
v 1.8 0.3 1.4
v 1.9 0.2 1.4
v 1.9 0.3 1.4
v -1.2 0.3 1.2
v -1.2 0.4 1.2
v 1.2 0.3 1.2
v 1.2 0.4 1.2
v -1.9 0.2 -1.2
v -1.9 0.3 -1.2
v -1.8 0.2 -1.2
v -1.8 0.3 -1.2
v 1.8 0.2 -1.2
v 1.8 0.3 -1.2
v 1.9 0.2 -1.2
v 1.9 0.3 -1.2
v -1.9 0.2 1.2
v -1.9 0.3 1.2
v -1.8 0.2 1.2
v -1.8 0.3 1.2
v 1.8 0.2 1.2
v 1.8 0.3 1.2
v 1.9 0.2 1.2
v 1.9 0.3 1.2
v -1.2 0.3 -1.2
v -1.2 0.4 -1.2
v 1.2 0.3 -1.2
v 1.2 0.4 -1.2
v -1.9 0.2 -1.4
v -1.9 0.3 -1.4
v -1.8 0.2 -1.4
v -1.8 0.3 -1.4
v 1.8 0.2 -1.4
v 1.8 0.3 -1.4
v 1.9 0.2 -1.4
v 1.9 0.3 -1.4
v -2 0 -1.5
v -2 0.2 -1.5
v -1.9 0 -1.5
v -1.9 0.2 -1.5
v 1.9 0 -1.5
v 1.9 0.2 -1.5
v 2 0 -1.5
v 2 0.2 -1.5
v -1.8 0.2 -1.7
v -1.8 0.3 -1.7
v -1.7 0.2 -1.7
v -1.7 0.3 -1.7
v 1.7 0.2 -1.7
v 1.7 0.3 -1.7
v 1.8 0.2 -1.7
v 1.8 0.3 -1.7
v -1.9 0 -1.8
v -1.9 0.2 -1.8
v -1.8 0 -1.8
v -1.8 0.2 -1.8
v -1.7 0.2 -1.8
v -1.7 0.3 -1.8
v -1.4 0.2 -1.8
v -1.4 0.3 -1.8
v -1.2 0.2 -1.8
v -1.2 0.3 -1.8
v 1.2 0.2 -1.8
v 1.2 0.3 -1.8
v 1.4 0.2 -1.8
v 1.4 0.3 -1.8
v 1.7 0.2 -1.8
v 1.7 0.3 -1.8
v 1.8 0 -1.8
v 1.8 0.2 -1.8
v 1.9 0 -1.8
v 1.9 0.2 -1.8
v -1.8 0 -1.9
v -1.8 0.2 -1.9
v -1.5 0 -1.9
v -1.5 0.2 -1.9
v -1.4 0.2 -1.9
v -1.4 0.3 -1.9
v -1.2 0.2 -1.9
v -1.2 0.3 -1.9
v 1.2 0.2 -1.9
v 1.2 0.3 -1.9
v 1.4 0.2 -1.9
v 1.4 0.3 -1.9
v 1.5 0 -1.9
v 1.5 0.2 -1.9
v 1.8 0 -1.9
v 1.8 0.2 -1.9
v -1.5 0 -2
v -1.5 0.2 -2
v 1.5 0 -2
v 1.5 0.2 -2
v -1.5 0 2
v 1.5 0 2
v -1.8 0 1.9
v -1.5 0 1.9
v 1.5 0 1.9
v 1.8 0 1.9
v -1.9 0 1.8
v -1.8 0 1.8
v 1.8 0 1.8
v 1.9 0 1.8
v -2 0 1.5
v -1.9 0 1.5
v 1.9 0 1.5
v 2 0 1.5
v -2 0 -1.5
v -1.9 0 -1.5
v 1.9 0 -1.5
v 2 0 -1.5
v -1.9 0 -1.8
v -1.8 0 -1.8
v 1.8 0 -1.8
v 1.9 0 -1.8
v -1.8 0 -1.9
v -1.5 0 -1.9
v 1.5 0 -1.9
v 1.8 0 -1.9
v -1.5 0 -2
v 1.5 0 -2
v -1.5 0.2 2
v 1.5 0.2 2
v -1.8 0.2 1.9
v -1.5 0.2 1.9
v -1.4 0.2 1.9
v -1.2 0.2 1.9
v 1.2 0.2 1.9
v 1.4 0.2 1.9
v 1.5 0.2 1.9
v 1.8 0.2 1.9
v -1.9 0.2 1.8
v -1.8 0.2 1.8
v -1.7 0.2 1.8
v -1.4 0.2 1.8
v -1.2 0.2 1.8
v 1.2 0.2 1.8
v 1.4 0.2 1.8
v 1.7 0.2 1.8
v 1.8 0.2 1.8
v 1.9 0.2 1.8
v -1.8 0.2 1.7
v -1.7 0.2 1.7
v 1.7 0.2 1.7
v 1.8 0.2 1.7
v -2 0.2 1.5
v -1.9 0.2 1.5
v 1.9 0.2 1.5
v 2 0.2 1.5
v -1.9 0.2 1.4
v -1.8 0.2 1.4
v 1.8 0.2 1.4
v 1.9 0.2 1.4
v -1.9 0.2 1.2
v -1.8 0.2 1.2
v 1.8 0.2 1.2
v 1.9 0.2 1.2
v -1.9 0.2 -1.2
v -1.8 0.2 -1.2
v 1.8 0.2 -1.2
v 1.9 0.2 -1.2
v -1.9 0.2 -1.4
v -1.8 0.2 -1.4
v 1.8 0.2 -1.4
v 1.9 0.2 -1.4
v -2 0.2 -1.5
v -1.9 0.2 -1.5
v 1.9 0.2 -1.5
v 2 0.2 -1.5
v -1.8 0.2 -1.7
v -1.7 0.2 -1.7
v 1.7 0.2 -1.7
v 1.8 0.2 -1.7
v -1.9 0.2 -1.8
v -1.8 0.2 -1.8
v -1.7 0.2 -1.8
v -1.4 0.2 -1.8
v -1.2 0.2 -1.8
v 1.2 0.2 -1.8
v 1.4 0.2 -1.8
v 1.7 0.2 -1.8
v 1.8 0.2 -1.8
v 1.9 0.2 -1.8
v -1.8 0.2 -1.9
v -1.5 0.2 -1.9
v -1.4 0.2 -1.9
v -1.2 0.2 -1.9
v 1.2 0.2 -1.9
v 1.4 0.2 -1.9
v 1.5 0.2 -1.9
v 1.8 0.2 -1.9
v -1.5 0.2 -2
v 1.5 0.2 -2
v -1.4 0.3 1.9
v -1.2 0.3 1.9
v 1.2 0.3 1.9
v 1.4 0.3 1.9
v -1.7 0.3 1.8
v -1.4 0.3 1.8
v -1.3 0.3 1.8
v -1.2 0.3 1.8
v 1.2 0.3 1.8
v 1.3 0.3 1.8
v 1.4 0.3 1.8
v 1.7 0.3 1.8
v -1.8 0.3 1.7
v -1.7 0.3 1.7
v -1.6 0.3 1.7
v -1.3 0.3 1.7
v 1.3 0.3 1.7
v 1.6 0.3 1.7
v 1.7 0.3 1.7
v 1.8 0.3 1.7
v -1.7 0.3 1.6
v -1.6 0.3 1.6
v 1.6 0.3 1.6
v 1.7 0.3 1.6
v -1.9 0.3 1.4
v -1.8 0.3 1.4
v 1.8 0.3 1.4
v 1.9 0.3 1.4
v -1.8 0.3 1.3
v -1.7 0.3 1.3
v 1.7 0.3 1.3
v 1.8 0.3 1.3
v -1.9 0.3 1.2
v -1.8 0.3 1.2
v -1.2 0.3 1.2
v 1.2 0.3 1.2
v 1.8 0.3 1.2
v 1.9 0.3 1.2
v -1.9 0.3 -1.2
v -1.8 0.3 -1.2
v -1.2 0.3 -1.2
v 1.2 0.3 -1.2
v 1.8 0.3 -1.2
v 1.9 0.3 -1.2
v -1.8 0.3 -1.3
v -1.7 0.3 -1.3
v 1.7 0.3 -1.3
v 1.8 0.3 -1.3
v -1.9 0.3 -1.4
v -1.8 0.3 -1.4
v 1.8 0.3 -1.4
v 1.9 0.3 -1.4
v -1.7 0.3 -1.6
v -1.6 0.3 -1.6
v 1.6 0.3 -1.6
v 1.7 0.3 -1.6
v -1.8 0.3 -1.7
v -1.7 0.3 -1.7
v -1.6 0.3 -1.7
v -1.3 0.3 -1.7
v 1.3 0.3 -1.7
v 1.6 0.3 -1.7
v 1.7 0.3 -1.7
v 1.8 0.3 -1.7
v -1.7 0.3 -1.8
v -1.4 0.3 -1.8
v -1.3 0.3 -1.8
v -1.2 0.3 -1.8
v 1.2 0.3 -1.8
v 1.3 0.3 -1.8
v 1.4 0.3 -1.8
v 1.7 0.3 -1.8
v -1.4 0.3 -1.9
v -1.2 0.3 -1.9
v 1.2 0.3 -1.9
v 1.4 0.3 -1.9
v -1.2 0.4 1.2
v 1.2 0.4 1.2
v -1.2 0.4 -1.2
v 1.2 0.4 -1.2

# faces
f 3/1/1 2/1/1 1/1/1
f 4/1/1 2/1/1 3/1/1
f 9/1/1 6/1/1 5/1/1
f 10/1/1 6/1/1 9/1/1
f 15/1/1 8/1/1 7/1/1
f 16/1/1 8/1/1 15/1/1
f 17/2/1 12/2/1 11/2/1
f 18/2/1 12/2/1 17/2/1
f 19/2/1 14/2/1 13/2/1
f 20/2/1 14/2/1 19/2/1
f 25/1/1 22/1/1 21/1/1
f 26/1/1 22/1/1 25/1/1
f 33/1/1 24/1/1 23/1/1
f 34/1/1 24/1/1 33/1/1
f 35/2/1 28/2/1 27/2/1
f 36/2/1 28/2/1 35/2/1
f 37/1/1 30/1/1 29/1/1
f 38/1/1 30/1/1 37/1/1
f 39/2/1 32/2/1 31/2/1
f 40/2/1 32/2/1 39/2/1
f 45/2/1 42/2/1 41/2/1
f 46/2/1 42/2/1 45/2/1
f 47/2/1 44/2/1 43/2/1
f 48/2/1 44/2/1 47/2/1
f 53/1/1 50/1/1 49/1/1
f 54/1/1 50/1/1 53/1/1
f 55/1/1 52/1/1 51/1/1
f 56/1/1 52/1/1 55/1/1
f 61/2/1 58/2/1 57/2/1
f 62/2/1 58/2/1 61/2/1
f 63/2/1 60/2/1 59/2/1
f 64/2/1 60/2/1 63/2/1
f 67/2/1 66/2/1 65/2/1
f 68/2/1 66/2/1 67/2/1
f 73/2/1 70/2/1 69/2/1
f 74/2/1 70/2/1 73/2/1
f 75/2/1 72/2/1 71/2/1
f 76/2/1 72/2/1 75/2/1
f 77/2/2 78/2/2 81/2/2
f 81/2/2 78/2/2 82/2/2
f 79/2/2 80/2/2 83/2/2
f 83/2/2 80/2/2 84/2/2
f 85/2/2 86/2/2 87/2/2
f 87/2/2 86/2/2 88/2/2
f 89/2/2 90/2/2 93/2/2
f 93/2/2 90/2/2 94/2/2
f 91/2/2 92/2/2 95/2/2
f 95/2/2 92/2/2 96/2/2
f 97/1/2 98/1/2 101/1/2
f 101/1/2 98/1/2 102/1/2
f 99/1/2 100/1/2 103/1/2
f 103/1/2 100/1/2 104/1/2
f 105/2/2 106/2/2 109/2/2
f 109/2/2 106/2/2 110/2/2
f 107/2/2 108/2/2 111/2/2
f 111/2/2 108/2/2 112/2/2
f 113/1/2 114/1/2 117/1/2
f 117/1/2 114/1/2 118/1/2
f 115/1/2 116/1/2 125/1/2
f 125/1/2 116/1/2 126/1/2
f 119/2/2 120/2/2 127/2/2
f 127/2/2 120/2/2 128/2/2
f 121/1/2 122/1/2 129/1/2
f 129/1/2 122/1/2 130/1/2
f 123/2/2 124/2/2 131/2/2
f 131/2/2 124/2/2 132/2/2
f 133/1/2 134/1/2 137/1/2
f 137/1/2 134/1/2 138/1/2
f 135/1/2 136/1/2 143/1/2
f 143/1/2 136/1/2 144/1/2
f 139/2/2 140/2/2 145/2/2
f 145/2/2 140/2/2 146/2/2
f 141/2/2 142/2/2 147/2/2
f 147/2/2 142/2/2 148/2/2
f 149/1/2 150/1/2 151/1/2
f 151/1/2 150/1/2 152/1/2
f 155/1/3 154/1/3 153/1/3
f 156/1/3 154/1/3 155/1/3
f 159/1/3 158/1/3 157/1/3
f 160/1/3 158/1/3 159/1/3
f 163/2/3 162/2/3 161/2/3
f 164/2/3 162/2/3 163/2/3
f 167/2/3 166/2/3 165/2/3
f 168/2/3 166/2/3 167/2/3
f 171/1/3 170/1/3 169/1/3
f 172/1/3 170/1/3 171/1/3
f 175/1/3 174/1/3 173/1/3
f 176/1/3 174/1/3 175/1/3
f 179/2/3 178/2/3 177/2/3
f 180/2/3 178/2/3 179/2/3
f 183/1/3 182/1/3 181/1/3
f 184/1/3 182/1/3 183/1/3
f 187/2/3 186/2/3 185/2/3
f 188/2/3 186/2/3 187/2/3
f 191/1/3 190/1/3 189/1/3
f 192/1/3 190/1/3 191/1/3
f 195/2/3 194/2/3 193/2/3
f 196/2/3 194/2/3 195/2/3
f 199/2/3 198/2/3 197/2/3
f 200/2/3 198/2/3 199/2/3
f 203/1/3 202/1/3 201/1/3
f 204/1/3 202/1/3 203/1/3
f 207/1/3 206/1/3 205/1/3
f 208/1/3 206/1/3 207/1/3
f 211/2/3 210/2/3 209/2/3
f 212/2/3 210/2/3 211/2/3
f 215/2/3 214/2/3 213/2/3
f 216/2/3 214/2/3 215/2/3
f 219/2/3 218/2/3 217/2/3
f 220/2/3 218/2/3 219/2/3
f 223/2/3 222/2/3 221/2/3
f 224/2/3 222/2/3 223/2/3
f 227/2/3 226/2/3 225/2/3
f 228/2/3 226/2/3 227/2/3
f 229/2/4 230/2/4 231/2/4
f 231/2/4 230/2/4 232/2/4
f 233/2/4 234/2/4 235/2/4
f 235/2/4 234/2/4 236/2/4
f 237/2/4 238/2/4 239/2/4
f 239/2/4 238/2/4 240/2/4
f 241/2/4 242/2/4 243/2/4
f 243/2/4 242/2/4 244/2/4
f 245/2/4 246/2/4 247/2/4
f 247/2/4 246/2/4 248/2/4
f 249/1/4 250/1/4 251/1/4
f 251/1/4 250/1/4 252/1/4
f 253/1/4 254/1/4 255/1/4
f 255/1/4 254/1/4 256/1/4
f 257/2/4 258/2/4 259/2/4
f 259/2/4 258/2/4 260/2/4
f 261/2/4 262/2/4 263/2/4
f 263/2/4 262/2/4 264/2/4
f 265/1/4 266/1/4 267/1/4
f 267/1/4 266/1/4 268/1/4
f 269/2/4 270/2/4 271/2/4
f 271/2/4 270/2/4 272/2/4
f 273/1/4 274/1/4 275/1/4
f 275/1/4 274/1/4 276/1/4
f 277/2/4 278/2/4 279/2/4
f 279/2/4 278/2/4 280/2/4
f 281/1/4 282/1/4 283/1/4
f 283/1/4 282/1/4 284/1/4
f 285/1/4 286/1/4 287/1/4
f 287/1/4 286/1/4 288/1/4
f 289/2/4 290/2/4 291/2/4
f 291/2/4 290/2/4 292/2/4
f 293/2/4 294/2/4 295/2/4
f 295/2/4 294/2/4 296/2/4
f 297/1/4 298/1/4 299/1/4
f 299/1/4 298/1/4 300/1/4
f 301/1/4 302/1/4 303/1/4
f 303/1/4 302/1/4 304/1/4
f 308/1/5 306/1/5 305/1/5
f 309/1/5 306/1/5 308/1/5
f 312/1/5 308/1/5 307/1/5
f 312/1/5 310/1/5 309/1/5
f 312/1/5 309/1/5 308/1/5
f 313/1/5 310/1/5 312/1/5
f 316/1/5 312/1/5 311/1/5
f 316/1/5 314/1/5 313/1/5
f 316/1/5 313/1/5 312/1/5
f 317/1/5 314/1/5 316/1/5
f 319/1/5 316/1/5 315/1/5
f 319/1/5 318/1/5 317/1/5
f 319/1/5 317/1/5 316/1/5
f 320/1/5 318/1/5 319/1/5
f 321/1/5 318/1/5 320/1/5
f 322/1/5 318/1/5 321/1/5
f 323/1/5 321/1/5 320/1/5
f 324/1/5 321/1/5 323/1/5
f 325/1/5 321/1/5 324/1/5
f 326/1/5 321/1/5 325/1/5
f 327/1/5 325/1/5 324/1/5
f 328/1/5 325/1/5 327/1/5
f 329/1/5 325/1/5 328/1/5
f 330/1/5 325/1/5 329/1/5
f 331/1/5 329/1/5 328/1/5
f 332/1/5 329/1/5 331/1/5
f 333/1/6 334/1/6 336/1/6
f 336/1/6 334/1/6 337/1/6
f 337/1/6 334/1/6 338/1/6
f 338/1/6 334/1/6 339/1/6
f 339/1/6 334/1/6 340/1/6
f 340/1/6 334/1/6 341/1/6
f 335/1/6 336/1/6 344/1/6
f 336/1/6 337/1/6 344/1/6
f 344/1/6 337/1/6 345/1/6
f 345/1/6 337/1/6 346/1/6
f 338/1/6 339/1/6 347/1/6
f 347/1/6 339/1/6 348/1/6
f 340/1/6 341/1/6 349/1/6
f 341/1/6 342/1/6 349/1/6
f 349/1/6 342/1/6 350/1/6
f 350/1/6 342/1/6 351/1/6
f 343/1/6 344/1/6 353/1/6
f 344/1/6 345/1/6 353/1/6
f 353/1/6 345/1/6 354/1/6
f 351/1/6 352/1/6 355/1/6
f 350/1/6 351/1/6 355/1/6
f 355/1/6 352/1/6 356/1/6
f 343/1/6 353/1/6 358/1/6
f 356/1/6 352/1/6 359/1/6
f 357/1/6 358/1/6 361/1/6
f 358/1/6 353/1/6 361/1/6
f 361/1/6 353/1/6 362/1/6
f 359/1/6 360/1/6 363/1/6
f 356/1/6 359/1/6 363/1/6
f 363/1/6 360/1/6 364/1/6
f 357/1/6 361/1/6 365/1/6
f 364/1/6 360/1/6 368/1/6
f 365/1/6 366/1/6 369/1/6
f 357/1/6 365/1/6 369/1/6
f 369/1/6 366/1/6 370/1/6
f 367/1/6 368/1/6 371/1/6
f 368/1/6 360/1/6 372/1/6
f 371/1/6 368/1/6 372/1/6
f 357/1/6 369/1/6 373/1/6
f 372/1/6 360/1/6 376/1/6
f 373/1/6 374/1/6 377/1/6
f 357/1/6 373/1/6 377/1/6
f 377/1/6 374/1/6 378/1/6
f 375/1/6 376/1/6 379/1/6
f 376/1/6 360/1/6 379/1/6
f 379/1/6 360/1/6 380/1/6
f 378/1/6 374/1/6 381/1/6
f 375/1/6 379/1/6 384/1/6
f 381/1/6 382/1/6 385/1/6
f 378/1/6 381/1/6 385/1/6
f 385/1/6 382/1/6 386/1/6
f 386/1/6 382/1/6 387/1/6
f 383/1/6 384/1/6 392/1/6
f 384/1/6 379/1/6 393/1/6
f 392/1/6 384/1/6 393/1/6
f 393/1/6 379/1/6 394/1/6
f 386/1/6 387/1/6 395/1/6
f 387/1/6 388/1/6 395/1/6
f 395/1/6 388/1/6 396/1/6
f 396/1/6 388/1/6 397/1/6
f 389/1/6 390/1/6 398/1/6
f 398/1/6 390/1/6 399/1/6
f 391/1/6 392/1/6 400/1/6
f 392/1/6 393/1/6 400/1/6
f 400/1/6 393/1/6 401/1/6
f 401/1/6 393/1/6 402/1/6
f 396/1/6 397/1/6 403/1/6
f 398/1/6 399/1/6 403/1/6
f 400/1/6 401/1/6 403/1/6
f 399/1/6 400/1/6 403/1/6
f 397/1/6 398/1/6 403/1/6
f 403/1/6 401/1/6 404/1/6
f 405/2/6 406/2/6 410/2/6
f 410/2/6 406/2/6 411/2/6
f 411/2/6 406/2/6 412/2/6
f 407/2/6 408/2/6 413/2/6
f 413/2/6 408/2/6 414/2/6
f 414/2/6 408/2/6 415/2/6
f 409/2/6 410/2/6 418/2/6
f 410/2/6 411/2/6 418/2/6
f 418/2/6 411/2/6 419/2/6
f 411/1/6 412/1/6 420/1/6
f 419/2/6 411/2/6 420/2/6
f 412/1/6 413/1/6 420/1/6
f 413/1/6 414/1/6 420/1/6
f 415/2/6 416/2/6 421/2/6
f 420/1/6 414/1/6 421/1/6
f 414/2/6 415/2/6 421/2/6
f 421/2/6 416/2/6 422/2/6
f 422/2/6 416/2/6 423/2/6
f 418/2/6 419/2/6 425/2/6
f 417/2/6 418/2/6 425/2/6
f 419/1/6 420/1/6 426/1/6
f 425/2/6 419/2/6 426/2/6
f 420/1/6 421/1/6 426/1/6
f 421/1/6 422/1/6 426/1/6
f 423/2/6 424/2/6 427/2/6
f 426/1/6 422/1/6 427/1/6
f 422/2/6 423/2/6 427/2/6
f 427/2/6 424/2/6 428/2/6
f 417/2/6 425/2/6 430/2/6
f 428/2/6 424/2/6 431/2/6
f 429/2/6 430/2/6 433/2/6
f 430/2/6 425/2/6 433/2/6
f 425/1/6 426/1/6 434/1/6
f 433/2/6 425/2/6 434/2/6
f 426/1/6 427/1/6 434/1/6
f 427/1/6 428/1/6 434/1/6
f 431/2/6 432/2/6 435/2/6
f 434/1/6 428/1/6 435/1/6
f 428/2/6 431/2/6 435/2/6
f 435/2/6 432/2/6 436/2/6
f 429/2/6 433/2/6 437/2/6
f 433/1/6 434/1/6 438/1/6
f 437/2/6 433/2/6 438/2/6
f 434/1/6 435/1/6 438/1/6
f 435/1/6 436/1/6 438/1/6
f 438/1/6 436/1/6 439/1/6
f 439/1/6 436/1/6 440/1/6
f 436/2/6 432/2/6 441/2/6
f 440/1/6 436/1/6 441/1/6
f 441/2/6 432/2/6 442/2/6
f 438/1/6 439/1/6 444/1/6
f 444/1/6 439/1/6 445/1/6
f 440/1/6 441/1/6 446/1/6
f 446/1/6 441/1/6 447/1/6
f 444/1/6 445/1/6 449/1/6
f 443/2/6 444/2/6 449/2/6
f 446/1/6 447/1/6 449/1/6
f 445/1/6 446/1/6 449/1/6
f 449/1/6 447/1/6 450/1/6
f 450/1/6 447/1/6 451/1/6
f 447/2/6 448/2/6 452/2/6
f 451/1/6 447/1/6 452/1/6
f 443/2/6 449/2/6 453/2/6
f 449/2/6 450/2/6 453/2/6
f 453/2/6 450/2/6 454/2/6
f 452/2/6 448/2/6 455/2/6
f 451/2/6 452/2/6 455/2/6
f 455/2/6 448/2/6 456/2/6
f 450/1/6 451/1/6 457/1/6
f 454/2/6 450/2/6 457/2/6
f 457/1/6 451/1/6 458/1/6
f 458/1/6 451/1/6 459/1/6
f 451/2/6 455/2/6 460/2/6
f 459/1/6 451/1/6 460/1/6
f 454/2/6 457/2/6 461/2/6
f 457/2/6 458/2/6 461/2/6
f 461/2/6 458/2/6 462/2/6
f 458/1/6 459/1/6 463/1/6
f 462/2/6 458/2/6 463/2/6
f 463/1/6 459/1/6 464/1/6
f 464/1/6 459/1/6 465/1/6
f 459/2/6 460/2/6 466/2/6
f 465/1/6 459/1/6 466/1/6
f 460/2/6 455/2/6 467/2/6
f 466/2/6 460/2/6 467/2/6
f 467/2/6 455/2/6 468/2/6
f 462/2/6 463/2/6 469/2/6
f 463/2/6 464/2/6 469/2/6
f 469/2/6 464/2/6 470/2/6
f 464/1/6 465/1/6 471/1/6
f 470/2/6 464/2/6 471/2/6
f 471/1/6 465/1/6 472/1/6
f 472/1/6 465/1/6 473/1/6
f 465/2/6 466/2/6 474/2/6
f 473/1/6 465/1/6 474/1/6
f 466/2/6 467/2/6 474/2/6
f 474/2/6 467/2/6 475/2/6
f 475/2/6 467/2/6 476/2/6
f 471/2/6 472/2/6 477/2/6
f 470/2/6 471/2/6 477/2/6
f 477/2/6 472/2/6 478/2/6
f 474/2/6 475/2/6 479/2/6
f 473/2/6 474/2/6 479/2/6
f 479/2/6 475/2/6 480/2/6
f 481/2/6 482/2/6 483/2/6
f 483/2/6 482/2/6 484/2/6
