# MagicaVoxel @ Ephtracy

# group
o 

# material
mtllib RocketLauncher1-9.mtl
usemtl palette

# normals
vn -1 0 0
vn 1 0 0
vn 0 0 1
vn 0 0 -1
vn 0 -1 0
vn 0 1 0

# texcoords
vt 0.857422 0.5
vt 0.904297 0.5
vt 0.958984 0.5
vt 0.994141 0.5

# verts
v -0.7 0.4 -0.7
v -0.7 0.4 -0.9
v -0.7 1 -0.2
v -0.7 1 -0.4
v -0.7 1.4 -0.7
v -0.7 1.4 -0.9
v -0.7 2 -0.2
v -0.7 2 -0.4
v -0.6 0.4 -0.3
v -0.6 0.4 -0.7
v -0.6 1 -0.3
v -0.6 1 -0.4
v -0.6 1.4 -0.7
v -0.6 1.4 -0.8
v -0.6 2 -0.3
v -0.6 2 -0.4
v -0.6 2 -0.8
v -0.6 2.1 -0.3
v -0.6 2.1 -0.8
v -0.5 0.4 -0.1
v -0.5 0.4 -0.3
v -0.5 0.6 -0.1
v -0.5 0.6 -0.3
v -0.4 0.4 0.3
v -0.4 0.4 -0.1
v -0.4 0.5 0.3
v -0.4 0.5 0
v -0.4 0.6 0
v -0.4 0.6 -0.1
v -0.3 0.4 0.4
v -0.3 0.4 0.3
v -0.3 0.5 0.4
v -0.3 0.5 0.3
v -0.3 0.5 0.2
v -0.3 0.5 0
v -0.3 0.6 0.2
v -0.3 0.6 0.1
v -0.3 0.6 0
v -0.3 0.6 -0.3
v -0.3 0.8 0.1
v -0.3 0.8 -0.1
v -0.3 0.9 -0.1
v -0.3 0.9 -0.2
v -0.3 1 -0.2
v -0.3 1 -0.3
v 0.1 0.4 0.4
v 0.1 0.4 0.3
v 0.1 0.4 -0.3
v 0.1 0.4 -0.8
v 0.1 0.5 0.4
v 0.1 0.5 0.3
v 0.1 0.5 0.2
v 0.1 0.5 0.1
v 0.1 0.6 0.2
v 0.1 0.6 0.1
v 0.1 0.6 -0.1
v 0.1 0.7 -0.1
v 0.1 0.7 -0.3
v 0.1 0.8 0.1
v 0.1 0.8 -0.1
v 0.1 0.9 -0.1
v 0.1 0.9 -0.2
v 0.1 0.9 -0.3
v 0.1 0.9 -0.8
v 0.1 1 -0.2
v 0.1 1 -0.3
v 0.1 1.1 -0.3
v 0.1 1.1 -0.8
v 0.1 2 -0.3
v 0.1 2 -0.8
v 0.1 2.1 -0.3
v 0.1 2.1 -0.8
v 0.5 0.4 -0.8
v 0.5 0.4 -0.9
v 0.5 0.9 -0.8
v 0.5 0.9 -0.9
v 0.5 1.1 -0.2
v 0.5 1.1 -0.3
v 0.5 1.1 -0.8
v 0.5 1.1 -0.9
v 0.5 1.4 -0.8
v 0.5 1.4 -0.9
v 0.5 2 -0.2
v 0.5 2 -0.3
v -0.5 0.4 -0.8
v -0.5 0.4 -0.9
v -0.5 0.9 -0.8
v -0.5 0.9 -0.9
v -0.5 1.1 -0.2
v -0.5 1.1 -0.3
v -0.5 1.1 -0.8
v -0.5 1.1 -0.9
v -0.5 1.4 -0.8
v -0.5 1.4 -0.9
v -0.5 2 -0.2
v -0.5 2 -0.3
v -0.1 0.4 0.4
v -0.1 0.4 0.3
v -0.1 0.4 -0.3
v -0.1 0.4 -0.8
v -0.1 0.5 0.4
v -0.1 0.5 0.3
v -0.1 0.5 0.2
v -0.1 0.5 0.1
v -0.1 0.6 0.2
v -0.1 0.6 0.1
v -0.1 0.6 -0.1
v -0.1 0.7 -0.1
v -0.1 0.7 -0.3
v -0.1 0.8 0.1
v -0.1 0.8 -0.1
v -0.1 0.9 -0.1
v -0.1 0.9 -0.2
v -0.1 0.9 -0.3
v -0.1 0.9 -0.8
v -0.1 1 -0.2
v -0.1 1 -0.3
v -0.1 1.1 -0.3
v -0.1 1.1 -0.8
v -0.1 2 -0.3
v -0.1 2 -0.8
v -0.1 2.1 -0.3
v -0.1 2.1 -0.8
v 0.3 0.4 0.4
v 0.3 0.4 0.3
v 0.3 0.5 0.4
v 0.3 0.5 0.3
v 0.3 0.5 0.2
v 0.3 0.5 0
v 0.3 0.6 0.2
v 0.3 0.6 0.1
v 0.3 0.6 0
v 0.3 0.6 -0.3
v 0.3 0.8 0.1
v 0.3 0.8 -0.1
v 0.3 0.9 -0.1
v 0.3 0.9 -0.2
v 0.3 1 -0.2
v 0.3 1 -0.3
v 0.4 0.4 0.3
v 0.4 0.4 -0.1
v 0.4 0.5 0.3
v 0.4 0.5 0
v 0.4 0.6 0
v 0.4 0.6 -0.1
v 0.5 0.4 -0.1
v 0.5 0.4 -0.3
v 0.5 0.6 -0.1
v 0.5 0.6 -0.3
v 0.6 0.4 -0.3
v 0.6 0.4 -0.7
v 0.6 1 -0.3
v 0.6 1 -0.4
v 0.6 1.4 -0.7
v 0.6 1.4 -0.8
v 0.6 2 -0.3
v 0.6 2 -0.4
v 0.6 2 -0.8
v 0.6 2.1 -0.3
v 0.6 2.1 -0.8
v 0.7 0.4 -0.7
v 0.7 0.4 -0.9
v 0.7 1 -0.2
v 0.7 1 -0.4
v 0.7 1.4 -0.7
v 0.7 1.4 -0.9
v 0.7 2 -0.2
v 0.7 2 -0.4
v -0.3 0.4 0.4
v -0.3 0.5 0.4
v -0.1 0.4 0.4
v -0.1 0.5 0.4
v 0.1 0.4 0.4
v 0.1 0.5 0.4
v 0.3 0.4 0.4
v 0.3 0.5 0.4
v -0.4 0.4 0.3
v -0.4 0.5 0.3
v -0.3 0.4 0.3
v -0.3 0.5 0.3
v -0.1 0.4 0.3
v -0.1 0.5 0.3
v 0.1 0.4 0.3
v 0.1 0.5 0.3
v 0.3 0.4 0.3
v 0.3 0.5 0.3
v 0.4 0.4 0.3
v 0.4 0.5 0.3
v -0.3 0.5 0.2
v -0.3 0.6 0.2
v -0.1 0.5 0.2
v -0.1 0.6 0.2
v 0.1 0.5 0.2
v 0.1 0.6 0.2
v 0.3 0.5 0.2
v 0.3 0.6 0.2
v -0.3 0.6 0.1
v -0.3 0.8 0.1
v -0.1 0.5 0.1
v -0.1 0.6 0.1
v -0.1 0.8 0.1
v 0.1 0.5 0.1
v 0.1 0.6 0.1
v 0.1 0.8 0.1
v 0.3 0.6 0.1
v 0.3 0.8 0.1
v -0.4 0.5 0
v -0.4 0.6 0
v -0.3 0.5 0
v -0.3 0.6 0
v 0.3 0.5 0
v 0.3 0.6 0
v 0.4 0.5 0
v 0.4 0.6 0
v -0.5 0.4 -0.1
v -0.5 0.6 -0.1
v -0.4 0.4 -0.1
v -0.4 0.6 -0.1
v -0.3 0.8 -0.1
v -0.3 0.9 -0.1
v -0.1 0.6 -0.1
v -0.1 0.7 -0.1
v -0.1 0.8 -0.1
v -0.1 0.9 -0.1
v 0.1 0.6 -0.1
v 0.1 0.7 -0.1
v 0.1 0.8 -0.1
v 0.1 0.9 -0.1
v 0.3 0.8 -0.1
v 0.3 0.9 -0.1
v 0.4 0.4 -0.1
v 0.4 0.6 -0.1
v 0.5 0.4 -0.1
v 0.5 0.6 -0.1
v -0.7 1 -0.2
v -0.7 2 -0.2
v -0.5 1.1 -0.2
v -0.5 2 -0.2
v -0.3 0.9 -0.2
v -0.3 1 -0.2
v -0.1 0.9 -0.2
v -0.1 1 -0.2
v 0.1 0.9 -0.2
v 0.1 1 -0.2
v 0.3 0.9 -0.2
v 0.3 1 -0.2
v 0.5 1.1 -0.2
v 0.5 2 -0.2
v 0.7 1 -0.2
v 0.7 2 -0.2
v -0.6 0.4 -0.3
v -0.6 1 -0.3
v -0.6 2 -0.3
v -0.6 2.1 -0.3
v -0.5 0.4 -0.3
v -0.5 0.6 -0.3
v -0.5 1.1 -0.3
v -0.5 2 -0.3
v -0.3 0.6 -0.3
v -0.3 1 -0.3
v -0.1 0.9 -0.3
v -0.1 1 -0.3
v -0.1 1.1 -0.3
v -0.1 2 -0.3
v -0.1 2.1 -0.3
v 0.1 0.9 -0.3
v 0.1 1 -0.3
v 0.1 1.1 -0.3
v 0.1 2 -0.3
v 0.1 2.1 -0.3
v 0.3 0.6 -0.3
v 0.3 1 -0.3
v 0.5 0.4 -0.3
v 0.5 0.6 -0.3
v 0.5 1.1 -0.3
v 0.5 2 -0.3
v 0.6 0.4 -0.3
v 0.6 1 -0.3
v 0.6 2 -0.3
v 0.6 2.1 -0.3
v -0.7 0.4 -0.7
v -0.7 1.4 -0.7
v -0.6 0.4 -0.7
v -0.6 1.4 -0.7
v 0.6 0.4 -0.7
v 0.6 1.4 -0.7
v 0.7 0.4 -0.7
v 0.7 1.4 -0.7
v -0.1 0.4 -0.3
v -0.1 0.7 -0.3
v 0.1 0.4 -0.3
v 0.1 0.7 -0.3
v -0.7 1 -0.4
v -0.7 2 -0.4
v -0.6 1 -0.4
v -0.6 2 -0.4
v 0.6 1 -0.4
v 0.6 2 -0.4
v 0.7 1 -0.4
v 0.7 2 -0.4
v -0.6 1.4 -0.8
v -0.6 2 -0.8
v -0.6 2.1 -0.8
v -0.5 0.4 -0.8
v -0.5 0.9 -0.8
v -0.5 1.1 -0.8
v -0.5 1.4 -0.8
v -0.1 0.4 -0.8
v -0.1 0.9 -0.8
v -0.1 1.1 -0.8
v -0.1 2 -0.8
v -0.1 2.1 -0.8
v 0.1 0.4 -0.8
v 0.1 0.9 -0.8
v 0.1 1.1 -0.8
v 0.1 2 -0.8
v 0.1 2.1 -0.8
v 0.5 0.4 -0.8
v 0.5 0.9 -0.8
v 0.5 1.1 -0.8
v 0.5 1.4 -0.8
v 0.6 1.4 -0.8
v 0.6 2 -0.8
v 0.6 2.1 -0.8
v -0.7 0.4 -0.9
v -0.7 1.4 -0.9
v -0.5 0.4 -0.9
v -0.5 0.9 -0.9
v -0.5 1.1 -0.9
v -0.5 1.4 -0.9
v 0.5 0.4 -0.9
v 0.5 0.9 -0.9
v 0.5 1.1 -0.9
v 0.5 1.4 -0.9
v 0.7 0.4 -0.9
v 0.7 1.4 -0.9
v -0.3 0.4 0.4
v -0.1 0.4 0.4
v 0.1 0.4 0.4
v 0.3 0.4 0.4
v -0.4 0.4 0.3
v -0.3 0.4 0.3
v -0.1 0.4 0.3
v 0.1 0.4 0.3
v 0.3 0.4 0.3
v 0.4 0.4 0.3
v -0.1 0.4 0.2
v 0.1 0.4 0.2
v -0.5 0.4 -0.1
v -0.4 0.4 -0.1
v 0.4 0.4 -0.1
v 0.5 0.4 -0.1
v -0.6 0.4 -0.3
v -0.5 0.4 -0.3
v -0.3 0.4 -0.3
v -0.1 0.4 -0.3
v 0.1 0.4 -0.3
v 0.3 0.4 -0.3
v 0.5 0.4 -0.3
v 0.6 0.4 -0.3
v -0.7 0.4 -0.7
v -0.6 0.4 -0.7
v 0.6 0.4 -0.7
v 0.7 0.4 -0.7
v -0.6 0.4 -0.8
v -0.5 0.4 -0.8
v -0.1 0.4 -0.8
v 0.1 0.4 -0.8
v 0.5 0.4 -0.8
v 0.6 0.4 -0.8
v -0.7 0.4 -0.9
v -0.5 0.4 -0.9
v 0.5 0.4 -0.9
v 0.7 0.4 -0.9
v -0.1 0.9 -0.3
v 0.1 0.9 -0.3
v -0.5 0.9 -0.8
v -0.1 0.9 -0.8
v 0.1 0.9 -0.8
v 0.5 0.9 -0.8
v -0.5 0.9 -0.9
v 0.5 0.9 -0.9
v -0.7 1 -0.2
v -0.3 1 -0.2
v -0.1 1 -0.2
v 0.1 1 -0.2
v 0.3 1 -0.2
v 0.7 1 -0.2
v -0.6 1 -0.3
v -0.3 1 -0.3
v -0.1 1 -0.3
v 0.1 1 -0.3
v 0.3 1 -0.3
v 0.6 1 -0.3
v -0.7 1 -0.4
v -0.6 1 -0.4
v 0.6 1 -0.4
v 0.7 1 -0.4
v -0.3 0.5 0.4
v -0.1 0.5 0.4
v 0.1 0.5 0.4
v 0.3 0.5 0.4
v -0.4 0.5 0.3
v -0.3 0.5 0.3
v -0.1 0.5 0.3
v 0.1 0.5 0.3
v 0.3 0.5 0.3
v 0.4 0.5 0.3
v -0.3 0.5 0.2
v -0.1 0.5 0.2
v 0.1 0.5 0.2
v 0.3 0.5 0.2
v -0.1 0.5 0.1
v 0.1 0.5 0.1
v -0.4 0.5 0
v -0.3 0.5 0
v 0.3 0.5 0
v 0.4 0.5 0
v -0.3 0.6 0.2
v -0.1 0.6 0.2
v 0.1 0.6 0.2
v 0.3 0.6 0.2
v -0.3 0.6 0.1
v -0.1 0.6 0.1
v 0.1 0.6 0.1
v 0.3 0.6 0.1
v -0.4 0.6 0
v -0.3 0.6 0
v 0.3 0.6 0
v 0.4 0.6 0
v -0.5 0.6 -0.1
v -0.4 0.6 -0.1
v -0.1 0.6 -0.1
v 0.1 0.6 -0.1
v 0.4 0.6 -0.1
v 0.5 0.6 -0.1
v -0.5 0.6 -0.3
v -0.3 0.6 -0.3
v 0.3 0.6 -0.3
v 0.5 0.6 -0.3
v -0.1 0.7 -0.1
v 0.1 0.7 -0.1
v -0.1 0.7 -0.3
v 0.1 0.7 -0.3
v -0.3 0.8 0.1
v -0.1 0.8 0.1
v 0.1 0.8 0.1
v 0.3 0.8 0.1
v -0.3 0.8 -0.1
v -0.1 0.8 -0.1
v 0.1 0.8 -0.1
v 0.3 0.8 -0.1
v -0.3 0.9 -0.1
v -0.1 0.9 -0.1
v 0.1 0.9 -0.1
v 0.3 0.9 -0.1
v -0.3 0.9 -0.2
v -0.1 0.9 -0.2
v 0.1 0.9 -0.2
v 0.3 0.9 -0.2
v -0.5 1.1 -0.2
v 0.5 1.1 -0.2
v -0.5 1.1 -0.3
v -0.1 1.1 -0.3
v 0.1 1.1 -0.3
v 0.5 1.1 -0.3
v -0.5 1.1 -0.8
v -0.1 1.1 -0.8
v 0.1 1.1 -0.8
v 0.5 1.1 -0.8
v -0.5 1.1 -0.9
v 0.5 1.1 -0.9
v -0.7 1.4 -0.7
v -0.6 1.4 -0.7
v 0.6 1.4 -0.7
v 0.7 1.4 -0.7
v -0.6 1.4 -0.8
v -0.5 1.4 -0.8
v 0.5 1.4 -0.8
v 0.6 1.4 -0.8
v -0.7 1.4 -0.9
v -0.5 1.4 -0.9
v 0.5 1.4 -0.9
v 0.7 1.4 -0.9
v -0.7 2 -0.2
v -0.5 2 -0.2
v 0.5 2 -0.2
v 0.7 2 -0.2
v -0.6 2 -0.3
v -0.5 2 -0.3
v 0.5 2 -0.3
v 0.6 2 -0.3
v -0.7 2 -0.4
v -0.6 2 -0.4
v 0.6 2 -0.4
v 0.7 2 -0.4
v -0.6 2.1 -0.3
v -0.1 2.1 -0.3
v 0.1 2.1 -0.3
v 0.6 2.1 -0.3
v -0.5 2.1 -0.4
v -0.2 2.1 -0.4
v 0.2 2.1 -0.4
v 0.5 2.1 -0.4
v -0.5 2.1 -0.7
v -0.2 2.1 -0.7
v 0.2 2.1 -0.7
v 0.5 2.1 -0.7
v -0.6 2.1 -0.8
v -0.1 2.1 -0.8
v 0.1 2.1 -0.8
v 0.6 2.1 -0.8

# faces
f 5/4/1 2/4/1 1/4/1
f 6/4/1 2/4/1 5/4/1
f 7/4/1 4/4/1 3/4/1
f 8/4/1 4/4/1 7/4/1
f 11/1/1 10/1/1 9/1/1
f 12/1/1 10/1/1 11/1/1
f 13/1/1 10/1/1 12/1/1
f 16/1/1 13/1/1 12/1/1
f 16/1/1 14/1/1 13/1/1
f 17/1/1 14/1/1 16/1/1
f 18/2/1 16/2/1 15/2/1
f 18/2/1 17/2/1 16/2/1
f 19/2/1 17/2/1 18/2/1
f 22/2/1 21/2/1 20/2/1
f 23/2/1 21/2/1 22/2/1
f 26/2/1 25/2/1 24/2/1
f 27/2/1 25/2/1 26/2/1
f 28/2/1 25/2/1 27/2/1
f 29/2/1 25/2/1 28/2/1
f 32/2/1 31/2/1 30/2/1
f 33/2/1 31/2/1 32/2/1
f 36/1/1 35/1/1 34/1/1
f 37/1/1 35/1/1 36/1/1
f 38/1/1 35/1/1 37/1/1
f 40/1/1 39/1/1 38/1/1
f 40/1/1 38/1/1 37/1/1
f 41/1/1 39/1/1 40/1/1
f 42/1/1 39/1/1 41/1/1
f 43/1/1 39/1/1 42/1/1
f 44/1/1 39/1/1 43/1/1
f 45/1/1 39/1/1 44/1/1
f 50/2/1 47/2/1 46/2/1
f 51/2/1 47/2/1 50/2/1
f 54/1/1 53/1/1 52/1/1
f 55/1/1 53/1/1 54/1/1
f 57/1/1 56/1/1 55/1/1
f 58/1/1 49/1/1 48/1/1
f 59/1/1 57/1/1 55/1/1
f 59/1/1 58/1/1 57/1/1
f 60/1/1 58/1/1 59/1/1
f 61/1/1 58/1/1 60/1/1
f 62/1/1 58/1/1 61/1/1
f 63/1/1 49/1/1 58/1/1
f 63/1/1 58/1/1 62/1/1
f 64/1/1 49/1/1 63/1/1
f 65/1/1 63/1/1 62/1/1
f 66/1/1 63/1/1 65/1/1
f 69/1/1 68/1/1 67/1/1
f 70/1/1 68/1/1 69/1/1
f 71/2/1 70/2/1 69/2/1
f 72/2/1 70/2/1 71/2/1
f 75/4/1 74/4/1 73/4/1
f 76/4/1 74/4/1 75/4/1
f 81/4/1 80/4/1 79/4/1
f 82/4/1 80/4/1 81/4/1
f 83/4/1 78/4/1 77/4/1
f 84/4/1 78/4/1 83/4/1
f 85/4/2 86/4/2 87/4/2
f 87/4/2 86/4/2 88/4/2
f 91/4/2 92/4/2 93/4/2
f 93/4/2 92/4/2 94/4/2
f 89/4/2 90/4/2 95/4/2
f 95/4/2 90/4/2 96/4/2
f 97/2/2 98/2/2 101/2/2
f 101/2/2 98/2/2 102/2/2
f 103/1/2 104/1/2 105/1/2
f 105/1/2 104/1/2 106/1/2
f 106/1/2 107/1/2 108/1/2
f 99/1/2 100/1/2 109/1/2
f 106/1/2 108/1/2 110/1/2
f 108/1/2 109/1/2 110/1/2
f 110/1/2 109/1/2 111/1/2
f 111/1/2 109/1/2 112/1/2
f 112/1/2 109/1/2 113/1/2
f 109/1/2 100/1/2 114/1/2
f 113/1/2 109/1/2 114/1/2
f 114/1/2 100/1/2 115/1/2
f 113/1/2 114/1/2 116/1/2
f 116/1/2 114/1/2 117/1/2
f 118/1/2 119/1/2 120/1/2
f 120/1/2 119/1/2 121/1/2
f 120/2/2 121/2/2 122/2/2
f 122/2/2 121/2/2 123/2/2
f 124/2/2 125/2/2 126/2/2
f 126/2/2 125/2/2 127/2/2
f 128/1/2 129/1/2 130/1/2
f 130/1/2 129/1/2 131/1/2
f 131/1/2 129/1/2 132/1/2
f 132/1/2 133/1/2 134/1/2
f 131/1/2 132/1/2 134/1/2
f 134/1/2 133/1/2 135/1/2
f 135/1/2 133/1/2 136/1/2
f 136/1/2 133/1/2 137/1/2
f 137/1/2 133/1/2 138/1/2
f 138/1/2 133/1/2 139/1/2
f 140/2/2 141/2/2 142/2/2
f 142/2/2 141/2/2 143/2/2
f 143/2/2 141/2/2 144/2/2
f 144/2/2 141/2/2 145/2/2
f 146/2/2 147/2/2 148/2/2
f 148/2/2 147/2/2 149/2/2
f 150/1/2 151/1/2 152/1/2
f 152/1/2 151/1/2 153/1/2
f 153/1/2 151/1/2 154/1/2
f 153/1/2 154/1/2 157/1/2
f 154/1/2 155/1/2 157/1/2
f 157/1/2 155/1/2 158/1/2
f 156/2/2 157/2/2 159/2/2
f 157/2/2 158/2/2 159/2/2
f 159/2/2 158/2/2 160/2/2
f 161/4/2 162/4/2 165/4/2
f 165/4/2 162/4/2 166/4/2
f 163/4/2 164/4/2 167/4/2
f 167/4/2 164/4/2 168/4/2
f 171/2/3 170/2/3 169/2/3
f 172/2/3 170/2/3 171/2/3
f 175/2/3 174/2/3 173/2/3
f 176/2/3 174/2/3 175/2/3
f 179/2/3 178/2/3 177/2/3
f 180/2/3 178/2/3 179/2/3
f 183/2/3 182/2/3 181/2/3
f 184/2/3 182/2/3 183/2/3
f 187/2/3 186/2/3 185/2/3
f 188/2/3 186/2/3 187/2/3
f 191/1/3 190/1/3 189/1/3
f 192/1/3 190/1/3 191/1/3
f 195/1/3 194/1/3 193/1/3
f 196/1/3 194/1/3 195/1/3
f 200/1/3 198/1/3 197/1/3
f 201/1/3 198/1/3 200/1/3
f 202/1/3 200/1/3 199/1/3
f 203/1/3 200/1/3 202/1/3
f 205/1/3 204/1/3 203/1/3
f 206/1/3 204/1/3 205/1/3
f 209/2/3 208/2/3 207/2/3
f 210/2/3 208/2/3 209/2/3
f 213/2/3 212/2/3 211/2/3
f 214/2/3 212/2/3 213/2/3
f 217/2/3 216/2/3 215/2/3
f 218/2/3 216/2/3 217/2/3
f 223/1/3 220/1/3 219/1/3
f 224/1/3 220/1/3 223/1/3
f 225/1/3 222/1/3 221/1/3
f 226/1/3 222/1/3 225/1/3
f 229/1/3 228/1/3 227/1/3
f 230/1/3 228/1/3 229/1/3
f 233/2/3 232/2/3 231/2/3
f 234/2/3 232/2/3 233/2/3
f 237/4/3 236/4/3 235/4/3
f 238/4/3 236/4/3 237/4/3
f 240/4/3 237/4/3 235/4/3
f 241/1/3 240/1/3 239/1/3
f 242/4/3 237/4/3 240/4/3
f 242/1/3 240/1/3 241/1/3
f 244/4/3 237/4/3 242/4/3
f 245/1/3 244/1/3 243/1/3
f 246/4/3 237/4/3 244/4/3
f 246/1/3 244/1/3 245/1/3
f 247/4/3 237/4/3 246/4/3
f 249/4/3 247/4/3 246/4/3
f 249/4/3 248/4/3 247/4/3
f 250/4/3 248/4/3 249/4/3
f 255/1/3 252/1/3 251/1/3
f 256/1/3 252/1/3 255/1/3
f 258/2/3 254/2/3 253/2/3
f 259/1/3 252/1/3 256/1/3
f 260/1/3 252/1/3 259/1/3
f 263/1/3 258/1/3 257/1/3
f 264/2/3 254/2/3 258/2/3
f 264/1/3 258/1/3 263/1/3
f 265/2/3 254/2/3 264/2/3
f 266/4/3 262/4/3 261/4/3
f 267/4/3 262/4/3 266/4/3
f 274/1/3 272/1/3 271/1/3
f 275/1/3 269/1/3 268/1/3
f 276/2/3 270/2/3 269/2/3
f 276/1/3 269/1/3 275/1/3
f 277/1/3 274/1/3 273/1/3
f 278/1/3 272/1/3 274/1/3
f 278/1/3 274/1/3 277/1/3
f 279/2/3 270/2/3 276/2/3
f 280/2/3 270/2/3 279/2/3
f 283/4/3 282/4/3 281/4/3
f 284/4/3 282/4/3 283/4/3
f 287/4/3 286/4/3 285/4/3
f 288/4/3 286/4/3 287/4/3
f 289/1/4 290/1/4 291/1/4
f 291/1/4 290/1/4 292/1/4
f 293/4/4 294/4/4 295/4/4
f 295/4/4 294/4/4 296/4/4
f 297/4/4 298/4/4 299/4/4
f 299/4/4 298/4/4 300/4/4
f 301/1/4 302/1/4 307/1/4
f 304/1/4 305/1/4 308/1/4
f 308/1/4 305/1/4 309/1/4
f 306/1/4 307/1/4 310/1/4
f 302/2/4 303/2/4 311/2/4
f 310/1/4 307/1/4 311/1/4
f 307/1/4 302/1/4 311/1/4
f 311/2/4 303/2/4 312/2/4
f 313/1/4 314/1/4 318/1/4
f 318/1/4 314/1/4 319/1/4
f 315/1/4 316/1/4 320/1/4
f 320/1/4 316/1/4 321/1/4
f 321/1/4 316/1/4 322/1/4
f 316/2/4 317/2/4 323/2/4
f 322/1/4 316/1/4 323/1/4
f 323/2/4 317/2/4 324/2/4
f 325/4/4 326/4/4 327/4/4
f 327/4/4 326/4/4 328/4/4
f 328/4/4 326/4/4 329/4/4
f 329/4/4 326/4/4 330/4/4
f 328/4/4 329/4/4 332/4/4
f 332/4/4 329/4/4 333/4/4
f 331/4/4 332/4/4 335/4/4
f 333/4/4 334/4/4 335/4/4
f 332/4/4 333/4/4 335/4/4
f 335/4/4 334/4/4 336/4/4
f 342/2/5 338/2/5 337/2/5
f 343/2/5 338/2/5 342/2/5
f 344/2/5 340/2/5 339/2/5
f 345/2/5 340/2/5 344/2/5
f 347/1/5 343/1/5 342/1/5
f 347/2/5 344/2/5 343/2/5
f 348/1/5 345/1/5 344/1/5
f 348/2/5 344/2/5 347/2/5
f 350/2/5 342/2/5 341/2/5
f 351/2/5 346/2/5 345/2/5
f 354/2/5 350/2/5 349/2/5
f 355/1/5 347/1/5 342/1/5
f 355/1/5 348/1/5 347/1/5
f 355/2/5 350/2/5 354/2/5
f 355/2/5 342/2/5 350/2/5
f 356/1/5 348/1/5 355/1/5
f 357/1/5 345/1/5 348/1/5
f 357/1/5 348/1/5 356/1/5
f 358/2/5 352/2/5 351/2/5
f 358/1/5 345/1/5 357/1/5
f 358/2/5 351/2/5 345/2/5
f 359/2/5 352/2/5 358/2/5
f 362/1/5 356/1/5 355/1/5
f 362/1/5 354/1/5 353/1/5
f 362/1/5 355/1/5 354/1/5
f 363/1/5 360/1/5 359/1/5
f 363/1/5 359/1/5 358/1/5
f 363/1/5 358/1/5 357/1/5
f 365/4/5 362/4/5 361/4/5
f 365/1/5 356/1/5 362/1/5
f 366/1/5 356/1/5 365/1/5
f 367/1/5 356/1/5 366/1/5
f 368/1/5 363/1/5 357/1/5
f 369/1/5 363/1/5 368/1/5
f 370/4/5 364/4/5 363/4/5
f 370/1/5 363/1/5 369/1/5
f 371/4/5 365/4/5 361/4/5
f 371/4/5 366/4/5 365/4/5
f 372/4/5 366/4/5 371/4/5
f 373/4/5 370/4/5 369/4/5
f 374/4/5 364/4/5 370/4/5
f 374/4/5 370/4/5 373/4/5
f 378/4/5 376/4/5 375/4/5
f 379/4/5 376/4/5 378/4/5
f 381/4/5 378/4/5 377/4/5
f 381/4/5 380/4/5 379/4/5
f 381/4/5 379/4/5 378/4/5
f 382/4/5 380/4/5 381/4/5
f 389/4/5 384/4/5 383/4/5
f 390/4/5 384/4/5 389/4/5
f 391/4/5 386/4/5 385/4/5
f 392/4/5 386/4/5 391/4/5
f 393/4/5 388/4/5 387/4/5
f 394/4/5 388/4/5 393/4/5
f 395/4/5 389/4/5 383/4/5
f 396/4/5 389/4/5 395/4/5
f 397/4/5 388/4/5 394/4/5
f 398/4/5 388/4/5 397/4/5
f 399/2/6 400/2/6 404/2/6
f 404/2/6 400/2/6 405/2/6
f 401/2/6 402/2/6 406/2/6
f 406/2/6 402/2/6 407/2/6
f 404/1/6 405/1/6 409/1/6
f 403/2/6 404/2/6 409/2/6
f 405/2/6 406/2/6 410/2/6
f 409/1/6 405/1/6 410/1/6
f 406/1/6 407/1/6 411/1/6
f 410/2/6 406/2/6 411/2/6
f 407/2/6 408/2/6 412/2/6
f 411/1/6 407/1/6 412/1/6
f 410/1/6 411/1/6 413/1/6
f 413/1/6 411/1/6 414/1/6
f 403/2/6 409/2/6 415/2/6
f 415/2/6 409/2/6 416/2/6
f 412/2/6 408/2/6 417/2/6
f 417/2/6 408/2/6 418/2/6
f 419/1/6 420/1/6 423/1/6
f 423/1/6 420/1/6 424/1/6
f 421/1/6 422/1/6 425/1/6
f 425/1/6 422/1/6 426/1/6
f 427/2/6 428/2/6 432/2/6
f 424/1/6 425/1/6 433/1/6
f 433/1/6 425/1/6 434/1/6
f 429/2/6 430/2/6 435/2/6
f 431/2/6 432/2/6 437/2/6
f 432/2/6 428/2/6 438/2/6
f 437/2/6 432/2/6 438/2/6
f 435/2/6 436/2/6 439/2/6
f 429/2/6 435/2/6 439/2/6
f 439/2/6 436/2/6 440/2/6
f 441/1/6 442/1/6 443/1/6
f 443/1/6 442/1/6 444/1/6
f 445/1/6 446/1/6 449/1/6
f 449/1/6 446/1/6 450/1/6
f 447/1/6 448/1/6 451/1/6
f 451/1/6 448/1/6 452/1/6
f 453/1/6 454/1/6 457/1/6
f 457/1/6 454/1/6 458/1/6
f 455/1/6 456/1/6 459/1/6
f 459/1/6 456/1/6 460/1/6
f 461/4/6 462/4/6 463/4/6
f 463/4/6 462/4/6 464/4/6
f 464/4/6 462/4/6 465/4/6
f 465/4/6 462/4/6 466/4/6
f 464/4/6 465/4/6 468/4/6
f 468/4/6 465/4/6 469/4/6
f 467/4/6 468/4/6 471/4/6
f 469/4/6 470/4/6 471/4/6
f 468/4/6 469/4/6 471/4/6
f 471/4/6 470/4/6 472/4/6
f 473/4/6 474/4/6 477/4/6
f 475/4/6 476/4/6 480/4/6
f 477/4/6 478/4/6 481/4/6
f 473/4/6 477/4/6 481/4/6
f 481/4/6 478/4/6 482/4/6
f 479/4/6 480/4/6 483/4/6
f 480/4/6 476/4/6 484/4/6
f 483/4/6 480/4/6 484/4/6
f 485/4/6 486/4/6 489/4/6
f 489/4/6 486/4/6 490/4/6
f 487/4/6 488/4/6 491/4/6
f 491/4/6 488/4/6 492/4/6
f 485/4/6 489/4/6 493/4/6
f 493/4/6 489/4/6 494/4/6
f 492/4/6 488/4/6 495/4/6
f 495/4/6 488/4/6 496/4/6
f 497/2/6 498/2/6 501/2/6
f 501/2/6 498/2/6 502/2/6
f 499/2/6 500/2/6 503/2/6
f 503/2/6 500/2/6 504/2/6
f 497/2/6 501/2/6 505/2/6
f 501/3/6 502/3/6 505/3/6
f 502/2/6 498/2/6 506/2/6
f 505/3/6 502/3/6 506/3/6
f 503/3/6 504/3/6 507/3/6
f 499/2/6 503/2/6 507/2/6
f 504/2/6 500/2/6 508/2/6
f 507/3/6 504/3/6 508/3/6
f 497/2/6 505/2/6 509/2/6
f 505/2/6 506/2/6 509/2/6
f 506/2/6 498/2/6 510/2/6
f 509/2/6 506/2/6 510/2/6
f 499/2/6 507/2/6 511/2/6
f 507/2/6 508/2/6 511/2/6
f 508/2/6 500/2/6 512/2/6
f 511/2/6 508/2/6 512/2/6
