# MagicaVoxel @ Ephtracy

# group
o 

# material
mtllib MachineGun1LVL1-0.mtl
usemtl palette

# normals
vn -1 0 0
vn 1 0 0
vn 0 0 1
vn 0 0 -1
vn 0 -1 0
vn 0 1 0

# texcoords
vt 0.974609 0.5
vt 0.994141 0.5

# verts
v -0.2 0.5 0.5
v -0.2 0.5 0.4
v -0.2 0.5 0.2
v -0.2 0.7 0.5
v -0.2 0.7 0.4
v -0.2 0.7 0.2
v -0.2 0.7 -0.1
v -0.2 0.9 0.4
v -0.2 0.9 0.1
v -0.2 0.9 -0.1
v -0.2 1 0.4
v -0.2 1 0.1
v -0.0999999 0.2 0.1
v -0.0999999 0.2 -0.1
v -0.0999999 0.6 0.2
v -0.0999999 0.6 0.1
v -0.0999999 0.6 -0.1
v -0.0999999 0.6 -0.7
v -0.0999999 0.7 0.7
v -0.0999999 0.7 0.6
v -0.0999999 0.7 0.5
v -0.0999999 0.7 0.4
v -0.0999999 0.7 0.2
v -0.0999999 0.7 -0.1
v -0.0999999 0.7 -0.7
v -0.0999999 0.7 -1.3
v -0.0999999 0.8 0.7
v -0.0999999 0.8 0.6
v -0.0999999 0.9 0.6
v -0.0999999 0.9 0.4
v -0.0999999 0.9 0.1
v -0.0999999 0.9 -0.1
v -0.0999999 0.9 -0.5
v -0.0999999 0.9 -1.3
v -0.0999999 1 0.1
v -0.0999999 1 -0.5
v 0.1 0.5 0.5
v 0.1 0.5 0.4
v 0.1 0.6 0.5
v 0.1 0.6 0.4
v 0.1 0.9 0.4
v 0.1 0.9 0.1
v 0.1 1 0.4
v 0.1 1 0.1
v -0.0999999 0.5 0.5
v -0.0999999 0.5 0.4
v -0.0999999 0.6 0.5
v -0.0999999 0.6 0.4
v -0.0999999 0.9 0.4
v -0.0999999 0.9 0.1
v -0.0999999 1 0.4
v -0.0999999 1 0.1
v 0.1 0.2 0.1
v 0.1 0.2 -0.1
v 0.1 0.6 0.2
v 0.1 0.6 0.1
v 0.1 0.6 -0.1
v 0.1 0.6 -0.7
v 0.1 0.7 0.7
v 0.1 0.7 0.6
v 0.1 0.7 0.5
v 0.1 0.7 0.4
v 0.1 0.7 0.2
v 0.1 0.7 -0.1
v 0.1 0.7 -0.7
v 0.1 0.7 -1.3
v 0.1 0.8 0.7
v 0.1 0.8 0.6
v 0.1 0.9 0.6
v 0.1 0.9 0.4
v 0.1 0.9 0.1
v 0.1 0.9 -0.1
v 0.1 0.9 -0.5
v 0.1 0.9 -1.3
v 0.1 1 0.1
v 0.1 1 -0.5
v 0.2 0.5 0.5
v 0.2 0.5 0.4
v 0.2 0.5 0.2
v 0.2 0.7 0.5
v 0.2 0.7 0.4
v 0.2 0.7 0.2
v 0.2 0.7 -0.1
v 0.2 0.9 0.4
v 0.2 0.9 0.1
v 0.2 0.9 -0.1
v 0.2 1 0.4
v 0.2 1 0.1
v -0.0999999 0.7 0.7
v -0.0999999 0.8 0.7
v 0.1 0.7 0.7
v 0.1 0.8 0.7
v -0.0999999 0.8 0.6
v -0.0999999 0.9 0.6
v 0.1 0.8 0.6
v 0.1 0.9 0.6
v -0.2 0.5 0.5
v -0.2 0.7 0.5
v -0.0999999 0.5 0.5
v -0.0999999 0.6 0.5
v -0.0999999 0.7 0.5
v 0.1 0.5 0.5
v 0.1 0.6 0.5
v 0.1 0.7 0.5
v 0.2 0.5 0.5
v 0.2 0.7 0.5
v -0.2 0.7 0.4
v -0.2 0.9 0.4
v -0.2 1 0.4
v -0.0999999 0.5 0.4
v -0.0999999 0.6 0.4
v -0.0999999 0.7 0.4
v -0.0999999 0.9 0.4
v -0.0999999 1 0.4
v 0.1 0.5 0.4
v 0.1 0.6 0.4
v 0.1 0.7 0.4
v 0.1 0.9 0.4
v 0.1 1 0.4
v 0.2 0.7 0.4
v 0.2 0.9 0.4
v 0.2 1 0.4
v -0.0999999 0.2 0.1
v -0.0999999 0.6 0.1
v -0.0999999 0.9 0.1
v -0.0999999 1 0.1
v 0.1 0.2 0.1
v 0.1 0.6 0.1
v 0.1 0.9 0.1
v 0.1 1 0.1
v -0.2 0.5 0.2
v -0.2 0.7 0.2
v -0.0999999 0.6 0.2
v -0.0999999 0.7 0.2
v 0.1 0.6 0.2
v 0.1 0.7 0.2
v 0.2 0.5 0.2
v 0.2 0.7 0.2
v -0.2 0.9 0.1
v -0.2 1 0.1
v -0.0999999 0.9 0.1
v -0.0999999 1 0.1
v 0.1 0.9 0.1
v 0.1 1 0.1
v 0.2 0.9 0.1
v 0.2 1 0.1
v -0.2 0.7 -0.1
v -0.2 0.9 -0.1
v -0.0999999 0.2 -0.1
v -0.0999999 0.6 -0.1
v -0.0999999 0.7 -0.1
v -0.0999999 0.9 -0.1
v 0.1 0.2 -0.1
v 0.1 0.6 -0.1
v 0.1 0.7 -0.1
v 0.1 0.9 -0.1
v 0.2 0.7 -0.1
v 0.2 0.9 -0.1
v -0.0999999 0.9 -0.5
v -0.0999999 1 -0.5
v 0.1 0.9 -0.5
v 0.1 1 -0.5
v -0.0999999 0.6 -0.7
v -0.0999999 0.7 -0.7
v 0.1 0.6 -0.7
v 0.1 0.7 -0.7
v -0.0999999 0.7 -1.3
v -0.0999999 0.9 -1.3
v 0.1 0.7 -1.3
v 0.1 0.9 -1.3
v -0.0999999 0.2 0.1
v 0.1 0.2 0.1
v -0.0999999 0.2 -0.1
v 0.1 0.2 -0.1
v -0.2 0.5 0.5
v -0.0999999 0.5 0.5
v 0.1 0.5 0.5
v 0.2 0.5 0.5
v -0.2 0.5 0.4
v -0.0999999 0.5 0.4
v 0.1 0.5 0.4
v 0.2 0.5 0.4
v -0.2 0.5 0.2
v 0.2 0.5 0.2
v -0.0999999 0.6 0.5
v 0.1 0.6 0.5
v -0.0999999 0.6 0.4
v 0.1 0.6 0.4
v -0.0999999 0.6 0.2
v 0.1 0.6 0.2
v -0.0999999 0.6 0.1
v 0.1 0.6 0.1
v -0.0999999 0.6 -0.1
v 0.1 0.6 -0.1
v -0.0999999 0.6 -0.7
v 0.1 0.6 -0.7
v -0.0999999 0.7 0.7
v 0.1 0.7 0.7
v -0.0999999 0.7 0.6
v 0.1 0.7 0.6
v -0.0999999 0.7 0.5
v 0.1 0.7 0.5
v -0.2 0.7 0.2
v -0.0999999 0.7 0.2
v 0.1 0.7 0.2
v 0.2 0.7 0.2
v -0.2 0.7 -0.1
v -0.0999999 0.7 -0.1
v 0.1 0.7 -0.1
v 0.2 0.7 -0.1
v -0.0999999 0.7 -0.7
v 0.1 0.7 -0.7
v -0.0999999 0.7 -1.3
v 0.1 0.7 -1.3
v -0.2 0.7 0.5
v -0.0999999 0.7 0.5
v 0.1 0.7 0.5
v 0.2 0.7 0.5
v -0.2 0.7 0.4
v -0.0999999 0.7 0.4
v 0.1 0.7 0.4
v 0.2 0.7 0.4
v -0.0999999 0.8 0.7
v 0.1 0.8 0.7
v -0.0999999 0.8 0.6
v 0.1 0.8 0.6
v -0.0999999 0.9 0.6
v 0.1 0.9 0.6
v -0.0999999 0.9 0.4
v 0.1 0.9 0.4
v -0.2 0.9 0.1
v -0.0999999 0.9 0.1
v 0.1 0.9 0.1
v 0.2 0.9 0.1
v -0.2 0.9 -0.1
v -0.0999999 0.9 -0.1
v 0.1 0.9 -0.1
v 0.2 0.9 -0.1
v -0.0999999 0.9 -0.5
v 0.1 0.9 -0.5
v -0.0999999 0.9 -1.3
v 0.1 0.9 -1.3
v -0.2 1 0.4
v -0.0999999 1 0.4
v 0.1 1 0.4
v 0.2 1 0.4
v -0.2 1 0.1
v -0.0999999 1 0.1
v 0.1 1 0.1
v 0.2 1 0.1
v -0.0999999 1 -0.5
v 0.1 1 -0.5

# faces
f 4/2/1 2/2/1 1/2/1
f 5/1/1 3/1/1 2/1/1
f 5/2/1 2/2/1 4/2/1
f 6/1/1 3/1/1 5/1/1
f 8/1/1 7/1/1 6/1/1
f 8/1/1 6/1/1 5/1/1
f 9/1/1 7/1/1 8/1/1
f 10/1/1 7/1/1 9/1/1
f 11/2/1 9/2/1 8/2/1
f 12/2/1 9/2/1 11/2/1
f 16/2/1 14/2/1 13/2/1
f 17/2/1 14/2/1 16/2/1
f 23/2/1 16/2/1 15/2/1
f 23/2/1 17/2/1 16/2/1
f 23/2/1 18/2/1 17/2/1
f 24/2/1 18/2/1 23/2/1
f 25/2/1 18/2/1 24/2/1
f 27/2/1 20/2/1 19/2/1
f 28/1/1 22/1/1 21/1/1
f 28/2/1 20/2/1 27/2/1
f 28/1/1 21/1/1 20/1/1
f 29/1/1 22/1/1 28/1/1
f 30/1/1 22/1/1 29/1/1
f 32/1/1 25/1/1 24/1/1
f 32/1/1 26/1/1 25/1/1
f 33/1/1 26/1/1 32/1/1
f 34/1/1 26/1/1 33/1/1
f 35/2/1 32/2/1 31/2/1
f 35/2/1 33/2/1 32/2/1
f 36/2/1 33/2/1 35/2/1
f 39/2/1 38/2/1 37/2/1
f 40/2/1 38/2/1 39/2/1
f 43/2/1 42/2/1 41/2/1
f 44/2/1 42/2/1 43/2/1
f 45/2/2 46/2/2 47/2/2
f 47/2/2 46/2/2 48/2/2
f 49/2/2 50/2/2 51/2/2
f 51/2/2 50/2/2 52/2/2
f 53/2/2 54/2/2 56/2/2
f 56/2/2 54/2/2 57/2/2
f 55/2/2 56/2/2 63/2/2
f 56/2/2 57/2/2 63/2/2
f 57/2/2 58/2/2 63/2/2
f 63/2/2 58/2/2 64/2/2
f 64/2/2 58/2/2 65/2/2
f 59/2/2 60/2/2 67/2/2
f 61/1/2 62/1/2 68/1/2
f 67/2/2 60/2/2 68/2/2
f 60/1/2 61/1/2 68/1/2
f 68/1/2 62/1/2 69/1/2
f 69/1/2 62/1/2 70/1/2
f 64/1/2 65/1/2 72/1/2
f 65/1/2 66/1/2 72/1/2
f 72/1/2 66/1/2 73/1/2
f 73/1/2 66/1/2 74/1/2
f 71/2/2 72/2/2 75/2/2
f 72/2/2 73/2/2 75/2/2
f 75/2/2 73/2/2 76/2/2
f 77/2/2 78/2/2 80/2/2
f 78/1/2 79/1/2 81/1/2
f 80/2/2 78/2/2 81/2/2
f 81/1/2 79/1/2 82/1/2
f 82/1/2 83/1/2 84/1/2
f 81/1/2 82/1/2 84/1/2
f 84/1/2 83/1/2 85/1/2
f 85/1/2 83/1/2 86/1/2
f 84/2/2 85/2/2 87/2/2
f 87/2/2 85/2/2 88/2/2
f 91/2/3 90/2/3 89/2/3
f 92/2/3 90/2/3 91/2/3
f 95/1/3 94/1/3 93/1/3
f 96/1/3 94/1/3 95/1/3
f 99/2/3 98/2/3 97/2/3
f 100/2/3 98/2/3 99/2/3
f 101/2/3 98/2/3 100/2/3
f 103/1/3 101/1/3 100/1/3
f 104/1/3 101/1/3 103/1/3
f 105/2/3 103/2/3 102/2/3
f 105/2/3 104/2/3 103/2/3
f 106/2/3 104/2/3 105/2/3
f 112/1/3 108/1/3 107/1/3
f 113/2/3 109/2/3 108/2/3
f 113/1/3 108/1/3 112/1/3
f 114/2/3 109/2/3 113/2/3
f 115/1/3 111/1/3 110/1/3
f 116/1/3 111/1/3 115/1/3
f 120/1/3 118/1/3 117/1/3
f 121/2/3 119/2/3 118/2/3
f 121/1/3 118/1/3 120/1/3
f 122/2/3 119/2/3 121/2/3
f 127/2/3 124/2/3 123/2/3
f 128/2/3 124/2/3 127/2/3
f 129/2/3 126/2/3 125/2/3
f 130/2/3 126/2/3 129/2/3
f 131/1/4 132/1/4 133/1/4
f 133/1/4 132/1/4 134/1/4
f 131/1/4 133/1/4 135/1/4
f 131/1/4 135/1/4 137/1/4
f 135/1/4 136/1/4 137/1/4
f 137/1/4 136/1/4 138/1/4
f 139/2/4 140/2/4 141/2/4
f 141/2/4 140/2/4 142/2/4
f 143/2/4 144/2/4 145/2/4
f 145/2/4 144/2/4 146/2/4
f 147/1/4 148/1/4 151/1/4
f 151/1/4 148/1/4 152/1/4
f 149/2/4 150/2/4 153/2/4
f 153/2/4 150/2/4 154/2/4
f 155/1/4 156/1/4 157/1/4
f 157/1/4 156/1/4 158/1/4
f 159/2/4 160/2/4 161/2/4
f 161/2/4 160/2/4 162/2/4
f 163/2/4 164/2/4 165/2/4
f 165/2/4 164/2/4 166/2/4
f 167/1/4 168/1/4 169/1/4
f 169/1/4 168/1/4 170/1/4
f 173/2/5 172/2/5 171/2/5
f 174/2/5 172/2/5 173/2/5
f 179/2/5 176/2/5 175/2/5
f 180/2/5 176/2/5 179/2/5
f 181/2/5 178/2/5 177/2/5
f 182/2/5 178/2/5 181/2/5
f 183/1/5 180/1/5 179/1/5
f 183/1/5 181/1/5 180/1/5
f 183/1/5 182/1/5 181/1/5
f 184/1/5 182/1/5 183/1/5
f 187/1/5 186/1/5 185/1/5
f 188/1/5 186/1/5 187/1/5
f 191/2/5 190/2/5 189/2/5
f 192/2/5 190/2/5 191/2/5
f 195/2/5 194/2/5 193/2/5
f 196/2/5 194/2/5 195/2/5
f 199/2/5 198/2/5 197/2/5
f 200/2/5 198/2/5 199/2/5
f 201/1/5 200/1/5 199/1/5
f 202/1/5 200/1/5 201/1/5
f 207/1/5 204/1/5 203/1/5
f 208/1/5 204/1/5 207/1/5
f 209/1/5 206/1/5 205/1/5
f 210/1/5 206/1/5 209/1/5
f 213/1/5 212/1/5 211/1/5
f 214/1/5 212/1/5 213/1/5
f 215/2/6 216/2/6 219/2/6
f 219/2/6 216/2/6 220/2/6
f 217/2/6 218/2/6 221/2/6
f 221/2/6 218/2/6 222/2/6
f 223/2/6 224/2/6 225/2/6
f 225/2/6 224/2/6 226/2/6
f 227/1/6 228/1/6 229/1/6
f 229/1/6 228/1/6 230/1/6
f 229/1/6 230/1/6 232/1/6
f 232/1/6 230/1/6 233/1/6
f 231/1/6 232/1/6 235/1/6
f 235/1/6 232/1/6 236/1/6
f 233/1/6 234/1/6 237/1/6
f 237/1/6 234/1/6 238/1/6
f 239/1/6 240/1/6 241/1/6
f 241/1/6 240/1/6 242/1/6
f 243/2/6 244/2/6 247/2/6
f 247/2/6 244/2/6 248/2/6
f 245/2/6 246/2/6 249/2/6
f 249/2/6 246/2/6 250/2/6
f 248/2/6 249/2/6 251/2/6
f 251/2/6 249/2/6 252/2/6
