# MagicaVoxel @ Ephtracy

# group
o 

# material
mtllib MachineGun1LVL7-1.mtl
usemtl palette

# normals
vn -1 0 0
vn 1 0 0
vn 0 0 1
vn 0 0 -1
vn 0 -1 0
vn 0 1 0

# texcoords
vt 0.974609 0.5
vt 0.994141 0.5

# verts
v -0.6 0.3 0.5
v -0.6 0.3 0.4
v -0.6 0.3 0.2
v -0.6 0.5 0.5
v -0.6 0.5 0.4
v -0.6 0.5 0.2
v -0.6 0.5 -0.1
v -0.6 0.5 -1
v -0.6 0.5 -1.3
v -0.6 0.6 -0.7
v -0.6 0.6 -1
v -0.6 0.7 0.4
v -0.6 0.7 0.1
v -0.6 0.7 -0.1
v -0.6 0.7 -0.7
v -0.6 0.7 -1.3
v -0.6 0.8 0.4
v -0.6 0.8 0.1
v -0.5 0.3 0.1
v -0.5 0.3 -0.1
v -0.5 0.4 0.2
v -0.5 0.4 0.1
v -0.5 0.4 -0.1
v -0.5 0.4 -0.7
v -0.5 0.5 0.7
v -0.5 0.5 0.6
v -0.5 0.5 0.5
v -0.5 0.5 0.4
v -0.5 0.5 0.2
v -0.5 0.5 -0.1
v -0.5 0.5 -0.7
v -0.5 0.5 -1
v -0.5 0.6 0.7
v -0.5 0.6 0.6
v -0.5 0.6 -0.7
v -0.5 0.6 -1
v -0.5 0.7 0.6
v -0.5 0.7 0.4
v -0.5 0.7 0.1
v -0.5 0.7 -0.1
v -0.5 0.7 -0.5
v -0.5 0.7 -0.7
v -0.5 0.8 0.1
v -0.5 0.8 -0.5
v -0.3 0.3 0.5
v -0.3 0.3 0.4
v -0.3 0.4 0.5
v -0.3 0.4 0.4
v -0.3 0.7 0.4
v -0.3 0.7 0.1
v -0.3 0.8 0.4
v -0.3 0.8 0.1
v -0.0999999 0.2 0.1
v -0.0999999 0.2 -0.1
v -0.0999999 0.3 0.1
v -0.0999999 0.3 -0.1
v 0.2 0.3 0.5
v 0.2 0.3 0.4
v 0.2 0.3 0.2
v 0.2 0.5 0.5
v 0.2 0.5 0.4
v 0.2 0.5 0.2
v 0.2 0.5 -0.1
v 0.2 0.5 -1
v 0.2 0.5 -1.3
v 0.2 0.6 -0.7
v 0.2 0.6 -1
v 0.2 0.7 0.4
v 0.2 0.7 0.1
v 0.2 0.7 -0.1
v 0.2 0.7 -0.7
v 0.2 0.7 -1.3
v 0.2 0.8 0.4
v 0.2 0.8 0.1
v 0.3 0.4 0.2
v 0.3 0.4 0.1
v 0.3 0.4 -0.1
v 0.3 0.4 -0.7
v 0.3 0.5 0.7
v 0.3 0.5 0.6
v 0.3 0.5 0.5
v 0.3 0.5 0.4
v 0.3 0.5 0.2
v 0.3 0.5 -0.1
v 0.3 0.5 -0.7
v 0.3 0.5 -1
v 0.3 0.6 0.7
v 0.3 0.6 0.6
v 0.3 0.6 -0.7
v 0.3 0.6 -1
v 0.3 0.7 0.6
v 0.3 0.7 0.4
v 0.3 0.7 0.1
v 0.3 0.7 -0.1
v 0.3 0.7 -0.5
v 0.3 0.7 -0.7
v 0.3 0.8 0.1
v 0.3 0.8 -0.5
v 0.5 0.3 0.5
v 0.5 0.3 0.4
v 0.5 0.4 0.5
v 0.5 0.4 0.4
v 0.5 0.7 0.4
v 0.5 0.7 0.1
v 0.5 0.8 0.4
v 0.5 0.8 0.1
v -0.5 0.3 0.5
v -0.5 0.3 0.4
v -0.5 0.4 0.5
v -0.5 0.4 0.4
v -0.5 0.7 0.4
v -0.5 0.7 0.1
v -0.5 0.8 0.4
v -0.5 0.8 0.1
v -0.3 0.4 0.2
v -0.3 0.4 0.1
v -0.3 0.4 -0.1
v -0.3 0.4 -0.7
v -0.3 0.5 0.7
v -0.3 0.5 0.6
v -0.3 0.5 0.5
v -0.3 0.5 0.4
v -0.3 0.5 0.2
v -0.3 0.5 -0.1
v -0.3 0.5 -0.7
v -0.3 0.5 -1
v -0.3 0.6 0.7
v -0.3 0.6 0.6
v -0.3 0.6 -0.7
v -0.3 0.6 -1
v -0.3 0.7 0.6
v -0.3 0.7 0.4
v -0.3 0.7 0.1
v -0.3 0.7 -0.1
v -0.3 0.7 -0.5
v -0.3 0.7 -0.7
v -0.3 0.8 0.1
v -0.3 0.8 -0.5
v -0.2 0.3 0.5
v -0.2 0.3 0.4
v -0.2 0.3 0.2
v -0.2 0.5 0.5
v -0.2 0.5 0.4
v -0.2 0.5 0.2
v -0.2 0.5 -0.1
v -0.2 0.5 -1
v -0.2 0.5 -1.3
v -0.2 0.6 -0.7
v -0.2 0.6 -1
v -0.2 0.7 0.4
v -0.2 0.7 0.1
v -0.2 0.7 -0.1
v -0.2 0.7 -0.7
v -0.2 0.7 -1.3
v -0.2 0.8 0.4
v -0.2 0.8 0.1
v 0.1 0.2 0.1
v 0.1 0.2 -0.1
v 0.1 0.3 0.1
v 0.1 0.3 -0.1
v 0.3 0.3 0.5
v 0.3 0.3 0.4
v 0.3 0.4 0.5
v 0.3 0.4 0.4
v 0.3 0.7 0.4
v 0.3 0.7 0.1
v 0.3 0.8 0.4
v 0.3 0.8 0.1
v 0.5 0.3 0.1
v 0.5 0.3 -0.1
v 0.5 0.4 0.2
v 0.5 0.4 0.1
v 0.5 0.4 -0.1
v 0.5 0.4 -0.7
v 0.5 0.5 0.7
v 0.5 0.5 0.6
v 0.5 0.5 0.5
v 0.5 0.5 0.4
v 0.5 0.5 0.2
v 0.5 0.5 -0.1
v 0.5 0.5 -0.7
v 0.5 0.5 -1
v 0.5 0.6 0.7
v 0.5 0.6 0.6
v 0.5 0.6 -0.7
v 0.5 0.6 -1
v 0.5 0.7 0.6
v 0.5 0.7 0.4
v 0.5 0.7 0.1
v 0.5 0.7 -0.1
v 0.5 0.7 -0.5
v 0.5 0.7 -0.7
v 0.5 0.8 0.1
v 0.5 0.8 -0.5
v 0.6 0.3 0.5
v 0.6 0.3 0.4
v 0.6 0.3 0.2
v 0.6 0.5 0.5
v 0.6 0.5 0.4
v 0.6 0.5 0.2
v 0.6 0.5 -0.1
v 0.6 0.5 -1
v 0.6 0.5 -1.3
v 0.6 0.6 -0.7
v 0.6 0.6 -1
v 0.6 0.7 0.4
v 0.6 0.7 0.1
v 0.6 0.7 -0.1
v 0.6 0.7 -0.7
v 0.6 0.7 -1.3
v 0.6 0.8 0.4
v 0.6 0.8 0.1
v -0.5 0.5 0.7
v -0.5 0.6 0.7
v -0.3 0.5 0.7
v -0.3 0.6 0.7
v 0.3 0.5 0.7
v 0.3 0.6 0.7
v 0.5 0.5 0.7
v 0.5 0.6 0.7
v -0.5 0.6 0.6
v -0.5 0.7 0.6
v -0.3 0.6 0.6
v -0.3 0.7 0.6
v 0.3 0.6 0.6
v 0.3 0.7 0.6
v 0.5 0.6 0.6
v 0.5 0.7 0.6
v -0.6 0.3 0.5
v -0.6 0.5 0.5
v -0.5 0.3 0.5
v -0.5 0.4 0.5
v -0.5 0.5 0.5
v -0.3 0.3 0.5
v -0.3 0.4 0.5
v -0.3 0.5 0.5
v -0.2 0.3 0.5
v -0.2 0.5 0.5
v 0.2 0.3 0.5
v 0.2 0.5 0.5
v 0.3 0.3 0.5
v 0.3 0.4 0.5
v 0.3 0.5 0.5
v 0.5 0.3 0.5
v 0.5 0.4 0.5
v 0.5 0.5 0.5
v 0.6 0.3 0.5
v 0.6 0.5 0.5
v -0.6 0.5 0.4
v -0.6 0.7 0.4
v -0.6 0.8 0.4
v -0.5 0.3 0.4
v -0.5 0.4 0.4
v -0.5 0.5 0.4
v -0.5 0.7 0.4
v -0.5 0.8 0.4
v -0.3 0.3 0.4
v -0.3 0.4 0.4
v -0.3 0.5 0.4
v -0.3 0.7 0.4
v -0.3 0.8 0.4
v -0.2 0.5 0.4
v -0.2 0.7 0.4
v -0.2 0.8 0.4
v 0.2 0.5 0.4
v 0.2 0.7 0.4
v 0.2 0.8 0.4
v 0.3 0.3 0.4
v 0.3 0.4 0.4
v 0.3 0.5 0.4
v 0.3 0.7 0.4
v 0.3 0.8 0.4
v 0.5 0.3 0.4
v 0.5 0.4 0.4
v 0.5 0.5 0.4
v 0.5 0.7 0.4
v 0.5 0.8 0.4
v 0.6 0.5 0.4
v 0.6 0.7 0.4
v 0.6 0.8 0.4
v -0.5 0.3 0.1
v -0.5 0.4 0.1
v -0.5 0.7 0.1
v -0.5 0.8 0.1
v -0.3 0.4 0.1
v -0.3 0.7 0.1
v -0.3 0.8 0.1
v -0.0999999 0.2 0.1
v -0.0999999 0.3 0.1
v 0.1 0.2 0.1
v 0.1 0.3 0.1
v 0.3 0.4 0.1
v 0.3 0.7 0.1
v 0.3 0.8 0.1
v 0.5 0.3 0.1
v 0.5 0.4 0.1
v 0.5 0.7 0.1
v 0.5 0.8 0.1
v -0.6 0.6 -0.7
v -0.6 0.7 -0.7
v -0.5 0.6 -0.7
v -0.5 0.7 -0.7
v -0.3 0.6 -0.7
v -0.3 0.7 -0.7
v -0.2 0.6 -0.7
v -0.2 0.7 -0.7
v 0.2 0.6 -0.7
v 0.2 0.7 -0.7
v 0.3 0.6 -0.7
v 0.3 0.7 -0.7
v 0.5 0.6 -0.7
v 0.5 0.7 -0.7
v 0.6 0.6 -0.7
v 0.6 0.7 -0.7
v -0.6 0.5 -1
v -0.6 0.6 -1
v -0.5 0.5 -1
v -0.5 0.6 -1
v -0.3 0.5 -1
v -0.3 0.6 -1
v -0.2 0.5 -1
v -0.2 0.6 -1
v 0.2 0.5 -1
v 0.2 0.6 -1
v 0.3 0.5 -1
v 0.3 0.6 -1
v 0.5 0.5 -1
v 0.5 0.6 -1
v 0.6 0.5 -1
v 0.6 0.6 -1
v -0.6 0.3 0.2
v -0.6 0.5 0.2
v -0.5 0.4 0.2
v -0.5 0.5 0.2
v -0.3 0.4 0.2
v -0.3 0.5 0.2
v -0.2 0.3 0.2
v -0.2 0.5 0.2
v 0.2 0.3 0.2
v 0.2 0.5 0.2
v 0.3 0.4 0.2
v 0.3 0.5 0.2
v 0.5 0.4 0.2
v 0.5 0.5 0.2
v 0.6 0.3 0.2
v 0.6 0.5 0.2
v -0.6 0.7 0.1
v -0.6 0.8 0.1
v -0.5 0.7 0.1
v -0.5 0.8 0.1
v -0.3 0.7 0.1
v -0.3 0.8 0.1
v -0.2 0.7 0.1
v -0.2 0.8 0.1
v 0.2 0.7 0.1
v 0.2 0.8 0.1
v 0.3 0.7 0.1
v 0.3 0.8 0.1
v 0.5 0.7 0.1
v 0.5 0.8 0.1
v 0.6 0.7 0.1
v 0.6 0.8 0.1
v -0.6 0.5 -0.1
v -0.6 0.7 -0.1
v -0.5 0.3 -0.1
v -0.5 0.4 -0.1
v -0.5 0.5 -0.1
v -0.5 0.7 -0.1
v -0.3 0.4 -0.1
v -0.3 0.5 -0.1
v -0.3 0.7 -0.1
v -0.2 0.5 -0.1
v -0.2 0.7 -0.1
v -0.0999999 0.2 -0.1
v -0.0999999 0.3 -0.1
v 0.1 0.2 -0.1
v 0.1 0.3 -0.1
v 0.2 0.5 -0.1
v 0.2 0.7 -0.1
v 0.3 0.4 -0.1
v 0.3 0.5 -0.1
v 0.3 0.7 -0.1
v 0.5 0.3 -0.1
v 0.5 0.4 -0.1
v 0.5 0.5 -0.1
v 0.5 0.7 -0.1
v 0.6 0.5 -0.1
v 0.6 0.7 -0.1
v -0.5 0.7 -0.5
v -0.5 0.8 -0.5
v -0.3 0.7 -0.5
v -0.3 0.8 -0.5
v 0.3 0.7 -0.5
v 0.3 0.8 -0.5
v 0.5 0.7 -0.5
v 0.5 0.8 -0.5
v -0.5 0.4 -0.7
v -0.5 0.5 -0.7
v -0.3 0.4 -0.7
v -0.3 0.5 -0.7
v 0.3 0.4 -0.7
v 0.3 0.5 -0.7
v 0.5 0.4 -0.7
v 0.5 0.5 -0.7
v -0.6 0.5 -1.3
v -0.6 0.7 -1.3
v -0.2 0.5 -1.3
v -0.2 0.7 -1.3
v 0.2 0.5 -1.3
v 0.2 0.7 -1.3
v 0.6 0.5 -1.3
v 0.6 0.7 -1.3
v -0.0999999 0.2 0.1
v 0.1 0.2 0.1
v -0.0999999 0.2 -0.1
v 0.1 0.2 -0.1
v -0.6 0.3 0.5
v -0.5 0.3 0.5
v -0.3 0.3 0.5
v -0.2 0.3 0.5
v 0.2 0.3 0.5
v 0.3 0.3 0.5
v 0.5 0.3 0.5
v 0.6 0.3 0.5
v -0.6 0.3 0.4
v -0.5 0.3 0.4
v -0.3 0.3 0.4
v -0.2 0.3 0.4
v 0.2 0.3 0.4
v 0.3 0.3 0.4
v 0.5 0.3 0.4
v 0.6 0.3 0.4
v -0.6 0.3 0.2
v -0.2 0.3 0.2
v 0.2 0.3 0.2
v 0.6 0.3 0.2
v -0.5 0.3 0.1
v -0.0999999 0.3 0.1
v 0.1 0.3 0.1
v 0.5 0.3 0.1
v -0.5 0.3 -0.1
v -0.0999999 0.3 -0.1
v 0.1 0.3 -0.1
v 0.5 0.3 -0.1
v -0.5 0.4 0.5
v -0.3 0.4 0.5
v 0.3 0.4 0.5
v 0.5 0.4 0.5
v -0.5 0.4 0.4
v -0.3 0.4 0.4
v 0.3 0.4 0.4
v 0.5 0.4 0.4
v -0.5 0.4 0.2
v -0.3 0.4 0.2
v 0.3 0.4 0.2
v 0.5 0.4 0.2
v -0.5 0.4 0.1
v -0.3 0.4 0.1
v 0.3 0.4 0.1
v 0.5 0.4 0.1
v -0.5 0.4 -0.1
v -0.3 0.4 -0.1
v 0.3 0.4 -0.1
v 0.5 0.4 -0.1
v -0.5 0.4 -0.7
v -0.3 0.4 -0.7
v 0.3 0.4 -0.7
v 0.5 0.4 -0.7
v -0.5 0.5 0.7
v -0.3 0.5 0.7
v 0.3 0.5 0.7
v 0.5 0.5 0.7
v -0.5 0.5 0.6
v -0.3 0.5 0.6
v 0.3 0.5 0.6
v 0.5 0.5 0.6
v -0.5 0.5 0.5
v -0.3 0.5 0.5
v 0.3 0.5 0.5
v 0.5 0.5 0.5
v -0.6 0.5 0.2
v -0.5 0.5 0.2
v -0.3 0.5 0.2
v -0.2 0.5 0.2
v 0.2 0.5 0.2
v 0.3 0.5 0.2
v 0.5 0.5 0.2
v 0.6 0.5 0.2
v -0.6 0.5 -0.1
v -0.5 0.5 -0.1
v -0.3 0.5 -0.1
v -0.2 0.5 -0.1
v 0.2 0.5 -0.1
v 0.3 0.5 -0.1
v 0.5 0.5 -0.1
v 0.6 0.5 -0.1
v -0.5 0.5 -0.7
v -0.3 0.5 -0.7
v 0.3 0.5 -0.7
v 0.5 0.5 -0.7
v -0.6 0.5 -1
v -0.5 0.5 -1
v -0.3 0.5 -1
v -0.2 0.5 -1
v 0.2 0.5 -1
v 0.3 0.5 -1
v 0.5 0.5 -1
v 0.6 0.5 -1
v -0.5 0.5 -1.2
v -0.3 0.5 -1.2
v 0.3 0.5 -1.2
v 0.5 0.5 -1.2
v -0.6 0.5 -1.3
v -0.2 0.5 -1.3
v 0.2 0.5 -1.3
v 0.6 0.5 -1.3
v -0.6 0.6 -0.7
v -0.5 0.6 -0.7
v -0.3 0.6 -0.7
v -0.2 0.6 -0.7
v 0.2 0.6 -0.7
v 0.3 0.6 -0.7
v 0.5 0.6 -0.7
v 0.6 0.6 -0.7
v -0.6 0.6 -1
v -0.5 0.6 -1
v -0.3 0.6 -1
v -0.2 0.6 -1
v 0.2 0.6 -1
v 0.3 0.6 -1
v 0.5 0.6 -1
v 0.6 0.6 -1
v -0.3 0.4 0.1
v 0.3 0.4 0.1
v -0.3 0.4 -0.1
v 0.3 0.4 -0.1
v -0.6 0.5 0.5
v -0.5 0.5 0.5
v -0.3 0.5 0.5
v -0.2 0.5 0.5
v 0.2 0.5 0.5
v 0.3 0.5 0.5
v 0.5 0.5 0.5
v 0.6 0.5 0.5
v -0.6 0.5 0.4
v -0.5 0.5 0.4
v -0.3 0.5 0.4
v -0.2 0.5 0.4
v 0.2 0.5 0.4
v 0.3 0.5 0.4
v 0.5 0.5 0.4
v 0.6 0.5 0.4
v -0.5 0.6 0.7
v -0.3 0.6 0.7
v 0.3 0.6 0.7
v 0.5 0.6 0.7
v -0.5 0.6 0.6
v -0.3 0.6 0.6
v 0.3 0.6 0.6
v 0.5 0.6 0.6
v -0.5 0.7 0.6
v -0.3 0.7 0.6
v 0.3 0.7 0.6
v 0.5 0.7 0.6
v -0.5 0.7 0.4
v -0.3 0.7 0.4
v 0.3 0.7 0.4
v 0.5 0.7 0.4
v -0.6 0.7 0.1
v -0.5 0.7 0.1
v -0.3 0.7 0.1
v -0.2 0.7 0.1
v 0.2 0.7 0.1
v 0.3 0.7 0.1
v 0.5 0.7 0.1
v 0.6 0.7 0.1
v -0.6 0.7 -0.1
v -0.5 0.7 -0.1
v -0.3 0.7 -0.1
v -0.2 0.7 -0.1
v 0.2 0.7 -0.1
v 0.3 0.7 -0.1
v 0.5 0.7 -0.1
v 0.6 0.7 -0.1
v -0.5 0.7 -0.5
v -0.3 0.7 -0.5
v 0.3 0.7 -0.5
v 0.5 0.7 -0.5
v -0.6 0.7 -0.7
v -0.5 0.7 -0.7
v -0.3 0.7 -0.7
v -0.2 0.7 -0.7
v 0.2 0.7 -0.7
v 0.3 0.7 -0.7
v 0.5 0.7 -0.7
v 0.6 0.7 -0.7
v -0.5 0.7 -1.2
v -0.3 0.7 -1.2
v 0.3 0.7 -1.2
v 0.5 0.7 -1.2
v -0.6 0.7 -1.3
v -0.2 0.7 -1.3
v 0.2 0.7 -1.3
v 0.6 0.7 -1.3
v -0.6 0.8 0.4
v -0.5 0.8 0.4
v -0.3 0.8 0.4
v -0.2 0.8 0.4
v 0.2 0.8 0.4
v 0.3 0.8 0.4
v 0.5 0.8 0.4
v 0.6 0.8 0.4
v -0.6 0.8 0.1
v -0.5 0.8 0.1
v -0.3 0.8 0.1
v -0.2 0.8 0.1
v 0.2 0.8 0.1
v 0.3 0.8 0.1
v 0.5 0.8 0.1
v 0.6 0.8 0.1
v -0.5 0.8 -0.5
v -0.3 0.8 -0.5
v 0.3 0.8 -0.5
v 0.5 0.8 -0.5

# faces
f 4/2/1 2/2/1 1/2/1
f 5/1/1 3/1/1 2/1/1
f 5/2/1 2/2/1 4/2/1
f 6/1/1 3/1/1 5/1/1
f 11/2/1 9/2/1 8/2/1
f 12/1/1 7/1/1 6/1/1
f 12/1/1 6/1/1 5/1/1
f 13/1/1 7/1/1 12/1/1
f 14/1/1 7/1/1 13/1/1
f 15/2/1 11/2/1 10/2/1
f 16/2/1 9/2/1 11/2/1
f 16/2/1 11/2/1 15/2/1
f 17/2/1 13/2/1 12/2/1
f 18/2/1 13/2/1 17/2/1
f 22/2/1 20/2/1 19/2/1
f 23/2/1 20/2/1 22/2/1
f 29/2/1 22/2/1 21/2/1
f 29/2/1 23/2/1 22/2/1
f 29/2/1 24/2/1 23/2/1
f 30/2/1 24/2/1 29/2/1
f 31/2/1 24/2/1 30/2/1
f 33/2/1 26/2/1 25/2/1
f 34/1/1 28/1/1 27/1/1
f 34/2/1 26/2/1 33/2/1
f 34/1/1 27/1/1 26/1/1
f 35/1/1 31/1/1 30/1/1
f 35/1/1 32/1/1 31/1/1
f 36/1/1 32/1/1 35/1/1
f 37/1/1 28/1/1 34/1/1
f 38/1/1 28/1/1 37/1/1
f 40/1/1 35/1/1 30/1/1
f 41/1/1 35/1/1 40/1/1
f 42/1/1 35/1/1 41/1/1
f 43/2/1 40/2/1 39/2/1
f 43/2/1 41/2/1 40/2/1
f 44/2/1 41/2/1 43/2/1
f 47/2/1 46/2/1 45/2/1
f 48/2/1 46/2/1 47/2/1
f 51/2/1 50/2/1 49/2/1
f 52/2/1 50/2/1 51/2/1
f 55/2/1 54/2/1 53/2/1
f 56/2/1 54/2/1 55/2/1
f 60/2/1 58/2/1 57/2/1
f 61/1/1 59/1/1 58/1/1
f 61/2/1 58/2/1 60/2/1
f 62/1/1 59/1/1 61/1/1
f 67/2/1 65/2/1 64/2/1
f 68/1/1 63/1/1 62/1/1
f 68/1/1 62/1/1 61/1/1
f 69/1/1 63/1/1 68/1/1
f 70/1/1 63/1/1 69/1/1
f 71/2/1 67/2/1 66/2/1
f 72/2/1 65/2/1 67/2/1
f 72/2/1 67/2/1 71/2/1
f 73/2/1 69/2/1 68/2/1
f 74/2/1 69/2/1 73/2/1
f 83/2/1 76/2/1 75/2/1
f 83/2/1 77/2/1 76/2/1
f 83/2/1 78/2/1 77/2/1
f 84/2/1 78/2/1 83/2/1
f 85/2/1 78/2/1 84/2/1
f 87/2/1 80/2/1 79/2/1
f 88/1/1 82/1/1 81/1/1
f 88/2/1 80/2/1 87/2/1
f 88/1/1 81/1/1 80/1/1
f 89/1/1 85/1/1 84/1/1
f 89/1/1 86/1/1 85/1/1
f 90/1/1 86/1/1 89/1/1
f 91/1/1 82/1/1 88/1/1
f 92/1/1 82/1/1 91/1/1
f 94/1/1 89/1/1 84/1/1
f 95/1/1 89/1/1 94/1/1
f 96/1/1 89/1/1 95/1/1
f 97/2/1 94/2/1 93/2/1
f 97/2/1 95/2/1 94/2/1
f 98/2/1 95/2/1 97/2/1
f 101/2/1 100/2/1 99/2/1
f 102/2/1 100/2/1 101/2/1
f 105/2/1 104/2/1 103/2/1
f 106/2/1 104/2/1 105/2/1
f 107/2/2 108/2/2 109/2/2
f 109/2/2 108/2/2 110/2/2
f 111/2/2 112/2/2 113/2/2
f 113/2/2 112/2/2 114/2/2
f 115/2/2 116/2/2 123/2/2
f 116/2/2 117/2/2 123/2/2
f 117/2/2 118/2/2 123/2/2
f 123/2/2 118/2/2 124/2/2
f 124/2/2 118/2/2 125/2/2
f 119/2/2 120/2/2 127/2/2
f 121/1/2 122/1/2 128/1/2
f 127/2/2 120/2/2 128/2/2
f 120/1/2 121/1/2 128/1/2
f 124/1/2 125/1/2 129/1/2
f 125/1/2 126/1/2 129/1/2
f 129/1/2 126/1/2 130/1/2
f 128/1/2 122/1/2 131/1/2
f 131/1/2 122/1/2 132/1/2
f 124/1/2 129/1/2 134/1/2
f 134/1/2 129/1/2 135/1/2
f 135/1/2 129/1/2 136/1/2
f 133/2/2 134/2/2 137/2/2
f 134/2/2 135/2/2 137/2/2
f 137/2/2 135/2/2 138/2/2
f 139/2/2 140/2/2 142/2/2
f 140/1/2 141/1/2 143/1/2
f 142/2/2 140/2/2 143/2/2
f 143/1/2 141/1/2 144/1/2
f 146/2/2 147/2/2 149/2/2
f 144/1/2 145/1/2 150/1/2
f 143/1/2 144/1/2 150/1/2
f 150/1/2 145/1/2 151/1/2
f 151/1/2 145/1/2 152/1/2
f 148/2/2 149/2/2 153/2/2
f 149/2/2 147/2/2 154/2/2
f 153/2/2 149/2/2 154/2/2
f 150/2/2 151/2/2 155/2/2
f 155/2/2 151/2/2 156/2/2
f 157/2/2 158/2/2 159/2/2
f 159/2/2 158/2/2 160/2/2
f 161/2/2 162/2/2 163/2/2
f 163/2/2 162/2/2 164/2/2
f 165/2/2 166/2/2 167/2/2
f 167/2/2 166/2/2 168/2/2
f 169/2/2 170/2/2 172/2/2
f 172/2/2 170/2/2 173/2/2
f 171/2/2 172/2/2 179/2/2
f 172/2/2 173/2/2 179/2/2
f 173/2/2 174/2/2 179/2/2
f 179/2/2 174/2/2 180/2/2
f 180/2/2 174/2/2 181/2/2
f 175/2/2 176/2/2 183/2/2
f 177/1/2 178/1/2 184/1/2
f 183/2/2 176/2/2 184/2/2
f 176/1/2 177/1/2 184/1/2
f 180/1/2 181/1/2 185/1/2
f 181/1/2 182/1/2 185/1/2
f 185/1/2 182/1/2 186/1/2
f 184/1/2 178/1/2 187/1/2
f 187/1/2 178/1/2 188/1/2
f 180/1/2 185/1/2 190/1/2
f 190/1/2 185/1/2 191/1/2
f 191/1/2 185/1/2 192/1/2
f 189/2/2 190/2/2 193/2/2
f 190/2/2 191/2/2 193/2/2
f 193/2/2 191/2/2 194/2/2
f 195/2/2 196/2/2 198/2/2
f 196/1/2 197/1/2 199/1/2
f 198/2/2 196/2/2 199/2/2
f 199/1/2 197/1/2 200/1/2
f 202/2/2 203/2/2 205/2/2
f 200/1/2 201/1/2 206/1/2
f 199/1/2 200/1/2 206/1/2
f 206/1/2 201/1/2 207/1/2
f 207/1/2 201/1/2 208/1/2
f 204/2/2 205/2/2 209/2/2
f 205/2/2 203/2/2 210/2/2
f 209/2/2 205/2/2 210/2/2
f 206/2/2 207/2/2 211/2/2
f 211/2/2 207/2/2 212/2/2
f 215/2/3 214/2/3 213/2/3
f 216/2/3 214/2/3 215/2/3
f 219/2/3 218/2/3 217/2/3
f 220/2/3 218/2/3 219/2/3
f 223/1/3 222/1/3 221/1/3
f 224/1/3 222/1/3 223/1/3
f 227/1/3 226/1/3 225/1/3
f 228/1/3 226/1/3 227/1/3
f 231/2/3 230/2/3 229/2/3
f 232/2/3 230/2/3 231/2/3
f 233/2/3 230/2/3 232/2/3
f 235/1/3 233/1/3 232/1/3
f 236/1/3 233/1/3 235/1/3
f 237/2/3 235/2/3 234/2/3
f 237/2/3 236/2/3 235/2/3
f 238/2/3 236/2/3 237/2/3
f 241/2/3 240/2/3 239/2/3
f 242/2/3 240/2/3 241/2/3
f 243/2/3 240/2/3 242/2/3
f 245/1/3 243/1/3 242/1/3
f 246/1/3 243/1/3 245/1/3
f 247/2/3 245/2/3 244/2/3
f 247/2/3 246/2/3 245/2/3
f 248/2/3 246/2/3 247/2/3
f 254/1/3 250/1/3 249/1/3
f 255/2/3 251/2/3 250/2/3
f 255/1/3 250/1/3 254/1/3
f 256/2/3 251/2/3 255/2/3
f 257/1/3 253/1/3 252/1/3
f 258/1/3 253/1/3 257/1/3
f 262/1/3 260/1/3 259/1/3
f 263/2/3 261/2/3 260/2/3
f 263/1/3 260/1/3 262/1/3
f 264/2/3 261/2/3 263/2/3
f 270/1/3 266/1/3 265/1/3
f 271/2/3 267/2/3 266/2/3
f 271/1/3 266/1/3 270/1/3
f 272/2/3 267/2/3 271/2/3
f 273/1/3 269/1/3 268/1/3
f 274/1/3 269/1/3 273/1/3
f 278/1/3 276/1/3 275/1/3
f 279/2/3 277/2/3 276/2/3
f 279/1/3 276/1/3 278/1/3
f 280/2/3 277/2/3 279/2/3
f 285/2/3 282/2/3 281/2/3
f 286/2/3 284/2/3 283/2/3
f 287/2/3 284/2/3 286/2/3
f 289/2/3 285/2/3 281/2/3
f 290/2/3 289/2/3 288/2/3
f 291/2/3 285/2/3 289/2/3
f 291/2/3 289/2/3 290/2/3
f 292/2/3 285/2/3 291/2/3
f 295/2/3 292/2/3 291/2/3
f 296/2/3 292/2/3 295/2/3
f 297/2/3 294/2/3 293/2/3
f 298/2/3 294/2/3 297/2/3
f 301/2/3 300/2/3 299/2/3
f 302/2/3 300/2/3 301/2/3
f 305/2/3 304/2/3 303/2/3
f 306/2/3 304/2/3 305/2/3
f 309/2/3 308/2/3 307/2/3
f 310/2/3 308/2/3 309/2/3
f 313/2/3 312/2/3 311/2/3
f 314/2/3 312/2/3 313/2/3
f 317/2/3 316/2/3 315/2/3
f 318/2/3 316/2/3 317/2/3
f 321/2/3 320/2/3 319/2/3
f 322/2/3 320/2/3 321/2/3
f 325/2/3 324/2/3 323/2/3
f 326/2/3 324/2/3 325/2/3
f 329/2/3 328/2/3 327/2/3
f 330/2/3 328/2/3 329/2/3
f 331/1/4 332/1/4 333/1/4
f 333/1/4 332/1/4 334/1/4
f 331/1/4 333/1/4 335/1/4
f 331/1/4 335/1/4 337/1/4
f 335/1/4 336/1/4 337/1/4
f 337/1/4 336/1/4 338/1/4
f 339/1/4 340/1/4 341/1/4
f 341/1/4 340/1/4 342/1/4
f 339/1/4 341/1/4 343/1/4
f 339/1/4 343/1/4 345/1/4
f 343/1/4 344/1/4 345/1/4
f 345/1/4 344/1/4 346/1/4
f 347/2/4 348/2/4 349/2/4
f 349/2/4 348/2/4 350/2/4
f 351/2/4 352/2/4 353/2/4
f 353/2/4 352/2/4 354/2/4
f 355/2/4 356/2/4 357/2/4
f 357/2/4 356/2/4 358/2/4
f 359/2/4 360/2/4 361/2/4
f 361/2/4 360/2/4 362/2/4
f 363/1/4 364/1/4 367/1/4
f 367/1/4 364/1/4 368/1/4
f 365/2/4 366/2/4 369/2/4
f 370/1/4 371/1/4 372/1/4
f 372/1/4 371/1/4 373/1/4
f 365/2/4 369/2/4 375/2/4
f 374/2/4 375/2/4 376/2/4
f 375/2/4 369/2/4 377/2/4
f 376/2/4 375/2/4 377/2/4
f 377/2/4 369/2/4 380/2/4
f 378/1/4 379/1/4 381/1/4
f 381/1/4 379/1/4 382/1/4
f 377/2/4 380/2/4 383/2/4
f 383/2/4 380/2/4 384/2/4
f 385/1/4 386/1/4 387/1/4
f 387/1/4 386/1/4 388/1/4
f 389/2/4 390/2/4 391/2/4
f 391/2/4 390/2/4 392/2/4
f 393/2/4 394/2/4 395/2/4
f 395/2/4 394/2/4 396/2/4
f 397/2/4 398/2/4 399/2/4
f 399/2/4 398/2/4 400/2/4
f 401/2/4 402/2/4 403/2/4
f 403/2/4 402/2/4 404/2/4
f 405/2/4 406/2/4 407/2/4
f 407/2/4 406/2/4 408/2/4
f 409/2/4 410/2/4 411/2/4
f 411/2/4 410/2/4 412/2/4
f 415/2/5 414/2/5 413/2/5
f 416/2/5 414/2/5 415/2/5
f 425/2/5 418/2/5 417/2/5
f 426/2/5 418/2/5 425/2/5
f 427/2/5 420/2/5 419/2/5
f 428/2/5 420/2/5 427/2/5
f 429/2/5 422/2/5 421/2/5
f 430/2/5 422/2/5 429/2/5
f 431/2/5 424/2/5 423/2/5
f 432/2/5 424/2/5 431/2/5
f 433/1/5 426/1/5 425/1/5
f 433/1/5 428/1/5 427/1/5
f 433/1/5 427/1/5 426/1/5
f 434/1/5 428/1/5 433/1/5
f 435/1/5 430/1/5 429/1/5
f 435/1/5 432/1/5 431/1/5
f 435/1/5 431/1/5 430/1/5
f 436/1/5 432/1/5 435/1/5
f 441/2/5 438/2/5 437/2/5
f 442/2/5 438/2/5 441/2/5
f 443/2/5 440/2/5 439/2/5
f 444/2/5 440/2/5 443/2/5
f 449/1/5 446/1/5 445/1/5
f 450/1/5 446/1/5 449/1/5
f 451/1/5 448/1/5 447/1/5
f 452/1/5 448/1/5 451/1/5
f 457/2/5 454/2/5 453/2/5
f 458/2/5 454/2/5 457/2/5
f 459/2/5 456/2/5 455/2/5
f 460/2/5 456/2/5 459/2/5
f 465/2/5 462/2/5 461/2/5
f 466/2/5 462/2/5 465/2/5
f 467/2/5 464/2/5 463/2/5
f 468/2/5 464/2/5 467/2/5
f 473/2/5 470/2/5 469/2/5
f 474/2/5 470/2/5 473/2/5
f 475/2/5 472/2/5 471/2/5
f 476/2/5 472/2/5 475/2/5
f 477/1/5 474/1/5 473/1/5
f 478/1/5 474/1/5 477/1/5
f 479/1/5 476/1/5 475/1/5
f 480/1/5 476/1/5 479/1/5
f 489/1/5 482/1/5 481/1/5
f 490/1/5 482/1/5 489/1/5
f 491/1/5 484/1/5 483/1/5
f 492/1/5 484/1/5 491/1/5
f 493/1/5 486/1/5 485/1/5
f 494/1/5 486/1/5 493/1/5
f 495/1/5 488/1/5 487/1/5
f 496/1/5 488/1/5 495/1/5
f 502/1/5 498/1/5 497/1/5
f 503/1/5 498/1/5 502/1/5
f 506/1/5 500/1/5 499/1/5
f 507/1/5 500/1/5 506/1/5
f 509/2/5 502/2/5 501/2/5
f 509/1/5 503/1/5 502/1/5
f 510/2/5 504/2/5 503/2/5
f 510/1/5 503/1/5 509/1/5
f 511/1/5 507/1/5 506/1/5
f 511/2/5 506/2/5 505/2/5
f 512/2/5 508/2/5 507/2/5
f 512/1/5 507/1/5 511/1/5
f 513/2/5 509/2/5 501/2/5
f 513/2/5 510/2/5 509/2/5
f 514/2/5 504/2/5 510/2/5
f 514/2/5 510/2/5 513/2/5
f 515/2/5 511/2/5 505/2/5
f 515/2/5 512/2/5 511/2/5
f 516/2/5 508/2/5 512/2/5
f 516/2/5 512/2/5 515/2/5
f 525/2/5 518/2/5 517/2/5
f 526/2/5 518/2/5 525/2/5
f 527/2/5 520/2/5 519/2/5
f 528/2/5 520/2/5 527/2/5
f 529/2/5 522/2/5 521/2/5
f 530/2/5 522/2/5 529/2/5
f 531/2/5 524/2/5 523/2/5
f 532/2/5 524/2/5 531/2/5
f 533/2/6 534/2/6 535/2/6
f 535/2/6 534/2/6 536/2/6
f 537/2/6 538/2/6 545/2/6
f 545/2/6 538/2/6 546/2/6
f 539/2/6 540/2/6 547/2/6
f 547/2/6 540/2/6 548/2/6
f 541/2/6 542/2/6 549/2/6
f 549/2/6 542/2/6 550/2/6
f 543/2/6 544/2/6 551/2/6
f 551/2/6 544/2/6 552/2/6
f 553/2/6 554/2/6 557/2/6
f 557/2/6 554/2/6 558/2/6
f 555/2/6 556/2/6 559/2/6
f 559/2/6 556/2/6 560/2/6
f 561/1/6 562/1/6 565/1/6
f 565/1/6 562/1/6 566/1/6
f 563/1/6 564/1/6 567/1/6
f 567/1/6 564/1/6 568/1/6
f 565/1/6 566/1/6 570/1/6
f 570/1/6 566/1/6 571/1/6
f 567/1/6 568/1/6 574/1/6
f 574/1/6 568/1/6 575/1/6
f 569/1/6 570/1/6 577/1/6
f 577/1/6 570/1/6 578/1/6
f 571/1/6 572/1/6 579/1/6
f 579/1/6 572/1/6 580/1/6
f 573/1/6 574/1/6 581/1/6
f 581/1/6 574/1/6 582/1/6
f 575/1/6 576/1/6 583/1/6
f 583/1/6 576/1/6 584/1/6
f 585/1/6 586/1/6 590/1/6
f 590/1/6 586/1/6 591/1/6
f 587/1/6 588/1/6 594/1/6
f 594/1/6 588/1/6 595/1/6
f 589/2/6 590/2/6 597/2/6
f 590/1/6 591/1/6 597/1/6
f 591/2/6 592/2/6 598/2/6
f 597/1/6 591/1/6 598/1/6
f 594/1/6 595/1/6 599/1/6
f 593/2/6 594/2/6 599/2/6
f 595/2/6 596/2/6 600/2/6
f 599/1/6 595/1/6 600/1/6
f 589/2/6 597/2/6 601/2/6
f 597/2/6 598/2/6 601/2/6
f 598/2/6 592/2/6 602/2/6
f 601/2/6 598/2/6 602/2/6
f 593/2/6 599/2/6 603/2/6
f 599/2/6 600/2/6 603/2/6
f 600/2/6 596/2/6 604/2/6
f 603/2/6 600/2/6 604/2/6
f 605/2/6 606/2/6 613/2/6
f 613/2/6 606/2/6 614/2/6
f 607/2/6 608/2/6 615/2/6
f 615/2/6 608/2/6 616/2/6
f 609/2/6 610/2/6 617/2/6
f 617/2/6 610/2/6 618/2/6
f 611/2/6 612/2/6 619/2/6
f 619/2/6 612/2/6 620/2/6
f 614/2/6 615/2/6 621/2/6
f 621/2/6 615/2/6 622/2/6
f 618/2/6 619/2/6 623/2/6
f 623/2/6 619/2/6 624/2/6
