# MagicaVoxel @ Ephtracy

# group
o 

# material
mtllib MachineGun1LVL3-0.mtl
usemtl palette

# normals
vn -1 0 0
vn 1 0 0
vn 0 0 1
vn 0 0 -1
vn 0 -1 0
vn 0 1 0

# texcoords
vt 0.974609 0.5
vt 0.994141 0.5

# verts
v -0.2 0.5 0.5
v -0.2 0.5 0.4
v -0.2 0.5 0.2
v -0.2 0.7 0.5
v -0.2 0.7 0.4
v -0.2 0.7 0.2
v -0.2 0.7 -0.1
v -0.2 0.7 -1
v -0.2 0.7 -1.3
v -0.2 0.8 -0.7
v -0.2 0.8 -1
v -0.2 0.9 0.4
v -0.2 0.9 0.1
v -0.2 0.9 -0.1
v -0.2 0.9 -0.7
v -0.2 0.9 -1.3
v -0.2 1 0.4
v -0.2 1 0.1
v -0.0999999 0.2 0.1
v -0.0999999 0.2 -0.1
v -0.0999999 0.6 0.2
v -0.0999999 0.6 0.1
v -0.0999999 0.6 -0.1
v -0.0999999 0.6 -0.7
v -0.0999999 0.7 0.7
v -0.0999999 0.7 0.6
v -0.0999999 0.7 0.5
v -0.0999999 0.7 0.4
v -0.0999999 0.7 0.2
v -0.0999999 0.7 -0.1
v -0.0999999 0.7 -0.7
v -0.0999999 0.7 -1
v -0.0999999 0.8 0.7
v -0.0999999 0.8 0.6
v -0.0999999 0.8 -0.7
v -0.0999999 0.8 -1
v -0.0999999 0.9 0.6
v -0.0999999 0.9 0.4
v -0.0999999 0.9 0.1
v -0.0999999 0.9 -0.1
v -0.0999999 0.9 -0.5
v -0.0999999 0.9 -0.7
v -0.0999999 1 0.1
v -0.0999999 1 -0.5
v 0.1 0.5 0.5
v 0.1 0.5 0.4
v 0.1 0.6 0.5
v 0.1 0.6 0.4
v 0.1 0.9 0.4
v 0.1 0.9 0.1
v 0.1 1 0.4
v 0.1 1 0.1
v -0.0999999 0.5 0.5
v -0.0999999 0.5 0.4
v -0.0999999 0.6 0.5
v -0.0999999 0.6 0.4
v -0.0999999 0.9 0.4
v -0.0999999 0.9 0.1
v -0.0999999 1 0.4
v -0.0999999 1 0.1
v 0.1 0.2 0.1
v 0.1 0.2 -0.1
v 0.1 0.6 0.2
v 0.1 0.6 0.1
v 0.1 0.6 -0.1
v 0.1 0.6 -0.7
v 0.1 0.7 0.7
v 0.1 0.7 0.6
v 0.1 0.7 0.5
v 0.1 0.7 0.4
v 0.1 0.7 0.2
v 0.1 0.7 -0.1
v 0.1 0.7 -0.7
v 0.1 0.7 -1
v 0.1 0.8 0.7
v 0.1 0.8 0.6
v 0.1 0.8 -0.7
v 0.1 0.8 -1
v 0.1 0.9 0.6
v 0.1 0.9 0.4
v 0.1 0.9 0.1
v 0.1 0.9 -0.1
v 0.1 0.9 -0.5
v 0.1 0.9 -0.7
v 0.1 1 0.1
v 0.1 1 -0.5
v 0.2 0.5 0.5
v 0.2 0.5 0.4
v 0.2 0.5 0.2
v 0.2 0.7 0.5
v 0.2 0.7 0.4
v 0.2 0.7 0.2
v 0.2 0.7 -0.1
v 0.2 0.7 -1
v 0.2 0.7 -1.3
v 0.2 0.8 -0.7
v 0.2 0.8 -1
v 0.2 0.9 0.4
v 0.2 0.9 0.1
v 0.2 0.9 -0.1
v 0.2 0.9 -0.7
v 0.2 0.9 -1.3
v 0.2 1 0.4
v 0.2 1 0.1
v -0.0999999 0.7 0.7
v -0.0999999 0.8 0.7
v 0.1 0.7 0.7
v 0.1 0.8 0.7
v -0.0999999 0.8 0.6
v -0.0999999 0.9 0.6
v 0.1 0.8 0.6
v 0.1 0.9 0.6
v -0.2 0.5 0.5
v -0.2 0.7 0.5
v -0.0999999 0.5 0.5
v -0.0999999 0.6 0.5
v -0.0999999 0.7 0.5
v 0.1 0.5 0.5
v 0.1 0.6 0.5
v 0.1 0.7 0.5
v 0.2 0.5 0.5
v 0.2 0.7 0.5
v -0.2 0.7 0.4
v -0.2 0.9 0.4
v -0.2 1 0.4
v -0.0999999 0.5 0.4
v -0.0999999 0.6 0.4
v -0.0999999 0.7 0.4
v -0.0999999 0.9 0.4
v -0.0999999 1 0.4
v 0.1 0.5 0.4
v 0.1 0.6 0.4
v 0.1 0.7 0.4
v 0.1 0.9 0.4
v 0.1 1 0.4
v 0.2 0.7 0.4
v 0.2 0.9 0.4
v 0.2 1 0.4
v -0.0999999 0.2 0.1
v -0.0999999 0.6 0.1
v -0.0999999 0.9 0.1
v -0.0999999 1 0.1
v 0.1 0.2 0.1
v 0.1 0.6 0.1
v 0.1 0.9 0.1
v 0.1 1 0.1
v -0.2 0.8 -0.7
v -0.2 0.9 -0.7
v -0.0999999 0.8 -0.7
v -0.0999999 0.9 -0.7
v 0.1 0.8 -0.7
v 0.1 0.9 -0.7
v 0.2 0.8 -0.7
v 0.2 0.9 -0.7
v -0.2 0.7 -1
v -0.2 0.8 -1
v -0.0999999 0.7 -1
v -0.0999999 0.8 -1
v 0.1 0.7 -1
v 0.1 0.8 -1
v 0.2 0.7 -1
v 0.2 0.8 -1
v -0.2 0.5 0.2
v -0.2 0.7 0.2
v -0.0999999 0.6 0.2
v -0.0999999 0.7 0.2
v 0.1 0.6 0.2
v 0.1 0.7 0.2
v 0.2 0.5 0.2
v 0.2 0.7 0.2
v -0.2 0.9 0.1
v -0.2 1 0.1
v -0.0999999 0.9 0.1
v -0.0999999 1 0.1
v 0.1 0.9 0.1
v 0.1 1 0.1
v 0.2 0.9 0.1
v 0.2 1 0.1
v -0.2 0.7 -0.1
v -0.2 0.9 -0.1
v -0.0999999 0.2 -0.1
v -0.0999999 0.6 -0.1
v -0.0999999 0.7 -0.1
v -0.0999999 0.9 -0.1
v 0.1 0.2 -0.1
v 0.1 0.6 -0.1
v 0.1 0.7 -0.1
v 0.1 0.9 -0.1
v 0.2 0.7 -0.1
v 0.2 0.9 -0.1
v -0.0999999 0.9 -0.5
v -0.0999999 1 -0.5
v 0.1 0.9 -0.5
v 0.1 1 -0.5
v -0.0999999 0.6 -0.7
v -0.0999999 0.7 -0.7
v 0.1 0.6 -0.7
v 0.1 0.7 -0.7
v -0.2 0.7 -1.3
v -0.2 0.9 -1.3
v 0.2 0.7 -1.3
v 0.2 0.9 -1.3
v -0.0999999 0.2 0.1
v 0.1 0.2 0.1
v -0.0999999 0.2 -0.1
v 0.1 0.2 -0.1
v -0.2 0.5 0.5
v -0.0999999 0.5 0.5
v 0.1 0.5 0.5
v 0.2 0.5 0.5
v -0.2 0.5 0.4
v -0.0999999 0.5 0.4
v 0.1 0.5 0.4
v 0.2 0.5 0.4
v -0.2 0.5 0.2
v 0.2 0.5 0.2
v -0.0999999 0.6 0.5
v 0.1 0.6 0.5
v -0.0999999 0.6 0.4
v 0.1 0.6 0.4
v -0.0999999 0.6 0.2
v 0.1 0.6 0.2
v -0.0999999 0.6 0.1
v 0.1 0.6 0.1
v -0.0999999 0.6 -0.1
v 0.1 0.6 -0.1
v -0.0999999 0.6 -0.7
v 0.1 0.6 -0.7
v -0.0999999 0.7 0.7
v 0.1 0.7 0.7
v -0.0999999 0.7 0.6
v 0.1 0.7 0.6
v -0.0999999 0.7 0.5
v 0.1 0.7 0.5
v -0.2 0.7 0.2
v -0.0999999 0.7 0.2
v 0.1 0.7 0.2
v 0.2 0.7 0.2
v -0.2 0.7 -0.1
v -0.0999999 0.7 -0.1
v 0.1 0.7 -0.1
v 0.2 0.7 -0.1
v -0.0999999 0.7 -0.7
v 0.1 0.7 -0.7
v -0.2 0.7 -1
v -0.0999999 0.7 -1
v 0.1 0.7 -1
v 0.2 0.7 -1
v -0.0999999 0.7 -1.2
v 0.1 0.7 -1.2
v -0.2 0.7 -1.3
v 0.2 0.7 -1.3
v -0.2 0.8 -0.7
v -0.0999999 0.8 -0.7
v 0.1 0.8 -0.7
v 0.2 0.8 -0.7
v -0.2 0.8 -1
v -0.0999999 0.8 -1
v 0.1 0.8 -1
v 0.2 0.8 -1
v -0.2 0.7 0.5
v -0.0999999 0.7 0.5
v 0.1 0.7 0.5
v 0.2 0.7 0.5
v -0.2 0.7 0.4
v -0.0999999 0.7 0.4
v 0.1 0.7 0.4
v 0.2 0.7 0.4
v -0.0999999 0.8 0.7
v 0.1 0.8 0.7
v -0.0999999 0.8 0.6
v 0.1 0.8 0.6
v -0.0999999 0.9 0.6
v 0.1 0.9 0.6
v -0.0999999 0.9 0.4
v 0.1 0.9 0.4
v -0.2 0.9 0.1
v -0.0999999 0.9 0.1
v 0.1 0.9 0.1
v 0.2 0.9 0.1
v -0.2 0.9 -0.1
v -0.0999999 0.9 -0.1
v 0.1 0.9 -0.1
v 0.2 0.9 -0.1
v -0.0999999 0.9 -0.5
v 0.1 0.9 -0.5
v -0.2 0.9 -0.7
v -0.0999999 0.9 -0.7
v 0.1 0.9 -0.7
v 0.2 0.9 -0.7
v -0.0999999 0.9 -1.2
v 0.1 0.9 -1.2
v -0.2 0.9 -1.3
v 0.2 0.9 -1.3
v -0.2 1 0.4
v -0.0999999 1 0.4
v 0.1 1 0.4
v 0.2 1 0.4
v -0.2 1 0.1
v -0.0999999 1 0.1
v 0.1 1 0.1
v 0.2 1 0.1
v -0.0999999 1 -0.5
v 0.1 1 -0.5

# faces
f 4/2/1 2/2/1 1/2/1
f 5/1/1 3/1/1 2/1/1
f 5/2/1 2/2/1 4/2/1
f 6/1/1 3/1/1 5/1/1
f 11/2/1 9/2/1 8/2/1
f 12/1/1 7/1/1 6/1/1
f 12/1/1 6/1/1 5/1/1
f 13/1/1 7/1/1 12/1/1
f 14/1/1 7/1/1 13/1/1
f 15/2/1 11/2/1 10/2/1
f 16/2/1 9/2/1 11/2/1
f 16/2/1 11/2/1 15/2/1
f 17/2/1 13/2/1 12/2/1
f 18/2/1 13/2/1 17/2/1
f 22/2/1 20/2/1 19/2/1
f 23/2/1 20/2/1 22/2/1
f 29/2/1 22/2/1 21/2/1
f 29/2/1 23/2/1 22/2/1
f 29/2/1 24/2/1 23/2/1
f 30/2/1 24/2/1 29/2/1
f 31/2/1 24/2/1 30/2/1
f 33/2/1 26/2/1 25/2/1
f 34/1/1 28/1/1 27/1/1
f 34/2/1 26/2/1 33/2/1
f 34/1/1 27/1/1 26/1/1
f 35/1/1 31/1/1 30/1/1
f 35/1/1 32/1/1 31/1/1
f 36/1/1 32/1/1 35/1/1
f 37/1/1 28/1/1 34/1/1
f 38/1/1 28/1/1 37/1/1
f 40/1/1 35/1/1 30/1/1
f 41/1/1 35/1/1 40/1/1
f 42/1/1 35/1/1 41/1/1
f 43/2/1 40/2/1 39/2/1
f 43/2/1 41/2/1 40/2/1
f 44/2/1 41/2/1 43/2/1
f 47/2/1 46/2/1 45/2/1
f 48/2/1 46/2/1 47/2/1
f 51/2/1 50/2/1 49/2/1
f 52/2/1 50/2/1 51/2/1
f 53/2/2 54/2/2 55/2/2
f 55/2/2 54/2/2 56/2/2
f 57/2/2 58/2/2 59/2/2
f 59/2/2 58/2/2 60/2/2
f 61/2/2 62/2/2 64/2/2
f 64/2/2 62/2/2 65/2/2
f 63/2/2 64/2/2 71/2/2
f 64/2/2 65/2/2 71/2/2
f 65/2/2 66/2/2 71/2/2
f 71/2/2 66/2/2 72/2/2
f 72/2/2 66/2/2 73/2/2
f 67/2/2 68/2/2 75/2/2
f 69/1/2 70/1/2 76/1/2
f 75/2/2 68/2/2 76/2/2
f 68/1/2 69/1/2 76/1/2
f 72/1/2 73/1/2 77/1/2
f 73/1/2 74/1/2 77/1/2
f 77/1/2 74/1/2 78/1/2
f 76/1/2 70/1/2 79/1/2
f 79/1/2 70/1/2 80/1/2
f 72/1/2 77/1/2 82/1/2
f 82/1/2 77/1/2 83/1/2
f 83/1/2 77/1/2 84/1/2
f 81/2/2 82/2/2 85/2/2
f 82/2/2 83/2/2 85/2/2
f 85/2/2 83/2/2 86/2/2
f 87/2/2 88/2/2 90/2/2
f 88/1/2 89/1/2 91/1/2
f 90/2/2 88/2/2 91/2/2
f 91/1/2 89/1/2 92/1/2
f 94/2/2 95/2/2 97/2/2
f 92/1/2 93/1/2 98/1/2
f 91/1/2 92/1/2 98/1/2
f 98/1/2 93/1/2 99/1/2
f 99/1/2 93/1/2 100/1/2
f 96/2/2 97/2/2 101/2/2
f 97/2/2 95/2/2 102/2/2
f 101/2/2 97/2/2 102/2/2
f 98/2/2 99/2/2 103/2/2
f 103/2/2 99/2/2 104/2/2
f 107/2/3 106/2/3 105/2/3
f 108/2/3 106/2/3 107/2/3
f 111/1/3 110/1/3 109/1/3
f 112/1/3 110/1/3 111/1/3
f 115/2/3 114/2/3 113/2/3
f 116/2/3 114/2/3 115/2/3
f 117/2/3 114/2/3 116/2/3
f 119/1/3 117/1/3 116/1/3
f 120/1/3 117/1/3 119/1/3
f 121/2/3 119/2/3 118/2/3
f 121/2/3 120/2/3 119/2/3
f 122/2/3 120/2/3 121/2/3
f 128/1/3 124/1/3 123/1/3
f 129/2/3 125/2/3 124/2/3
f 129/1/3 124/1/3 128/1/3
f 130/2/3 125/2/3 129/2/3
f 131/1/3 127/1/3 126/1/3
f 132/1/3 127/1/3 131/1/3
f 136/1/3 134/1/3 133/1/3
f 137/2/3 135/2/3 134/2/3
f 137/1/3 134/1/3 136/1/3
f 138/2/3 135/2/3 137/2/3
f 143/2/3 140/2/3 139/2/3
f 144/2/3 140/2/3 143/2/3
f 145/2/3 142/2/3 141/2/3
f 146/2/3 142/2/3 145/2/3
f 149/2/3 148/2/3 147/2/3
f 150/2/3 148/2/3 149/2/3
f 153/2/3 152/2/3 151/2/3
f 154/2/3 152/2/3 153/2/3
f 157/2/3 156/2/3 155/2/3
f 158/2/3 156/2/3 157/2/3
f 161/2/3 160/2/3 159/2/3
f 162/2/3 160/2/3 161/2/3
f 163/1/4 164/1/4 165/1/4
f 165/1/4 164/1/4 166/1/4
f 163/1/4 165/1/4 167/1/4
f 163/1/4 167/1/4 169/1/4
f 167/1/4 168/1/4 169/1/4
f 169/1/4 168/1/4 170/1/4
f 171/2/4 172/2/4 173/2/4
f 173/2/4 172/2/4 174/2/4
f 175/2/4 176/2/4 177/2/4
f 177/2/4 176/2/4 178/2/4
f 179/1/4 180/1/4 183/1/4
f 183/1/4 180/1/4 184/1/4
f 181/2/4 182/2/4 185/2/4
f 185/2/4 182/2/4 186/2/4
f 187/1/4 188/1/4 189/1/4
f 189/1/4 188/1/4 190/1/4
f 191/2/4 192/2/4 193/2/4
f 193/2/4 192/2/4 194/2/4
f 195/2/4 196/2/4 197/2/4
f 197/2/4 196/2/4 198/2/4
f 199/2/4 200/2/4 201/2/4
f 201/2/4 200/2/4 202/2/4
f 205/2/5 204/2/5 203/2/5
f 206/2/5 204/2/5 205/2/5
f 211/2/5 208/2/5 207/2/5
f 212/2/5 208/2/5 211/2/5
f 213/2/5 210/2/5 209/2/5
f 214/2/5 210/2/5 213/2/5
f 215/1/5 212/1/5 211/1/5
f 215/1/5 213/1/5 212/1/5
f 215/1/5 214/1/5 213/1/5
f 216/1/5 214/1/5 215/1/5
f 219/1/5 218/1/5 217/1/5
f 220/1/5 218/1/5 219/1/5
f 223/2/5 222/2/5 221/2/5
f 224/2/5 222/2/5 223/2/5
f 227/2/5 226/2/5 225/2/5
f 228/2/5 226/2/5 227/2/5
f 231/2/5 230/2/5 229/2/5
f 232/2/5 230/2/5 231/2/5
f 233/1/5 232/1/5 231/1/5
f 234/1/5 232/1/5 233/1/5
f 239/1/5 236/1/5 235/1/5
f 240/1/5 236/1/5 239/1/5
f 241/1/5 238/1/5 237/1/5
f 242/1/5 238/1/5 241/1/5
f 246/1/5 244/1/5 243/1/5
f 247/1/5 244/1/5 246/1/5
f 249/2/5 246/2/5 245/2/5
f 249/1/5 247/1/5 246/1/5
f 250/2/5 248/2/5 247/2/5
f 250/1/5 247/1/5 249/1/5
f 251/2/5 249/2/5 245/2/5
f 251/2/5 250/2/5 249/2/5
f 252/2/5 248/2/5 250/2/5
f 252/2/5 250/2/5 251/2/5
f 257/2/5 254/2/5 253/2/5
f 258/2/5 254/2/5 257/2/5
f 259/2/5 256/2/5 255/2/5
f 260/2/5 256/2/5 259/2/5
f 261/2/6 262/2/6 265/2/6
f 265/2/6 262/2/6 266/2/6
f 263/2/6 264/2/6 267/2/6
f 267/2/6 264/2/6 268/2/6
f 269/2/6 270/2/6 271/2/6
f 271/2/6 270/2/6 272/2/6
f 273/1/6 274/1/6 275/1/6
f 275/1/6 274/1/6 276/1/6
f 275/1/6 276/1/6 278/1/6
f 278/1/6 276/1/6 279/1/6
f 277/1/6 278/1/6 281/1/6
f 281/1/6 278/1/6 282/1/6
f 279/1/6 280/1/6 283/1/6
f 283/1/6 280/1/6 284/1/6
f 285/1/6 286/1/6 288/1/6
f 288/1/6 286/1/6 289/1/6
f 287/2/6 288/2/6 291/2/6
f 288/1/6 289/1/6 291/1/6
f 289/2/6 290/2/6 292/2/6
f 291/1/6 289/1/6 292/1/6
f 287/2/6 291/2/6 293/2/6
f 291/2/6 292/2/6 293/2/6
f 292/2/6 290/2/6 294/2/6
f 293/2/6 292/2/6 294/2/6
f 295/2/6 296/2/6 299/2/6
f 299/2/6 296/2/6 300/2/6
f 297/2/6 298/2/6 301/2/6
f 301/2/6 298/2/6 302/2/6
f 300/2/6 301/2/6 303/2/6
f 303/2/6 301/2/6 304/2/6
