# MagicaVoxel @ Ephtracy

# group
o 

# material
mtllib Autocannon-3.mtl
usemtl palette

# normals
vn -1 0 0
vn 1 0 0
vn 0 0 1
vn 0 0 -1
vn 0 -1 0
vn 0 1 0

# texcoords
vt 0.333984 0.5
vt 0.646484 0.5
vt 0.970703 0.5
vt 0.994141 0.5

# verts
v -0.8 0.1 0.3
v -0.8 0.1 -0.3
v -0.8 0.2 0.4
v -0.8 0.2 0.3
v -0.8 0.2 0.2
v -0.8 0.2 -0.3
v -0.8 0.3 0.4
v -0.8 0.3 0.2
v -0.7 0.1 0.5
v -0.7 0.1 0.3
v -0.7 0.1 -0.3
v -0.7 0.1 -0.5
v -0.7 0.2 0.6
v -0.7 0.2 0.5
v -0.7 0.2 0.4
v -0.7 0.2 0.3
v -0.7 0.2 0.2
v -0.7 0.2 0.0999999
v -0.7 0.2 -0.3
v -0.7 0.2 -0.5
v -0.7 0.3 0.6
v -0.7 0.3 0.4
v -0.7 0.3 0.2
v -0.7 0.3 0.0999999
v -0.6 0.1 0.6
v -0.6 0.1 0.5
v -0.6 0.1 -0.5
v -0.6 0.1 -0.6
v -0.6 0.2 0.6
v -0.6 0.2 0.5
v -0.6 0.2 0.0999999
v -0.6 0.2 0
v -0.6 0.2 -0.5
v -0.6 0.2 -0.6
v -0.6 0.3 0.0999999
v -0.6 0.3 0
v -0.5 0.1 0.7
v -0.5 0.1 0.6
v -0.5 0.1 -0.6
v -0.5 0.1 -0.7
v -0.5 0.2 0.7
v -0.5 0.2 0.6
v -0.5 0.2 0
v -0.5 0.2 -0.1
v -0.5 0.2 -0.5
v -0.5 0.2 -0.6
v -0.5 0.2 -0.7
v -0.5 0.3 0.6
v -0.5 0.3 0.5
v -0.5 0.3 0
v -0.5 0.3 -0.1
v -0.5 0.3 -0.5
v -0.5 0.3 -0.7
v -0.5 0.4 0.2
v -0.5 0.4 0
v -0.5 0.5 0.3
v -0.5 0.5 0.2
v -0.5 0.6 0.7
v -0.5 0.6 0.3
v -0.4 0.2 1.3
v -0.4 0.2 1.2
v -0.4 0.2 0.7
v -0.4 0.5 1.3
v -0.4 0.5 1.2
v -0.4 0.5 0.8
v -0.4 0.6 0.8
v -0.4 0.6 0.7
v -0.3 0.1 0.8
v -0.3 0.1 0.7
v -0.3 0.1 -0.7
v -0.3 0.1 -0.8
v -0.3 0.2 0.8
v -0.3 0.2 0.7
v -0.3 0.2 -0.7
v -0.3 0.2 -0.8
v -0.3 0.3 -0.7
v -0.3 0.3 -0.8
v -0.3 0.5 1.3
v -0.3 0.5 1.2
v -0.3 0.5 0.8
v -0.3 0.6 0.8
v -0.3 0.6 0.5
v -0.3 0.7 0.8
v -0.3 0.7 0.5
v -0.3 0.8 1.3
v -0.3 0.8 0.8
v -0.2 0.5 0.3
v -0.2 0.5 0.2
v -0.2 0.6 0.5
v -0.2 0.6 0.3
v -0.2 0.6 0.2
v -0.2 0.6 0.0999999
v -0.2 0.6 -0.5
v -0.2 0.6 -1.3
v -0.2 0.6 -1.7
v -0.2 0.6 -2
v -0.2 0.7 0.8
v -0.2 0.7 0.5
v -0.2 0.7 0.0999999
v -0.2 0.7 -0.5
v -0.2 0.7 -1.1
v -0.2 0.7 -1.3
v -0.2 0.7 -1.7
v -0.2 0.7 -2
v -0.2 0.8 1.2
v -0.2 0.8 1
v -0.2 0.8 0.8
v -0.2 0.8 0.4
v -0.2 0.8 -0.5
v -0.2 0.8 -1.1
v -0.2 0.8 -1.7
v -0.2 0.8 -2
v -0.2 0.9 1.2
v -0.2 0.9 1
v -0.2 0.9 0.4
v 5.96046e-08 0.2 0.0999999
v 5.96046e-08 0.2 -0.1
v 5.96046e-08 0.3 0.2
v 5.96046e-08 0.3 0.0999999
v 5.96046e-08 0.3 0
v 5.96046e-08 0.3 -0.1
v 5.96046e-08 0.4 0.2
v 5.96046e-08 0.4 0
v 0.3 0.2 -0.5
v 0.3 0.2 -0.6
v 0.3 0.3 -0.5
v 0.3 0.3 -0.6
v -0.3 0.2 -0.5
v -0.3 0.2 -0.6
v -0.3 0.3 -0.5
v -0.3 0.3 -0.6
v -0.2 0.2 0.0999999
v -0.2 0.2 -0.1
v -0.2 0.3 0.2
v -0.2 0.3 0.0999999
v -0.2 0.3 0
v -0.2 0.3 -0.1
v -0.2 0.4 0.2
v -0.2 0.4 0
v 5.96046e-08 0.5 0.3
v 5.96046e-08 0.5 0.2
v 5.96046e-08 0.6 0.5
v 5.96046e-08 0.6 0.3
v 5.96046e-08 0.6 0.2
v 5.96046e-08 0.6 0.0999999
v 5.96046e-08 0.6 -0.5
v 5.96046e-08 0.6 -2
v 5.96046e-08 0.7 0.8
v 5.96046e-08 0.7 0.5
v 5.96046e-08 0.7 0.0999999
v 5.96046e-08 0.7 -0.5
v 5.96046e-08 0.7 -1.1
v 5.96046e-08 0.7 -1.7
v 5.96046e-08 0.7 -2
v 5.96046e-08 0.8 1.2
v 5.96046e-08 0.8 1
v 5.96046e-08 0.8 0.8
v 5.96046e-08 0.8 0.4
v 5.96046e-08 0.8 -0.5
v 5.96046e-08 0.8 -1.1
v 5.96046e-08 0.8 -1.7
v 5.96046e-08 0.8 -2
v 5.96046e-08 0.9 1.2
v 5.96046e-08 0.9 1
v 5.96046e-08 0.9 0.4
v 0.1 0.5 1.3
v 0.1 0.5 1.2
v 0.1 0.5 0.8
v 0.1 0.6 0.8
v 0.1 0.6 0.5
v 0.1 0.7 0.8
v 0.1 0.7 0.5
v 0.1 0.8 1.3
v 0.1 0.8 0.8
v 0.2 0.2 1.3
v 0.2 0.2 1.2
v 0.2 0.2 0.8
v 0.2 0.2 0.7
v 0.2 0.5 1.3
v 0.2 0.5 1.2
v 0.2 0.5 0.8
v 0.2 0.6 0.8
v 0.2 0.6 0.7
v 0.3 0.1 0.8
v 0.3 0.1 0.7
v 0.3 0.1 -0.7
v 0.3 0.1 -0.8
v 0.3 0.2 0.8
v 0.3 0.2 0.7
v 0.3 0.2 0
v 0.3 0.2 -0.1
v 0.3 0.2 -0.7
v 0.3 0.2 -0.8
v 0.3 0.3 0.7
v 0.3 0.3 0.5
v 0.3 0.3 0
v 0.3 0.3 -0.1
v 0.3 0.3 -0.7
v 0.3 0.3 -0.8
v 0.3 0.4 0.2
v 0.3 0.4 0
v 0.3 0.5 0.3
v 0.3 0.5 0.2
v 0.3 0.6 0.7
v 0.3 0.6 0.3
v 0.4 0.2 0.2
v 0.4 0.2 0
v 0.4 0.3 0.2
v 0.4 0.3 0
v 0.5 0.1 0.7
v 0.5 0.1 0.6
v 0.5 0.1 -0.6
v 0.5 0.1 -0.7
v 0.5 0.2 0.7
v 0.5 0.2 0.6
v 0.5 0.2 0.5
v 0.5 0.2 0.3
v 0.5 0.2 0.2
v 0.5 0.2 -0.5
v 0.5 0.2 -0.6
v 0.5 0.2 -0.7
v 0.5 0.3 0.7
v 0.5 0.3 0.5
v 0.5 0.3 0.3
v 0.5 0.3 0.2
v 0.5 0.3 -0.5
v 0.5 0.3 -0.7
v 0.6 0.1 0.6
v 0.6 0.1 0.5
v 0.6 0.1 -0.5
v 0.6 0.1 -0.6
v 0.6 0.2 0.6
v 0.6 0.2 0.5
v 0.6 0.2 0.3
v 0.6 0.2 -0.5
v 0.6 0.2 -0.6
v 0.6 0.3 0.5
v 0.6 0.3 0.3
v 0.7 0.1 0.5
v 0.7 0.1 0.3
v 0.7 0.1 -0.3
v 0.7 0.1 -0.5
v 0.7 0.2 0.5
v 0.7 0.2 0.3
v 0.7 0.2 -0.3
v 0.7 0.2 -0.5
v 0.8 0.1 0.3
v 0.8 0.1 -0.3
v 0.8 0.2 0.3
v 0.8 0.2 -0.3
v -0.4 0.2 1.3
v -0.4 0.5 1.3
v -0.3 0.2 1.3
v -0.3 0.5 1.3
v -0.3 0.8 1.3
v 0.1 0.2 1.3
v 0.1 0.5 1.3
v 0.1 0.8 1.3
v 0.2 0.2 1.3
v 0.2 0.5 1.3
v -0.2 0.8 1.2
v -0.2 0.9 1.2
v 5.96046e-08 0.8 1.2
v 5.96046e-08 0.9 1.2
v -0.4 0.5 0.8
v -0.4 0.6 0.8
v -0.3 0.1 0.8
v -0.3 0.2 0.8
v -0.3 0.5 0.8
v -0.3 0.6 0.8
v 0.1 0.5 0.8
v 0.1 0.6 0.8
v 0.2 0.2 0.8
v 0.2 0.5 0.8
v 0.2 0.6 0.8
v 0.3 0.1 0.8
v 0.3 0.2 0.8
v -0.5 0.1 0.7
v -0.5 0.2 0.7
v -0.5 0.6 0.7
v -0.4 0.2 0.7
v -0.4 0.6 0.7
v -0.3 0.1 0.7
v -0.3 0.2 0.7
v 0.2 0.2 0.7
v 0.2 0.6 0.7
v 0.3 0.1 0.7
v 0.3 0.2 0.7
v 0.3 0.3 0.7
v 0.3 0.6 0.7
v 0.5 0.1 0.7
v 0.5 0.2 0.7
v 0.5 0.3 0.7
v -0.7 0.2 0.6
v -0.7 0.3 0.6
v -0.6 0.1 0.6
v -0.6 0.2 0.6
v -0.5 0.1 0.6
v -0.5 0.2 0.6
v -0.5 0.3 0.6
v 0.5 0.1 0.6
v 0.5 0.2 0.6
v 0.6 0.1 0.6
v 0.6 0.2 0.6
v -0.7 0.1 0.5
v -0.7 0.2 0.5
v -0.6 0.1 0.5
v -0.6 0.2 0.5
v 0.5 0.2 0.5
v 0.5 0.3 0.5
v 0.6 0.1 0.5
v 0.6 0.2 0.5
v 0.6 0.3 0.5
v 0.7 0.1 0.5
v 0.7 0.2 0.5
v -0.8 0.2 0.4
v -0.8 0.3 0.4
v -0.7 0.2 0.4
v -0.7 0.3 0.4
v -0.8 0.1 0.3
v -0.8 0.2 0.3
v -0.7 0.1 0.3
v -0.7 0.2 0.3
v 0.7 0.1 0.3
v 0.7 0.2 0.3
v 0.8 0.1 0.3
v 0.8 0.2 0.3
v -0.5 0.2 -0.5
v -0.5 0.3 -0.5
v -0.3 0.2 -0.5
v -0.3 0.3 -0.5
v 0.3 0.2 -0.5
v 0.3 0.3 -0.5
v 0.5 0.2 -0.5
v 0.5 0.3 -0.5
v -0.3 0.2 -0.6
v -0.3 0.3 -0.6
v 0.3 0.2 -0.6
v 0.3 0.3 -0.6
v -0.3 0.7 0.8
v -0.3 0.8 0.8
v -0.2 0.7 0.8
v -0.2 0.8 0.8
v 5.96046e-08 0.7 0.8
v 5.96046e-08 0.8 0.8
v 0.1 0.7 0.8
v 0.1 0.8 0.8
v -0.3 0.6 0.5
v -0.3 0.7 0.5
v -0.2 0.6 0.5
v -0.2 0.7 0.5
v 5.96046e-08 0.6 0.5
v 5.96046e-08 0.7 0.5
v 0.1 0.6 0.5
v 0.1 0.7 0.5
v -0.2 0.8 0.4
v -0.2 0.9 0.4
v 5.96046e-08 0.8 0.4
v 5.96046e-08 0.9 0.4
v -0.5 0.5 0.3
v -0.5 0.6 0.3
v -0.2 0.5 0.3
v -0.2 0.6 0.3
v 5.96046e-08 0.5 0.3
v 5.96046e-08 0.6 0.3
v 0.3 0.5 0.3
v 0.3 0.6 0.3
v 0.5 0.2 0.3
v 0.5 0.3 0.3
v 0.6 0.2 0.3
v 0.6 0.3 0.3
v -0.8 0.2 0.2
v -0.8 0.3 0.2
v -0.7 0.2 0.2
v -0.7 0.3 0.2
v -0.5 0.4 0.2
v -0.5 0.5 0.2
v -0.2 0.3 0.2
v -0.2 0.4 0.2
v -0.2 0.5 0.2
v -0.2 0.6 0.2
v 5.96046e-08 0.3 0.2
v 5.96046e-08 0.4 0.2
v 5.96046e-08 0.5 0.2
v 5.96046e-08 0.6 0.2
v 0.3 0.4 0.2
v 0.3 0.5 0.2
v 0.4 0.2 0.2
v 0.4 0.3 0.2
v 0.5 0.2 0.2
v 0.5 0.3 0.2
v -0.7 0.2 0.0999999
v -0.7 0.3 0.0999999
v -0.6 0.2 0.0999999
v -0.6 0.3 0.0999999
v -0.2 0.2 0.0999999
v -0.2 0.3 0.0999999
v 5.96046e-08 0.2 0.0999999
v 5.96046e-08 0.3 0.0999999
v -0.6 0.2 0
v -0.6 0.3 0
v -0.5 0.2 0
v -0.5 0.3 0
v -0.5 0.4 0
v -0.2 0.3 0
v -0.2 0.4 0
v 5.96046e-08 0.3 0
v 5.96046e-08 0.4 0
v 0.3 0.2 0
v 0.3 0.3 0
v 0.3 0.4 0
v 0.4 0.2 0
v 0.4 0.3 0
v -0.5 0.2 -0.1
v -0.5 0.3 -0.1
v -0.2 0.2 -0.1
v -0.2 0.3 -0.1
v 5.96046e-08 0.2 -0.1
v 5.96046e-08 0.3 -0.1
v 0.3 0.2 -0.1
v 0.3 0.3 -0.1
v -0.8 0.1 -0.3
v -0.8 0.2 -0.3
v -0.7 0.1 -0.3
v -0.7 0.2 -0.3
v 0.7 0.1 -0.3
v 0.7 0.2 -0.3
v 0.8 0.1 -0.3
v 0.8 0.2 -0.3
v -0.7 0.1 -0.5
v -0.7 0.2 -0.5
v -0.6 0.1 -0.5
v -0.6 0.2 -0.5
v 0.6 0.1 -0.5
v 0.6 0.2 -0.5
v 0.7 0.1 -0.5
v 0.7 0.2 -0.5
v -0.6 0.1 -0.6
v -0.6 0.2 -0.6
v -0.5 0.1 -0.6
v -0.5 0.2 -0.6
v 0.5 0.1 -0.6
v 0.5 0.2 -0.6
v 0.6 0.1 -0.6
v 0.6 0.2 -0.6
v -0.5 0.1 -0.7
v -0.5 0.2 -0.7
v -0.5 0.3 -0.7
v -0.3 0.1 -0.7
v -0.3 0.2 -0.7
v -0.3 0.3 -0.7
v 0.3 0.1 -0.7
v 0.3 0.2 -0.7
v 0.3 0.3 -0.7
v 0.5 0.1 -0.7
v 0.5 0.2 -0.7
v 0.5 0.3 -0.7
v -0.3 0.1 -0.8
v -0.3 0.2 -0.8
v -0.3 0.3 -0.8
v 0.3 0.1 -0.8
v 0.3 0.2 -0.8
v 0.3 0.3 -0.8
v -0.2 0.6 -2
v -0.2 0.7 -2
v -0.2 0.8 -2
v 5.96046e-08 0.6 -2
v 5.96046e-08 0.7 -2
v 5.96046e-08 0.8 -2
v -0.3 0.1 0.8
v 0.3 0.1 0.8
v -0.5 0.1 0.7
v -0.3 0.1 0.7
v 0.3 0.1 0.7
v 0.5 0.1 0.7
v -0.6 0.1 0.6
v -0.5 0.1 0.6
v 0.5 0.1 0.6
v 0.6 0.1 0.6
v -0.7 0.1 0.5
v -0.6 0.1 0.5
v 0.6 0.1 0.5
v 0.7 0.1 0.5
v -0.8 0.1 0.3
v -0.7 0.1 0.3
v 0.7 0.1 0.3
v 0.8 0.1 0.3
v -0.8 0.1 -0.3
v -0.7 0.1 -0.3
v 0.7 0.1 -0.3
v 0.8 0.1 -0.3
v -0.7 0.1 -0.5
v -0.6 0.1 -0.5
v 0.6 0.1 -0.5
v 0.7 0.1 -0.5
v -0.6 0.1 -0.6
v -0.5 0.1 -0.6
v 0.5 0.1 -0.6
v 0.6 0.1 -0.6
v -0.5 0.1 -0.7
v -0.3 0.1 -0.7
v 0.3 0.1 -0.7
v 0.5 0.1 -0.7
v -0.3 0.1 -0.8
v 0.3 0.1 -0.8
v -0.4 0.2 1.3
v -0.3 0.2 1.3
v 0.1 0.2 1.3
v 0.2 0.2 1.3
v -0.4 0.2 1.2
v -0.3 0.2 1.2
v 0.1 0.2 1.2
v 0.2 0.2 1.2
v -0.3 0.2 0.8
v 0.2 0.2 0.8
v -0.4 0.2 0.7
v -0.3 0.2 0.7
v -0.7 0.2 0.6
v -0.6 0.2 0.6
v -0.7 0.2 0.5
v -0.6 0.2 0.5
v -0.8 0.2 0.4
v -0.7 0.2 0.4
v -0.8 0.2 0.3
v -0.7 0.2 0.3
v -0.2 0.6 0.2
v 5.96046e-08 0.6 0.2
v -0.2 0.6 0.0999999
v 5.96046e-08 0.6 0.0999999
v -0.2 0.6 -0.5
v 5.96046e-08 0.6 -0.5
v -0.2 0.6 -1.3
v -0.1 0.6 -1.3
v -0.2 0.6 -1.7
v -0.1 0.6 -1.7
v -0.2 0.6 -2
v 5.96046e-08 0.6 -2
v 0.2 0.2 0.8
v 0.3 0.2 0.8
v 0.2 0.2 0.7
v 0.3 0.2 0.7
v 0.5 0.2 0.6
v 0.6 0.2 0.6
v 0.5 0.2 0.5
v 0.6 0.2 0.5
v 0.7 0.2 0.5
v 0.5 0.2 0.3
v 0.6 0.2 0.3
v 0.7 0.2 0.3
v 0.8 0.2 0.3
v -0.8 0.2 0.2
v -0.7 0.2 0.2
v 0.4 0.2 0.2
v 0.5 0.2 0.2
v -0.7 0.2 0.0999999
v -0.6 0.2 0.0999999
v -0.2 0.2 0.0999999
v 5.96046e-08 0.2 0.0999999
v -0.6 0.2 0
v -0.5 0.2 0
v 0.3 0.2 0
v 0.4 0.2 0
v -0.5 0.2 -0.1
v -0.2 0.2 -0.1
v 5.96046e-08 0.2 -0.1
v 0.3 0.2 -0.1
v -0.8 0.2 -0.3
v -0.7 0.2 -0.3
v 0.7 0.2 -0.3
v 0.8 0.2 -0.3
v -0.7 0.2 -0.5
v -0.6 0.2 -0.5
v -0.5 0.2 -0.5
v -0.3 0.2 -0.5
v 0.3 0.2 -0.5
v 0.5 0.2 -0.5
v 0.6 0.2 -0.5
v 0.7 0.2 -0.5
v -0.6 0.2 -0.6
v -0.5 0.2 -0.6
v -0.3 0.2 -0.6
v 0.3 0.2 -0.6
v 0.5 0.2 -0.6
v 0.6 0.2 -0.6
v 0.3 0.3 0.7
v 0.5 0.3 0.7
v -0.7 0.3 0.6
v -0.5 0.3 0.6
v -0.6 0.3 0.5
v -0.5 0.3 0.5
v 0.3 0.3 0.5
v 0.4 0.3 0.5
v 0.5 0.3 0.5
v 0.6 0.3 0.5
v -0.8 0.3 0.4
v -0.7 0.3 0.4
v 0.5 0.3 0.3
v 0.6 0.3 0.3
v -0.8 0.3 0.2
v -0.7 0.3 0.2
v -0.2 0.3 0.2
v 5.96046e-08 0.3 0.2
v 0.4 0.3 0.2
v 0.5 0.3 0.2
v -0.7 0.3 0.0999999
v -0.6 0.3 0.0999999
v -0.2 0.3 0.0999999
v 5.96046e-08 0.3 0.0999999
v -0.6 0.3 0
v -0.5 0.3 0
v -0.2 0.3 0
v 5.96046e-08 0.3 0
v 0.3 0.3 0
v 0.4 0.3 0
v -0.5 0.3 -0.1
v -0.2 0.3 -0.1
v 5.96046e-08 0.3 -0.1
v 0.3 0.3 -0.1
v -0.5 0.3 -0.5
v -0.3 0.3 -0.5
v 0.3 0.3 -0.5
v 0.5 0.3 -0.5
v -0.3 0.3 -0.6
v 0.3 0.3 -0.6
v -0.5 0.3 -0.7
v -0.3 0.3 -0.7
v 0.3 0.3 -0.7
v 0.5 0.3 -0.7
v -0.3 0.3 -0.8
v 0.3 0.3 -0.8
v -0.5 0.4 0.2
v -0.2 0.4 0.2
v 5.96046e-08 0.4 0.2
v 0.3 0.4 0.2
v -0.5 0.4 0
v -0.2 0.4 0
v 5.96046e-08 0.4 0
v 0.3 0.4 0
v -0.4 0.5 1.3
v -0.3 0.5 1.3
v 0.1 0.5 1.3
v 0.2 0.5 1.3
v -0.4 0.5 1.2
v -0.3 0.5 1.2
v 0.1 0.5 1.2
v 0.2 0.5 1.2
v -0.4 0.5 0.8
v -0.3 0.5 0.8
v 0.1 0.5 0.8
v 0.2 0.5 0.8
v -0.5 0.5 0.3
v -0.2 0.5 0.3
v 5.96046e-08 0.5 0.3
v 0.3 0.5 0.3
v -0.5 0.5 0.2
v -0.2 0.5 0.2
v 5.96046e-08 0.5 0.2
v 0.3 0.5 0.2
v -0.4 0.6 0.8
v -0.3 0.6 0.8
v 0.1 0.6 0.8
v 0.2 0.6 0.8
v -0.5 0.6 0.7
v -0.4 0.6 0.7
v 0.2 0.6 0.7
v 0.3 0.6 0.7
v -0.3 0.6 0.5
v -0.2 0.6 0.5
v 5.96046e-08 0.6 0.5
v 0.1 0.6 0.5
v -0.5 0.6 0.3
v -0.2 0.6 0.3
v 5.96046e-08 0.6 0.3
v 0.3 0.6 0.3
v -0.3 0.7 0.8
v -0.2 0.7 0.8
v 5.96046e-08 0.7 0.8
v 0.1 0.7 0.8
v -0.3 0.7 0.5
v -0.2 0.7 0.5
v 5.96046e-08 0.7 0.5
v 0.1 0.7 0.5
v -0.3 0.8 1.3
v 0.1 0.8 1.3
v -0.2 0.8 1.2
v 5.96046e-08 0.8 1.2
v -0.2 0.8 1
v 5.96046e-08 0.8 1
v -0.3 0.8 0.8
v -0.2 0.8 0.8
v 5.96046e-08 0.8 0.8
v 0.1 0.8 0.8
v -0.2 0.8 0.4
v 5.96046e-08 0.8 0.4
v -0.2 0.8 -0.5
v 5.96046e-08 0.8 -0.5
v -0.2 0.8 -1.1
v 5.96046e-08 0.8 -1.1
v -0.2 0.8 -1.7
v 5.96046e-08 0.8 -1.7
v -0.2 0.8 -2
v 5.96046e-08 0.8 -2
v -0.2 0.9 1.2
v 5.96046e-08 0.9 1.2
v -0.2 0.9 1
v 5.96046e-08 0.9 1
v -0.2 0.9 0.4
v 5.96046e-08 0.9 0.4

# faces
f 4/4/1 2/4/1 1/4/1
f 5/4/1 2/4/1 4/4/1
f 6/4/1 2/4/1 5/4/1
f 7/3/1 4/3/1 3/3/1
f 7/3/1 5/3/1 4/3/1
f 8/3/1 5/3/1 7/3/1
f 14/4/1 10/4/1 9/4/1
f 15/4/1 10/4/1 14/4/1
f 16/4/1 10/4/1 15/4/1
f 19/4/1 12/4/1 11/4/1
f 20/4/1 12/4/1 19/4/1
f 21/3/1 14/3/1 13/3/1
f 21/3/1 15/3/1 14/3/1
f 22/3/1 15/3/1 21/3/1
f 23/3/1 18/3/1 17/3/1
f 24/3/1 18/3/1 23/3/1
f 29/4/1 26/4/1 25/4/1
f 30/4/1 26/4/1 29/4/1
f 33/4/1 28/4/1 27/4/1
f 34/4/1 28/4/1 33/4/1
f 35/1/1 32/1/1 31/1/1
f 36/1/1 32/1/1 35/1/1
f 41/4/1 38/4/1 37/4/1
f 42/4/1 38/4/1 41/4/1
f 46/4/1 40/4/1 39/4/1
f 47/4/1 40/4/1 46/4/1
f 48/1/1 42/1/1 41/1/1
f 50/1/1 44/1/1 43/1/1
f 51/1/1 44/1/1 50/1/1
f 52/3/1 46/3/1 45/3/1
f 52/3/1 47/3/1 46/3/1
f 53/3/1 47/3/1 52/3/1
f 54/1/1 49/1/1 48/1/1
f 54/1/1 50/1/1 49/1/1
f 55/1/1 50/1/1 54/1/1
f 56/1/1 54/1/1 48/1/1
f 57/1/1 54/1/1 56/1/1
f 58/1/1 48/1/1 41/1/1
f 58/1/1 56/1/1 48/1/1
f 59/1/1 56/1/1 58/1/1
f 63/4/1 61/4/1 60/4/1
f 64/1/1 62/1/1 61/1/1
f 64/4/1 61/4/1 63/4/1
f 65/1/1 62/1/1 64/1/1
f 66/1/1 62/1/1 65/1/1
f 67/1/1 62/1/1 66/1/1
f 72/4/1 69/4/1 68/4/1
f 73/4/1 69/4/1 72/4/1
f 74/4/1 71/4/1 70/4/1
f 75/4/1 71/4/1 74/4/1
f 76/3/1 75/3/1 74/3/1
f 77/3/1 75/3/1 76/3/1
f 81/1/1 79/1/1 78/1/1
f 81/1/1 80/1/1 79/1/1
f 83/1/1 81/1/1 78/1/1
f 83/4/1 82/4/1 81/4/1
f 84/4/1 82/4/1 83/4/1
f 85/1/1 83/1/1 78/1/1
f 86/1/1 83/1/1 85/1/1
f 90/4/1 88/4/1 87/4/1
f 91/4/1 88/4/1 90/4/1
f 98/2/1 90/2/1 89/2/1
f 98/2/1 91/2/1 90/2/1
f 98/2/1 92/2/1 91/2/1
f 99/3/1 93/3/1 92/3/1
f 99/2/1 92/2/1 98/2/1
f 100/2/1 94/2/1 93/2/1
f 100/3/1 93/3/1 99/3/1
f 101/2/1 94/2/1 100/2/1
f 102/3/1 95/3/1 94/3/1
f 102/2/1 94/2/1 101/2/1
f 103/2/1 96/2/1 95/2/1
f 103/3/1 95/3/1 102/3/1
f 104/2/1 96/2/1 103/2/1
f 107/2/1 99/2/1 98/2/1
f 107/2/1 98/2/1 97/2/1
f 107/2/1 100/2/1 99/2/1
f 108/2/1 100/2/1 107/2/1
f 109/3/1 101/3/1 100/3/1
f 109/2/1 100/2/1 108/2/1
f 110/2/1 102/2/1 101/2/1
f 110/3/1 101/3/1 109/3/1
f 110/2/1 103/2/1 102/2/1
f 111/3/1 104/3/1 103/3/1
f 111/2/1 103/2/1 110/2/1
f 112/3/1 104/3/1 111/3/1
f 113/1/1 106/1/1 105/1/1
f 114/4/1 108/4/1 107/4/1
f 114/1/1 106/1/1 113/1/1
f 114/4/1 107/4/1 106/4/1
f 115/4/1 108/4/1 114/4/1
f 119/1/1 117/1/1 116/1/1
f 120/1/1 117/1/1 119/1/1
f 121/1/1 117/1/1 120/1/1
f 122/1/1 119/1/1 118/1/1
f 122/1/1 120/1/1 119/1/1
f 123/1/1 120/1/1 122/1/1
f 126/3/1 125/3/1 124/3/1
f 127/3/1 125/3/1 126/3/1
f 128/3/2 129/3/2 130/3/2
f 130/3/2 129/3/2 131/3/2
f 132/1/2 133/1/2 135/1/2
f 135/1/2 133/1/2 136/1/2
f 136/1/2 133/1/2 137/1/2
f 134/1/2 135/1/2 138/1/2
f 135/1/2 136/1/2 138/1/2
f 138/1/2 136/1/2 139/1/2
f 140/4/2 141/4/2 143/4/2
f 143/4/2 141/4/2 144/4/2
f 142/2/2 143/2/2 149/2/2
f 143/2/2 144/2/2 149/2/2
f 144/2/2 145/2/2 149/2/2
f 145/3/2 146/3/2 150/3/2
f 149/2/2 145/2/2 150/2/2
f 146/2/2 147/2/2 151/2/2
f 150/3/2 146/3/2 151/3/2
f 151/2/2 147/2/2 152/2/2
f 152/2/2 147/2/2 153/2/2
f 153/2/2 147/2/2 154/2/2
f 149/2/2 150/2/2 157/2/2
f 148/2/2 149/2/2 157/2/2
f 150/2/2 151/2/2 157/2/2
f 157/2/2 151/2/2 158/2/2
f 151/3/2 152/3/2 159/3/2
f 158/2/2 151/2/2 159/2/2
f 152/2/2 153/2/2 160/2/2
f 159/3/2 152/3/2 160/3/2
f 153/3/2 154/3/2 161/3/2
f 160/2/2 153/2/2 161/2/2
f 161/3/2 154/3/2 162/3/2
f 155/1/2 156/1/2 163/1/2
f 156/4/2 157/4/2 164/4/2
f 163/1/2 156/1/2 164/1/2
f 157/4/2 158/4/2 164/4/2
f 164/4/2 158/4/2 165/4/2
f 166/1/2 167/1/2 169/1/2
f 167/1/2 168/1/2 169/1/2
f 166/1/2 169/1/2 171/1/2
f 169/4/2 170/4/2 171/4/2
f 171/4/2 170/4/2 172/4/2
f 166/1/2 171/1/2 173/1/2
f 173/1/2 171/1/2 174/1/2
f 175/4/2 176/4/2 179/4/2
f 177/1/2 178/1/2 180/1/2
f 179/4/2 176/4/2 180/4/2
f 176/1/2 177/1/2 180/1/2
f 180/1/2 178/1/2 181/1/2
f 181/1/2 178/1/2 182/1/2
f 182/1/2 178/1/2 183/1/2
f 184/4/2 185/4/2 188/4/2
f 188/4/2 185/4/2 189/4/2
f 186/4/2 187/4/2 192/4/2
f 192/4/2 187/4/2 193/4/2
f 190/1/2 191/1/2 196/1/2
f 196/1/2 191/1/2 197/1/2
f 192/3/2 193/3/2 198/3/2
f 198/3/2 193/3/2 199/3/2
f 194/1/2 195/1/2 200/1/2
f 195/1/2 196/1/2 200/1/2
f 200/1/2 196/1/2 201/1/2
f 194/1/2 200/1/2 202/1/2
f 202/1/2 200/1/2 203/1/2
f 194/1/2 202/1/2 204/1/2
f 204/1/2 202/1/2 205/1/2
f 206/1/2 207/1/2 208/1/2
f 208/1/2 207/1/2 209/1/2
f 210/4/2 211/4/2 214/4/2
f 214/4/2 211/4/2 215/4/2
f 212/4/2 213/4/2 220/4/2
f 220/4/2 213/4/2 221/4/2
f 214/3/2 215/3/2 222/3/2
f 215/3/2 216/3/2 222/3/2
f 222/3/2 216/3/2 223/3/2
f 217/3/2 218/3/2 224/3/2
f 224/3/2 218/3/2 225/3/2
f 220/3/2 221/3/2 226/3/2
f 219/3/2 220/3/2 226/3/2
f 226/3/2 221/3/2 227/3/2
f 228/4/2 229/4/2 232/4/2
f 232/4/2 229/4/2 233/4/2
f 230/4/2 231/4/2 235/4/2
f 235/4/2 231/4/2 236/4/2
f 233/3/2 234/3/2 237/3/2
f 237/3/2 234/3/2 238/3/2
f 239/4/2 240/4/2 243/4/2
f 243/4/2 240/4/2 244/4/2
f 241/4/2 242/4/2 245/4/2
f 245/4/2 242/4/2 246/4/2
f 247/4/2 248/4/2 249/4/2
f 249/4/2 248/4/2 250/4/2
f 253/4/3 252/4/3 251/4/3
f 254/4/3 252/4/3 253/4/3
f 256/1/3 254/1/3 253/1/3
f 256/1/3 255/1/3 254/1/3
f 257/1/3 255/1/3 256/1/3
f 258/1/3 255/1/3 257/1/3
f 259/4/3 257/4/3 256/4/3
f 260/4/3 257/4/3 259/4/3
f 263/1/3 262/1/3 261/1/3
f 264/1/3 262/1/3 263/1/3
f 269/1/3 266/1/3 265/1/3
f 270/1/3 266/1/3 269/1/3
f 273/4/3 268/4/3 267/4/3
f 274/1/3 272/1/3 271/1/3
f 275/1/3 272/1/3 274/1/3
f 276/4/3 273/4/3 267/4/3
f 277/4/3 273/4/3 276/4/3
f 281/4/3 279/4/3 278/4/3
f 281/1/3 280/1/3 279/1/3
f 282/1/3 280/1/3 281/1/3
f 283/4/3 281/4/3 278/4/3
f 284/4/3 281/4/3 283/4/3
f 288/1/3 286/1/3 285/1/3
f 289/1/3 286/1/3 288/1/3
f 290/1/3 286/1/3 289/1/3
f 291/4/3 288/4/3 287/4/3
f 292/3/3 289/3/3 288/3/3
f 292/4/3 288/4/3 291/4/3
f 293/3/3 289/3/3 292/3/3
f 297/3/3 295/3/3 294/3/3
f 298/4/3 297/4/3 296/4/3
f 299/3/3 295/3/3 297/3/3
f 299/4/3 297/4/3 298/4/3
f 300/3/3 295/3/3 299/3/3
f 303/4/3 302/4/3 301/4/3
f 304/4/3 302/4/3 303/4/3
f 307/4/3 306/4/3 305/4/3
f 308/4/3 306/4/3 307/4/3
f 312/3/3 310/3/3 309/3/3
f 313/3/3 310/3/3 312/3/3
f 314/4/3 312/4/3 311/4/3
f 315/4/3 312/4/3 314/4/3
f 318/3/3 317/3/3 316/3/3
f 319/3/3 317/3/3 318/3/3
f 322/4/3 321/4/3 320/4/3
f 323/4/3 321/4/3 322/4/3
f 326/4/3 325/4/3 324/4/3
f 327/4/3 325/4/3 326/4/3
f 330/3/3 329/3/3 328/3/3
f 331/3/3 329/3/3 330/3/3
f 334/3/3 333/3/3 332/3/3
f 335/3/3 333/3/3 334/3/3
f 338/3/3 337/3/3 336/3/3
f 339/3/3 337/3/3 338/3/3
f 340/1/4 341/1/4 342/1/4
f 342/1/4 341/1/4 343/1/4
f 344/1/4 345/1/4 346/1/4
f 346/1/4 345/1/4 347/1/4
f 348/4/4 349/4/4 350/4/4
f 350/4/4 349/4/4 351/4/4
f 352/4/4 353/4/4 354/4/4
f 354/4/4 353/4/4 355/4/4
f 356/4/4 357/4/4 358/4/4
f 358/4/4 357/4/4 359/4/4
f 360/1/4 361/1/4 362/1/4
f 362/1/4 361/1/4 363/1/4
f 364/1/4 365/1/4 366/1/4
f 366/1/4 365/1/4 367/1/4
f 368/3/4 369/3/4 370/3/4
f 370/3/4 369/3/4 371/3/4
f 372/3/4 373/3/4 374/3/4
f 374/3/4 373/3/4 375/3/4
f 376/1/4 377/1/4 379/1/4
f 379/1/4 377/1/4 380/1/4
f 378/4/4 379/4/4 382/4/4
f 380/4/4 381/4/4 382/4/4
f 379/4/4 380/4/4 382/4/4
f 382/4/4 381/4/4 383/4/4
f 383/4/4 381/4/4 384/4/4
f 384/4/4 381/4/4 385/4/4
f 383/1/4 384/1/4 386/1/4
f 386/1/4 384/1/4 387/1/4
f 388/3/4 389/3/4 390/3/4
f 390/3/4 389/3/4 391/3/4
f 392/3/4 393/3/4 394/3/4
f 394/3/4 393/3/4 395/3/4
f 396/4/4 397/4/4 398/4/4
f 398/4/4 397/4/4 399/4/4
f 400/1/4 401/1/4 402/1/4
f 402/1/4 401/1/4 403/1/4
f 403/1/4 404/1/4 405/1/4
f 405/1/4 404/1/4 406/1/4
f 407/1/4 408/1/4 410/1/4
f 410/1/4 408/1/4 411/1/4
f 409/1/4 410/1/4 412/1/4
f 412/1/4 410/1/4 413/1/4
f 414/1/4 415/1/4 416/1/4
f 416/1/4 415/1/4 417/1/4
f 418/1/4 419/1/4 420/1/4
f 420/1/4 419/1/4 421/1/4
f 422/4/4 423/4/4 424/4/4
f 424/4/4 423/4/4 425/4/4
f 426/4/4 427/4/4 428/4/4
f 428/4/4 427/4/4 429/4/4
f 430/4/4 431/4/4 432/4/4
f 432/4/4 431/4/4 433/4/4
f 434/4/4 435/4/4 436/4/4
f 436/4/4 435/4/4 437/4/4
f 438/4/4 439/4/4 440/4/4
f 440/4/4 439/4/4 441/4/4
f 442/4/4 443/4/4 444/4/4
f 444/4/4 443/4/4 445/4/4
f 446/4/4 447/4/4 449/4/4
f 447/3/4 448/3/4 450/3/4
f 449/4/4 447/4/4 450/4/4
f 450/3/4 448/3/4 451/3/4
f 452/4/4 453/4/4 455/4/4
f 453/3/4 454/3/4 456/3/4
f 455/4/4 453/4/4 456/4/4
f 456/3/4 454/3/4 457/3/4
f 458/4/4 459/4/4 461/4/4
f 459/3/4 460/3/4 462/3/4
f 461/4/4 459/4/4 462/4/4
f 462/3/4 460/3/4 463/3/4
f 464/2/4 465/2/4 467/2/4
f 465/3/4 466/3/4 468/3/4
f 467/2/4 465/2/4 468/2/4
f 468/3/4 466/3/4 469/3/4
f 473/4/5 471/4/5 470/4/5
f 474/4/5 471/4/5 473/4/5
f 477/4/5 473/4/5 472/4/5
f 477/4/5 475/4/5 474/4/5
f 477/4/5 474/4/5 473/4/5
f 478/4/5 475/4/5 477/4/5
f 481/4/5 477/4/5 476/4/5
f 481/4/5 479/4/5 478/4/5
f 481/4/5 478/4/5 477/4/5
f 482/4/5 479/4/5 481/4/5
f 485/4/5 481/4/5 480/4/5
f 485/4/5 483/4/5 482/4/5
f 485/4/5 482/4/5 481/4/5
f 486/4/5 483/4/5 485/4/5
f 488/4/5 485/4/5 484/4/5
f 488/4/5 487/4/5 486/4/5
f 488/4/5 486/4/5 485/4/5
f 489/4/5 487/4/5 488/4/5
f 490/4/5 487/4/5 489/4/5
f 491/4/5 487/4/5 490/4/5
f 492/4/5 490/4/5 489/4/5
f 493/4/5 490/4/5 492/4/5
f 494/4/5 490/4/5 493/4/5
f 495/4/5 490/4/5 494/4/5
f 496/4/5 494/4/5 493/4/5
f 497/4/5 494/4/5 496/4/5
f 498/4/5 494/4/5 497/4/5
f 499/4/5 494/4/5 498/4/5
f 500/4/5 498/4/5 497/4/5
f 501/4/5 498/4/5 500/4/5
f 502/4/5 498/4/5 501/4/5
f 503/4/5 498/4/5 502/4/5
f 504/4/5 502/4/5 501/4/5
f 505/4/5 502/4/5 504/4/5
f 510/4/5 507/4/5 506/4/5
f 511/1/5 508/1/5 507/1/5
f 511/4/5 507/4/5 510/4/5
f 512/4/5 509/4/5 508/4/5
f 512/1/5 508/1/5 511/1/5
f 513/4/5 509/4/5 512/4/5
f 514/1/5 511/1/5 510/1/5
f 514/1/5 512/1/5 511/1/5
f 514/1/5 513/1/5 512/1/5
f 515/1/5 513/1/5 514/1/5
f 516/1/5 514/1/5 510/1/5
f 517/1/5 514/1/5 516/1/5
f 520/3/5 519/3/5 518/3/5
f 521/3/5 519/3/5 520/3/5
f 524/3/5 523/3/5 522/3/5
f 525/3/5 523/3/5 524/3/5
f 528/2/5 527/2/5 526/2/5
f 529/2/5 527/2/5 528/2/5
f 530/3/5 529/3/5 528/3/5
f 531/3/5 529/3/5 530/3/5
f 532/2/5 531/2/5 530/2/5
f 533/2/5 531/2/5 532/2/5
f 534/3/5 533/3/5 532/3/5
f 535/2/5 531/2/5 533/2/5
f 535/3/5 533/3/5 534/3/5
f 536/2/5 535/2/5 534/2/5
f 537/2/5 531/2/5 535/2/5
f 537/2/5 535/2/5 536/2/5
f 538/4/6 539/4/6 540/4/6
f 540/4/6 539/4/6 541/4/6
f 542/4/6 543/4/6 544/4/6
f 544/4/6 543/4/6 545/4/6
f 545/4/6 546/4/6 548/4/6
f 548/4/6 546/4/6 549/4/6
f 547/4/6 548/4/6 554/4/6
f 548/4/6 549/4/6 554/4/6
f 549/4/6 550/4/6 554/4/6
f 551/4/6 552/4/6 555/4/6
f 555/4/6 556/4/6 559/4/6
f 553/4/6 554/4/6 562/4/6
f 559/4/6 560/4/6 563/4/6
f 557/4/6 558/4/6 564/4/6
f 564/4/6 558/4/6 565/4/6
f 561/4/6 562/4/6 566/4/6
f 564/4/6 565/4/6 567/4/6
f 565/4/6 566/4/6 567/4/6
f 551/4/6 555/4/6 567/4/6
f 559/4/6 563/4/6 567/4/6
f 563/4/6 564/4/6 567/4/6
f 555/4/6 559/4/6 567/4/6
f 567/4/6 566/4/6 568/4/6
f 566/4/6 562/4/6 569/4/6
f 568/4/6 566/4/6 569/4/6
f 554/4/6 550/4/6 569/4/6
f 562/4/6 554/4/6 569/4/6
f 569/4/6 550/4/6 570/4/6
f 568/4/6 569/4/6 571/4/6
f 571/4/6 569/4/6 572/4/6
f 572/4/6 569/4/6 573/4/6
f 573/4/6 569/4/6 574/4/6
f 574/4/6 569/4/6 575/4/6
f 575/4/6 569/4/6 576/4/6
f 576/4/6 569/4/6 577/4/6
f 577/4/6 569/4/6 578/4/6
f 572/4/6 573/4/6 579/4/6
f 579/4/6 573/4/6 580/4/6
f 574/4/6 575/4/6 581/4/6
f 581/4/6 575/4/6 582/4/6
f 576/4/6 577/4/6 583/4/6
f 583/4/6 577/4/6 584/4/6
f 587/3/6 588/3/6 589/3/6
f 589/3/6 588/3/6 590/3/6
f 585/3/6 586/3/6 591/3/6
f 591/3/6 586/3/6 592/3/6
f 592/3/6 586/3/6 593/3/6
f 587/3/6 589/3/6 596/3/6
f 593/3/6 594/3/6 597/3/6
f 592/3/6 593/3/6 597/3/6
f 597/3/6 594/3/6 598/3/6
f 595/3/6 596/3/6 599/3/6
f 596/3/6 589/3/6 600/3/6
f 599/3/6 596/3/6 600/3/6
f 591/1/6 592/1/6 603/1/6
f 592/3/6 597/3/6 603/3/6
f 603/3/6 597/3/6 604/3/6
f 600/3/6 589/3/6 605/3/6
f 589/1/6 590/1/6 606/1/6
f 605/3/6 589/3/6 606/3/6
f 601/4/6 602/4/6 607/4/6
f 607/4/6 602/4/6 608/4/6
f 606/1/6 590/1/6 609/1/6
f 609/1/6 590/1/6 610/1/6
f 591/1/6 603/1/6 613/1/6
f 613/1/6 603/1/6 614/1/6
f 610/1/6 611/1/6 615/1/6
f 615/1/6 611/1/6 616/1/6
f 612/1/6 613/1/6 617/1/6
f 617/1/6 613/1/6 618/1/6
f 619/3/6 620/3/6 623/3/6
f 621/3/6 622/3/6 624/3/6
f 619/3/6 623/3/6 625/3/6
f 623/3/6 624/3/6 625/3/6
f 625/3/6 624/3/6 626/3/6
f 624/3/6 622/3/6 627/3/6
f 626/3/6 624/3/6 627/3/6
f 627/3/6 622/3/6 628/3/6
f 626/3/6 627/3/6 629/3/6
f 629/3/6 627/3/6 630/3/6
f 631/1/6 632/1/6 635/1/6
f 635/1/6 632/1/6 636/1/6
f 633/1/6 634/1/6 637/1/6
f 637/1/6 634/1/6 638/1/6
f 639/4/6 640/4/6 643/4/6
f 643/4/6 640/4/6 644/4/6
f 641/4/6 642/4/6 645/4/6
f 645/4/6 642/4/6 646/4/6
f 643/1/6 644/1/6 647/1/6
f 647/1/6 644/1/6 648/1/6
f 645/1/6 646/1/6 649/1/6
f 649/1/6 646/1/6 650/1/6
f 651/1/6 652/1/6 655/1/6
f 655/1/6 652/1/6 656/1/6
f 653/1/6 654/1/6 657/1/6
f 657/1/6 654/1/6 658/1/6
f 659/1/6 660/1/6 664/1/6
f 661/1/6 662/1/6 665/1/6
f 663/1/6 664/1/6 667/1/6
f 664/1/6 660/1/6 667/1/6
f 665/1/6 666/1/6 670/1/6
f 661/1/6 665/1/6 670/1/6
f 667/1/6 668/1/6 671/1/6
f 663/1/6 667/1/6 671/1/6
f 671/1/6 668/1/6 672/1/6
f 669/1/6 670/1/6 673/1/6
f 670/1/6 666/1/6 674/1/6
f 673/1/6 670/1/6 674/1/6
f 675/4/6 676/4/6 679/4/6
f 679/4/6 676/4/6 680/4/6
f 677/4/6 678/4/6 681/4/6
f 681/4/6 678/4/6 682/4/6
f 683/1/6 684/1/6 685/1/6
f 685/1/6 684/1/6 686/1/6
f 683/1/6 685/1/6 687/1/6
f 686/1/6 684/1/6 688/1/6
f 683/1/6 687/1/6 689/1/6
f 689/1/6 687/1/6 690/1/6
f 688/1/6 684/1/6 691/1/6
f 691/1/6 684/1/6 692/1/6
f 693/2/6 694/2/6 695/2/6
f 695/2/6 694/2/6 696/2/6
f 695/3/6 696/3/6 697/3/6
f 697/3/6 696/3/6 698/3/6
f 697/2/6 698/2/6 699/2/6
f 699/2/6 698/2/6 700/2/6
f 699/3/6 700/3/6 701/3/6
f 701/3/6 700/3/6 702/3/6
f 703/1/6 704/1/6 705/1/6
f 705/1/6 704/1/6 706/1/6
f 705/4/6 706/4/6 707/4/6
f 707/4/6 706/4/6 708/4/6
