# MagicaVoxel @ Ephtracy

# group
o 

# material
mtllib Autocannon-4.mtl
usemtl palette

# normals
vn -1 0 0
vn 1 0 0
vn 0 0 1
vn 0 0 -1
vn 0 -1 0
vn 0 1 0

# texcoords
vt 0.333984 0.5
vt 0.646484 0.5
vt 0.970703 0.5
vt 0.994141 0.5

# verts
v -0.8 0.1 0.3
v -0.8 0.1 -0.3
v -0.8 0.2 0.4
v -0.8 0.2 0.3
v -0.8 0.2 0.2
v -0.8 0.2 -0.3
v -0.8 0.3 0.4
v -0.8 0.3 0.2
v -0.7 0.1 0.5
v -0.7 0.1 0.3
v -0.7 0.1 -0.3
v -0.7 0.1 -0.5
v -0.7 0.2 0.6
v -0.7 0.2 0.5
v -0.7 0.2 0.4
v -0.7 0.2 0.3
v -0.7 0.2 0.2
v -0.7 0.2 0.0999999
v -0.7 0.2 -0.3
v -0.7 0.2 -0.5
v -0.7 0.3 0.6
v -0.7 0.3 0.4
v -0.7 0.3 0.2
v -0.7 0.3 0.0999999
v -0.6 0.1 0.6
v -0.6 0.1 0.5
v -0.6 0.1 -0.5
v -0.6 0.1 -0.6
v -0.6 0.2 0.6
v -0.6 0.2 0.5
v -0.6 0.2 0.0999999
v -0.6 0.2 0
v -0.6 0.2 -0.5
v -0.6 0.2 -0.6
v -0.6 0.3 0.0999999
v -0.6 0.3 0
v -0.5 0.1 0.7
v -0.5 0.1 0.6
v -0.5 0.1 -0.6
v -0.5 0.1 -0.7
v -0.5 0.2 0.7
v -0.5 0.2 0.6
v -0.5 0.2 0
v -0.5 0.2 -0.1
v -0.5 0.2 -0.5
v -0.5 0.2 -0.6
v -0.5 0.2 -0.7
v -0.5 0.3 0.6
v -0.5 0.3 0.5
v -0.5 0.3 0
v -0.5 0.3 -0.1
v -0.5 0.3 -0.5
v -0.5 0.3 -0.7
v -0.5 0.4 0.2
v -0.5 0.4 0
v -0.5 0.5 0.3
v -0.5 0.5 0.2
v -0.5 0.6 0.7
v -0.5 0.6 0.3
v -0.4 0.2 1.3
v -0.4 0.2 1.2
v -0.4 0.2 0.7
v -0.4 0.5 1.3
v -0.4 0.5 1.2
v -0.4 0.5 0.8
v -0.4 0.6 0.8
v -0.4 0.6 0.7
v -0.3 0.1 0.8
v -0.3 0.1 0.7
v -0.3 0.1 -0.7
v -0.3 0.1 -0.8
v -0.3 0.2 0.8
v -0.3 0.2 0.7
v -0.3 0.2 -0.7
v -0.3 0.2 -0.8
v -0.3 0.3 -0.7
v -0.3 0.3 -0.8
v -0.3 0.5 1.3
v -0.3 0.5 1.2
v -0.3 0.5 0.8
v -0.3 0.6 0.8
v -0.3 0.6 0.5
v -0.3 0.7 0.8
v -0.3 0.7 0.5
v -0.3 0.8 1.3
v -0.3 0.8 0.8
v -0.2 0.5 0.3
v -0.2 0.5 0.2
v -0.2 0.6 0.5
v -0.2 0.6 0.3
v -0.2 0.6 0.2
v -0.2 0.6 -2
v -0.2 0.7 0.8
v -0.2 0.7 0.5
v -0.2 0.7 0.3
v -0.2 0.7 -1.7
v -0.2 0.7 -2
v -0.2 0.8 1.2
v -0.2 0.8 1
v -0.2 0.8 0.8
v -0.2 0.8 0.4
v -0.2 0.8 0.3
v -0.2 0.8 -1.7
v -0.2 0.8 -2
v -0.2 0.9 1.2
v -0.2 0.9 1
v -0.2 0.9 0.4
v 5.96046e-08 0.2 0.0999999
v 5.96046e-08 0.2 -0.1
v 5.96046e-08 0.3 0.2
v 5.96046e-08 0.3 0.0999999
v 5.96046e-08 0.3 0
v 5.96046e-08 0.3 -0.1
v 5.96046e-08 0.4 0.2
v 5.96046e-08 0.4 0
v 0.3 0.2 -0.5
v 0.3 0.2 -0.6
v 0.3 0.3 -0.5
v 0.3 0.3 -0.6
v -0.3 0.2 -0.5
v -0.3 0.2 -0.6
v -0.3 0.3 -0.5
v -0.3 0.3 -0.6
v -0.2 0.2 0.0999999
v -0.2 0.2 -0.1
v -0.2 0.3 0.2
v -0.2 0.3 0.0999999
v -0.2 0.3 0
v -0.2 0.3 -0.1
v -0.2 0.4 0.2
v -0.2 0.4 0
v 5.96046e-08 0.5 0.3
v 5.96046e-08 0.5 0.2
v 5.96046e-08 0.6 0.5
v 5.96046e-08 0.6 0.3
v 5.96046e-08 0.6 0.2
v 5.96046e-08 0.6 -2
v 5.96046e-08 0.7 0.8
v 5.96046e-08 0.7 0.5
v 5.96046e-08 0.7 0.3
v 5.96046e-08 0.7 -1.7
v 5.96046e-08 0.7 -2
v 5.96046e-08 0.8 1.2
v 5.96046e-08 0.8 1
v 5.96046e-08 0.8 0.8
v 5.96046e-08 0.8 0.4
v 5.96046e-08 0.8 0.3
v 5.96046e-08 0.8 -1.7
v 5.96046e-08 0.8 -2
v 5.96046e-08 0.9 1.2
v 5.96046e-08 0.9 1
v 5.96046e-08 0.9 0.4
v 0.1 0.5 1.3
v 0.1 0.5 1.2
v 0.1 0.5 0.8
v 0.1 0.6 0.8
v 0.1 0.6 0.5
v 0.1 0.7 0.8
v 0.1 0.7 0.5
v 0.1 0.8 1.3
v 0.1 0.8 0.8
v 0.2 0.2 1.3
v 0.2 0.2 1.2
v 0.2 0.2 0.8
v 0.2 0.2 0.7
v 0.2 0.5 1.3
v 0.2 0.5 1.2
v 0.2 0.5 0.8
v 0.2 0.6 0.8
v 0.2 0.6 0.7
v 0.3 0.1 0.8
v 0.3 0.1 0.7
v 0.3 0.1 -0.7
v 0.3 0.1 -0.8
v 0.3 0.2 0.8
v 0.3 0.2 0.7
v 0.3 0.2 0
v 0.3 0.2 -0.1
v 0.3 0.2 -0.7
v 0.3 0.2 -0.8
v 0.3 0.3 0.7
v 0.3 0.3 0.5
v 0.3 0.3 0
v 0.3 0.3 -0.1
v 0.3 0.3 -0.7
v 0.3 0.3 -0.8
v 0.3 0.4 0.2
v 0.3 0.4 0
v 0.3 0.5 0.3
v 0.3 0.5 0.2
v 0.3 0.6 0.7
v 0.3 0.6 0.3
v 0.4 0.2 0.2
v 0.4 0.2 0
v 0.4 0.3 0.2
v 0.4 0.3 0
v 0.5 0.1 0.7
v 0.5 0.1 0.6
v 0.5 0.1 -0.6
v 0.5 0.1 -0.7
v 0.5 0.2 0.7
v 0.5 0.2 0.6
v 0.5 0.2 0.5
v 0.5 0.2 0.3
v 0.5 0.2 0.2
v 0.5 0.2 -0.5
v 0.5 0.2 -0.6
v 0.5 0.2 -0.7
v 0.5 0.3 0.7
v 0.5 0.3 0.5
v 0.5 0.3 0.3
v 0.5 0.3 0.2
v 0.5 0.3 -0.5
v 0.5 0.3 -0.7
v 0.6 0.1 0.6
v 0.6 0.1 0.5
v 0.6 0.1 -0.5
v 0.6 0.1 -0.6
v 0.6 0.2 0.6
v 0.6 0.2 0.5
v 0.6 0.2 0.3
v 0.6 0.2 -0.5
v 0.6 0.2 -0.6
v 0.6 0.3 0.5
v 0.6 0.3 0.3
v 0.7 0.1 0.5
v 0.7 0.1 0.3
v 0.7 0.1 -0.3
v 0.7 0.1 -0.5
v 0.7 0.2 0.5
v 0.7 0.2 0.3
v 0.7 0.2 -0.3
v 0.7 0.2 -0.5
v 0.8 0.1 0.3
v 0.8 0.1 -0.3
v 0.8 0.2 0.3
v 0.8 0.2 -0.3
v -0.4 0.2 1.3
v -0.4 0.5 1.3
v -0.3 0.2 1.3
v -0.3 0.5 1.3
v -0.3 0.8 1.3
v 0.1 0.2 1.3
v 0.1 0.5 1.3
v 0.1 0.8 1.3
v 0.2 0.2 1.3
v 0.2 0.5 1.3
v -0.2 0.8 1.2
v -0.2 0.9 1.2
v 5.96046e-08 0.8 1.2
v 5.96046e-08 0.9 1.2
v -0.4 0.5 0.8
v -0.4 0.6 0.8
v -0.3 0.1 0.8
v -0.3 0.2 0.8
v -0.3 0.5 0.8
v -0.3 0.6 0.8
v 0.1 0.5 0.8
v 0.1 0.6 0.8
v 0.2 0.2 0.8
v 0.2 0.5 0.8
v 0.2 0.6 0.8
v 0.3 0.1 0.8
v 0.3 0.2 0.8
v -0.5 0.1 0.7
v -0.5 0.2 0.7
v -0.5 0.6 0.7
v -0.4 0.2 0.7
v -0.4 0.6 0.7
v -0.3 0.1 0.7
v -0.3 0.2 0.7
v 0.2 0.2 0.7
v 0.2 0.6 0.7
v 0.3 0.1 0.7
v 0.3 0.2 0.7
v 0.3 0.3 0.7
v 0.3 0.6 0.7
v 0.5 0.1 0.7
v 0.5 0.2 0.7
v 0.5 0.3 0.7
v -0.7 0.2 0.6
v -0.7 0.3 0.6
v -0.6 0.1 0.6
v -0.6 0.2 0.6
v -0.5 0.1 0.6
v -0.5 0.2 0.6
v -0.5 0.3 0.6
v 0.5 0.1 0.6
v 0.5 0.2 0.6
v 0.6 0.1 0.6
v 0.6 0.2 0.6
v -0.7 0.1 0.5
v -0.7 0.2 0.5
v -0.6 0.1 0.5
v -0.6 0.2 0.5
v 0.5 0.2 0.5
v 0.5 0.3 0.5
v 0.6 0.1 0.5
v 0.6 0.2 0.5
v 0.6 0.3 0.5
v 0.7 0.1 0.5
v 0.7 0.2 0.5
v -0.8 0.2 0.4
v -0.8 0.3 0.4
v -0.7 0.2 0.4
v -0.7 0.3 0.4
v -0.8 0.1 0.3
v -0.8 0.2 0.3
v -0.7 0.1 0.3
v -0.7 0.2 0.3
v 0.7 0.1 0.3
v 0.7 0.2 0.3
v 0.8 0.1 0.3
v 0.8 0.2 0.3
v -0.5 0.2 -0.5
v -0.5 0.3 -0.5
v -0.3 0.2 -0.5
v -0.3 0.3 -0.5
v 0.3 0.2 -0.5
v 0.3 0.3 -0.5
v 0.5 0.2 -0.5
v 0.5 0.3 -0.5
v -0.3 0.2 -0.6
v -0.3 0.3 -0.6
v 0.3 0.2 -0.6
v 0.3 0.3 -0.6
v -0.2 0.7 -1.7
v -0.2 0.8 -1.7
v 5.96046e-08 0.7 -1.7
v 5.96046e-08 0.8 -1.7
v -0.3 0.7 0.8
v -0.3 0.8 0.8
v -0.2 0.7 0.8
v -0.2 0.8 0.8
v 5.96046e-08 0.7 0.8
v 5.96046e-08 0.8 0.8
v 0.1 0.7 0.8
v 0.1 0.8 0.8
v -0.3 0.6 0.5
v -0.3 0.7 0.5
v -0.2 0.6 0.5
v -0.2 0.7 0.5
v 5.96046e-08 0.6 0.5
v 5.96046e-08 0.7 0.5
v 0.1 0.6 0.5
v 0.1 0.7 0.5
v -0.2 0.8 0.4
v -0.2 0.9 0.4
v 5.96046e-08 0.8 0.4
v 5.96046e-08 0.9 0.4
v -0.5 0.5 0.3
v -0.5 0.6 0.3
v -0.2 0.5 0.3
v -0.2 0.6 0.3
v -0.2 0.7 0.3
v -0.2 0.8 0.3
v 5.96046e-08 0.5 0.3
v 5.96046e-08 0.6 0.3
v 5.96046e-08 0.7 0.3
v 5.96046e-08 0.8 0.3
v 0.3 0.5 0.3
v 0.3 0.6 0.3
v 0.5 0.2 0.3
v 0.5 0.3 0.3
v 0.6 0.2 0.3
v 0.6 0.3 0.3
v -0.8 0.2 0.2
v -0.8 0.3 0.2
v -0.7 0.2 0.2
v -0.7 0.3 0.2
v -0.5 0.4 0.2
v -0.5 0.5 0.2
v -0.2 0.3 0.2
v -0.2 0.4 0.2
v -0.2 0.5 0.2
v -0.2 0.6 0.2
v 5.96046e-08 0.3 0.2
v 5.96046e-08 0.4 0.2
v 5.96046e-08 0.5 0.2
v 5.96046e-08 0.6 0.2
v 0.3 0.4 0.2
v 0.3 0.5 0.2
v 0.4 0.2 0.2
v 0.4 0.3 0.2
v 0.5 0.2 0.2
v 0.5 0.3 0.2
v -0.7 0.2 0.0999999
v -0.7 0.3 0.0999999
v -0.6 0.2 0.0999999
v -0.6 0.3 0.0999999
v -0.2 0.2 0.0999999
v -0.2 0.3 0.0999999
v 5.96046e-08 0.2 0.0999999
v 5.96046e-08 0.3 0.0999999
v -0.6 0.2 0
v -0.6 0.3 0
v -0.5 0.2 0
v -0.5 0.3 0
v -0.5 0.4 0
v -0.2 0.3 0
v -0.2 0.4 0
v 5.96046e-08 0.3 0
v 5.96046e-08 0.4 0
v 0.3 0.2 0
v 0.3 0.3 0
v 0.3 0.4 0
v 0.4 0.2 0
v 0.4 0.3 0
v -0.5 0.2 -0.1
v -0.5 0.3 -0.1
v -0.2 0.2 -0.1
v -0.2 0.3 -0.1
v 5.96046e-08 0.2 -0.1
v 5.96046e-08 0.3 -0.1
v 0.3 0.2 -0.1
v 0.3 0.3 -0.1
v -0.8 0.1 -0.3
v -0.8 0.2 -0.3
v -0.7 0.1 -0.3
v -0.7 0.2 -0.3
v 0.7 0.1 -0.3
v 0.7 0.2 -0.3
v 0.8 0.1 -0.3
v 0.8 0.2 -0.3
v -0.7 0.1 -0.5
v -0.7 0.2 -0.5
v -0.6 0.1 -0.5
v -0.6 0.2 -0.5
v 0.6 0.1 -0.5
v 0.6 0.2 -0.5
v 0.7 0.1 -0.5
v 0.7 0.2 -0.5
v -0.6 0.1 -0.6
v -0.6 0.2 -0.6
v -0.5 0.1 -0.6
v -0.5 0.2 -0.6
v 0.5 0.1 -0.6
v 0.5 0.2 -0.6
v 0.6 0.1 -0.6
v 0.6 0.2 -0.6
v -0.5 0.1 -0.7
v -0.5 0.2 -0.7
v -0.5 0.3 -0.7
v -0.3 0.1 -0.7
v -0.3 0.2 -0.7
v -0.3 0.3 -0.7
v 0.3 0.1 -0.7
v 0.3 0.2 -0.7
v 0.3 0.3 -0.7
v 0.5 0.1 -0.7
v 0.5 0.2 -0.7
v 0.5 0.3 -0.7
v -0.3 0.1 -0.8
v -0.3 0.2 -0.8
v -0.3 0.3 -0.8
v 0.3 0.1 -0.8
v 0.3 0.2 -0.8
v 0.3 0.3 -0.8
v -0.2 0.6 -2
v -0.2 0.7 -2
v -0.2 0.8 -2
v 5.96046e-08 0.6 -2
v 5.96046e-08 0.7 -2
v 5.96046e-08 0.8 -2
v -0.3 0.1 0.8
v 0.3 0.1 0.8
v -0.5 0.1 0.7
v -0.3 0.1 0.7
v 0.3 0.1 0.7
v 0.5 0.1 0.7
v -0.6 0.1 0.6
v -0.5 0.1 0.6
v 0.5 0.1 0.6
v 0.6 0.1 0.6
v -0.7 0.1 0.5
v -0.6 0.1 0.5
v 0.6 0.1 0.5
v 0.7 0.1 0.5
v -0.8 0.1 0.3
v -0.7 0.1 0.3
v 0.7 0.1 0.3
v 0.8 0.1 0.3
v -0.8 0.1 -0.3
v -0.7 0.1 -0.3
v 0.7 0.1 -0.3
v 0.8 0.1 -0.3
v -0.7 0.1 -0.5
v -0.6 0.1 -0.5
v 0.6 0.1 -0.5
v 0.7 0.1 -0.5
v -0.6 0.1 -0.6
v -0.5 0.1 -0.6
v 0.5 0.1 -0.6
v 0.6 0.1 -0.6
v -0.5 0.1 -0.7
v -0.3 0.1 -0.7
v 0.3 0.1 -0.7
v 0.5 0.1 -0.7
v -0.3 0.1 -0.8
v 0.3 0.1 -0.8
v -0.4 0.2 1.3
v -0.3 0.2 1.3
v 0.1 0.2 1.3
v 0.2 0.2 1.3
v -0.4 0.2 1.2
v -0.3 0.2 1.2
v 0.1 0.2 1.2
v 0.2 0.2 1.2
v -0.3 0.2 0.8
v 0.2 0.2 0.8
v -0.4 0.2 0.7
v -0.3 0.2 0.7
v -0.7 0.2 0.6
v -0.6 0.2 0.6
v -0.7 0.2 0.5
v -0.6 0.2 0.5
v -0.8 0.2 0.4
v -0.7 0.2 0.4
v -0.8 0.2 0.3
v -0.7 0.2 0.3
v -0.2 0.6 0.2
v 5.96046e-08 0.6 0.2
v -0.2 0.6 -2
v 5.96046e-08 0.6 -2
v 0.2 0.2 0.8
v 0.3 0.2 0.8
v 0.2 0.2 0.7
v 0.3 0.2 0.7
v 0.5 0.2 0.6
v 0.6 0.2 0.6
v 0.5 0.2 0.5
v 0.6 0.2 0.5
v 0.7 0.2 0.5
v 0.5 0.2 0.3
v 0.6 0.2 0.3
v 0.7 0.2 0.3
v 0.8 0.2 0.3
v -0.8 0.2 0.2
v -0.7 0.2 0.2
v 0.4 0.2 0.2
v 0.5 0.2 0.2
v -0.7 0.2 0.0999999
v -0.6 0.2 0.0999999
v -0.2 0.2 0.0999999
v 5.96046e-08 0.2 0.0999999
v -0.6 0.2 0
v -0.5 0.2 0
v 0.3 0.2 0
v 0.4 0.2 0
v -0.5 0.2 -0.1
v -0.2 0.2 -0.1
v 5.96046e-08 0.2 -0.1
v 0.3 0.2 -0.1
v -0.8 0.2 -0.3
v -0.7 0.2 -0.3
v 0.7 0.2 -0.3
v 0.8 0.2 -0.3
v -0.7 0.2 -0.5
v -0.6 0.2 -0.5
v -0.5 0.2 -0.5
v -0.3 0.2 -0.5
v 0.3 0.2 -0.5
v 0.5 0.2 -0.5
v 0.6 0.2 -0.5
v 0.7 0.2 -0.5
v -0.6 0.2 -0.6
v -0.5 0.2 -0.6
v -0.3 0.2 -0.6
v 0.3 0.2 -0.6
v 0.5 0.2 -0.6
v 0.6 0.2 -0.6
v 0.3 0.3 0.7
v 0.5 0.3 0.7
v -0.7 0.3 0.6
v -0.5 0.3 0.6
v -0.6 0.3 0.5
v -0.5 0.3 0.5
v 0.3 0.3 0.5
v 0.4 0.3 0.5
v 0.5 0.3 0.5
v 0.6 0.3 0.5
v -0.8 0.3 0.4
v -0.7 0.3 0.4
v 0.5 0.3 0.3
v 0.6 0.3 0.3
v -0.8 0.3 0.2
v -0.7 0.3 0.2
v -0.2 0.3 0.2
v 5.96046e-08 0.3 0.2
v 0.4 0.3 0.2
v 0.5 0.3 0.2
v -0.7 0.3 0.0999999
v -0.6 0.3 0.0999999
v -0.2 0.3 0.0999999
v 5.96046e-08 0.3 0.0999999
v -0.6 0.3 0
v -0.5 0.3 0
v -0.2 0.3 0
v 5.96046e-08 0.3 0
v 0.3 0.3 0
v 0.4 0.3 0
v -0.5 0.3 -0.1
v -0.2 0.3 -0.1
v 5.96046e-08 0.3 -0.1
v 0.3 0.3 -0.1
v -0.5 0.3 -0.5
v -0.3 0.3 -0.5
v 0.3 0.3 -0.5
v 0.5 0.3 -0.5
v -0.3 0.3 -0.6
v 0.3 0.3 -0.6
v -0.5 0.3 -0.7
v -0.3 0.3 -0.7
v 0.3 0.3 -0.7
v 0.5 0.3 -0.7
v -0.3 0.3 -0.8
v 0.3 0.3 -0.8
v -0.5 0.4 0.2
v -0.2 0.4 0.2
v 5.96046e-08 0.4 0.2
v 0.3 0.4 0.2
v -0.5 0.4 0
v -0.2 0.4 0
v 5.96046e-08 0.4 0
v 0.3 0.4 0
v -0.4 0.5 1.3
v -0.3 0.5 1.3
v 0.1 0.5 1.3
v 0.2 0.5 1.3
v -0.4 0.5 1.2
v -0.3 0.5 1.2
v 0.1 0.5 1.2
v 0.2 0.5 1.2
v -0.4 0.5 0.8
v -0.3 0.5 0.8
v 0.1 0.5 0.8
v 0.2 0.5 0.8
v -0.5 0.5 0.3
v -0.2 0.5 0.3
v 5.96046e-08 0.5 0.3
v 0.3 0.5 0.3
v -0.5 0.5 0.2
v -0.2 0.5 0.2
v 5.96046e-08 0.5 0.2
v 0.3 0.5 0.2
v -0.4 0.6 0.8
v -0.3 0.6 0.8
v 0.1 0.6 0.8
v 0.2 0.6 0.8
v -0.5 0.6 0.7
v -0.4 0.6 0.7
v 0.2 0.6 0.7
v 0.3 0.6 0.7
v -0.3 0.6 0.5
v -0.2 0.6 0.5
v 5.96046e-08 0.6 0.5
v 0.1 0.6 0.5
v -0.5 0.6 0.3
v -0.2 0.6 0.3
v 5.96046e-08 0.6 0.3
v 0.3 0.6 0.3
v -0.3 0.7 0.8
v -0.2 0.7 0.8
v 5.96046e-08 0.7 0.8
v 0.1 0.7 0.8
v -0.3 0.7 0.5
v -0.2 0.7 0.5
v 5.96046e-08 0.7 0.5
v 0.1 0.7 0.5
v -0.2 0.7 0.3
v 5.96046e-08 0.7 0.3
v -0.2 0.7 -1.7
v 5.96046e-08 0.7 -1.7
v -0.3 0.8 1.3
v 0.1 0.8 1.3
v -0.2 0.8 1.2
v 5.96046e-08 0.8 1.2
v -0.2 0.8 1
v 5.96046e-08 0.8 1
v -0.3 0.8 0.8
v -0.2 0.8 0.8
v 5.96046e-08 0.8 0.8
v 0.1 0.8 0.8
v -0.2 0.8 0.4
v 5.96046e-08 0.8 0.4
v -0.2 0.8 0.3
v 5.96046e-08 0.8 0.3
v -0.2 0.8 -1.7
v 5.96046e-08 0.8 -1.7
v -0.2 0.8 -2
v 5.96046e-08 0.8 -2
v -0.2 0.9 1.2
v 5.96046e-08 0.9 1.2
v -0.2 0.9 1
v 5.96046e-08 0.9 1
v -0.2 0.9 0.4
v 5.96046e-08 0.9 0.4

# faces
f 4/4/1 2/4/1 1/4/1
f 5/4/1 2/4/1 4/4/1
f 6/4/1 2/4/1 5/4/1
f 7/3/1 4/3/1 3/3/1
f 7/3/1 5/3/1 4/3/1
f 8/3/1 5/3/1 7/3/1
f 14/4/1 10/4/1 9/4/1
f 15/4/1 10/4/1 14/4/1
f 16/4/1 10/4/1 15/4/1
f 19/4/1 12/4/1 11/4/1
f 20/4/1 12/4/1 19/4/1
f 21/3/1 14/3/1 13/3/1
f 21/3/1 15/3/1 14/3/1
f 22/3/1 15/3/1 21/3/1
f 23/3/1 18/3/1 17/3/1
f 24/3/1 18/3/1 23/3/1
f 29/4/1 26/4/1 25/4/1
f 30/4/1 26/4/1 29/4/1
f 33/4/1 28/4/1 27/4/1
f 34/4/1 28/4/1 33/4/1
f 35/1/1 32/1/1 31/1/1
f 36/1/1 32/1/1 35/1/1
f 41/4/1 38/4/1 37/4/1
f 42/4/1 38/4/1 41/4/1
f 46/4/1 40/4/1 39/4/1
f 47/4/1 40/4/1 46/4/1
f 48/1/1 42/1/1 41/1/1
f 50/1/1 44/1/1 43/1/1
f 51/1/1 44/1/1 50/1/1
f 52/3/1 46/3/1 45/3/1
f 52/3/1 47/3/1 46/3/1
f 53/3/1 47/3/1 52/3/1
f 54/1/1 49/1/1 48/1/1
f 54/1/1 50/1/1 49/1/1
f 55/1/1 50/1/1 54/1/1
f 56/1/1 54/1/1 48/1/1
f 57/1/1 54/1/1 56/1/1
f 58/1/1 48/1/1 41/1/1
f 58/1/1 56/1/1 48/1/1
f 59/1/1 56/1/1 58/1/1
f 63/4/1 61/4/1 60/4/1
f 64/1/1 62/1/1 61/1/1
f 64/4/1 61/4/1 63/4/1
f 65/1/1 62/1/1 64/1/1
f 66/1/1 62/1/1 65/1/1
f 67/1/1 62/1/1 66/1/1
f 72/4/1 69/4/1 68/4/1
f 73/4/1 69/4/1 72/4/1
f 74/4/1 71/4/1 70/4/1
f 75/4/1 71/4/1 74/4/1
f 76/3/1 75/3/1 74/3/1
f 77/3/1 75/3/1 76/3/1
f 81/1/1 79/1/1 78/1/1
f 81/1/1 80/1/1 79/1/1
f 83/1/1 81/1/1 78/1/1
f 83/4/1 82/4/1 81/4/1
f 84/4/1 82/4/1 83/4/1
f 85/1/1 83/1/1 78/1/1
f 86/1/1 83/1/1 85/1/1
f 90/4/1 88/4/1 87/4/1
f 91/4/1 88/4/1 90/4/1
f 94/2/1 90/2/1 89/2/1
f 94/2/1 92/2/1 91/2/1
f 94/2/1 91/2/1 90/2/1
f 95/2/1 92/2/1 94/2/1
f 96/2/1 92/2/1 95/2/1
f 97/2/1 92/2/1 96/2/1
f 100/2/1 94/2/1 93/2/1
f 100/2/1 95/2/1 94/2/1
f 101/2/1 95/2/1 100/2/1
f 102/2/1 95/2/1 101/2/1
f 103/3/1 97/3/1 96/3/1
f 104/3/1 97/3/1 103/3/1
f 105/1/1 99/1/1 98/1/1
f 106/4/1 100/4/1 99/4/1
f 106/1/1 99/1/1 105/1/1
f 106/4/1 101/4/1 100/4/1
f 107/4/1 101/4/1 106/4/1
f 111/1/1 109/1/1 108/1/1
f 112/1/1 109/1/1 111/1/1
f 113/1/1 109/1/1 112/1/1
f 114/1/1 111/1/1 110/1/1
f 114/1/1 112/1/1 111/1/1
f 115/1/1 112/1/1 114/1/1
f 118/3/1 117/3/1 116/3/1
f 119/3/1 117/3/1 118/3/1
f 120/3/2 121/3/2 122/3/2
f 122/3/2 121/3/2 123/3/2
f 124/1/2 125/1/2 127/1/2
f 127/1/2 125/1/2 128/1/2
f 128/1/2 125/1/2 129/1/2
f 126/1/2 127/1/2 130/1/2
f 127/1/2 128/1/2 130/1/2
f 130/1/2 128/1/2 131/1/2
f 132/4/2 133/4/2 135/4/2
f 135/4/2 133/4/2 136/4/2
f 134/2/2 135/2/2 139/2/2
f 136/2/2 137/2/2 139/2/2
f 135/2/2 136/2/2 139/2/2
f 139/2/2 137/2/2 140/2/2
f 140/2/2 137/2/2 141/2/2
f 141/2/2 137/2/2 142/2/2
f 138/2/2 139/2/2 145/2/2
f 139/2/2 140/2/2 145/2/2
f 145/2/2 140/2/2 146/2/2
f 146/2/2 140/2/2 147/2/2
f 141/3/2 142/3/2 148/3/2
f 148/3/2 142/3/2 149/3/2
f 143/1/2 144/1/2 150/1/2
f 144/4/2 145/4/2 151/4/2
f 150/1/2 144/1/2 151/1/2
f 145/4/2 146/4/2 151/4/2
f 151/4/2 146/4/2 152/4/2
f 153/1/2 154/1/2 156/1/2
f 154/1/2 155/1/2 156/1/2
f 153/1/2 156/1/2 158/1/2
f 156/4/2 157/4/2 158/4/2
f 158/4/2 157/4/2 159/4/2
f 153/1/2 158/1/2 160/1/2
f 160/1/2 158/1/2 161/1/2
f 162/4/2 163/4/2 166/4/2
f 164/1/2 165/1/2 167/1/2
f 166/4/2 163/4/2 167/4/2
f 163/1/2 164/1/2 167/1/2
f 167/1/2 165/1/2 168/1/2
f 168/1/2 165/1/2 169/1/2
f 169/1/2 165/1/2 170/1/2
f 171/4/2 172/4/2 175/4/2
f 175/4/2 172/4/2 176/4/2
f 173/4/2 174/4/2 179/4/2
f 179/4/2 174/4/2 180/4/2
f 177/1/2 178/1/2 183/1/2
f 183/1/2 178/1/2 184/1/2
f 179/3/2 180/3/2 185/3/2
f 185/3/2 180/3/2 186/3/2
f 181/1/2 182/1/2 187/1/2
f 182/1/2 183/1/2 187/1/2
f 187/1/2 183/1/2 188/1/2
f 181/1/2 187/1/2 189/1/2
f 189/1/2 187/1/2 190/1/2
f 181/1/2 189/1/2 191/1/2
f 191/1/2 189/1/2 192/1/2
f 193/1/2 194/1/2 195/1/2
f 195/1/2 194/1/2 196/1/2
f 197/4/2 198/4/2 201/4/2
f 201/4/2 198/4/2 202/4/2
f 199/4/2 200/4/2 207/4/2
f 207/4/2 200/4/2 208/4/2
f 201/3/2 202/3/2 209/3/2
f 202/3/2 203/3/2 209/3/2
f 209/3/2 203/3/2 210/3/2
f 204/3/2 205/3/2 211/3/2
f 211/3/2 205/3/2 212/3/2
f 207/3/2 208/3/2 213/3/2
f 206/3/2 207/3/2 213/3/2
f 213/3/2 208/3/2 214/3/2
f 215/4/2 216/4/2 219/4/2
f 219/4/2 216/4/2 220/4/2
f 217/4/2 218/4/2 222/4/2
f 222/4/2 218/4/2 223/4/2
f 220/3/2 221/3/2 224/3/2
f 224/3/2 221/3/2 225/3/2
f 226/4/2 227/4/2 230/4/2
f 230/4/2 227/4/2 231/4/2
f 228/4/2 229/4/2 232/4/2
f 232/4/2 229/4/2 233/4/2
f 234/4/2 235/4/2 236/4/2
f 236/4/2 235/4/2 237/4/2
f 240/4/3 239/4/3 238/4/3
f 241/4/3 239/4/3 240/4/3
f 243/1/3 241/1/3 240/1/3
f 243/1/3 242/1/3 241/1/3
f 244/1/3 242/1/3 243/1/3
f 245/1/3 242/1/3 244/1/3
f 246/4/3 244/4/3 243/4/3
f 247/4/3 244/4/3 246/4/3
f 250/1/3 249/1/3 248/1/3
f 251/1/3 249/1/3 250/1/3
f 256/1/3 253/1/3 252/1/3
f 257/1/3 253/1/3 256/1/3
f 260/4/3 255/4/3 254/4/3
f 261/1/3 259/1/3 258/1/3
f 262/1/3 259/1/3 261/1/3
f 263/4/3 260/4/3 254/4/3
f 264/4/3 260/4/3 263/4/3
f 268/4/3 266/4/3 265/4/3
f 268/1/3 267/1/3 266/1/3
f 269/1/3 267/1/3 268/1/3
f 270/4/3 268/4/3 265/4/3
f 271/4/3 268/4/3 270/4/3
f 275/1/3 273/1/3 272/1/3
f 276/1/3 273/1/3 275/1/3
f 277/1/3 273/1/3 276/1/3
f 278/4/3 275/4/3 274/4/3
f 279/3/3 276/3/3 275/3/3
f 279/4/3 275/4/3 278/4/3
f 280/3/3 276/3/3 279/3/3
f 284/3/3 282/3/3 281/3/3
f 285/4/3 284/4/3 283/4/3
f 286/3/3 282/3/3 284/3/3
f 286/4/3 284/4/3 285/4/3
f 287/3/3 282/3/3 286/3/3
f 290/4/3 289/4/3 288/4/3
f 291/4/3 289/4/3 290/4/3
f 294/4/3 293/4/3 292/4/3
f 295/4/3 293/4/3 294/4/3
f 299/3/3 297/3/3 296/3/3
f 300/3/3 297/3/3 299/3/3
f 301/4/3 299/4/3 298/4/3
f 302/4/3 299/4/3 301/4/3
f 305/3/3 304/3/3 303/3/3
f 306/3/3 304/3/3 305/3/3
f 309/4/3 308/4/3 307/4/3
f 310/4/3 308/4/3 309/4/3
f 313/4/3 312/4/3 311/4/3
f 314/4/3 312/4/3 313/4/3
f 317/3/3 316/3/3 315/3/3
f 318/3/3 316/3/3 317/3/3
f 321/3/3 320/3/3 319/3/3
f 322/3/3 320/3/3 321/3/3
f 325/3/3 324/3/3 323/3/3
f 326/3/3 324/3/3 325/3/3
f 329/3/3 328/3/3 327/3/3
f 330/3/3 328/3/3 329/3/3
f 331/1/4 332/1/4 333/1/4
f 333/1/4 332/1/4 334/1/4
f 335/1/4 336/1/4 337/1/4
f 337/1/4 336/1/4 338/1/4
f 339/4/4 340/4/4 341/4/4
f 341/4/4 340/4/4 342/4/4
f 343/4/4 344/4/4 345/4/4
f 345/4/4 344/4/4 346/4/4
f 347/4/4 348/4/4 349/4/4
f 349/4/4 348/4/4 350/4/4
f 351/1/4 352/1/4 353/1/4
f 353/1/4 352/1/4 354/1/4
f 355/2/4 356/2/4 359/2/4
f 359/2/4 356/2/4 360/2/4
f 357/1/4 358/1/4 361/1/4
f 361/1/4 358/1/4 362/1/4
f 363/3/4 364/3/4 365/3/4
f 365/3/4 364/3/4 366/3/4
f 367/3/4 368/3/4 369/3/4
f 369/3/4 368/3/4 370/3/4
f 371/1/4 372/1/4 374/1/4
f 374/1/4 372/1/4 375/1/4
f 373/4/4 374/4/4 377/4/4
f 375/4/4 376/4/4 377/4/4
f 374/4/4 375/4/4 377/4/4
f 377/4/4 376/4/4 378/4/4
f 378/4/4 376/4/4 379/4/4
f 379/4/4 376/4/4 380/4/4
f 378/1/4 379/1/4 381/1/4
f 381/1/4 379/1/4 382/1/4
f 383/3/4 384/3/4 385/3/4
f 385/3/4 384/3/4 386/3/4
f 387/3/4 388/3/4 389/3/4
f 389/3/4 388/3/4 390/3/4
f 391/4/4 392/4/4 393/4/4
f 393/4/4 392/4/4 394/4/4
f 395/1/4 396/1/4 397/1/4
f 397/1/4 396/1/4 398/1/4
f 398/1/4 399/1/4 400/1/4
f 400/1/4 399/1/4 401/1/4
f 402/1/4 403/1/4 405/1/4
f 405/1/4 403/1/4 406/1/4
f 404/1/4 405/1/4 407/1/4
f 407/1/4 405/1/4 408/1/4
f 409/1/4 410/1/4 411/1/4
f 411/1/4 410/1/4 412/1/4
f 413/1/4 414/1/4 415/1/4
f 415/1/4 414/1/4 416/1/4
f 417/4/4 418/4/4 419/4/4
f 419/4/4 418/4/4 420/4/4
f 421/4/4 422/4/4 423/4/4
f 423/4/4 422/4/4 424/4/4
f 425/4/4 426/4/4 427/4/4
f 427/4/4 426/4/4 428/4/4
f 429/4/4 430/4/4 431/4/4
f 431/4/4 430/4/4 432/4/4
f 433/4/4 434/4/4 435/4/4
f 435/4/4 434/4/4 436/4/4
f 437/4/4 438/4/4 439/4/4
f 439/4/4 438/4/4 440/4/4
f 441/4/4 442/4/4 444/4/4
f 442/3/4 443/3/4 445/3/4
f 444/4/4 442/4/4 445/4/4
f 445/3/4 443/3/4 446/3/4
f 447/4/4 448/4/4 450/4/4
f 448/3/4 449/3/4 451/3/4
f 450/4/4 448/4/4 451/4/4
f 451/3/4 449/3/4 452/3/4
f 453/4/4 454/4/4 456/4/4
f 454/3/4 455/3/4 457/3/4
f 456/4/4 454/4/4 457/4/4
f 457/3/4 455/3/4 458/3/4
f 459/2/4 460/2/4 462/2/4
f 460/3/4 461/3/4 463/3/4
f 462/2/4 460/2/4 463/2/4
f 463/3/4 461/3/4 464/3/4
f 468/4/5 466/4/5 465/4/5
f 469/4/5 466/4/5 468/4/5
f 472/4/5 468/4/5 467/4/5
f 472/4/5 470/4/5 469/4/5
f 472/4/5 469/4/5 468/4/5
f 473/4/5 470/4/5 472/4/5
f 476/4/5 472/4/5 471/4/5
f 476/4/5 474/4/5 473/4/5
f 476/4/5 473/4/5 472/4/5
f 477/4/5 474/4/5 476/4/5
f 480/4/5 476/4/5 475/4/5
f 480/4/5 478/4/5 477/4/5
f 480/4/5 477/4/5 476/4/5
f 481/4/5 478/4/5 480/4/5
f 483/4/5 480/4/5 479/4/5
f 483/4/5 482/4/5 481/4/5
f 483/4/5 481/4/5 480/4/5
f 484/4/5 482/4/5 483/4/5
f 485/4/5 482/4/5 484/4/5
f 486/4/5 482/4/5 485/4/5
f 487/4/5 485/4/5 484/4/5
f 488/4/5 485/4/5 487/4/5
f 489/4/5 485/4/5 488/4/5
f 490/4/5 485/4/5 489/4/5
f 491/4/5 489/4/5 488/4/5
f 492/4/5 489/4/5 491/4/5
f 493/4/5 489/4/5 492/4/5
f 494/4/5 489/4/5 493/4/5
f 495/4/5 493/4/5 492/4/5
f 496/4/5 493/4/5 495/4/5
f 497/4/5 493/4/5 496/4/5
f 498/4/5 493/4/5 497/4/5
f 499/4/5 497/4/5 496/4/5
f 500/4/5 497/4/5 499/4/5
f 505/4/5 502/4/5 501/4/5
f 506/1/5 503/1/5 502/1/5
f 506/4/5 502/4/5 505/4/5
f 507/4/5 504/4/5 503/4/5
f 507/1/5 503/1/5 506/1/5
f 508/4/5 504/4/5 507/4/5
f 509/1/5 506/1/5 505/1/5
f 509/1/5 507/1/5 506/1/5
f 509/1/5 508/1/5 507/1/5
f 510/1/5 508/1/5 509/1/5
f 511/1/5 509/1/5 505/1/5
f 512/1/5 509/1/5 511/1/5
f 515/3/5 514/3/5 513/3/5
f 516/3/5 514/3/5 515/3/5
f 519/3/5 518/3/5 517/3/5
f 520/3/5 518/3/5 519/3/5
f 523/2/5 522/2/5 521/2/5
f 524/2/5 522/2/5 523/2/5
f 525/4/6 526/4/6 527/4/6
f 527/4/6 526/4/6 528/4/6
f 529/4/6 530/4/6 531/4/6
f 531/4/6 530/4/6 532/4/6
f 532/4/6 533/4/6 535/4/6
f 535/4/6 533/4/6 536/4/6
f 534/4/6 535/4/6 541/4/6
f 535/4/6 536/4/6 541/4/6
f 536/4/6 537/4/6 541/4/6
f 538/4/6 539/4/6 542/4/6
f 542/4/6 543/4/6 546/4/6
f 540/4/6 541/4/6 549/4/6
f 546/4/6 547/4/6 550/4/6
f 544/4/6 545/4/6 551/4/6
f 551/4/6 545/4/6 552/4/6
f 548/4/6 549/4/6 553/4/6
f 551/4/6 552/4/6 554/4/6
f 552/4/6 553/4/6 554/4/6
f 538/4/6 542/4/6 554/4/6
f 546/4/6 550/4/6 554/4/6
f 550/4/6 551/4/6 554/4/6
f 542/4/6 546/4/6 554/4/6
f 554/4/6 553/4/6 555/4/6
f 553/4/6 549/4/6 556/4/6
f 555/4/6 553/4/6 556/4/6
f 541/4/6 537/4/6 556/4/6
f 549/4/6 541/4/6 556/4/6
f 556/4/6 537/4/6 557/4/6
f 555/4/6 556/4/6 558/4/6
f 558/4/6 556/4/6 559/4/6
f 559/4/6 556/4/6 560/4/6
f 560/4/6 556/4/6 561/4/6
f 561/4/6 556/4/6 562/4/6
f 562/4/6 556/4/6 563/4/6
f 563/4/6 556/4/6 564/4/6
f 564/4/6 556/4/6 565/4/6
f 559/4/6 560/4/6 566/4/6
f 566/4/6 560/4/6 567/4/6
f 561/4/6 562/4/6 568/4/6
f 568/4/6 562/4/6 569/4/6
f 563/4/6 564/4/6 570/4/6
f 570/4/6 564/4/6 571/4/6
f 574/3/6 575/3/6 576/3/6
f 576/3/6 575/3/6 577/3/6
f 572/3/6 573/3/6 578/3/6
f 578/3/6 573/3/6 579/3/6
f 579/3/6 573/3/6 580/3/6
f 574/3/6 576/3/6 583/3/6
f 580/3/6 581/3/6 584/3/6
f 579/3/6 580/3/6 584/3/6
f 584/3/6 581/3/6 585/3/6
f 582/3/6 583/3/6 586/3/6
f 583/3/6 576/3/6 587/3/6
f 586/3/6 583/3/6 587/3/6
f 578/1/6 579/1/6 590/1/6
f 579/3/6 584/3/6 590/3/6
f 590/3/6 584/3/6 591/3/6
f 587/3/6 576/3/6 592/3/6
f 576/1/6 577/1/6 593/1/6
f 592/3/6 576/3/6 593/3/6
f 588/4/6 589/4/6 594/4/6
f 594/4/6 589/4/6 595/4/6
f 593/1/6 577/1/6 596/1/6
f 596/1/6 577/1/6 597/1/6
f 578/1/6 590/1/6 600/1/6
f 600/1/6 590/1/6 601/1/6
f 597/1/6 598/1/6 602/1/6
f 602/1/6 598/1/6 603/1/6
f 599/1/6 600/1/6 604/1/6
f 604/1/6 600/1/6 605/1/6
f 606/3/6 607/3/6 610/3/6
f 608/3/6 609/3/6 611/3/6
f 606/3/6 610/3/6 612/3/6
f 610/3/6 611/3/6 612/3/6
f 612/3/6 611/3/6 613/3/6
f 611/3/6 609/3/6 614/3/6
f 613/3/6 611/3/6 614/3/6
f 614/3/6 609/3/6 615/3/6
f 613/3/6 614/3/6 616/3/6
f 616/3/6 614/3/6 617/3/6
f 618/1/6 619/1/6 622/1/6
f 622/1/6 619/1/6 623/1/6
f 620/1/6 621/1/6 624/1/6
f 624/1/6 621/1/6 625/1/6
f 626/4/6 627/4/6 630/4/6
f 630/4/6 627/4/6 631/4/6
f 628/4/6 629/4/6 632/4/6
f 632/4/6 629/4/6 633/4/6
f 630/1/6 631/1/6 634/1/6
f 634/1/6 631/1/6 635/1/6
f 632/1/6 633/1/6 636/1/6
f 636/1/6 633/1/6 637/1/6
f 638/1/6 639/1/6 642/1/6
f 642/1/6 639/1/6 643/1/6
f 640/1/6 641/1/6 644/1/6
f 644/1/6 641/1/6 645/1/6
f 646/1/6 647/1/6 651/1/6
f 648/1/6 649/1/6 652/1/6
f 650/1/6 651/1/6 654/1/6
f 651/1/6 647/1/6 654/1/6
f 652/1/6 653/1/6 657/1/6
f 648/1/6 652/1/6 657/1/6
f 654/1/6 655/1/6 658/1/6
f 650/1/6 654/1/6 658/1/6
f 658/1/6 655/1/6 659/1/6
f 656/1/6 657/1/6 660/1/6
f 657/1/6 653/1/6 661/1/6
f 660/1/6 657/1/6 661/1/6
f 662/4/6 663/4/6 666/4/6
f 666/4/6 663/4/6 667/4/6
f 664/4/6 665/4/6 668/4/6
f 668/4/6 665/4/6 669/4/6
f 670/2/6 671/2/6 672/2/6
f 672/2/6 671/2/6 673/2/6
f 674/1/6 675/1/6 676/1/6
f 676/1/6 675/1/6 677/1/6
f 674/1/6 676/1/6 678/1/6
f 677/1/6 675/1/6 679/1/6
f 674/1/6 678/1/6 680/1/6
f 680/1/6 678/1/6 681/1/6
f 679/1/6 675/1/6 682/1/6
f 682/1/6 675/1/6 683/1/6
f 684/2/6 685/2/6 686/2/6
f 686/2/6 685/2/6 687/2/6
f 688/3/6 689/3/6 690/3/6
f 690/3/6 689/3/6 691/3/6
f 692/1/6 693/1/6 694/1/6
f 694/1/6 693/1/6 695/1/6
f 694/4/6 695/4/6 696/4/6
f 696/4/6 695/4/6 697/4/6
