# MagicaVoxel @ Ephtracy

# group
o 

# material
mtllib DoubleMachineGun1-8.mtl
usemtl palette

# normals
vn -1 0 0
vn 1 0 0
vn 0 0 1
vn 0 0 -1
vn 0 -1 0
vn 0 1 0

# texcoords
vt 0.544922 0.5
vt 0.638672 0.5
vt 0.646484 0.5
vt 0.958984 0.5
vt 0.994141 0.5

# verts
v -0.6 0.6 -0.2
v -0.6 0.6 -0.7
v -0.6 0.7 -0.2
v -0.6 0.7 -0.7
v -0.5 0.6 -0.1
v -0.5 0.6 -0.2
v -0.5 0.7 0.0999999
v -0.5 0.7 -0.1
v -0.5 0.7 -0.2
v -0.5 0.7 -0.3
v -0.5 0.7 -0.6
v -0.5 0.8 0.0999999
v -0.5 0.8 -0.3
v -0.5 0.8 -0.6
v -0.4 0.6 0.3
v -0.4 0.6 -0.1
v -0.4 0.7 1.3
v -0.4 0.7 1.1
v -0.4 0.7 0.3
v -0.4 0.7 0.0999999
v -0.4 0.7 -0.1
v -0.4 0.8 1.3
v -0.4 0.8 1.1
v -0.4 0.8 0.3
v -0.4 0.8 0.0999999
v -0.4 0.8 0
v -0.4 0.8 -0.3
v -0.4 0.8 -0.4
v -0.4 0.9 0.3
v -0.4 0.9 0
v -0.4 0.9 -0.4
v -0.3 0.7 -0.6
v -0.3 0.7 -0.7
v -0.3 0.8 -0.4
v -0.3 0.8 -0.6
v -0.3 0.8 -0.7
v -0.3 0.9 -0.4
v -0.3 0.9 -0.6
v -0.2 0.7 -0.7
v -0.2 0.7 -0.8
v -0.2 0.8 -0.6
v -0.2 0.8 -0.7
v -0.2 0.9 -0.3
v -0.2 0.9 -0.6
v -0.2 1 -0.3
v -0.2 1 -0.8
v 0.1 0.8 -0.1
v 0.1 0.8 -0.3
v 0.1 0.9 -0.1
v 0.1 0.9 -0.3
v 0.1 0.9 -0.8
v 0.1 1 -0.3
v 0.1 1 -0.8
v 0.2 0.6 -0.4
v 0.2 0.6 -0.7
v 0.2 0.7 -0.4
v 0.2 0.7 -0.7
v 0.2 0.8 0.2
v 0.2 0.8 -0.1
v 0.2 0.9 0.2
v 0.2 0.9 -0.1
v 0.3 0.7 1.3
v 0.3 0.7 1.1
v 0.3 0.7 0.3
v 0.3 0.8 1.3
v 0.3 0.8 1.1
v 0.3 0.8 0.3
v 0.3 0.8 0.2
v 0.3 0.9 0.3
v 0.3 0.9 0.2
v -0.3 0.7 1.3
v -0.3 0.7 1.1
v -0.3 0.7 0.3
v -0.3 0.8 1.3
v -0.3 0.8 1.1
v -0.3 0.8 0.3
v -0.3 0.8 0.2
v -0.3 0.9 0.3
v -0.3 0.9 0.2
v -0.2 0.6 -0.4
v -0.2 0.6 -0.7
v -0.2 0.7 -0.4
v -0.2 0.7 -0.7
v -0.2 0.8 0.2
v -0.2 0.8 -0.1
v -0.2 0.9 0.2
v -0.2 0.9 -0.1
v -0.0999999 0.8 -0.1
v -0.0999999 0.8 -0.3
v -0.0999999 0.9 -0.1
v -0.0999999 0.9 -0.3
v -0.0999999 0.9 -0.8
v -0.0999999 1 -0.3
v -0.0999999 1 -0.8
v 0.2 0.7 -0.7
v 0.2 0.7 -0.8
v 0.2 0.8 -0.6
v 0.2 0.8 -0.7
v 0.2 0.9 -0.3
v 0.2 0.9 -0.6
v 0.2 1 -0.3
v 0.2 1 -0.8
v 0.3 0.7 -0.6
v 0.3 0.7 -0.7
v 0.3 0.8 -0.4
v 0.3 0.8 -0.6
v 0.3 0.8 -0.7
v 0.3 0.9 -0.4
v 0.3 0.9 -0.6
v 0.4 0.6 0.3
v 0.4 0.6 -0.1
v 0.4 0.7 1.3
v 0.4 0.7 1.1
v 0.4 0.7 0.3
v 0.4 0.7 0.0999999
v 0.4 0.7 -0.1
v 0.4 0.8 1.3
v 0.4 0.8 1.1
v 0.4 0.8 0.3
v 0.4 0.8 0.0999999
v 0.4 0.8 0
v 0.4 0.8 -0.3
v 0.4 0.8 -0.4
v 0.4 0.9 0.3
v 0.4 0.9 0
v 0.4 0.9 -0.4
v 0.5 0.6 -0.1
v 0.5 0.6 -0.2
v 0.5 0.7 0.0999999
v 0.5 0.7 -0.1
v 0.5 0.7 -0.2
v 0.5 0.7 -0.3
v 0.5 0.7 -0.6
v 0.5 0.8 0.0999999
v 0.5 0.8 -0.3
v 0.5 0.8 -0.6
v 0.6 0.6 -0.2
v 0.6 0.6 -0.7
v 0.6 0.7 -0.2
v 0.6 0.7 -0.7
v -0.4 0.7 1.3
v -0.4 0.8 1.3
v -0.3 0.7 1.3
v -0.3 0.8 1.3
v 0.3 0.7 1.3
v 0.3 0.8 1.3
v 0.4 0.7 1.3
v 0.4 0.8 1.3
v -0.4 0.6 0.3
v -0.4 0.7 0.3
v -0.4 0.8 0.3
v -0.4 0.9 0.3
v -0.3 0.7 0.3
v -0.3 0.8 0.3
v -0.3 0.9 0.3
v 0.3 0.7 0.3
v 0.3 0.8 0.3
v 0.3 0.9 0.3
v 0.4 0.6 0.3
v 0.4 0.7 0.3
v 0.4 0.8 0.3
v 0.4 0.9 0.3
v -0.3 0.8 0.2
v -0.3 0.9 0.2
v -0.2 0.8 0.2
v -0.2 0.9 0.2
v 0.2 0.8 0.2
v 0.2 0.9 0.2
v 0.3 0.8 0.2
v 0.3 0.9 0.2
v -0.5 0.7 0.0999999
v -0.5 0.8 0.0999999
v -0.4 0.7 0.0999999
v -0.4 0.8 0.0999999
v 0.4 0.7 0.0999999
v 0.4 0.8 0.0999999
v 0.5 0.7 0.0999999
v 0.5 0.8 0.0999999
v -0.5 0.6 -0.1
v -0.5 0.7 -0.1
v -0.4 0.6 -0.1
v -0.4 0.7 -0.1
v -0.2 0.8 -0.1
v -0.2 0.9 -0.1
v -0.0999999 0.8 -0.1
v -0.0999999 0.9 -0.1
v 0.1 0.8 -0.1
v 0.1 0.9 -0.1
v 0.2 0.8 -0.1
v 0.2 0.9 -0.1
v 0.4 0.6 -0.1
v 0.4 0.7 -0.1
v 0.5 0.6 -0.1
v 0.5 0.7 -0.1
v -0.6 0.6 -0.2
v -0.6 0.7 -0.2
v -0.5 0.6 -0.2
v -0.5 0.7 -0.2
v 0.5 0.6 -0.2
v 0.5 0.7 -0.2
v 0.6 0.6 -0.2
v 0.6 0.7 -0.2
v -0.2 0.9 -0.3
v -0.2 1 -0.3
v -0.0999999 0.8 -0.3
v -0.0999999 0.9 -0.3
v -0.0999999 1 -0.3
v 0.1 0.8 -0.3
v 0.1 0.9 -0.3
v 0.1 1 -0.3
v 0.2 0.9 -0.3
v 0.2 1 -0.3
v -0.4 0.8 -0.4
v -0.4 0.9 -0.4
v -0.3 0.8 -0.4
v -0.3 0.9 -0.4
v -0.2 0.6 -0.4
v -0.2 0.7 -0.4
v 0.2 0.6 -0.4
v 0.2 0.7 -0.4
v 0.3 0.8 -0.4
v 0.3 0.9 -0.4
v 0.4 0.8 -0.4
v 0.4 0.9 -0.4
v -0.5 0.7 -0.6
v -0.5 0.8 -0.6
v -0.3 0.7 -0.6
v -0.3 0.8 -0.6
v -0.3 0.9 -0.6
v -0.2 0.8 -0.6
v -0.2 0.9 -0.6
v 0.2 0.8 -0.6
v 0.2 0.9 -0.6
v 0.3 0.7 -0.6
v 0.3 0.8 -0.6
v 0.3 0.9 -0.6
v 0.5 0.7 -0.6
v 0.5 0.8 -0.6
v -0.6 0.6 -0.7
v -0.6 0.7 -0.7
v -0.3 0.7 -0.7
v -0.3 0.8 -0.7
v -0.2 0.6 -0.7
v -0.2 0.7 -0.7
v -0.2 0.8 -0.7
v 0.2 0.6 -0.7
v 0.2 0.7 -0.7
v 0.2 0.8 -0.7
v 0.3 0.7 -0.7
v 0.3 0.8 -0.7
v 0.6 0.6 -0.7
v 0.6 0.7 -0.7
v -0.2 0.7 -0.8
v -0.2 1 -0.8
v -0.0999999 0.9 -0.8
v -0.0999999 1 -0.8
v 0.1 0.9 -0.8
v 0.1 1 -0.8
v 0.2 0.7 -0.8
v 0.2 1 -0.8
v -0.4 0.6 0.3
v 0.4 0.6 0.3
v -0.5 0.6 -0.1
v -0.4 0.6 -0.1
v 0.4 0.6 -0.1
v 0.5 0.6 -0.1
v -0.6 0.6 -0.2
v -0.5 0.6 -0.2
v 0.5 0.6 -0.2
v 0.6 0.6 -0.2
v -0.5 0.6 -0.3
v -0.4 0.6 -0.3
v 0.4 0.6 -0.3
v 0.5 0.6 -0.3
v -0.4 0.6 -0.4
v -0.3 0.6 -0.4
v -0.2 0.6 -0.4
v 0.2 0.6 -0.4
v 0.3 0.6 -0.4
v 0.4 0.6 -0.4
v -0.5 0.6 -0.6
v -0.3 0.6 -0.6
v 0.3 0.6 -0.6
v 0.5 0.6 -0.6
v -0.6 0.6 -0.7
v -0.2 0.6 -0.7
v 0.2 0.6 -0.7
v 0.6 0.6 -0.7
v -0.4 0.7 1.3
v -0.3 0.7 1.3
v 0.3 0.7 1.3
v 0.4 0.7 1.3
v -0.4 0.7 1.1
v -0.3 0.7 1.1
v 0.3 0.7 1.1
v 0.4 0.7 1.1
v -0.4 0.7 0.3
v -0.3 0.7 0.3
v 0.3 0.7 0.3
v 0.4 0.7 0.3
v -0.5 0.7 0.0999999
v -0.4 0.7 0.0999999
v 0.4 0.7 0.0999999
v 0.5 0.7 0.0999999
v -0.5 0.7 -0.1
v -0.4 0.7 -0.1
v 0.4 0.7 -0.1
v 0.5 0.7 -0.1
v -0.2 0.7 -0.4
v 0.2 0.7 -0.4
v -0.2 0.7 -0.7
v 0.2 0.7 -0.7
v -0.2 0.7 -0.8
v 0.2 0.7 -0.8
v -0.6 0.7 -0.2
v -0.5 0.7 -0.2
v 0.5 0.7 -0.2
v 0.6 0.7 -0.2
v -0.5 0.7 -0.3
v 0.5 0.7 -0.3
v -0.5 0.7 -0.6
v -0.3 0.7 -0.6
v 0.3 0.7 -0.6
v 0.5 0.7 -0.6
v -0.6 0.7 -0.7
v -0.3 0.7 -0.7
v 0.3 0.7 -0.7
v 0.6 0.7 -0.7
v -0.4 0.8 1.3
v -0.3 0.8 1.3
v 0.3 0.8 1.3
v 0.4 0.8 1.3
v -0.4 0.8 1.1
v -0.3 0.8 1.1
v 0.3 0.8 1.1
v 0.4 0.8 1.1
v -0.4 0.8 0.3
v -0.3 0.8 0.3
v 0.3 0.8 0.3
v 0.4 0.8 0.3
v -0.3 0.8 0.2
v -0.2 0.8 0.2
v 0.2 0.8 0.2
v 0.3 0.8 0.2
v -0.5 0.8 0.0999999
v -0.4 0.8 0.0999999
v 0.4 0.8 0.0999999
v 0.5 0.8 0.0999999
v -0.4 0.8 0
v 0.4 0.8 0
v -0.2 0.8 -0.1
v -0.0999999 0.8 -0.1
v 0.1 0.8 -0.1
v 0.2 0.8 -0.1
v -0.5 0.8 -0.3
v -0.4 0.8 -0.3
v -0.0999999 0.8 -0.3
v 0.1 0.8 -0.3
v 0.4 0.8 -0.3
v 0.5 0.8 -0.3
v -0.4 0.8 -0.4
v -0.3 0.8 -0.4
v 0.3 0.8 -0.4
v 0.4 0.8 -0.4
v -0.5 0.8 -0.6
v -0.3 0.8 -0.6
v -0.2 0.8 -0.6
v 0.2 0.8 -0.6
v 0.3 0.8 -0.6
v 0.5 0.8 -0.6
v -0.3 0.8 -0.7
v -0.2 0.8 -0.7
v 0.2 0.8 -0.7
v 0.3 0.8 -0.7
v -0.4 0.9 0.3
v -0.3 0.9 0.3
v 0.3 0.9 0.3
v 0.4 0.9 0.3
v -0.3 0.9 0.2
v -0.2 0.9 0.2
v 0.2 0.9 0.2
v 0.3 0.9 0.2
v -0.4 0.9 0
v -0.3 0.9 0
v 0.3 0.9 0
v 0.4 0.9 0
v -0.2 0.9 -0.1
v -0.0999999 0.9 -0.1
v 0.1 0.9 -0.1
v 0.2 0.9 -0.1
v -0.3 0.9 -0.3
v -0.2 0.9 -0.3
v -0.0999999 0.9 -0.3
v 0.1 0.9 -0.3
v 0.2 0.9 -0.3
v 0.3 0.9 -0.3
v -0.4 0.9 -0.4
v -0.3 0.9 -0.4
v 0.3 0.9 -0.4
v 0.4 0.9 -0.4
v -0.3 0.9 -0.6
v -0.2 0.9 -0.6
v 0.2 0.9 -0.6
v 0.3 0.9 -0.6
v -0.0999999 0.9 -0.8
v 0.1 0.9 -0.8
v -0.2 1 -0.3
v -0.0999999 1 -0.3
v 0.1 1 -0.3
v 0.2 1 -0.3
v -0.2 1 -0.8
v -0.0999999 1 -0.8
v 0.1 1 -0.8
v 0.2 1 -0.8

# faces
f 3/2/1 2/2/1 1/2/1
f 4/2/1 2/2/1 3/2/1
f 8/2/1 6/2/1 5/2/1
f 9/2/1 6/2/1 8/2/1
f 12/2/1 8/2/1 7/2/1
f 12/2/1 9/2/1 8/2/1
f 12/2/1 10/2/1 9/2/1
f 13/5/1 11/5/1 10/5/1
f 13/2/1 10/2/1 12/2/1
f 14/5/1 11/5/1 13/5/1
f 19/1/1 16/1/1 15/1/1
f 20/1/1 16/1/1 19/1/1
f 21/1/1 16/1/1 20/1/1
f 22/4/1 18/4/1 17/4/1
f 23/3/1 19/3/1 18/3/1
f 23/4/1 18/4/1 22/4/1
f 24/1/1 20/1/1 19/1/1
f 24/3/1 19/3/1 23/3/1
f 25/1/1 20/1/1 24/1/1
f 29/2/1 26/2/1 25/2/1
f 29/2/1 25/2/1 24/2/1
f 30/5/1 28/5/1 27/5/1
f 30/2/1 26/2/1 29/2/1
f 30/5/1 27/5/1 26/5/1
f 31/5/1 28/5/1 30/5/1
f 35/2/1 33/2/1 32/2/1
f 36/2/1 33/2/1 35/2/1
f 37/3/1 35/3/1 34/3/1
f 38/3/1 35/3/1 37/3/1
f 42/3/1 40/3/1 39/3/1
f 44/3/1 42/3/1 41/3/1
f 45/3/1 44/3/1 43/3/1
f 46/3/1 40/3/1 42/3/1
f 46/3/1 44/3/1 45/3/1
f 46/3/1 42/3/1 44/3/1
f 49/2/1 48/2/1 47/2/1
f 50/2/1 48/2/1 49/2/1
f 52/3/1 51/3/1 50/3/1
f 53/3/1 51/3/1 52/3/1
f 56/2/1 55/2/1 54/2/1
f 57/2/1 55/2/1 56/2/1
f 60/2/1 59/2/1 58/2/1
f 61/2/1 59/2/1 60/2/1
f 65/4/1 63/4/1 62/4/1
f 66/3/1 64/3/1 63/3/1
f 66/4/1 63/4/1 65/4/1
f 67/3/1 64/3/1 66/3/1
f 69/2/1 68/2/1 67/2/1
f 70/2/1 68/2/1 69/2/1
f 71/4/2 72/4/2 74/4/2
f 72/3/2 73/3/2 75/3/2
f 74/4/2 72/4/2 75/4/2
f 75/3/2 73/3/2 76/3/2
f 76/2/2 77/2/2 78/2/2
f 78/2/2 77/2/2 79/2/2
f 80/2/2 81/2/2 82/2/2
f 82/2/2 81/2/2 83/2/2
f 84/2/2 85/2/2 86/2/2
f 86/2/2 85/2/2 87/2/2
f 88/2/2 89/2/2 90/2/2
f 90/2/2 89/2/2 91/2/2
f 91/3/2 92/3/2 93/3/2
f 93/3/2 92/3/2 94/3/2
f 95/3/2 96/3/2 98/3/2
f 97/3/2 98/3/2 100/3/2
f 99/3/2 100/3/2 101/3/2
f 98/3/2 96/3/2 102/3/2
f 101/3/2 100/3/2 102/3/2
f 100/3/2 98/3/2 102/3/2
f 103/2/2 104/2/2 106/2/2
f 106/2/2 104/2/2 107/2/2
f 105/3/2 106/3/2 108/3/2
f 108/3/2 106/3/2 109/3/2
f 110/1/2 111/1/2 114/1/2
f 114/1/2 111/1/2 115/1/2
f 115/1/2 111/1/2 116/1/2
f 112/4/2 113/4/2 117/4/2
f 113/3/2 114/3/2 118/3/2
f 117/4/2 113/4/2 118/4/2
f 114/1/2 115/1/2 119/1/2
f 118/3/2 114/3/2 119/3/2
f 119/1/2 115/1/2 120/1/2
f 120/2/2 121/2/2 124/2/2
f 119/2/2 120/2/2 124/2/2
f 122/5/2 123/5/2 125/5/2
f 124/2/2 121/2/2 125/2/2
f 121/5/2 122/5/2 125/5/2
f 125/5/2 123/5/2 126/5/2
f 127/2/2 128/2/2 130/2/2
f 130/2/2 128/2/2 131/2/2
f 129/2/2 130/2/2 134/2/2
f 130/2/2 131/2/2 134/2/2
f 131/2/2 132/2/2 134/2/2
f 132/5/2 133/5/2 135/5/2
f 134/2/2 132/2/2 135/2/2
f 135/5/2 133/5/2 136/5/2
f 137/2/2 138/2/2 139/2/2
f 139/2/2 138/2/2 140/2/2
f 143/4/3 142/4/3 141/4/3
f 144/4/3 142/4/3 143/4/3
f 147/4/3 146/4/3 145/4/3
f 148/4/3 146/4/3 147/4/3
f 153/1/3 150/1/3 149/1/3
f 154/2/3 152/2/3 151/2/3
f 155/2/3 152/2/3 154/2/3
f 156/1/3 153/1/3 149/1/3
f 156/1/3 154/1/3 153/1/3
f 157/1/3 154/1/3 156/1/3
f 159/1/3 156/1/3 149/1/3
f 160/1/3 156/1/3 159/1/3
f 161/2/3 158/2/3 157/2/3
f 162/2/3 158/2/3 161/2/3
f 165/2/3 164/2/3 163/2/3
f 166/2/3 164/2/3 165/2/3
f 169/2/3 168/2/3 167/2/3
f 170/2/3 168/2/3 169/2/3
f 173/2/3 172/2/3 171/2/3
f 174/2/3 172/2/3 173/2/3
f 177/2/3 176/2/3 175/2/3
f 178/2/3 176/2/3 177/2/3
f 181/2/3 180/2/3 179/2/3
f 182/2/3 180/2/3 181/2/3
f 185/2/3 184/2/3 183/2/3
f 186/2/3 184/2/3 185/2/3
f 189/2/3 188/2/3 187/2/3
f 190/2/3 188/2/3 189/2/3
f 193/2/3 192/2/3 191/2/3
f 194/2/3 192/2/3 193/2/3
f 197/2/3 196/2/3 195/2/3
f 198/2/3 196/2/3 197/2/3
f 201/2/3 200/2/3 199/2/3
f 202/2/3 200/2/3 201/2/3
f 206/3/3 204/3/3 203/3/3
f 207/3/3 204/3/3 206/3/3
f 208/3/3 206/3/3 205/3/3
f 209/3/3 206/3/3 208/3/3
f 211/3/3 210/3/3 209/3/3
f 212/3/3 210/3/3 211/3/3
f 213/5/4 214/5/4 215/5/4
f 215/5/4 214/5/4 216/5/4
f 217/1/4 218/1/4 219/1/4
f 219/1/4 218/1/4 220/1/4
f 221/5/4 222/5/4 223/5/4
f 223/5/4 222/5/4 224/5/4
f 225/5/4 226/5/4 227/5/4
f 227/5/4 226/5/4 228/5/4
f 228/3/4 229/3/4 230/3/4
f 230/3/4 229/3/4 231/3/4
f 232/3/4 233/3/4 235/3/4
f 235/3/4 233/3/4 236/3/4
f 234/5/4 235/5/4 237/5/4
f 237/5/4 235/5/4 238/5/4
f 239/2/4 240/2/4 241/2/4
f 239/2/4 241/2/4 243/2/4
f 241/2/4 242/2/4 243/2/4
f 243/2/4 242/2/4 244/2/4
f 244/2/4 242/2/4 245/2/4
f 246/2/4 247/2/4 249/2/4
f 247/2/4 248/2/4 249/2/4
f 249/2/4 248/2/4 250/2/4
f 246/2/4 249/2/4 251/2/4
f 251/2/4 249/2/4 252/2/4
f 253/3/4 254/3/4 255/3/4
f 255/3/4 254/3/4 256/3/4
f 253/3/4 255/3/4 257/3/4
f 253/3/4 257/3/4 259/3/4
f 257/3/4 258/3/4 259/3/4
f 259/3/4 258/3/4 260/3/4
f 264/1/5 262/1/5 261/1/5
f 265/1/5 262/1/5 264/1/5
f 268/2/5 264/2/5 263/2/5
f 269/2/5 266/2/5 265/2/5
f 271/2/5 268/2/5 267/2/5
f 271/2/5 264/2/5 268/2/5
f 272/1/5 265/1/5 264/1/5
f 272/2/5 264/2/5 271/2/5
f 273/2/5 270/2/5 269/2/5
f 273/1/5 265/1/5 272/1/5
f 273/2/5 269/2/5 265/2/5
f 274/2/5 270/2/5 273/2/5
f 275/5/5 272/5/5 271/5/5
f 275/1/5 273/1/5 272/1/5
f 276/1/5 273/1/5 275/1/5
f 277/1/5 273/1/5 276/1/5
f 278/1/5 273/1/5 277/1/5
f 279/1/5 273/1/5 278/1/5
f 280/5/5 274/5/5 273/5/5
f 280/1/5 273/1/5 279/1/5
f 281/2/5 271/2/5 267/2/5
f 281/5/5 275/5/5 271/5/5
f 281/5/5 276/5/5 275/5/5
f 282/2/5 277/2/5 276/2/5
f 282/5/5 276/5/5 281/5/5
f 283/2/5 279/2/5 278/2/5
f 283/5/5 280/5/5 279/5/5
f 284/2/5 270/2/5 274/2/5
f 284/5/5 280/5/5 283/5/5
f 284/5/5 274/5/5 280/5/5
f 285/2/5 281/2/5 267/2/5
f 285/2/5 282/2/5 281/2/5
f 286/2/5 277/2/5 282/2/5
f 286/2/5 282/2/5 285/2/5
f 287/2/5 283/2/5 278/2/5
f 287/2/5 284/2/5 283/2/5
f 288/2/5 270/2/5 284/2/5
f 288/2/5 284/2/5 287/2/5
f 293/4/5 290/4/5 289/4/5
f 294/4/5 290/4/5 293/4/5
f 295/4/5 292/4/5 291/4/5
f 296/4/5 292/4/5 295/4/5
f 297/3/5 294/3/5 293/3/5
f 298/3/5 294/3/5 297/3/5
f 299/3/5 296/3/5 295/3/5
f 300/3/5 296/3/5 299/3/5
f 305/2/5 302/2/5 301/2/5
f 306/2/5 302/2/5 305/2/5
f 307/2/5 304/2/5 303/2/5
f 308/2/5 304/2/5 307/2/5
f 311/3/5 310/3/5 309/3/5
f 312/3/5 310/3/5 311/3/5
f 313/3/5 312/3/5 311/3/5
f 314/3/5 312/3/5 313/3/5
f 315/2/6 316/2/6 319/2/6
f 317/2/6 318/2/6 320/2/6
f 315/2/6 319/2/6 321/2/6
f 320/2/6 318/2/6 324/2/6
f 321/2/6 322/2/6 325/2/6
f 315/2/6 321/2/6 325/2/6
f 325/2/6 322/2/6 326/2/6
f 323/2/6 324/2/6 327/2/6
f 324/2/6 318/2/6 328/2/6
f 327/2/6 324/2/6 328/2/6
f 329/4/6 330/4/6 333/4/6
f 333/4/6 330/4/6 334/4/6
f 331/4/6 332/4/6 335/4/6
f 335/4/6 332/4/6 336/4/6
f 333/3/6 334/3/6 337/3/6
f 337/3/6 334/3/6 338/3/6
f 335/3/6 336/3/6 339/3/6
f 339/3/6 336/3/6 340/3/6
f 338/1/6 339/1/6 341/1/6
f 341/1/6 339/1/6 342/1/6
f 342/1/6 339/1/6 343/1/6
f 343/1/6 339/1/6 344/1/6
f 345/2/6 346/2/6 349/2/6
f 347/2/6 348/2/6 350/2/6
f 342/1/6 343/1/6 351/1/6
f 351/1/6 343/1/6 352/1/6
f 352/1/6 343/1/6 353/1/6
f 353/1/6 343/1/6 354/1/6
f 345/2/6 349/2/6 355/2/6
f 355/2/6 349/2/6 356/2/6
f 352/1/6 353/1/6 357/1/6
f 357/1/6 353/1/6 358/1/6
f 350/2/6 348/2/6 359/2/6
f 359/2/6 348/2/6 360/2/6
f 355/5/6 356/5/6 361/5/6
f 359/5/6 360/5/6 364/5/6
f 361/5/6 362/5/6 365/5/6
f 355/5/6 361/5/6 365/5/6
f 365/5/6 362/5/6 366/5/6
f 363/5/6 364/5/6 369/5/6
f 364/5/6 360/5/6 370/5/6
f 369/5/6 364/5/6 370/5/6
f 366/2/6 367/2/6 371/2/6
f 371/2/6 367/2/6 372/2/6
f 368/2/6 369/2/6 373/2/6
f 373/2/6 369/2/6 374/2/6
f 375/2/6 376/2/6 379/2/6
f 377/2/6 378/2/6 382/2/6
f 379/2/6 380/2/6 383/2/6
f 375/2/6 379/2/6 383/2/6
f 383/2/6 380/2/6 384/2/6
f 381/2/6 382/2/6 385/2/6
f 382/2/6 378/2/6 385/2/6
f 385/2/6 378/2/6 386/2/6
f 384/2/6 380/2/6 387/2/6
f 381/2/6 385/2/6 390/2/6
f 383/5/6 384/5/6 391/5/6
f 387/2/6 388/2/6 391/2/6
f 384/2/6 387/2/6 391/2/6
f 391/2/6 388/2/6 392/2/6
f 392/2/6 388/2/6 393/2/6
f 389/2/6 390/2/6 394/2/6
f 390/2/6 385/2/6 395/2/6
f 394/2/6 390/2/6 395/2/6
f 385/5/6 386/5/6 396/5/6
f 395/2/6 385/2/6 396/2/6
f 383/5/6 391/5/6 397/5/6
f 391/3/6 392/3/6 398/3/6
f 397/5/6 391/5/6 398/5/6
f 396/5/6 386/5/6 399/5/6
f 395/3/6 396/3/6 399/3/6
f 399/5/6 386/5/6 400/5/6
f 398/3/6 392/3/6 401/3/6
f 401/3/6 392/3/6 402/3/6
f 395/3/6 399/3/6 403/3/6
f 403/3/6 399/3/6 404/3/6
f 393/3/6 394/3/6 405/3/6
f 405/3/6 394/3/6 406/3/6
f 407/3/6 408/3/6 411/3/6
f 411/3/6 408/3/6 412/3/6
f 409/3/6 410/3/6 413/3/6
f 413/3/6 410/3/6 414/3/6
