# MagicaVoxel @ Ephtracy

# group
o 

# material
mtllib DoubleMachineGun1-10.mtl
usemtl palette

# normals
vn -1 0 0
vn 1 0 0
vn 0 0 1
vn 0 0 -1
vn 0 -1 0
vn 0 1 0

# texcoords
vt 0.529297 0.5
vt 0.544922 0.5
vt 0.560547 0.5

# verts
v -2 0 2
v -2 0 1.2
v -2 0 -1.2
v -2 0 -2
v -2 0.1 2
v -2 0.1 1.2
v -2 0.1 -1.2
v -2 0.1 -2
v -1.9 0.1 1.9
v -1.9 0.1 1.2
v -1.9 0.1 -1.2
v -1.9 0.1 -1.9
v -1.9 0.2 1.9
v -1.9 0.2 1.2
v -1.9 0.2 -1.2
v -1.9 0.2 -1.9
v -1.7 0.2 1.8
v -1.7 0.2 1.4
v -1.7 0.2 -1.4
v -1.7 0.2 -1.8
v -1.7 0.3 1.8
v -1.7 0.3 1.4
v -1.7 0.3 -1.4
v -1.7 0.3 -1.8
v -1.6 0.2 1.4
v -1.6 0.2 1.2
v -1.6 0.2 -1.2
v -1.6 0.2 -1.4
v -1.6 0.3 1.7
v -1.6 0.3 1.4
v -1.6 0.3 -1.4
v -1.6 0.3 -1.7
v -1.6 0.4 1.7
v -1.6 0.4 1.2
v -1.6 0.4 -1.2
v -1.6 0.4 -1.7
v -1.4 0.2 1.2
v -1.4 0.2 1.1
v -1.4 0.2 -1.1
v -1.4 0.2 -1.2
v -1.4 0.4 1.4
v -1.4 0.4 1.2
v -1.4 0.4 1.1
v -1.4 0.4 -1.1
v -1.4 0.4 -1.2
v -1.4 0.4 -1.4
v -1.4 0.5 1.4
v -1.4 0.5 1.2
v -1.4 0.5 -1.2
v -1.4 0.5 -1.4
v -1.3 0.4 1.2
v -1.3 0.4 1.1
v -1.3 0.4 -1.1
v -1.3 0.4 -1.2
v -1.3 0.5 1.2
v -1.3 0.5 -1.2
v -0.2 0.5 0.3
v -0.2 0.5 -0.3
v -0.2 0.6 0.3
v -0.2 0.6 -0.3
v 1.1 0.2 1.4
v 1.1 0.2 1.1
v 1.1 0.2 -1.1
v 1.1 0.2 -1.4
v 1.1 0.4 1.4
v 1.1 0.4 1.3
v 1.1 0.4 1.1
v 1.1 0.4 -1.1
v 1.1 0.4 -1.3
v 1.1 0.4 -1.4
v 1.2 0 2
v 1.2 0 1.2
v 1.2 0 -1.2
v 1.2 0 -2
v 1.2 0.1 2
v 1.2 0.1 1.9
v 1.2 0.1 -1.9
v 1.2 0.1 -2
v 1.2 0.2 1.9
v 1.2 0.2 1.7
v 1.2 0.2 1.4
v 1.2 0.2 1.2
v 1.2 0.2 -1.2
v 1.2 0.2 -1.4
v 1.2 0.2 -1.7
v 1.2 0.2 -1.9
v 1.2 0.4 1.7
v 1.2 0.4 1.4
v 1.2 0.4 1.3
v 1.2 0.4 -1.3
v 1.2 0.4 -1.4
v 1.2 0.4 -1.7
v 1.2 0.5 1.4
v 1.2 0.5 1.3
v 1.2 0.5 -1.3
v 1.2 0.5 -1.4
v 1.4 0.2 1.8
v 1.4 0.2 1.7
v 1.4 0.2 -1.7
v 1.4 0.2 -1.8
v 1.4 0.3 1.8
v 1.4 0.3 1.7
v 1.4 0.3 -1.7
v 1.4 0.3 -1.8
v -1.4 0.2 1.8
v -1.4 0.2 1.7
v -1.4 0.2 -1.7
v -1.4 0.2 -1.8
v -1.4 0.3 1.8
v -1.4 0.3 1.7
v -1.4 0.3 -1.7
v -1.4 0.3 -1.8
v -1.2 0 2
v -1.2 0 1.2
v -1.2 0 -1.2
v -1.2 0 -2
v -1.2 0.1 2
v -1.2 0.1 1.9
v -1.2 0.1 -1.9
v -1.2 0.1 -2
v -1.2 0.2 1.9
v -1.2 0.2 1.7
v -1.2 0.2 1.4
v -1.2 0.2 1.2
v -1.2 0.2 -1.2
v -1.2 0.2 -1.4
v -1.2 0.2 -1.7
v -1.2 0.2 -1.9
v -1.2 0.4 1.7
v -1.2 0.4 1.4
v -1.2 0.4 1.3
v -1.2 0.4 -1.3
v -1.2 0.4 -1.4
v -1.2 0.4 -1.7
v -1.2 0.5 1.4
v -1.2 0.5 1.3
v -1.2 0.5 -1.3
v -1.2 0.5 -1.4
v -1.1 0.2 1.4
v -1.1 0.2 1.1
v -1.1 0.2 -1.1
v -1.1 0.2 -1.4
v -1.1 0.4 1.4
v -1.1 0.4 1.3
v -1.1 0.4 1.1
v -1.1 0.4 -1.1
v -1.1 0.4 -1.3
v -1.1 0.4 -1.4
v 0.2 0.5 0.3
v 0.2 0.5 -0.3
v 0.2 0.6 0.3
v 0.2 0.6 -0.3
v 1.3 0.4 1.2
v 1.3 0.4 1.1
v 1.3 0.4 -1.1
v 1.3 0.4 -1.2
v 1.3 0.5 1.2
v 1.3 0.5 -1.2
v 1.4 0.2 1.2
v 1.4 0.2 1.1
v 1.4 0.2 -1.1
v 1.4 0.2 -1.2
v 1.4 0.4 1.4
v 1.4 0.4 1.2
v 1.4 0.4 1.1
v 1.4 0.4 -1.1
v 1.4 0.4 -1.2
v 1.4 0.4 -1.4
v 1.4 0.5 1.4
v 1.4 0.5 1.2
v 1.4 0.5 -1.2
v 1.4 0.5 -1.4
v 1.6 0.2 1.4
v 1.6 0.2 1.2
v 1.6 0.2 -1.2
v 1.6 0.2 -1.4
v 1.6 0.3 1.7
v 1.6 0.3 1.4
v 1.6 0.3 -1.4
v 1.6 0.3 -1.7
v 1.6 0.4 1.7
v 1.6 0.4 1.2
v 1.6 0.4 -1.2
v 1.6 0.4 -1.7
v 1.7 0.2 1.8
v 1.7 0.2 1.4
v 1.7 0.2 -1.4
v 1.7 0.2 -1.8
v 1.7 0.3 1.8
v 1.7 0.3 1.4
v 1.7 0.3 -1.4
v 1.7 0.3 -1.8
v 1.9 0.1 1.9
v 1.9 0.1 1.2
v 1.9 0.1 -1.2
v 1.9 0.1 -1.9
v 1.9 0.2 1.9
v 1.9 0.2 1.2
v 1.9 0.2 -1.2
v 1.9 0.2 -1.9
v 2 0 2
v 2 0 1.2
v 2 0 -1.2
v 2 0 -2
v 2 0.1 2
v 2 0.1 1.2
v 2 0.1 -1.2
v 2 0.1 -2
v -2 0 2
v -2 0.1 2
v -1.2 0 2
v -1.2 0.1 2
v 1.2 0 2
v 1.2 0.1 2
v 2 0 2
v 2 0.1 2
v -1.9 0.1 1.9
v -1.9 0.2 1.9
v -1.2 0.1 1.9
v -1.2 0.2 1.9
v 1.2 0.1 1.9
v 1.2 0.2 1.9
v 1.9 0.1 1.9
v 1.9 0.2 1.9
v -1.7 0.2 1.8
v -1.7 0.3 1.8
v -1.4 0.2 1.8
v -1.4 0.3 1.8
v 1.4 0.2 1.8
v 1.4 0.3 1.8
v 1.7 0.2 1.8
v 1.7 0.3 1.8
v -1.6 0.3 1.7
v -1.6 0.4 1.7
v -1.4 0.2 1.7
v -1.4 0.3 1.7
v -1.2 0.2 1.7
v -1.2 0.4 1.7
v 1.2 0.2 1.7
v 1.2 0.4 1.7
v 1.4 0.2 1.7
v 1.4 0.3 1.7
v 1.6 0.3 1.7
v 1.6 0.4 1.7
v -1.4 0.4 1.4
v -1.4 0.5 1.4
v -1.2 0.2 1.4
v -1.2 0.4 1.4
v -1.2 0.5 1.4
v -1.1 0.2 1.4
v -1.1 0.4 1.4
v 1.1 0.2 1.4
v 1.1 0.4 1.4
v 1.2 0.2 1.4
v 1.2 0.4 1.4
v 1.2 0.5 1.4
v 1.4 0.4 1.4
v 1.4 0.5 1.4
v -1.2 0.4 1.3
v -1.2 0.5 1.3
v -1.1 0.4 1.3
v 1.1 0.4 1.3
v 1.2 0.4 1.3
v 1.2 0.5 1.3
v -0.2 0.5 0.3
v -0.2 0.6 0.3
v 0.2 0.5 0.3
v 0.2 0.6 0.3
v -1.4 0.2 -1.1
v -1.4 0.4 -1.1
v -1.3 0.4 -1.1
v -1.1 0.2 -1.1
v -1.1 0.4 -1.1
v 1.1 0.2 -1.1
v 1.1 0.4 -1.1
v 1.3 0.4 -1.1
v 1.4 0.2 -1.1
v 1.4 0.4 -1.1
v -2 0 -1.2
v -2 0.1 -1.2
v -1.9 0.1 -1.2
v -1.9 0.2 -1.2
v -1.6 0.2 -1.2
v -1.6 0.4 -1.2
v -1.4 0.2 -1.2
v -1.4 0.4 -1.2
v -1.4 0.5 -1.2
v -1.3 0.4 -1.2
v -1.3 0.5 -1.2
v -1.2 0 -1.2
v -1.2 0.2 -1.2
v 1.2 0 -1.2
v 1.2 0.2 -1.2
v 1.3 0.4 -1.2
v 1.3 0.5 -1.2
v 1.4 0.2 -1.2
v 1.4 0.4 -1.2
v 1.4 0.5 -1.2
v 1.6 0.2 -1.2
v 1.6 0.4 -1.2
v 1.9 0.1 -1.2
v 1.9 0.2 -1.2
v 2 0 -1.2
v 2 0.1 -1.2
v -1.7 0.2 -1.4
v -1.7 0.3 -1.4
v -1.6 0.2 -1.4
v -1.6 0.3 -1.4
v 1.6 0.2 -1.4
v 1.6 0.3 -1.4
v 1.7 0.2 -1.4
v 1.7 0.3 -1.4
v -1.7 0.2 1.4
v -1.7 0.3 1.4
v -1.6 0.2 1.4
v -1.6 0.3 1.4
v 1.6 0.2 1.4
v 1.6 0.3 1.4
v 1.7 0.2 1.4
v 1.7 0.3 1.4
v -2 0 1.2
v -2 0.1 1.2
v -1.9 0.1 1.2
v -1.9 0.2 1.2
v -1.6 0.2 1.2
v -1.6 0.4 1.2
v -1.4 0.2 1.2
v -1.4 0.4 1.2
v -1.4 0.5 1.2
v -1.3 0.4 1.2
v -1.3 0.5 1.2
v -1.2 0 1.2
v -1.2 0.2 1.2
v 1.2 0 1.2
v 1.2 0.2 1.2
v 1.3 0.4 1.2
v 1.3 0.5 1.2
v 1.4 0.2 1.2
v 1.4 0.4 1.2
v 1.4 0.5 1.2
v 1.6 0.2 1.2
v 1.6 0.4 1.2
v 1.9 0.1 1.2
v 1.9 0.2 1.2
v 2 0 1.2
v 2 0.1 1.2
v -1.4 0.2 1.1
v -1.4 0.4 1.1
v -1.3 0.4 1.1
v -1.1 0.2 1.1
v -1.1 0.4 1.1
v 1.1 0.2 1.1
v 1.1 0.4 1.1
v 1.3 0.4 1.1
v 1.4 0.2 1.1
v 1.4 0.4 1.1
v -0.2 0.5 -0.3
v -0.2 0.6 -0.3
v 0.2 0.5 -0.3
v 0.2 0.6 -0.3
v -1.2 0.4 -1.3
v -1.2 0.5 -1.3
v -1.1 0.4 -1.3
v 1.1 0.4 -1.3
v 1.2 0.4 -1.3
v 1.2 0.5 -1.3
v -1.4 0.4 -1.4
v -1.4 0.5 -1.4
v -1.2 0.2 -1.4
v -1.2 0.4 -1.4
v -1.2 0.5 -1.4
v -1.1 0.2 -1.4
v -1.1 0.4 -1.4
v 1.1 0.2 -1.4
v 1.1 0.4 -1.4
v 1.2 0.2 -1.4
v 1.2 0.4 -1.4
v 1.2 0.5 -1.4
v 1.4 0.4 -1.4
v 1.4 0.5 -1.4
v -1.6 0.3 -1.7
v -1.6 0.4 -1.7
v -1.4 0.2 -1.7
v -1.4 0.3 -1.7
v -1.2 0.2 -1.7
v -1.2 0.4 -1.7
v 1.2 0.2 -1.7
v 1.2 0.4 -1.7
v 1.4 0.2 -1.7
v 1.4 0.3 -1.7
v 1.6 0.3 -1.7
v 1.6 0.4 -1.7
v -1.7 0.2 -1.8
v -1.7 0.3 -1.8
v -1.4 0.2 -1.8
v -1.4 0.3 -1.8
v 1.4 0.2 -1.8
v 1.4 0.3 -1.8
v 1.7 0.2 -1.8
v 1.7 0.3 -1.8
v -1.9 0.1 -1.9
v -1.9 0.2 -1.9
v -1.2 0.1 -1.9
v -1.2 0.2 -1.9
v 1.2 0.1 -1.9
v 1.2 0.2 -1.9
v 1.9 0.1 -1.9
v 1.9 0.2 -1.9
v -2 0 -2
v -2 0.1 -2
v -1.2 0 -2
v -1.2 0.1 -2
v 1.2 0 -2
v 1.2 0.1 -2
v 2 0 -2
v 2 0.1 -2
v -2 0 2
v -1.2 0 2
v 1.2 0 2
v 2 0 2
v -2 0 1.2
v -1.2 0 1.2
v 1.2 0 1.2
v 2 0 1.2
v -2 0 -1.2
v -1.2 0 -1.2
v 1.2 0 -1.2
v 2 0 -1.2
v -2 0 -2
v -1.2 0 -2
v 1.2 0 -2
v 2 0 -2
v -1.2 0.2 1.4
v -1.1 0.2 1.4
v 1.1 0.2 1.4
v 1.2 0.2 1.4
v -1.4 0.2 1.2
v -1.2 0.2 1.2
v 1.2 0.2 1.2
v 1.4 0.2 1.2
v -1.4 0.2 1.1
v -1.1 0.2 1.1
v 1.1 0.2 1.1
v 1.4 0.2 1.1
v -1.4 0.2 -1.1
v -1.1 0.2 -1.1
v 1.1 0.2 -1.1
v 1.4 0.2 -1.1
v -1.4 0.2 -1.2
v -1.2 0.2 -1.2
v 1.2 0.2 -1.2
v 1.4 0.2 -1.2
v -1.2 0.2 -1.4
v -1.1 0.2 -1.4
v 1.1 0.2 -1.4
v 1.2 0.2 -1.4
v -1.1 0.4 1.3
v 1.1 0.4 1.3
v -1.3 0.4 1.1
v -1.1 0.4 1.1
v 1.1 0.4 1.1
v 1.3 0.4 1.1
v -1.3 0.4 -1.1
v -1.1 0.4 -1.1
v 1.1 0.4 -1.1
v 1.3 0.4 -1.1
v -1.1 0.4 -1.3
v 1.1 0.4 -1.3
v -2 0.1 2
v -1.2 0.1 2
v 1.2 0.1 2
v 2 0.1 2
v -1.9 0.1 1.9
v -1.2 0.1 1.9
v 1.2 0.1 1.9
v 1.9 0.1 1.9
v -2 0.1 1.2
v -1.9 0.1 1.2
v 1.9 0.1 1.2
v 2 0.1 1.2
v -2 0.1 -1.2
v -1.9 0.1 -1.2
v 1.9 0.1 -1.2
v 2 0.1 -1.2
v -1.9 0.1 -1.9
v -1.2 0.1 -1.9
v 1.2 0.1 -1.9
v 1.9 0.1 -1.9
v -2 0.1 -2
v -1.2 0.1 -2
v 1.2 0.1 -2
v 2 0.1 -2
v -1.9 0.2 1.9
v -1.2 0.2 1.9
v 1.2 0.2 1.9
v 1.9 0.2 1.9
v -1.7 0.2 1.8
v -1.4 0.2 1.8
v 1.4 0.2 1.8
v 1.7 0.2 1.8
v -1.4 0.2 1.7
v -1.2 0.2 1.7
v 1.2 0.2 1.7
v 1.4 0.2 1.7
v -1.7 0.2 1.4
v -1.6 0.2 1.4
v 1.6 0.2 1.4
v 1.7 0.2 1.4
v -1.9 0.2 1.2
v -1.6 0.2 1.2
v 1.6 0.2 1.2
v 1.9 0.2 1.2
v -1.9 0.2 -1.2
v -1.6 0.2 -1.2
v 1.6 0.2 -1.2
v 1.9 0.2 -1.2
v -1.7 0.2 -1.4
v -1.6 0.2 -1.4
v 1.6 0.2 -1.4
v 1.7 0.2 -1.4
v -1.4 0.2 -1.7
v -1.2 0.2 -1.7
v 1.2 0.2 -1.7
v 1.4 0.2 -1.7
v -1.7 0.2 -1.8
v -1.4 0.2 -1.8
v 1.4 0.2 -1.8
v 1.7 0.2 -1.8
v -1.9 0.2 -1.9
v -1.2 0.2 -1.9
v 1.2 0.2 -1.9
v 1.9 0.2 -1.9
v -1.7 0.3 1.8
v -1.4 0.3 1.8
v 1.4 0.3 1.8
v 1.7 0.3 1.8
v -1.6 0.3 1.7
v -1.4 0.3 1.7
v 1.4 0.3 1.7
v 1.6 0.3 1.7
v -1.7 0.3 1.4
v -1.6 0.3 1.4
v 1.6 0.3 1.4
v 1.7 0.3 1.4
v -1.7 0.3 -1.4
v -1.6 0.3 -1.4
v 1.6 0.3 -1.4
v 1.7 0.3 -1.4
v -1.6 0.3 -1.7
v -1.4 0.3 -1.7
v 1.4 0.3 -1.7
v 1.6 0.3 -1.7
v -1.7 0.3 -1.8
v -1.4 0.3 -1.8
v 1.4 0.3 -1.8
v 1.7 0.3 -1.8
v -1.6 0.4 1.7
v -1.2 0.4 1.7
v 1.2 0.4 1.7
v 1.6 0.4 1.7
v -1.4 0.4 1.4
v -1.2 0.4 1.4
v -1.1 0.4 1.4
v 1.1 0.4 1.4
v 1.2 0.4 1.4
v 1.4 0.4 1.4
v -1.2 0.4 1.3
v -1.1 0.4 1.3
v 1.1 0.4 1.3
v 1.2 0.4 1.3
v -1.6 0.4 1.2
v -1.4 0.4 1.2
v -1.3 0.4 1.2
v 1.3 0.4 1.2
v 1.4 0.4 1.2
v 1.6 0.4 1.2
v -1.4 0.4 1.1
v -1.3 0.4 1.1
v 1.3 0.4 1.1
v 1.4 0.4 1.1
v -1.4 0.4 -1.1
v -1.3 0.4 -1.1
v 1.3 0.4 -1.1
v 1.4 0.4 -1.1
v -1.6 0.4 -1.2
v -1.4 0.4 -1.2
v -1.3 0.4 -1.2
v 1.3 0.4 -1.2
v 1.4 0.4 -1.2
v 1.6 0.4 -1.2
v -1.2 0.4 -1.3
v -1.1 0.4 -1.3
v 1.1 0.4 -1.3
v 1.2 0.4 -1.3
v -1.4 0.4 -1.4
v -1.2 0.4 -1.4
v -1.1 0.4 -1.4
v 1.1 0.4 -1.4
v 1.2 0.4 -1.4
v 1.4 0.4 -1.4
v -1.6 0.4 -1.7
v -1.2 0.4 -1.7
v 1.2 0.4 -1.7
v 1.6 0.4 -1.7
v -1.4 0.5 1.4
v -1.2 0.5 1.4
v 1.2 0.5 1.4
v 1.4 0.5 1.4
v -1.3 0.5 1.3
v -1.2 0.5 1.3
v 1.2 0.5 1.3
v 1.3 0.5 1.3
v -1.4 0.5 1.2
v -1.3 0.5 1.2
v 1.3 0.5 1.2
v 1.4 0.5 1.2
v -0.2 0.5 0.3
v 0.2 0.5 0.3
v -0.2 0.5 -0.3
v 0.2 0.5 -0.3
v -1.4 0.5 -1.2
v -1.3 0.5 -1.2
v 1.3 0.5 -1.2
v 1.4 0.5 -1.2
v -1.3 0.5 -1.3
v -1.2 0.5 -1.3
v 1.2 0.5 -1.3
v 1.3 0.5 -1.3
v -1.4 0.5 -1.4
v -1.2 0.5 -1.4
v 1.2 0.5 -1.4
v 1.4 0.5 -1.4
v -0.2 0.6 0.3
v 0.2 0.6 0.3
v -0.2 0.6 -0.3
v 0.2 0.6 -0.3

# faces
f 5/1/1 2/1/1 1/1/1
f 6/1/1 2/1/1 5/1/1
f 7/1/1 4/1/1 3/1/1
f 8/1/1 4/1/1 7/1/1
f 13/1/1 10/1/1 9/1/1
f 14/1/1 10/1/1 13/1/1
f 15/1/1 12/1/1 11/1/1
f 16/1/1 12/1/1 15/1/1
f 21/3/1 18/3/1 17/3/1
f 22/3/1 18/3/1 21/3/1
f 23/3/1 20/3/1 19/3/1
f 24/3/1 20/3/1 23/3/1
f 30/1/1 26/1/1 25/1/1
f 31/1/1 28/1/1 27/1/1
f 33/1/1 30/1/1 29/1/1
f 34/1/1 26/1/1 30/1/1
f 34/1/1 30/1/1 33/1/1
f 35/1/1 32/1/1 31/1/1
f 35/1/1 31/1/1 27/1/1
f 36/1/1 32/1/1 35/1/1
f 42/3/1 38/3/1 37/3/1
f 43/3/1 38/3/1 42/3/1
f 44/3/1 40/3/1 39/3/1
f 45/3/1 40/3/1 44/3/1
f 47/3/1 42/3/1 41/3/1
f 48/3/1 42/3/1 47/3/1
f 49/3/1 46/3/1 45/3/1
f 50/3/1 46/3/1 49/3/1
f 55/1/1 52/1/1 51/1/1
f 55/1/1 54/1/1 53/1/1
f 55/1/1 53/1/1 52/1/1
f 56/1/1 54/1/1 55/1/1
f 59/2/1 58/2/1 57/2/1
f 60/2/1 58/2/1 59/2/1
f 65/3/1 62/3/1 61/3/1
f 66/3/1 62/3/1 65/3/1
f 67/3/1 62/3/1 66/3/1
f 68/3/1 64/3/1 63/3/1
f 69/3/1 64/3/1 68/3/1
f 70/3/1 64/3/1 69/3/1
f 75/1/1 72/1/1 71/1/1
f 76/1/1 72/1/1 75/1/1
f 77/1/1 74/1/1 73/1/1
f 78/1/1 74/1/1 77/1/1
f 79/1/1 72/1/1 76/1/1
f 80/1/1 72/1/1 79/1/1
f 81/1/1 72/1/1 80/1/1
f 82/1/1 72/1/1 81/1/1
f 83/1/1 77/1/1 73/1/1
f 84/1/1 77/1/1 83/1/1
f 85/1/1 77/1/1 84/1/1
f 86/1/1 77/1/1 85/1/1
f 87/1/1 81/1/1 80/1/1
f 88/1/1 81/1/1 87/1/1
f 91/1/1 85/1/1 84/1/1
f 92/1/1 85/1/1 91/1/1
f 93/3/1 89/3/1 88/3/1
f 94/3/1 89/3/1 93/3/1
f 95/3/1 91/3/1 90/3/1
f 96/3/1 91/3/1 95/3/1
f 101/3/1 98/3/1 97/3/1
f 102/3/1 98/3/1 101/3/1
f 103/3/1 100/3/1 99/3/1
f 104/3/1 100/3/1 103/3/1
f 105/3/2 106/3/2 109/3/2
f 109/3/2 106/3/2 110/3/2
f 107/3/2 108/3/2 111/3/2
f 111/3/2 108/3/2 112/3/2
f 113/1/2 114/1/2 117/1/2
f 117/1/2 114/1/2 118/1/2
f 115/1/2 116/1/2 119/1/2
f 119/1/2 116/1/2 120/1/2
f 118/1/2 114/1/2 121/1/2
f 121/1/2 114/1/2 122/1/2
f 122/1/2 114/1/2 123/1/2
f 123/1/2 114/1/2 124/1/2
f 115/1/2 119/1/2 125/1/2
f 125/1/2 119/1/2 126/1/2
f 126/1/2 119/1/2 127/1/2
f 127/1/2 119/1/2 128/1/2
f 122/1/2 123/1/2 129/1/2
f 129/1/2 123/1/2 130/1/2
f 126/1/2 127/1/2 133/1/2
f 133/1/2 127/1/2 134/1/2
f 130/3/2 131/3/2 135/3/2
f 135/3/2 131/3/2 136/3/2
f 132/3/2 133/3/2 137/3/2
f 137/3/2 133/3/2 138/3/2
f 139/3/2 140/3/2 143/3/2
f 143/3/2 140/3/2 144/3/2
f 144/3/2 140/3/2 145/3/2
f 141/3/2 142/3/2 146/3/2
f 146/3/2 142/3/2 147/3/2
f 147/3/2 142/3/2 148/3/2
f 149/2/2 150/2/2 151/2/2
f 151/2/2 150/2/2 152/2/2
f 153/1/2 154/1/2 157/1/2
f 155/1/2 156/1/2 157/1/2
f 154/1/2 155/1/2 157/1/2
f 157/1/2 156/1/2 158/1/2
f 159/3/2 160/3/2 164/3/2
f 164/3/2 160/3/2 165/3/2
f 161/3/2 162/3/2 166/3/2
f 166/3/2 162/3/2 167/3/2
f 163/3/2 164/3/2 169/3/2
f 169/3/2 164/3/2 170/3/2
f 167/3/2 168/3/2 171/3/2
f 171/3/2 168/3/2 172/3/2
f 173/1/2 174/1/2 178/1/2
f 175/1/2 176/1/2 179/1/2
f 177/1/2 178/1/2 181/1/2
f 178/1/2 174/1/2 182/1/2
f 181/1/2 178/1/2 182/1/2
f 179/1/2 180/1/2 183/1/2
f 175/1/2 179/1/2 183/1/2
f 183/1/2 180/1/2 184/1/2
f 185/3/2 186/3/2 189/3/2
f 189/3/2 186/3/2 190/3/2
f 187/3/2 188/3/2 191/3/2
f 191/3/2 188/3/2 192/3/2
f 193/1/2 194/1/2 197/1/2
f 197/1/2 194/1/2 198/1/2
f 195/1/2 196/1/2 199/1/2
f 199/1/2 196/1/2 200/1/2
f 201/1/2 202/1/2 205/1/2
f 205/1/2 202/1/2 206/1/2
f 203/1/2 204/1/2 207/1/2
f 207/1/2 204/1/2 208/1/2
f 211/1/3 210/1/3 209/1/3
f 212/1/3 210/1/3 211/1/3
f 215/1/3 214/1/3 213/1/3
f 216/1/3 214/1/3 215/1/3
f 219/1/3 218/1/3 217/1/3
f 220/1/3 218/1/3 219/1/3
f 223/1/3 222/1/3 221/1/3
f 224/1/3 222/1/3 223/1/3
f 227/3/3 226/3/3 225/3/3
f 228/3/3 226/3/3 227/3/3
f 231/3/3 230/3/3 229/3/3
f 232/3/3 230/3/3 231/3/3
f 236/1/3 234/1/3 233/1/3
f 237/1/3 236/1/3 235/1/3
f 238/1/3 234/1/3 236/1/3
f 238/1/3 236/1/3 237/1/3
f 241/1/3 240/1/3 239/1/3
f 242/1/3 240/1/3 241/1/3
f 243/1/3 240/1/3 242/1/3
f 244/1/3 240/1/3 243/1/3
f 248/3/3 246/3/3 245/3/3
f 249/3/3 246/3/3 248/3/3
f 250/3/3 248/3/3 247/3/3
f 251/3/3 248/3/3 250/3/3
f 254/3/3 253/3/3 252/3/3
f 255/3/3 253/3/3 254/3/3
f 257/3/3 256/3/3 255/3/3
f 258/3/3 256/3/3 257/3/3
f 261/1/3 260/1/3 259/1/3
f 262/1/3 260/1/3 261/1/3
f 263/1/3 260/1/3 262/1/3
f 264/1/3 260/1/3 263/1/3
f 267/2/3 266/2/3 265/2/3
f 268/2/3 266/2/3 267/2/3
f 271/3/3 270/3/3 269/3/3
f 272/3/3 271/3/3 269/3/3
f 273/3/3 271/3/3 272/3/3
f 276/3/3 275/3/3 274/3/3
f 277/3/3 276/3/3 274/3/3
f 278/3/3 276/3/3 277/3/3
f 281/1/3 280/1/3 279/1/3
f 283/1/3 282/1/3 281/1/3
f 285/1/3 283/1/3 281/1/3
f 285/1/3 284/1/3 283/1/3
f 286/1/3 284/1/3 285/1/3
f 288/3/3 287/3/3 286/3/3
f 289/3/3 287/3/3 288/3/3
f 290/1/3 281/1/3 279/1/3
f 290/1/3 285/1/3 281/1/3
f 291/1/3 285/1/3 290/1/3
f 296/1/3 293/1/3 292/1/3
f 297/3/3 295/3/3 294/3/3
f 298/3/3 295/3/3 297/3/3
f 299/1/3 296/1/3 292/1/3
f 299/1/3 297/1/3 296/1/3
f 300/1/3 297/1/3 299/1/3
f 301/1/3 299/1/3 292/1/3
f 302/1/3 299/1/3 301/1/3
f 303/1/3 301/1/3 292/1/3
f 304/1/3 301/1/3 303/1/3
f 307/3/3 306/3/3 305/3/3
f 308/3/3 306/3/3 307/3/3
f 311/3/3 310/3/3 309/3/3
f 312/3/3 310/3/3 311/3/3
f 313/3/4 314/3/4 315/3/4
f 315/3/4 314/3/4 316/3/4
f 317/3/4 318/3/4 319/3/4
f 319/3/4 318/3/4 320/3/4
f 321/1/4 322/1/4 323/1/4
f 323/1/4 324/1/4 325/1/4
f 323/1/4 325/1/4 327/1/4
f 325/1/4 326/1/4 327/1/4
f 327/1/4 326/1/4 328/1/4
f 328/3/4 329/3/4 330/3/4
f 330/3/4 329/3/4 331/3/4
f 321/1/4 323/1/4 332/1/4
f 323/1/4 327/1/4 332/1/4
f 332/1/4 327/1/4 333/1/4
f 334/1/4 335/1/4 338/1/4
f 336/3/4 337/3/4 339/3/4
f 339/3/4 337/3/4 340/3/4
f 334/1/4 338/1/4 341/1/4
f 338/1/4 339/1/4 341/1/4
f 341/1/4 339/1/4 342/1/4
f 334/1/4 341/1/4 343/1/4
f 343/1/4 341/1/4 344/1/4
f 334/1/4 343/1/4 345/1/4
f 345/1/4 343/1/4 346/1/4
f 347/3/4 348/3/4 349/3/4
f 347/3/4 349/3/4 350/3/4
f 350/3/4 349/3/4 351/3/4
f 352/3/4 353/3/4 354/3/4
f 352/3/4 354/3/4 355/3/4
f 355/3/4 354/3/4 356/3/4
f 357/2/4 358/2/4 359/2/4
f 359/2/4 358/2/4 360/2/4
f 361/1/4 362/1/4 363/1/4
f 363/1/4 362/1/4 364/1/4
f 364/1/4 362/1/4 365/1/4
f 365/1/4 362/1/4 366/1/4
f 367/3/4 368/3/4 370/3/4
f 370/3/4 368/3/4 371/3/4
f 369/3/4 370/3/4 372/3/4
f 372/3/4 370/3/4 373/3/4
f 374/3/4 375/3/4 376/3/4
f 376/3/4 375/3/4 377/3/4
f 377/3/4 378/3/4 379/3/4
f 379/3/4 378/3/4 380/3/4
f 381/1/4 382/1/4 384/1/4
f 383/1/4 384/1/4 385/1/4
f 384/1/4 382/1/4 386/1/4
f 385/1/4 384/1/4 386/1/4
f 387/1/4 388/1/4 389/1/4
f 389/1/4 388/1/4 390/1/4
f 390/1/4 388/1/4 391/1/4
f 391/1/4 388/1/4 392/1/4
f 393/3/4 394/3/4 395/3/4
f 395/3/4 394/3/4 396/3/4
f 397/3/4 398/3/4 399/3/4
f 399/3/4 398/3/4 400/3/4
f 401/1/4 402/1/4 403/1/4
f 403/1/4 402/1/4 404/1/4
f 405/1/4 406/1/4 407/1/4
f 407/1/4 406/1/4 408/1/4
f 409/1/4 410/1/4 411/1/4
f 411/1/4 410/1/4 412/1/4
f 413/1/4 414/1/4 415/1/4
f 415/1/4 414/1/4 416/1/4
f 421/1/5 418/1/5 417/1/5
f 422/1/5 418/1/5 421/1/5
f 423/1/5 420/1/5 419/1/5
f 424/1/5 420/1/5 423/1/5
f 429/1/5 426/1/5 425/1/5
f 430/1/5 426/1/5 429/1/5
f 431/1/5 428/1/5 427/1/5
f 432/1/5 428/1/5 431/1/5
f 438/3/5 434/3/5 433/3/5
f 439/3/5 436/3/5 435/3/5
f 441/3/5 438/3/5 437/3/5
f 442/3/5 434/3/5 438/3/5
f 442/3/5 438/3/5 441/3/5
f 443/3/5 440/3/5 439/3/5
f 443/3/5 439/3/5 435/3/5
f 444/3/5 440/3/5 443/3/5
f 449/3/5 446/3/5 445/3/5
f 450/3/5 446/3/5 449/3/5
f 451/3/5 448/3/5 447/3/5
f 452/3/5 448/3/5 451/3/5
f 453/3/5 446/3/5 450/3/5
f 454/3/5 446/3/5 453/3/5
f 455/3/5 451/3/5 447/3/5
f 456/3/5 451/3/5 455/3/5
f 460/1/5 458/1/5 457/1/5
f 461/1/5 458/1/5 460/1/5
f 463/1/5 460/1/5 459/1/5
f 463/1/5 462/1/5 461/1/5
f 463/1/5 461/1/5 460/1/5
f 464/1/5 462/1/5 463/1/5
f 465/1/5 462/1/5 464/1/5
f 466/1/5 462/1/5 465/1/5
f 467/1/5 465/1/5 464/1/5
f 468/1/5 465/1/5 467/1/5
f 469/1/6 470/1/6 473/1/6
f 473/1/6 470/1/6 474/1/6
f 471/1/6 472/1/6 475/1/6
f 475/1/6 472/1/6 476/1/6
f 469/1/6 473/1/6 477/1/6
f 477/1/6 473/1/6 478/1/6
f 476/1/6 472/1/6 479/1/6
f 479/1/6 472/1/6 480/1/6
f 481/1/6 482/1/6 485/1/6
f 483/1/6 484/1/6 488/1/6
f 485/1/6 486/1/6 489/1/6
f 481/1/6 485/1/6 489/1/6
f 489/1/6 486/1/6 490/1/6
f 487/1/6 488/1/6 491/1/6
f 488/1/6 484/1/6 492/1/6
f 491/1/6 488/1/6 492/1/6
f 493/1/6 494/1/6 497/1/6
f 497/1/6 494/1/6 498/1/6
f 495/1/6 496/1/6 499/1/6
f 499/1/6 496/1/6 500/1/6
f 498/1/6 494/1/6 501/1/6
f 501/1/6 494/1/6 502/1/6
f 495/1/6 499/1/6 503/1/6
f 503/1/6 499/1/6 504/1/6
f 493/1/6 497/1/6 505/1/6
f 500/1/6 496/1/6 508/1/6
f 493/1/6 505/1/6 509/1/6
f 505/1/6 506/1/6 509/1/6
f 509/1/6 506/1/6 510/1/6
f 507/1/6 508/1/6 511/1/6
f 508/1/6 496/1/6 512/1/6
f 511/1/6 508/1/6 512/1/6
f 513/1/6 514/1/6 517/1/6
f 517/1/6 514/1/6 518/1/6
f 515/1/6 516/1/6 519/1/6
f 519/1/6 516/1/6 520/1/6
f 513/1/6 517/1/6 525/1/6
f 521/1/6 522/1/6 526/1/6
f 523/1/6 524/1/6 527/1/6
f 520/1/6 516/1/6 528/1/6
f 525/1/6 526/1/6 529/1/6
f 513/1/6 525/1/6 529/1/6
f 526/1/6 522/1/6 530/1/6
f 529/1/6 526/1/6 530/1/6
f 523/1/6 527/1/6 531/1/6
f 527/1/6 528/1/6 531/1/6
f 528/1/6 516/1/6 532/1/6
f 531/1/6 528/1/6 532/1/6
f 533/3/6 534/3/6 537/3/6
f 537/3/6 534/3/6 538/3/6
f 535/3/6 536/3/6 539/3/6
f 539/3/6 536/3/6 540/3/6
f 533/3/6 537/3/6 541/3/6
f 541/3/6 537/3/6 542/3/6
f 540/3/6 536/3/6 543/3/6
f 543/3/6 536/3/6 544/3/6
f 545/3/6 546/3/6 549/3/6
f 547/3/6 548/3/6 552/3/6
f 549/3/6 550/3/6 553/3/6
f 545/3/6 549/3/6 553/3/6
f 553/3/6 550/3/6 554/3/6
f 551/3/6 552/3/6 555/3/6
f 552/3/6 548/3/6 556/3/6
f 555/3/6 552/3/6 556/3/6
f 557/1/6 558/1/6 561/1/6
f 561/1/6 558/1/6 562/1/6
f 559/1/6 560/1/6 565/1/6
f 565/1/6 560/1/6 566/1/6
f 562/3/6 563/3/6 567/3/6
f 567/3/6 563/3/6 568/3/6
f 564/3/6 565/3/6 569/3/6
f 569/3/6 565/3/6 570/3/6
f 557/1/6 561/1/6 571/1/6
f 571/1/6 561/1/6 572/1/6
f 566/1/6 560/1/6 575/1/6
f 575/1/6 560/1/6 576/1/6
f 572/3/6 573/3/6 577/3/6
f 577/3/6 573/3/6 578/3/6
f 574/3/6 575/3/6 579/3/6
f 579/3/6 575/3/6 580/3/6
f 581/3/6 582/3/6 586/3/6
f 586/3/6 582/3/6 587/3/6
f 583/3/6 584/3/6 588/3/6
f 588/3/6 584/3/6 589/3/6
f 585/1/6 586/1/6 595/1/6
f 591/3/6 592/3/6 596/3/6
f 596/3/6 592/3/6 597/3/6
f 593/3/6 594/3/6 598/3/6
f 598/3/6 594/3/6 599/3/6
f 589/1/6 590/1/6 600/1/6
f 585/1/6 595/1/6 601/1/6
f 595/1/6 596/1/6 601/1/6
f 601/1/6 596/1/6 602/1/6
f 599/1/6 600/1/6 603/1/6
f 600/1/6 590/1/6 604/1/6
f 603/1/6 600/1/6 604/1/6
f 605/3/6 606/3/6 609/3/6
f 609/3/6 606/3/6 610/3/6
f 607/3/6 608/3/6 611/3/6
f 611/3/6 608/3/6 612/3/6
f 605/3/6 609/3/6 613/3/6
f 609/1/6 610/1/6 614/1/6
f 613/3/6 609/3/6 614/3/6
f 610/1/6 611/1/6 614/1/6
f 611/1/6 612/1/6 614/1/6
f 612/3/6 608/3/6 615/3/6
f 614/1/6 612/1/6 615/1/6
f 615/3/6 608/3/6 616/3/6
f 614/1/6 615/1/6 617/1/6
f 617/1/6 615/1/6 618/1/6
f 614/1/6 617/1/6 619/1/6
f 618/1/6 615/1/6 620/1/6
f 614/1/6 619/1/6 622/1/6
f 619/1/6 620/1/6 622/1/6
f 620/1/6 615/1/6 623/1/6
f 622/1/6 620/1/6 623/1/6
f 621/3/6 622/3/6 625/3/6
f 622/1/6 623/1/6 625/1/6
f 625/1/6 623/1/6 626/1/6
f 626/1/6 623/1/6 627/1/6
f 623/3/6 624/3/6 628/3/6
f 627/1/6 623/1/6 628/1/6
f 621/3/6 625/3/6 629/3/6
f 625/3/6 626/3/6 629/3/6
f 629/3/6 626/3/6 630/3/6
f 627/3/6 628/3/6 631/3/6
f 628/3/6 624/3/6 632/3/6
f 631/3/6 628/3/6 632/3/6
f 633/2/6 634/2/6 635/2/6
f 635/2/6 634/2/6 636/2/6
