# MagicaVoxel @ Ephtracy

# group
o 

# material
mtllib Helicopter-1.mtl
usemtl palette

# normals
vn -1 0 0
vn 1 0 0
vn 0 0 1
vn 0 0 -1
vn 0 -1 0
vn 0 1 0

# texcoords
vt 0.958984 0.5
vt 0.994141 0.5

# verts
v -1.7 0 0.0999999
v -1.7 0 -1.19209e-07
v -1.7 0.1 0.0999999
v -1.7 0.1 -1.19209e-07
v -1.7 0.1 -0.1
v -1.7 0.2 -1.19209e-07
v -1.7 0.2 -0.1
v -0.0999999 0 -1.19209e-07
v -0.0999999 0 -1.7
v -0.0999999 0.1 1.7
v -0.0999999 0.1 0.2
v -0.0999999 0.1 0.0999999
v -0.0999999 0.1 -1.19209e-07
v -0.0999999 0.1 -0.1
v -0.0999999 0.1 -1.7
v -0.0999999 0.2 1.7
v -0.0999999 0.2 0.2
v -0.0999999 0.2 0.0999999
v -0.0999999 0.2 -0.1
v 1.19209e-07 0 1.7
v 1.19209e-07 0 0.0999999
v 1.19209e-07 0.1 1.7
v 1.19209e-07 0.1 0.2
v 1.19209e-07 0.1 0.0999999
v 1.19209e-07 0.1 -0.2
v 1.19209e-07 0.1 -1.7
v 1.19209e-07 0.2 -0.2
v 1.19209e-07 0.2 -1.7
v 0.2 0.1 0.0999999
v 0.2 0.1 -1.19209e-07
v 0.2 0.2 0.0999999
v 0.2 0.2 -1.19209e-07
v -0.2 0.1 -1.19209e-07
v -0.2 0.1 -0.1
v -0.2 0.2 -1.19209e-07
v -0.2 0.2 -0.1
v 1.19209e-07 0 -0.1
v 1.19209e-07 0 -1.7
v 1.19209e-07 0.1 1.7
v 1.19209e-07 0.1 0.2
v 1.19209e-07 0.1 -0.1
v 1.19209e-07 0.1 -0.2
v 1.19209e-07 0.1 -1.7
v 1.19209e-07 0.2 1.7
v 1.19209e-07 0.2 0.2
v 0.1 0 1.7
v 0.1 0 -1.19209e-07
v 0.1 0.1 1.7
v 0.1 0.1 0.0999999
v 0.1 0.1 -1.19209e-07
v 0.1 0.1 -0.1
v 0.1 0.1 -0.2
v 0.1 0.1 -1.7
v 0.1 0.2 0.0999999
v 0.1 0.2 -0.1
v 0.1 0.2 -0.2
v 0.1 0.2 -1.7
v 1.7 0 -1.19209e-07
v 1.7 0 -0.1
v 1.7 0.1 0.0999999
v 1.7 0.1 -1.19209e-07
v 1.7 0.1 -0.1
v 1.7 0.2 0.0999999
v 1.7 0.2 -1.19209e-07
v -0.0999999 0.1 1.7
v -0.0999999 0.2 1.7
v 1.19209e-07 0 1.7
v 1.19209e-07 0.1 1.7
v 1.19209e-07 0.2 1.7
v 0.1 0 1.7
v 0.1 0.1 1.7
v -1.7 0 0.0999999
v -1.7 0.1 0.0999999
v -0.0999999 0.1 0.0999999
v -0.0999999 0.2 0.0999999
v 1.19209e-07 0 0.0999999
v 1.19209e-07 0.1 0.0999999
v 0.1 0.1 0.0999999
v 0.1 0.2 0.0999999
v 0.2 0.1 0.0999999
v 0.2 0.2 0.0999999
v 1.7 0.1 0.0999999
v 1.7 0.2 0.0999999
v -1.7 0.1 -1.19209e-07
v -1.7 0.2 -1.19209e-07
v -0.2 0.1 -1.19209e-07
v -0.2 0.2 -1.19209e-07
v 0.1 0 -1.19209e-07
v 0.1 0.1 -1.19209e-07
v 0.2 0.1 -1.19209e-07
v 1.7 0 -1.19209e-07
v 1.7 0.1 -1.19209e-07
v 1.19209e-07 0.1 -0.2
v 1.19209e-07 0.2 -0.2
v 0.1 0.1 -0.2
v 0.1 0.2 -0.2
v -0.0999999 0.1 0.2
v -0.0999999 0.2 0.2
v 1.19209e-07 0.1 0.2
v 1.19209e-07 0.2 0.2
v -1.7 0 -1.19209e-07
v -1.7 0.1 -1.19209e-07
v -0.2 0.1 -1.19209e-07
v -0.0999999 0 -1.19209e-07
v -0.0999999 0.1 -1.19209e-07
v 0.2 0.1 -1.19209e-07
v 0.2 0.2 -1.19209e-07
v 1.7 0.1 -1.19209e-07
v 1.7 0.2 -1.19209e-07
v -1.7 0.1 -0.1
v -1.7 0.2 -0.1
v -0.2 0.1 -0.1
v -0.2 0.2 -0.1
v -0.0999999 0.1 -0.1
v -0.0999999 0.2 -0.1
v 1.19209e-07 0 -0.1
v 1.19209e-07 0.1 -0.1
v 0.1 0.1 -0.1
v 0.1 0.2 -0.1
v 1.7 0 -0.1
v 1.7 0.1 -0.1
v -0.0999999 0 -1.7
v -0.0999999 0.1 -1.7
v 1.19209e-07 0 -1.7
v 1.19209e-07 0.1 -1.7
v 1.19209e-07 0.2 -1.7
v 0.1 0.1 -1.7
v 0.1 0.2 -1.7
v 1.19209e-07 0 1.7
v 0.1 0 1.7
v -1.7 0 0.0999999
v 1.19209e-07 0 0.0999999
v -1.7 0 -1.19209e-07
v -0.0999999 0 -1.19209e-07
v 0.1 0 -1.19209e-07
v 1.7 0 -1.19209e-07
v 1.19209e-07 0 -0.1
v 1.7 0 -0.1
v -0.0999999 0 -1.7
v 1.19209e-07 0 -1.7
v -0.0999999 0.1 1.7
v 1.19209e-07 0.1 1.7
v -0.0999999 0.1 0.2
v 1.19209e-07 0.1 0.2
v 0.2 0.1 0.0999999
v 1.7 0.1 0.0999999
v -1.7 0.1 -1.19209e-07
v -0.2 0.1 -1.19209e-07
v 0.2 0.1 -1.19209e-07
v 1.7 0.1 -1.19209e-07
v -1.7 0.1 -0.1
v -0.2 0.1 -0.1
v 1.19209e-07 0.1 -0.2
v 0.1 0.1 -0.2
v 1.19209e-07 0.1 -1.7
v 0.1 0.1 -1.7
v 1.19209e-07 0.1 1.7
v 0.1 0.1 1.7
v 1.19209e-07 0.1 0.2
v -1.7 0.1 0.0999999
v -0.0999999 0.1 0.0999999
v 1.19209e-07 0.1 0.0999999
v 0.1 0.1 0.0999999
v -1.7 0.1 -1.19209e-07
v -0.2 0.1 -1.19209e-07
v -0.0999999 0.1 -1.19209e-07
v 0.1 0.1 -1.19209e-07
v 0.2 0.1 -1.19209e-07
v 1.7 0.1 -1.19209e-07
v -0.0999999 0.1 -0.1
v 1.19209e-07 0.1 -0.1
v 0.1 0.1 -0.1
v 1.7 0.1 -0.1
v 1.19209e-07 0.1 -0.2
v -0.0999999 0.1 -1.7
v 1.19209e-07 0.1 -1.7
v -0.0999999 0.2 1.7
v 1.19209e-07 0.2 1.7
v -0.0999999 0.2 0.2
v 1.19209e-07 0.2 0.2
v -0.0999999 0.2 0.0999999
v 0.1 0.2 0.0999999
v 0.2 0.2 0.0999999
v 1.7 0.2 0.0999999
v -1.7 0.2 -1.19209e-07
v -0.2 0.2 -1.19209e-07
v 0.2 0.2 -1.19209e-07
v 1.7 0.2 -1.19209e-07
v -1.7 0.2 -0.1
v -0.2 0.2 -0.1
v -0.0999999 0.2 -0.1
v 0.1 0.2 -0.1
v 1.19209e-07 0.2 -0.2
v 0.1 0.2 -0.2
v 1.19209e-07 0.2 -1.7
v 0.1 0.2 -1.7

# faces
f 3/1/1 2/1/1 1/1/1
f 4/1/1 2/1/1 3/1/1
f 6/1/1 5/1/1 4/1/1
f 7/1/1 5/1/1 6/1/1
f 13/1/1 9/1/1 8/1/1
f 14/1/1 9/1/1 13/1/1
f 15/1/1 9/1/1 14/1/1
f 16/1/1 11/1/1 10/1/1
f 17/1/1 11/1/1 16/1/1
f 18/2/1 13/2/1 12/2/1
f 18/2/1 14/2/1 13/2/1
f 19/2/1 14/2/1 18/2/1
f 22/1/1 21/1/1 20/1/1
f 23/1/1 21/1/1 22/1/1
f 24/1/1 21/1/1 23/1/1
f 27/1/1 26/1/1 25/1/1
f 28/1/1 26/1/1 27/1/1
f 31/1/1 30/1/1 29/1/1
f 32/1/1 30/1/1 31/1/1
f 33/1/2 34/1/2 35/1/2
f 35/1/2 34/1/2 36/1/2
f 37/1/2 38/1/2 41/1/2
f 41/1/2 38/1/2 42/1/2
f 42/1/2 38/1/2 43/1/2
f 39/1/2 40/1/2 44/1/2
f 44/1/2 40/1/2 45/1/2
f 46/1/2 47/1/2 48/1/2
f 48/1/2 47/1/2 49/1/2
f 49/1/2 47/1/2 50/1/2
f 49/2/2 50/2/2 54/2/2
f 50/2/2 51/2/2 54/2/2
f 54/2/2 51/2/2 55/2/2
f 52/1/2 53/1/2 56/1/2
f 56/1/2 53/1/2 57/1/2
f 58/1/2 59/1/2 61/1/2
f 61/1/2 59/1/2 62/1/2
f 60/1/2 61/1/2 63/1/2
f 63/1/2 61/1/2 64/1/2
f 68/1/3 66/1/3 65/1/3
f 69/1/3 66/1/3 68/1/3
f 70/1/3 68/1/3 67/1/3
f 71/1/3 68/1/3 70/1/3
f 74/1/3 73/1/3 72/1/3
f 76/1/3 74/1/3 72/1/3
f 77/2/3 75/2/3 74/2/3
f 77/1/3 74/1/3 76/1/3
f 78/2/3 75/2/3 77/2/3
f 79/2/3 75/2/3 78/2/3
f 82/1/3 81/1/3 80/1/3
f 83/1/3 81/1/3 82/1/3
f 86/1/3 85/1/3 84/1/3
f 87/1/3 85/1/3 86/1/3
f 90/1/3 89/1/3 88/1/3
f 91/1/3 90/1/3 88/1/3
f 92/1/3 90/1/3 91/1/3
f 95/1/3 94/1/3 93/1/3
f 96/1/3 94/1/3 95/1/3
f 97/1/4 98/1/4 99/1/4
f 99/1/4 98/1/4 100/1/4
f 101/1/4 102/1/4 103/1/4
f 101/1/4 103/1/4 104/1/4
f 104/1/4 103/1/4 105/1/4
f 106/1/4 107/1/4 108/1/4
f 108/1/4 107/1/4 109/1/4
f 110/1/4 111/1/4 112/1/4
f 112/1/4 111/1/4 113/1/4
f 114/2/4 115/2/4 117/2/4
f 117/2/4 115/2/4 118/2/4
f 116/1/4 117/1/4 118/1/4
f 118/2/4 115/2/4 119/2/4
f 116/1/4 118/1/4 120/1/4
f 120/1/4 118/1/4 121/1/4
f 122/1/4 123/1/4 124/1/4
f 124/1/4 123/1/4 125/1/4
f 125/1/4 126/1/4 127/1/4
f 127/1/4 126/1/4 128/1/4
f 132/1/5 130/1/5 129/1/5
f 133/1/5 132/1/5 131/1/5
f 134/1/5 132/1/5 133/1/5
f 135/1/5 130/1/5 132/1/5
f 135/1/5 132/1/5 134/1/5
f 137/1/5 136/1/5 135/1/5
f 137/1/5 135/1/5 134/1/5
f 138/1/5 136/1/5 137/1/5
f 139/1/5 137/1/5 134/1/5
f 140/1/5 137/1/5 139/1/5
f 143/1/5 142/1/5 141/1/5
f 144/1/5 142/1/5 143/1/5
f 149/1/5 146/1/5 145/1/5
f 150/1/5 146/1/5 149/1/5
f 151/1/5 148/1/5 147/1/5
f 152/1/5 148/1/5 151/1/5
f 155/1/5 154/1/5 153/1/5
f 156/1/5 154/1/5 155/1/5
f 157/1/6 158/1/6 159/1/6
f 159/1/6 158/1/6 162/1/6
f 162/1/6 158/1/6 163/1/6
f 160/1/6 161/1/6 164/1/6
f 164/1/6 161/1/6 165/1/6
f 165/1/6 161/1/6 166/1/6
f 168/1/6 169/1/6 172/1/6
f 167/1/6 168/1/6 172/1/6
f 172/1/6 169/1/6 173/1/6
f 170/1/6 171/1/6 174/1/6
f 170/1/6 174/1/6 175/1/6
f 175/1/6 174/1/6 176/1/6
f 177/1/6 178/1/6 179/1/6
f 179/1/6 178/1/6 180/1/6
f 183/1/6 184/1/6 187/1/6
f 187/1/6 184/1/6 188/1/6
f 185/1/6 186/1/6 189/1/6
f 189/1/6 186/1/6 190/1/6
f 181/2/6 182/2/6 191/2/6
f 191/2/6 182/2/6 192/2/6
f 193/1/6 194/1/6 195/1/6
f 195/1/6 194/1/6 196/1/6
