# MagicaVoxel @ Ephtracy

# group
o 

# material
mtllib Autocannon2-4.mtl
usemtl palette

# normals
vn -1 0 0
vn 1 0 0
vn 0 0 1
vn 0 0 -1
vn 0 -1 0
vn 0 1 0

# texcoords
vt 0.646484 0.5
vt 0.708984 0.5
vt 0.775391 0.5
vt 0.837891 0.5

# verts
v 2 0.4 0.1
v 2 0.4 -0.1
v 2 0.6 0.1
v 2 0.6 -0.1
v 3.5 0.2 0.2
v 3.5 0.2 -0.2
v 3.5 0.3 0.2
v 3.5 0.3 -0.2
v 3.6 0.2 0.3
v 3.6 0.2 0.2
v 3.6 0.2 -0.2
v 3.6 0.2 -0.3
v 3.6 0.3 0.3
v 3.6 0.3 0.2
v 3.6 0.3 -0.2
v 3.6 0.3 -0.3
v 3.7 0.2 0.4
v 3.7 0.2 0.3
v 3.7 0.2 -0.3
v 3.7 0.2 -0.4
v 3.7 0.3 0.4
v 3.7 0.3 0.3
v 3.7 0.3 -0.3
v 3.7 0.3 -0.4
v 3.8 0.2 0.5
v 3.8 0.2 0.4
v 3.8 0.2 -0.4
v 3.8 0.2 -0.6
v 3.8 0.3 0.5
v 3.8 0.3 0.4
v 3.8 0.3 -0.4
v 3.8 0.3 -0.6
v 3.9 0.3 -0.2
v 3.9 0.3 -0.4
v 3.9 0.4 -0.2
v 3.9 0.4 -0.4
v 4.1 0.4 -0.2
v 4.1 0.4 -0.4
v 4.1 0.5 -0.2
v 4.1 0.5 -0.4
v 4.2 0.3 -0.1
v 4.2 0.3 -0.2
v 4.2 0.3 -0.4
v 4.2 0.3 -0.5
v 4.2 0.4 -0.1
v 4.2 0.4 -0.2
v 4.2 0.4 -0.4
v 4.2 0.4 -0.5
v 4.3 0.3 0.2
v 4.3 0.3 -0.1
v 4.3 0.4 0.1
v 4.3 0.4 -0.1
v 4.3 0.4 -0.2
v 4.3 0.5 -0.2
v 4.3 0.6 0.1
v 4.3 0.6 -0.1
v 4.3 0.7 0.2
v 4.3 0.7 -0.2
v 4.5 0.4 -0.4
v 4.5 0.4 -0.5
v 4.5 0.5 -0.2
v 4.5 0.5 -0.4
v 4.5 0.6 -0.2
v 4.5 0.6 -0.5
v 4.6 0.3 -0.5
v 4.6 0.3 -0.6
v 4.6 0.4 -0.5
v 4.6 0.6 -0.4
v 4.6 0.6 -0.5
v 4.6 0.6 -0.6
v 4.6 0.7 -0.4
v 4.6 0.7 -0.5
v 4.7 0.6 -0.2
v 4.7 0.6 -0.4
v 4.7 0.7 -0.2
v 4.7 0.7 -0.4
v 4.9 0.3 0.3
v 4.9 0.3 0.2
v 4.9 0.4 0.4
v 4.9 0.4 0.3
v 4.9 0.4 0.2
v 4.9 0.4 0.1
v 4.9 0.6 0.4
v 4.9 0.6 0.3
v 4.9 0.6 0.1
v 4.9 0.7 0.3
v 4.9 0.7 0.1
v 5.3 0.3 0.3
v 5.3 0.3 0.2
v 5.3 0.4 0.4
v 5.3 0.4 0.3
v 5.3 0.4 0.2
v 5.3 0.6 0.4
v 5.3 0.6 0.3
v 5.3 0.6 0.1
v 5.3 0.7 0.3
v 5.3 0.7 0.1
v 4.5 0.2 0.5
v 4.5 0.2 0.4
v 4.5 0.2 -0.4
v 4.5 0.2 -0.6
v 4.5 0.3 0.5
v 4.5 0.3 0.4
v 4.5 0.3 -0.4
v 4.5 0.3 -0.5
v 4.5 0.3 -0.6
v 4.5 0.4 0.2
v 4.5 0.4 0.1
v 4.5 0.6 0.2
v 4.5 0.6 0.1
v 4.6 0.6 0.2
v 4.6 0.6 0.1
v 4.6 0.7 0.2
v 4.6 0.7 0.1
v 4.7 0.2 0.4
v 4.7 0.2 0.2
v 4.7 0.2 -0.2
v 4.7 0.2 -0.4
v 4.7 0.3 0.4
v 4.7 0.3 0.2
v 4.7 0.3 -0.2
v 4.7 0.3 -0.4
v 4.9 0.6 -0.2
v 4.9 0.6 -0.3
v 4.9 0.7 -0.2
v 4.9 0.7 -0.3
v 5 0.2 0.2
v 5 0.2 -0.2
v 5 0.3 0.2
v 5 0.3 0.1
v 5 0.3 -0.2
v 5 0.6 0
v 5 0.6 -0.1
v 5 0.7 0
v 5 0.7 -0.1
v 5.1 0.3 0.3
v 5.1 0.3 0.2
v 5.1 0.4 0.4
v 5.1 0.4 0.3
v 5.1 0.4 0.2
v 5.1 0.6 0.4
v 5.1 0.6 0.3
v 5.1 0.6 0.1
v 5.1 0.7 0.3
v 5.1 0.7 0.1
v 5.3 0.3 -0.2
v 5.3 0.3 -0.3
v 5.3 0.3 -0.5
v 5.3 0.3 -0.6
v 5.3 0.6 -0.2
v 5.3 0.6 -0.3
v 5.3 0.6 -0.5
v 5.3 0.6 -0.6
v 5.4 0.3 -0.1
v 5.4 0.3 -0.2
v 5.4 0.3 -0.3
v 5.4 0.3 -0.5
v 5.4 0.4 -0.1
v 5.4 0.6 -0.1
v 5.4 0.7 -0.1
v 5.4 0.7 -0.2
v 5.4 0.7 -0.3
v 5.4 0.7 -0.5
v 5.5 0.3 0.3
v 5.5 0.3 0.2
v 5.5 0.3 0
v 5.5 0.3 -0.1
v 5.5 0.4 0.4
v 5.5 0.4 0.3
v 5.5 0.4 0.2
v 5.5 0.4 0
v 5.5 0.4 -0.1
v 5.5 0.6 0.4
v 5.5 0.6 0.3
v 5.5 0.6 0.2
v 5.5 0.7 0.3
v 5.5 0.7 0.2
v 5.6 0.4 0.3
v 5.6 0.4 0.2
v 5.6 0.4 0
v 5.6 0.4 -0.1
v 5.6 0.6 0.3
v 5.6 0.6 0.2
v 5.6 0.6 0
v 5.6 0.6 -0.1
v 5.6 0.7 0.2
v 5.6 0.7 0
v 5.7 0.3 0.2
v 5.7 0.3 0
v 5.7 0.6 0.2
v 5.7 0.6 0
v 3.8 0.2 0.5
v 3.8 0.3 0.5
v 4.5 0.2 0.5
v 4.5 0.3 0.5
v 3.7 0.2 0.4
v 3.7 0.3 0.4
v 3.8 0.2 0.4
v 3.8 0.3 0.4
v 4.5 0.2 0.4
v 4.5 0.3 0.4
v 4.7 0.2 0.4
v 4.7 0.3 0.4
v 4.9 0.4 0.4
v 4.9 0.6 0.4
v 5.1 0.4 0.4
v 5.1 0.6 0.4
v 5.3 0.4 0.4
v 5.3 0.6 0.4
v 5.5 0.4 0.4
v 5.5 0.6 0.4
v 3.6 0.2 0.3
v 3.6 0.3 0.3
v 3.7 0.2 0.3
v 3.7 0.3 0.3
v 4.9 0.3 0.3
v 4.9 0.4 0.3
v 4.9 0.6 0.3
v 4.9 0.7 0.3
v 5.1 0.3 0.3
v 5.1 0.4 0.3
v 5.1 0.6 0.3
v 5.1 0.7 0.3
v 5.3 0.3 0.3
v 5.3 0.4 0.3
v 5.3 0.6 0.3
v 5.3 0.7 0.3
v 5.5 0.3 0.3
v 5.5 0.4 0.3
v 5.5 0.6 0.3
v 5.5 0.7 0.3
v 5.6 0.4 0.3
v 5.6 0.6 0.3
v 3.5 0.2 0.2
v 3.5 0.3 0.2
v 3.6 0.2 0.2
v 3.6 0.3 0.2
v 4.3 0.3 0.2
v 4.3 0.7 0.2
v 4.5 0.4 0.2
v 4.5 0.6 0.2
v 4.6 0.6 0.2
v 4.6 0.7 0.2
v 4.7 0.2 0.2
v 4.7 0.3 0.2
v 4.9 0.3 0.2
v 4.9 0.4 0.2
v 5 0.2 0.2
v 5 0.3 0.2
v 5.1 0.3 0.2
v 5.1 0.4 0.2
v 5.3 0.3 0.2
v 5.3 0.4 0.2
v 5.5 0.3 0.2
v 5.5 0.4 0.2
v 5.5 0.6 0.2
v 5.5 0.7 0.2
v 5.6 0.4 0.2
v 5.6 0.6 0.2
v 5.6 0.7 0.2
v 5.7 0.3 0.2
v 5.7 0.6 0.2
v 2 0.4 0.1
v 2 0.6 0.1
v 4.3 0.4 0.1
v 4.3 0.6 0.1
v 4.5 0.4 0.1
v 4.5 0.6 0.1
v 4.6 0.6 0.1
v 4.6 0.7 0.1
v 4.7 0.4 0.1
v 4.7 0.7 0.1
v 4.9 0.4 0.1
v 4.9 0.6 0.1
v 4.9 0.7 0.1
v 5.1 0.6 0.1
v 5.1 0.7 0.1
v 5.3 0.6 0.1
v 5.3 0.7 0.1
v 4.2 0.3 -0.1
v 4.2 0.4 -0.1
v 4.3 0.3 -0.1
v 4.3 0.4 -0.1
v 5 0.6 -0.1
v 5 0.7 -0.1
v 5.4 0.6 -0.1
v 5.4 0.7 -0.1
v 3.9 0.3 -0.2
v 3.9 0.4 -0.2
v 4.1 0.4 -0.2
v 4.1 0.5 -0.2
v 4.2 0.3 -0.2
v 4.2 0.4 -0.2
v 4.3 0.4 -0.2
v 4.3 0.5 -0.2
v 4.9 0.6 -0.3
v 4.9 0.7 -0.3
v 5.3 0.3 -0.3
v 5.3 0.6 -0.3
v 5.4 0.3 -0.3
v 5.4 0.7 -0.3
v 4.6 0.6 -0.4
v 4.6 0.7 -0.4
v 4.7 0.6 -0.4
v 4.7 0.7 -0.4
v 5 0.6 0
v 5 0.7 0
v 5.5 0.3 0
v 5.5 0.4 0
v 5.6 0.4 0
v 5.6 0.6 0
v 5.6 0.7 0
v 5.7 0.3 0
v 5.7 0.6 0
v 2 0.4 -0.1
v 2 0.6 -0.1
v 4.2 0.4 -0.1
v 4.3 0.4 -0.1
v 4.3 0.6 -0.1
v 5.4 0.3 -0.1
v 5.4 0.4 -0.1
v 5.4 0.6 -0.1
v 5.5 0.3 -0.1
v 5.5 0.4 -0.1
v 5.6 0.4 -0.1
v 5.6 0.6 -0.1
v 3.5 0.2 -0.2
v 3.5 0.3 -0.2
v 3.6 0.2 -0.2
v 3.6 0.3 -0.2
v 4.3 0.5 -0.2
v 4.3 0.7 -0.2
v 4.5 0.5 -0.2
v 4.5 0.6 -0.2
v 4.6 0.6 -0.2
v 4.7 0.2 -0.2
v 4.7 0.3 -0.2
v 4.7 0.6 -0.2
v 4.7 0.7 -0.2
v 4.9 0.6 -0.2
v 4.9 0.7 -0.2
v 5 0.2 -0.2
v 5 0.3 -0.2
v 5.3 0.3 -0.2
v 5.3 0.6 -0.2
v 5.4 0.3 -0.2
v 5.4 0.7 -0.2
v 3.6 0.2 -0.3
v 3.6 0.3 -0.3
v 3.7 0.2 -0.3
v 3.7 0.3 -0.3
v 3.7 0.2 -0.4
v 3.7 0.3 -0.4
v 3.8 0.2 -0.4
v 3.8 0.3 -0.4
v 3.9 0.3 -0.4
v 3.9 0.4 -0.4
v 4.1 0.4 -0.4
v 4.1 0.5 -0.4
v 4.2 0.3 -0.4
v 4.2 0.4 -0.4
v 4.5 0.2 -0.4
v 4.5 0.3 -0.4
v 4.5 0.4 -0.4
v 4.5 0.5 -0.4
v 4.7 0.2 -0.4
v 4.7 0.3 -0.4
v 4.2 0.3 -0.5
v 4.2 0.4 -0.5
v 4.5 0.3 -0.5
v 4.5 0.4 -0.5
v 4.5 0.6 -0.5
v 4.6 0.3 -0.5
v 4.6 0.4 -0.5
v 4.6 0.6 -0.5
v 4.6 0.7 -0.5
v 5.3 0.3 -0.5
v 5.3 0.6 -0.5
v 5.4 0.3 -0.5
v 5.4 0.7 -0.5
v 3.8 0.2 -0.6
v 3.8 0.3 -0.6
v 4.5 0.2 -0.6
v 4.5 0.3 -0.6
v 4.6 0.3 -0.6
v 4.6 0.6 -0.6
v 5.3 0.3 -0.6
v 5.3 0.6 -0.6
v 3.8 0.2 0.5
v 4.5 0.2 0.5
v 3.7 0.2 0.4
v 3.8 0.2 0.4
v 4.5 0.2 0.4
v 4.7 0.2 0.4
v 3.6 0.2 0.3
v 3.7 0.2 0.3
v 3.5 0.2 0.2
v 3.6 0.2 0.2
v 4.7 0.2 0.2
v 5 0.2 0.2
v 3.5 0.2 -0.2
v 3.6 0.2 -0.2
v 4.7 0.2 -0.2
v 5 0.2 -0.2
v 3.6 0.2 -0.3
v 3.7 0.2 -0.3
v 3.7 0.2 -0.4
v 3.8 0.2 -0.4
v 4.5 0.2 -0.4
v 4.7 0.2 -0.4
v 3.8 0.2 -0.6
v 4.5 0.2 -0.6
v 4.9 0.3 0.3
v 5.1 0.3 0.3
v 5.3 0.3 0.3
v 5.5 0.3 0.3
v 4.9 0.3 0.2
v 5 0.3 0.2
v 5.1 0.3 0.2
v 5.3 0.3 0.2
v 5.5 0.3 0.2
v 5.7 0.3 0.2
v 5 0.3 0.1
v 5.4 0.3 0.1
v 5.5 0.3 0
v 5.7 0.3 0
v 5.3 0.3 -0.1
v 5.4 0.3 -0.1
v 5.5 0.3 -0.1
v 4.7 0.3 -0.2
v 5 0.3 -0.2
v 5.3 0.3 -0.2
v 5.4 0.3 -0.2
v 5.3 0.3 -0.3
v 5.4 0.3 -0.3
v 4.5 0.3 -0.4
v 4.7 0.3 -0.4
v 4.5 0.3 -0.5
v 4.6 0.3 -0.5
v 5.3 0.3 -0.5
v 5.4 0.3 -0.5
v 4.6 0.3 -0.6
v 5.3 0.3 -0.6
v 4.9 0.4 0.4
v 5.1 0.4 0.4
v 5.3 0.4 0.4
v 5.5 0.4 0.4
v 4.9 0.4 0.3
v 5.1 0.4 0.3
v 5.3 0.4 0.3
v 5.5 0.4 0.3
v 5.6 0.4 0.3
v 5.1 0.4 0.2
v 5.3 0.4 0.2
v 5.5 0.4 0.2
v 5.6 0.4 0.2
v 2 0.4 0.1
v 4.3 0.4 0.1
v 5.5 0.4 0
v 5.6 0.4 0
v 2 0.4 -0.1
v 4.2 0.4 -0.1
v 4.3 0.4 -0.1
v 5.5 0.4 -0.1
v 5.6 0.4 -0.1
v 4.5 0.6 0.2
v 4.6 0.6 0.2
v 4.5 0.6 0.1
v 4.6 0.6 0.1
v 3.8 0.3 0.5
v 4.5 0.3 0.5
v 3.7 0.3 0.4
v 3.8 0.3 0.4
v 4.5 0.3 0.4
v 4.7 0.3 0.4
v 3.6 0.3 0.3
v 3.7 0.3 0.3
v 3.5 0.3 0.2
v 3.6 0.3 0.2
v 4.3 0.3 0.2
v 4.7 0.3 0.2
v 4.2 0.3 -0.1
v 4.3 0.3 -0.1
v 3.5 0.3 -0.2
v 3.6 0.3 -0.2
v 3.9 0.3 -0.2
v 4.2 0.3 -0.2
v 3.6 0.3 -0.3
v 3.7 0.3 -0.3
v 3.7 0.3 -0.4
v 3.8 0.3 -0.4
v 3.9 0.3 -0.4
v 4.2 0.3 -0.4
v 4.2 0.3 -0.5
v 4.5 0.3 -0.5
v 3.8 0.3 -0.6
v 4.5 0.3 -0.6
v 4.5 0.4 0.2
v 4.9 0.4 0.2
v 4.5 0.4 0.1
v 4.7 0.4 0.1
v 4.9 0.4 0.1
v 4.2 0.4 -0.1
v 4.3 0.4 -0.1
v 3.9 0.4 -0.2
v 4.1 0.4 -0.2
v 4.2 0.4 -0.2
v 4.3 0.4 -0.2
v 3.9 0.4 -0.4
v 4.1 0.4 -0.4
v 4.2 0.4 -0.4
v 4.5 0.4 -0.4
v 4.2 0.4 -0.5
v 4.5 0.4 -0.5
v 4.1 0.5 -0.2
v 4.3 0.5 -0.2
v 4.5 0.5 -0.2
v 4.1 0.5 -0.4
v 4.5 0.5 -0.4
v 4.9 0.6 0.4
v 5.1 0.6 0.4
v 5.3 0.6 0.4
v 5.5 0.6 0.4
v 4.9 0.6 0.3
v 5.1 0.6 0.3
v 5.3 0.6 0.3
v 5.5 0.6 0.3
v 5.6 0.6 0.3
v 5.5 0.6 0.2
v 5.6 0.6 0.2
v 5.7 0.6 0.2
v 2 0.6 0.1
v 4.3 0.6 0.1
v 5.1 0.6 0.1
v 5.3 0.6 0.1
v 5 0.6 0
v 5.6 0.6 0
v 5.7 0.6 0
v 2 0.6 -0.1
v 4.3 0.6 -0.1
v 5 0.6 -0.1
v 5.4 0.6 -0.1
v 5.6 0.6 -0.1
v 4.5 0.6 -0.2
v 4.6 0.6 -0.2
v 4.7 0.6 -0.2
v 4.9 0.6 -0.2
v 5.3 0.6 -0.2
v 4.9 0.6 -0.3
v 5.3 0.6 -0.3
v 4.6 0.6 -0.4
v 4.7 0.6 -0.4
v 4.5 0.6 -0.5
v 4.6 0.6 -0.5
v 5.3 0.6 -0.5
v 4.6 0.6 -0.6
v 5.3 0.6 -0.6
v 4.9 0.7 0.3
v 5.1 0.7 0.3
v 5.3 0.7 0.3
v 5.5 0.7 0.3
v 4.3 0.7 0.2
v 4.6 0.7 0.2
v 5.5 0.7 0.2
v 5.6 0.7 0.2
v 4.4 0.7 0.1
v 4.6 0.7 0.1
v 4.7 0.7 0.1
v 4.9 0.7 0.1
v 5 0.7 0.1
v 5.1 0.7 0.1
v 5.3 0.7 0.1
v 5 0.7 0
v 5.6 0.7 0
v 4.4 0.7 -0.1
v 4.7 0.7 -0.1
v 4.9 0.7 -0.1
v 5 0.7 -0.1
v 5.4 0.7 -0.1
v 4.3 0.7 -0.2
v 4.7 0.7 -0.2
v 4.9 0.7 -0.2
v 5.4 0.7 -0.2
v 4.9 0.7 -0.3
v 5.4 0.7 -0.3
v 4.6 0.7 -0.4
v 4.7 0.7 -0.4
v 4.6 0.7 -0.5
v 5.4 0.7 -0.5

# faces
f 3/2/1 2/2/1 1/2/1
f 4/2/1 2/2/1 3/2/1
f 7/3/1 6/3/1 5/3/1
f 8/3/1 6/3/1 7/3/1
f 13/3/1 10/3/1 9/3/1
f 14/3/1 10/3/1 13/3/1
f 15/3/1 12/3/1 11/3/1
f 16/3/1 12/3/1 15/3/1
f 21/3/1 18/3/1 17/3/1
f 22/3/1 18/3/1 21/3/1
f 23/3/1 20/3/1 19/3/1
f 24/3/1 20/3/1 23/3/1
f 29/3/1 26/3/1 25/3/1
f 30/3/1 26/3/1 29/3/1
f 31/3/1 28/3/1 27/3/1
f 32/3/1 28/3/1 31/3/1
f 35/3/1 34/3/1 33/3/1
f 36/3/1 34/3/1 35/3/1
f 39/3/1 38/3/1 37/3/1
f 40/3/1 38/3/1 39/3/1
f 45/4/1 42/4/1 41/4/1
f 46/4/1 42/4/1 45/4/1
f 47/4/1 44/4/1 43/4/1
f 48/4/1 44/4/1 47/4/1
f 51/4/1 50/4/1 49/4/1
f 52/4/1 50/4/1 51/4/1
f 54/4/1 53/4/1 52/4/1
f 55/4/1 51/4/1 49/4/1
f 56/4/1 54/4/1 52/4/1
f 57/4/1 55/4/1 49/4/1
f 57/4/1 56/4/1 55/4/1
f 58/4/1 54/4/1 56/4/1
f 58/4/1 56/4/1 57/4/1
f 62/4/1 60/4/1 59/4/1
f 63/4/1 62/4/1 61/4/1
f 64/4/1 60/4/1 62/4/1
f 64/4/1 62/4/1 63/4/1
f 67/3/1 66/3/1 65/3/1
f 69/3/1 66/3/1 67/3/1
f 70/3/1 66/3/1 69/3/1
f 71/4/1 69/4/1 68/4/1
f 72/4/1 69/4/1 71/4/1
f 75/4/1 74/4/1 73/4/1
f 76/4/1 74/4/1 75/4/1
f 80/1/1 78/1/1 77/1/1
f 81/1/1 78/1/1 80/1/1
f 83/1/1 80/1/1 79/1/1
f 84/3/1 82/3/1 81/3/1
f 84/1/1 80/1/1 83/1/1
f 84/3/1 81/3/1 80/3/1
f 85/3/1 82/3/1 84/3/1
f 86/1/1 85/1/1 84/1/1
f 87/1/1 85/1/1 86/1/1
f 91/1/1 89/1/1 88/1/1
f 92/1/1 89/1/1 91/1/1
f 93/1/1 91/1/1 90/1/1
f 94/1/1 91/1/1 93/1/1
f 96/1/1 95/1/1 94/1/1
f 97/1/1 95/1/1 96/1/1
f 98/3/2 99/3/2 102/3/2
f 102/3/2 99/3/2 103/3/2
f 100/3/2 101/3/2 104/3/2
f 104/3/2 101/3/2 105/3/2
f 105/3/2 101/3/2 106/3/2
f 107/4/2 108/4/2 109/4/2
f 109/4/2 108/4/2 110/4/2
f 111/4/2 112/4/2 113/4/2
f 113/4/2 112/4/2 114/4/2
f 115/3/2 116/3/2 119/3/2
f 119/3/2 116/3/2 120/3/2
f 117/3/2 118/3/2 121/3/2
f 121/3/2 118/3/2 122/3/2
f 123/4/2 124/4/2 125/4/2
f 125/4/2 124/4/2 126/4/2
f 127/3/2 128/3/2 129/3/2
f 129/3/2 128/3/2 130/3/2
f 130/3/2 128/3/2 131/3/2
f 132/3/2 133/3/2 134/3/2
f 134/3/2 133/3/2 135/3/2
f 136/1/2 137/1/2 139/1/2
f 139/1/2 137/1/2 140/1/2
f 138/1/2 139/1/2 141/1/2
f 141/1/2 139/1/2 142/1/2
f 142/1/2 143/1/2 144/1/2
f 144/1/2 143/1/2 145/1/2
f 146/3/2 147/3/2 150/3/2
f 150/3/2 147/3/2 151/3/2
f 148/3/2 149/3/2 152/3/2
f 152/3/2 149/3/2 153/3/2
f 154/4/2 155/4/2 158/4/2
f 158/4/2 155/4/2 159/4/2
f 159/4/2 155/4/2 160/4/2
f 160/4/2 155/4/2 161/4/2
f 156/4/2 157/4/2 162/4/2
f 162/4/2 157/4/2 163/4/2
f 164/1/2 165/1/2 169/1/2
f 169/1/2 165/1/2 170/1/2
f 166/4/2 167/4/2 171/4/2
f 171/4/2 167/4/2 172/4/2
f 168/1/2 169/1/2 173/1/2
f 173/1/2 169/1/2 174/1/2
f 174/1/2 175/1/2 176/1/2
f 176/1/2 175/1/2 177/1/2
f 178/3/2 179/3/2 182/3/2
f 182/3/2 179/3/2 183/3/2
f 180/3/2 181/3/2 184/3/2
f 184/3/2 181/3/2 185/3/2
f 183/1/2 184/1/2 186/1/2
f 186/1/2 184/1/2 187/1/2
f 188/1/2 189/1/2 190/1/2
f 190/1/2 189/1/2 191/1/2
f 194/3/3 193/3/3 192/3/3
f 195/3/3 193/3/3 194/3/3
f 198/3/3 197/3/3 196/3/3
f 199/3/3 197/3/3 198/3/3
f 202/3/3 201/3/3 200/3/3
f 203/3/3 201/3/3 202/3/3
f 206/1/3 205/1/3 204/1/3
f 207/1/3 205/1/3 206/1/3
f 210/1/3 209/1/3 208/1/3
f 211/1/3 209/1/3 210/1/3
f 214/3/3 213/3/3 212/3/3
f 215/3/3 213/3/3 214/3/3
f 220/1/3 217/1/3 216/1/3
f 221/1/3 217/1/3 220/1/3
f 222/1/3 219/1/3 218/1/3
f 223/1/3 219/1/3 222/1/3
f 225/3/3 222/3/3 221/3/3
f 226/3/3 222/3/3 225/3/3
f 228/1/3 225/1/3 224/1/3
f 229/1/3 225/1/3 228/1/3
f 230/1/3 227/1/3 226/1/3
f 231/1/3 227/1/3 230/1/3
f 232/3/3 230/3/3 229/3/3
f 233/3/3 230/3/3 232/3/3
f 236/3/3 235/3/3 234/3/3
f 237/3/3 235/3/3 236/3/3
f 240/4/3 239/4/3 238/4/3
f 241/4/3 239/4/3 240/4/3
f 242/4/3 239/4/3 241/4/3
f 243/4/3 239/4/3 242/4/3
f 245/4/3 240/4/3 238/4/3
f 246/4/3 240/4/3 245/4/3
f 246/3/3 245/3/3 244/3/3
f 247/4/3 240/4/3 246/4/3
f 248/3/3 246/3/3 244/3/3
f 249/3/3 246/3/3 248/3/3
f 252/4/3 251/4/3 250/4/3
f 253/4/3 251/4/3 252/4/3
f 258/1/3 255/1/3 254/1/3
f 259/1/3 257/1/3 256/1/3
f 260/1/3 257/1/3 259/1/3
f 261/1/3 258/1/3 254/1/3
f 261/1/3 259/1/3 258/1/3
f 262/1/3 259/1/3 261/1/3
f 265/2/3 264/2/3 263/2/3
f 266/2/3 264/2/3 265/2/3
f 269/3/3 268/3/3 267/3/3
f 271/3/3 269/3/3 267/3/3
f 271/3/3 270/3/3 269/3/3
f 272/3/3 270/3/3 271/3/3
f 273/4/3 272/4/3 271/4/3
f 274/4/3 272/4/3 273/4/3
f 275/4/3 272/4/3 274/4/3
f 278/1/3 277/1/3 276/1/3
f 279/1/3 277/1/3 278/1/3
f 282/4/3 281/4/3 280/4/3
f 283/4/3 281/4/3 282/4/3
f 286/4/3 285/4/3 284/4/3
f 287/4/3 285/4/3 286/4/3
f 290/3/3 289/3/3 288/3/3
f 292/3/3 290/3/3 288/3/3
f 292/3/3 291/3/3 290/3/3
f 293/3/3 291/3/3 292/3/3
f 294/3/3 291/3/3 293/3/3
f 295/3/3 291/3/3 294/3/3
f 299/4/3 297/4/3 296/4/3
f 300/4/3 299/4/3 298/4/3
f 301/4/3 297/4/3 299/4/3
f 301/4/3 299/4/3 300/4/3
f 304/4/3 303/4/3 302/4/3
f 305/4/3 303/4/3 304/4/3
f 308/1/4 309/1/4 310/1/4
f 306/1/4 307/1/4 311/1/4
f 311/1/4 307/1/4 312/1/4
f 308/1/4 310/1/4 313/1/4
f 310/1/4 311/1/4 313/1/4
f 313/1/4 311/1/4 314/1/4
f 315/2/4 316/2/4 317/2/4
f 317/2/4 316/2/4 318/2/4
f 318/2/4 316/2/4 319/2/4
f 320/4/4 321/4/4 323/4/4
f 321/3/4 322/3/4 324/3/4
f 323/4/4 321/4/4 324/4/4
f 324/3/4 322/3/4 325/3/4
f 325/3/4 322/3/4 326/3/4
f 327/3/4 328/3/4 329/3/4
f 329/3/4 328/3/4 330/3/4
f 331/4/4 332/4/4 333/4/4
f 333/4/4 332/4/4 334/4/4
f 334/4/4 332/4/4 335/4/4
f 335/4/4 332/4/4 338/4/4
f 338/4/4 332/4/4 339/4/4
f 336/3/4 337/3/4 342/3/4
f 342/3/4 337/3/4 343/3/4
f 340/4/4 341/4/4 345/4/4
f 344/4/4 345/4/4 346/4/4
f 345/4/4 341/4/4 347/4/4
f 346/4/4 345/4/4 347/4/4
f 348/3/4 349/3/4 350/3/4
f 350/3/4 349/3/4 351/3/4
f 352/3/4 353/3/4 354/3/4
f 354/3/4 353/3/4 355/3/4
f 356/3/4 357/3/4 358/3/4
f 356/3/4 358/3/4 360/3/4
f 358/3/4 359/3/4 360/3/4
f 360/3/4 359/3/4 361/3/4
f 361/3/4 359/3/4 364/3/4
f 364/3/4 359/3/4 365/3/4
f 362/3/4 363/3/4 366/3/4
f 366/3/4 363/3/4 367/3/4
f 368/4/4 369/4/4 370/4/4
f 370/4/4 369/4/4 371/4/4
f 370/3/4 371/3/4 373/3/4
f 371/4/4 372/4/4 374/4/4
f 373/3/4 371/3/4 374/3/4
f 374/4/4 372/4/4 375/4/4
f 375/4/4 376/4/4 378/4/4
f 377/4/4 378/4/4 379/4/4
f 378/4/4 376/4/4 380/4/4
f 379/4/4 378/4/4 380/4/4
f 381/3/4 382/3/4 383/3/4
f 383/3/4 382/3/4 384/3/4
f 385/3/4 386/3/4 387/3/4
f 387/3/4 386/3/4 388/3/4
f 392/3/5 390/3/5 389/3/5
f 393/3/5 390/3/5 392/3/5
f 396/3/5 392/3/5 391/3/5
f 396/3/5 394/3/5 393/3/5
f 396/3/5 393/3/5 392/3/5
f 398/3/5 396/3/5 395/3/5
f 399/3/5 394/3/5 396/3/5
f 399/3/5 396/3/5 398/3/5
f 401/3/5 398/3/5 397/3/5
f 401/3/5 400/3/5 399/3/5
f 401/3/5 399/3/5 398/3/5
f 402/3/5 400/3/5 401/3/5
f 403/3/5 400/3/5 402/3/5
f 404/3/5 400/3/5 403/3/5
f 405/3/5 403/3/5 402/3/5
f 406/3/5 403/3/5 405/3/5
f 407/3/5 403/3/5 406/3/5
f 408/3/5 403/3/5 407/3/5
f 409/3/5 403/3/5 408/3/5
f 410/3/5 403/3/5 409/3/5
f 411/3/5 409/3/5 408/3/5
f 412/3/5 409/3/5 411/3/5
f 417/1/5 414/1/5 413/1/5
f 418/1/5 414/1/5 417/1/5
f 419/1/5 414/1/5 418/1/5
f 420/1/5 416/1/5 415/1/5
f 421/1/5 416/1/5 420/1/5
f 423/4/5 419/4/5 418/4/5
f 423/4/5 421/4/5 420/4/5
f 423/4/5 420/4/5 419/4/5
f 424/4/5 421/4/5 423/4/5
f 425/1/5 422/1/5 421/1/5
f 425/4/5 421/4/5 424/4/5
f 426/1/5 422/1/5 425/1/5
f 427/3/5 424/3/5 423/3/5
f 428/4/5 425/4/5 424/4/5
f 428/3/5 424/3/5 427/3/5
f 429/4/5 425/4/5 428/4/5
f 431/3/5 427/3/5 423/3/5
f 432/4/5 428/4/5 427/4/5
f 432/3/5 427/3/5 431/3/5
f 433/4/5 428/4/5 432/4/5
f 434/3/5 431/3/5 430/3/5
f 434/3/5 432/3/5 431/3/5
f 437/3/5 434/3/5 430/3/5
f 438/3/5 437/3/5 436/3/5
f 439/3/5 437/3/5 438/3/5
f 440/4/5 435/4/5 434/4/5
f 440/3/5 437/3/5 439/3/5
f 440/3/5 434/3/5 437/3/5
f 441/4/5 435/4/5 440/4/5
f 442/3/5 440/3/5 439/3/5
f 443/3/5 440/3/5 442/3/5
f 448/1/5 445/1/5 444/1/5
f 449/1/5 445/1/5 448/1/5
f 450/1/5 447/1/5 446/1/5
f 451/1/5 447/1/5 450/1/5
f 453/3/5 450/3/5 449/3/5
f 454/3/5 450/3/5 453/3/5
f 455/3/5 452/3/5 451/3/5
f 456/3/5 452/3/5 455/3/5
f 461/2/5 458/2/5 457/2/5
f 462/2/5 458/2/5 461/2/5
f 463/2/5 458/2/5 462/2/5
f 464/3/5 460/3/5 459/3/5
f 465/3/5 460/3/5 464/3/5
f 468/4/5 467/4/5 466/4/5
f 469/4/5 467/4/5 468/4/5
f 470/3/6 471/3/6 473/3/6
f 473/3/6 471/3/6 474/3/6
f 472/3/6 473/3/6 477/3/6
f 474/3/6 475/3/6 477/3/6
f 473/3/6 474/3/6 477/3/6
f 476/3/6 477/3/6 479/3/6
f 477/3/6 475/3/6 480/3/6
f 479/3/6 477/3/6 480/3/6
f 480/3/6 475/3/6 481/3/6
f 478/3/6 479/3/6 482/3/6
f 479/3/6 480/3/6 482/3/6
f 482/3/6 480/3/6 483/3/6
f 478/3/6 482/3/6 484/3/6
f 484/3/6 482/3/6 485/3/6
f 485/3/6 482/3/6 486/3/6
f 486/3/6 482/3/6 487/3/6
f 485/3/6 486/3/6 488/3/6
f 488/3/6 486/3/6 489/3/6
f 489/3/6 486/3/6 490/3/6
f 490/3/6 486/3/6 491/3/6
f 491/3/6 486/3/6 492/3/6
f 492/3/6 493/3/6 494/3/6
f 491/3/6 492/3/6 494/3/6
f 491/3/6 494/3/6 496/3/6
f 494/3/6 495/3/6 496/3/6
f 496/3/6 495/3/6 497/3/6
f 498/4/6 499/4/6 500/4/6
f 500/4/6 499/4/6 501/4/6
f 501/4/6 499/4/6 502/4/6
f 503/4/6 504/4/6 507/4/6
f 507/4/6 504/4/6 508/4/6
f 505/3/6 506/3/6 509/3/6
f 509/3/6 506/3/6 510/3/6
f 511/4/6 512/4/6 513/4/6
f 513/4/6 512/4/6 514/4/6
f 515/3/6 516/3/6 518/3/6
f 516/3/6 517/3/6 518/3/6
f 518/3/6 517/3/6 519/3/6
f 520/1/6 521/1/6 524/1/6
f 524/1/6 521/1/6 525/1/6
f 522/1/6 523/1/6 526/1/6
f 526/1/6 523/1/6 527/1/6
f 527/3/6 528/3/6 529/3/6
f 529/3/6 528/3/6 530/3/6
f 525/3/6 526/3/6 534/3/6
f 534/3/6 526/3/6 535/3/6
f 530/1/6 531/1/6 537/1/6
f 537/1/6 531/1/6 538/1/6
f 532/2/6 533/2/6 539/2/6
f 539/2/6 533/2/6 540/2/6
f 536/3/6 537/3/6 541/3/6
f 541/3/6 537/3/6 542/3/6
f 542/3/6 537/3/6 543/3/6
f 547/3/6 548/3/6 549/3/6
f 549/3/6 548/3/6 550/3/6
f 544/4/6 545/4/6 551/4/6
f 545/3/6 546/3/6 551/3/6
f 551/3/6 546/3/6 552/3/6
f 544/4/6 551/4/6 553/4/6
f 553/4/6 551/4/6 554/4/6
f 554/3/6 555/3/6 556/3/6
f 556/3/6 555/3/6 557/3/6
f 560/1/6 561/1/6 564/1/6
f 562/4/6 563/4/6 566/4/6
f 566/4/6 563/4/6 567/4/6
f 558/1/6 559/1/6 569/1/6
f 569/1/6 559/1/6 570/1/6
f 570/1/6 559/1/6 571/1/6
f 564/1/6 565/1/6 572/1/6
f 560/1/6 564/1/6 572/1/6
f 570/1/6 571/1/6 573/1/6
f 571/1/6 572/1/6 573/1/6
f 569/3/6 570/3/6 573/3/6
f 572/1/6 565/1/6 574/1/6
f 573/1/6 572/1/6 574/1/6
f 567/3/6 568/3/6 575/3/6
f 562/4/6 566/4/6 575/4/6
f 566/3/6 567/3/6 575/3/6
f 568/4/6 569/4/6 576/4/6
f 575/3/6 568/3/6 576/3/6
f 569/3/6 573/3/6 577/3/6
f 576/4/6 569/4/6 577/4/6
f 577/3/6 573/3/6 578/3/6
f 575/4/6 576/4/6 580/4/6
f 578/4/6 579/4/6 580/4/6
f 577/4/6 578/4/6 580/4/6
f 576/4/6 577/4/6 580/4/6
f 562/4/6 575/4/6 580/4/6
f 580/4/6 579/4/6 581/4/6
f 581/4/6 579/4/6 582/4/6
f 582/4/6 579/4/6 583/4/6
f 581/4/6 582/4/6 584/4/6
f 581/4/6 584/4/6 587/4/6
f 584/4/6 585/4/6 587/4/6
f 586/4/6 587/4/6 588/4/6
f 587/4/6 585/4/6 589/4/6
f 588/4/6 587/4/6 589/4/6
