# MagicaVoxel @ Ephtracy

# group
o 

# material
mtllib Autocannon2-5.mtl
usemtl palette

# normals
vn -1 0 0
vn 1 0 0
vn 0 0 1
vn 0 0 -1
vn 0 -1 0
vn 0 1 0

# texcoords
vt 0.708984 0.5
vt 0.775391 0.5
vt 0.837891 0.5

# verts
v -2 0.4 0.1
v -2 0.4 -0.1
v -2 0.6 0.1
v -2 0.6 -0.1
v -0.5 0.2 0.2
v -0.5 0.2 -0.2
v -0.5 0.3 0.2
v -0.5 0.3 -0.2
v -0.4 0.2 0.3
v -0.4 0.2 0.2
v -0.4 0.2 -0.2
v -0.4 0.2 -0.3
v -0.4 0.3 0.3
v -0.4 0.3 0.2
v -0.4 0.3 0.1
v -0.4 0.3 -0.1
v -0.4 0.3 -0.2
v -0.4 0.3 -0.3
v -0.4 0.4 0.1
v -0.4 0.4 -0.1
v -0.4 0.6 0.1
v -0.4 0.6 -0.1
v -0.4 0.7 0.1
v -0.4 0.7 -0.1
v -0.3 0.2 0.4
v -0.3 0.2 0.3
v -0.3 0.2 -0.3
v -0.3 0.2 -0.4
v -0.3 0.3 0.4
v -0.3 0.3 0.3
v -0.3 0.3 0.2
v -0.3 0.3 0.1
v -0.3 0.3 -0.1
v -0.3 0.3 -0.2
v -0.3 0.3 -0.3
v -0.3 0.3 -0.4
v -0.3 0.4 0.2
v -0.3 0.4 0.1
v -0.3 0.4 -0.1
v -0.3 0.4 -0.2
v -0.2 0.2 0.5
v -0.2 0.2 0.4
v -0.2 0.2 -0.4
v -0.2 0.2 -0.6
v -0.2 0.3 0.5
v -0.2 0.3 0.4
v -0.2 0.3 -0.2
v -0.2 0.3 -0.4
v -0.2 0.4 -0.1
v -0.2 0.4 -0.2
v -0.2 0.6 -0.1
v -0.2 0.6 -0.6
v -0.0999999 0.6 -0.1
v -0.0999999 0.6 -0.5
v -0.0999999 0.7 -0.1
v -0.0999999 0.7 -0.5
v 0.1 0.3 0.2
v 0.1 0.3 0.1
v 0.1 0.4 0.2
v 0.1 0.4 0.1
v 0.1 0.6 -0.1
v 0.1 0.6 -0.3
v 0.1 0.7 -0.1
v 0.1 0.7 -0.3
v 0.2 0.6 0.1
v 0.2 0.6 -0.1
v 0.2 0.7 0.1
v 0.2 0.7 -0.1
v 0.5 0.2 0.5
v 0.5 0.2 -0.6
v 0.5 0.3 0.5
v 0.5 0.3 0.1
v 0.5 0.3 -0.1
v 0.5 0.6 -0.1
v 0.5 0.6 -0.3
v 0.5 0.6 -0.5
v 0.5 0.6 -0.6
v 0.5 0.7 -0.3
v 0.5 0.7 -0.5
v 0.6 0.3 0.1
v 0.6 0.3 -0.1
v 0.6 0.4 0.1
v 0.6 0.4 -0.1
v 0.8 0.4 0.1
v 0.8 0.4 -0.1
v 0.8 0.6 0.1
v 0.8 0.6 -0.1
v -0.2 0.2 0.5
v -0.2 0.3 0.5
v -0.0999999 0.2 0.5
v -0.0999999 0.3 0.5
v 0.1 0.2 0.5
v 0.1 0.3 0.5
v 0.5 0.2 0.5
v 0.5 0.3 0.5
v -0.3 0.2 0.4
v -0.3 0.3 0.4
v -0.2 0.2 0.4
v -0.2 0.3 0.4
v -0.4 0.2 0.3
v -0.4 0.3 0.3
v -0.3 0.2 0.3
v -0.3 0.3 0.3
v -0.5 0.2 0.2
v -0.5 0.3 0.2
v -0.4 0.2 0.2
v -0.4 0.3 0.2
v -0.3 0.3 0.2
v -0.3 0.4 0.2
v -0.0999999 0.3 0.2
v -0.0999999 0.4 0.2
v 0.1 0.3 0.2
v 0.1 0.4 0.2
v -2 0.4 0.1
v -2 0.6 0.1
v -0.4 0.3 0.1
v -0.4 0.4 0.1
v -0.4 0.6 0.1
v -0.4 0.7 0.1
v -0.3 0.3 0.1
v -0.3 0.4 0.1
v -0.0999999 0.4 0.1
v -0.0999999 0.7 0.1
v 0.1 0.3 0.1
v 0.1 0.4 0.1
v 0.1 0.7 0.1
v 0.2 0.6 0.1
v 0.2 0.7 0.1
v 0.5 0.3 0.1
v 0.6 0.3 0.1
v 0.6 0.4 0.1
v 0.8 0.4 0.1
v 0.8 0.6 0.1
v 0.1 0.6 -0.3
v 0.1 0.7 -0.3
v 0.5 0.6 -0.3
v 0.5 0.7 -0.3
v -2 0.4 -0.1
v -2 0.6 -0.1
v -0.4 0.3 -0.1
v -0.4 0.4 -0.1
v -0.4 0.6 -0.1
v -0.4 0.7 -0.1
v -0.3 0.3 -0.1
v -0.3 0.4 -0.1
v -0.2 0.4 -0.1
v -0.2 0.6 -0.1
v -0.0999999 0.6 -0.1
v -0.0999999 0.7 -0.1
v 0.1 0.6 -0.1
v 0.1 0.7 -0.1
v 0.2 0.6 -0.1
v 0.2 0.7 -0.1
v 0.5 0.3 -0.1
v 0.5 0.6 -0.1
v 0.6 0.3 -0.1
v 0.6 0.4 -0.1
v 0.8 0.4 -0.1
v 0.8 0.6 -0.1
v -0.5 0.2 -0.2
v -0.5 0.3 -0.2
v -0.4 0.2 -0.2
v -0.4 0.3 -0.2
v -0.3 0.3 -0.2
v -0.3 0.4 -0.2
v -0.2 0.3 -0.2
v -0.2 0.4 -0.2
v -0.4 0.2 -0.3
v -0.4 0.3 -0.3
v -0.3 0.2 -0.3
v -0.3 0.3 -0.3
v -0.3 0.2 -0.4
v -0.3 0.3 -0.4
v -0.2 0.2 -0.4
v -0.2 0.3 -0.4
v -0.0999999 0.6 -0.5
v -0.0999999 0.7 -0.5
v 0.5 0.6 -0.5
v 0.5 0.7 -0.5
v -0.2 0.2 -0.6
v -0.2 0.6 -0.6
v 0.5 0.2 -0.6
v 0.5 0.6 -0.6
v -0.2 0.2 0.5
v -0.0999999 0.2 0.5
v 0.1 0.2 0.5
v 0.5 0.2 0.5
v -0.3 0.2 0.4
v -0.2 0.2 0.4
v -0.4 0.2 0.3
v -0.3 0.2 0.3
v -0.5 0.2 0.2
v -0.4 0.2 0.2
v -0.2 0.2 0.2
v -0.0999999 0.2 0.2
v -0.0999999 0.2 0.1
v 0.1 0.2 0.1
v 0.2 0.2 0.1
v -0.5 0.2 -0.2
v -0.4 0.2 -0.2
v -0.4 0.2 -0.3
v -0.3 0.2 -0.3
v -0.3 0.2 -0.4
v -0.2 0.2 -0.4
v -0.0999999 0.2 -0.4
v -0.0999999 0.2 -0.5
v 0.2 0.2 -0.5
v -0.2 0.2 -0.6
v 0.5 0.2 -0.6
v 0.5 0.3 0.1
v 0.6 0.3 0.1
v 0.5 0.3 -0.1
v 0.6 0.3 -0.1
v -2 0.4 0.1
v -0.4 0.4 0.1
v 0.6 0.4 0.1
v 0.8 0.4 0.1
v -2 0.4 -0.1
v -0.4 0.4 -0.1
v 0.6 0.4 -0.1
v 0.8 0.4 -0.1
v -0.2 0.3 0.5
v -0.0999999 0.3 0.5
v 0.1 0.3 0.5
v 0.5 0.3 0.5
v -0.3 0.3 0.4
v -0.2 0.3 0.4
v -0.4 0.3 0.3
v -0.3 0.3 0.3
v -0.5 0.3 0.2
v -0.4 0.3 0.2
v -0.3 0.3 0.2
v -0.0999999 0.3 0.2
v 0.1 0.3 0.2
v -0.4 0.3 0.1
v -0.3 0.3 0.1
v 0.1 0.3 0.1
v 0.5 0.3 0.1
v -0.4 0.3 -0.1
v -0.3 0.3 -0.1
v -0.5 0.3 -0.2
v -0.4 0.3 -0.2
v -0.3 0.3 -0.2
v -0.2 0.3 -0.2
v -0.4 0.3 -0.3
v -0.3 0.3 -0.3
v -0.3 0.3 -0.4
v -0.2 0.3 -0.4
v -0.3 0.4 0.2
v -0.0999999 0.4 0.2
v 0.1 0.4 0.2
v -0.3 0.4 0.1
v -0.0999999 0.4 0.1
v 0.1 0.4 0.1
v -0.3 0.4 -0.1
v -0.2 0.4 -0.1
v -0.3 0.4 -0.2
v -0.2 0.4 -0.2
v -2 0.6 0.1
v -0.4 0.6 0.1
v 0.2 0.6 0.1
v 0.8 0.6 0.1
v -2 0.6 -0.1
v -0.4 0.6 -0.1
v -0.2 0.6 -0.1
v -0.0999999 0.6 -0.1
v 0.1 0.6 -0.1
v 0.2 0.6 -0.1
v 0.5 0.6 -0.1
v 0.8 0.6 -0.1
v 0.1 0.6 -0.3
v 0.5 0.6 -0.3
v -0.0999999 0.6 -0.5
v 0.5 0.6 -0.5
v -0.2 0.6 -0.6
v 0.5 0.6 -0.6
v -0.4 0.7 0.1
v -0.0999999 0.7 0.1
v 0.1 0.7 0.1
v 0.2 0.7 0.1
v -0.4 0.7 -0.1
v -0.0999999 0.7 -0.1
v 0.1 0.7 -0.1
v 0.2 0.7 -0.1
v 0.1 0.7 -0.3
v 0.5 0.7 -0.3
v -0.0999999 0.7 -0.5
v 0.5 0.7 -0.5

# faces
f 3/1/1 2/1/1 1/1/1
f 4/1/1 2/1/1 3/1/1
f 7/2/1 6/2/1 5/2/1
f 8/2/1 6/2/1 7/2/1
f 13/2/1 10/2/1 9/2/1
f 14/2/1 10/2/1 13/2/1
f 17/2/1 12/2/1 11/2/1
f 18/2/1 12/2/1 17/2/1
f 19/2/1 16/2/1 15/2/1
f 20/2/1 16/2/1 19/2/1
f 23/2/1 22/2/1 21/2/1
f 24/2/1 22/2/1 23/2/1
f 29/2/1 26/2/1 25/2/1
f 30/2/1 26/2/1 29/2/1
f 35/2/1 28/2/1 27/2/1
f 36/2/1 28/2/1 35/2/1
f 37/2/1 32/2/1 31/2/1
f 38/2/1 32/2/1 37/2/1
f 39/2/1 34/2/1 33/2/1
f 40/2/1 34/2/1 39/2/1
f 45/2/1 42/2/1 41/2/1
f 46/2/1 42/2/1 45/2/1
f 48/2/1 44/2/1 43/2/1
f 50/2/1 48/2/1 47/2/1
f 51/2/1 50/2/1 49/2/1
f 52/2/1 44/2/1 48/2/1
f 52/2/1 50/2/1 51/2/1
f 52/2/1 48/2/1 50/2/1
f 55/3/1 54/3/1 53/3/1
f 56/3/1 54/3/1 55/3/1
f 57/3/2 58/3/2 59/3/2
f 59/3/2 58/3/2 60/3/2
f 61/3/2 62/3/2 63/3/2
f 63/3/2 62/3/2 64/3/2
f 65/2/2 66/2/2 67/2/2
f 67/2/2 66/2/2 68/2/2
f 69/2/2 70/2/2 71/2/2
f 71/2/2 70/2/2 72/2/2
f 72/2/2 70/2/2 73/2/2
f 73/2/2 70/2/2 74/2/2
f 74/2/2 70/2/2 75/2/2
f 75/2/2 70/2/2 76/2/2
f 76/2/2 70/2/2 77/2/2
f 75/3/2 76/3/2 78/3/2
f 78/3/2 76/3/2 79/3/2
f 80/2/2 81/2/2 82/2/2
f 82/2/2 81/2/2 83/2/2
f 84/2/2 85/2/2 86/2/2
f 86/2/2 85/2/2 87/2/2
f 90/2/3 89/2/3 88/2/3
f 91/2/3 89/2/3 90/2/3
f 92/3/3 91/3/3 90/3/3
f 93/3/3 91/3/3 92/3/3
f 94/2/3 93/2/3 92/2/3
f 95/2/3 93/2/3 94/2/3
f 98/2/3 97/2/3 96/2/3
f 99/2/3 97/2/3 98/2/3
f 102/2/3 101/2/3 100/2/3
f 103/2/3 101/2/3 102/2/3
f 106/2/3 105/2/3 104/2/3
f 107/2/3 105/2/3 106/2/3
f 110/2/3 109/2/3 108/2/3
f 111/2/3 109/2/3 110/2/3
f 112/3/3 111/3/3 110/3/3
f 113/3/3 111/3/3 112/3/3
f 117/1/3 115/1/3 114/1/3
f 118/1/3 115/1/3 117/1/3
f 120/2/3 117/2/3 116/2/3
f 120/2/3 119/2/3 118/2/3
f 120/2/3 118/2/3 117/2/3
f 121/2/3 119/2/3 120/2/3
f 122/2/3 119/2/3 121/2/3
f 123/2/3 119/2/3 122/2/3
f 125/3/3 123/3/3 122/3/3
f 126/3/3 123/3/3 125/3/3
f 127/2/3 125/2/3 124/2/3
f 127/2/3 126/2/3 125/2/3
f 128/2/3 126/2/3 127/2/3
f 129/2/3 127/2/3 124/2/3
f 130/2/3 127/2/3 129/2/3
f 131/2/3 127/2/3 130/2/3
f 132/2/3 127/2/3 131/2/3
f 133/2/3 127/2/3 132/2/3
f 136/3/3 135/3/3 134/3/3
f 137/3/3 135/3/3 136/3/3
f 138/1/4 139/1/4 141/1/4
f 141/1/4 139/1/4 142/1/4
f 140/2/4 141/2/4 144/2/4
f 142/2/4 143/2/4 144/2/4
f 141/2/4 142/2/4 144/2/4
f 144/2/4 143/2/4 145/2/4
f 145/2/4 143/2/4 146/2/4
f 146/2/4 143/2/4 147/2/4
f 147/2/4 143/2/4 148/2/4
f 148/2/4 143/2/4 149/2/4
f 150/2/4 151/2/4 152/2/4
f 152/2/4 151/2/4 153/2/4
f 154/2/4 155/2/4 156/2/4
f 156/2/4 155/2/4 157/2/4
f 157/2/4 155/2/4 158/2/4
f 158/2/4 155/2/4 159/2/4
f 160/2/4 161/2/4 162/2/4
f 162/2/4 161/2/4 163/2/4
f 164/2/4 165/2/4 166/2/4
f 166/2/4 165/2/4 167/2/4
f 168/2/4 169/2/4 170/2/4
f 170/2/4 169/2/4 171/2/4
f 172/2/4 173/2/4 174/2/4
f 174/2/4 173/2/4 175/2/4
f 176/3/4 177/3/4 178/3/4
f 178/3/4 177/3/4 179/3/4
f 180/2/4 181/2/4 182/2/4
f 182/2/4 181/2/4 183/2/4
f 189/2/5 185/2/5 184/2/5
f 191/2/5 189/2/5 188/2/5
f 193/2/5 191/2/5 190/2/5
f 194/2/5 185/2/5 189/2/5
f 194/2/5 189/2/5 191/2/5
f 194/2/5 191/2/5 193/2/5
f 195/3/5 186/3/5 185/3/5
f 195/2/5 185/2/5 194/2/5
f 196/1/5 195/1/5 194/1/5
f 196/3/5 186/3/5 195/3/5
f 197/2/5 187/2/5 186/2/5
f 197/3/5 186/3/5 196/3/5
f 198/2/5 187/2/5 197/2/5
f 199/2/5 194/2/5 193/2/5
f 199/2/5 193/2/5 192/2/5
f 200/2/5 194/2/5 199/2/5
f 201/2/5 194/2/5 200/2/5
f 202/2/5 194/2/5 201/2/5
f 203/2/5 194/2/5 202/2/5
f 204/1/5 196/1/5 194/1/5
f 204/2/5 194/2/5 203/2/5
f 204/1/5 198/1/5 197/1/5
f 204/1/5 197/1/5 196/1/5
f 205/1/5 198/1/5 204/1/5
f 206/1/5 198/1/5 205/1/5
f 206/2/5 205/2/5 204/2/5
f 207/2/5 187/2/5 198/2/5
f 207/1/5 198/1/5 206/1/5
f 208/2/5 206/2/5 204/2/5
f 208/2/5 207/2/5 206/2/5
f 209/2/5 187/2/5 207/2/5
f 209/2/5 207/2/5 208/2/5
f 212/2/5 211/2/5 210/2/5
f 213/2/5 211/2/5 212/2/5
f 218/1/5 215/1/5 214/1/5
f 219/1/5 215/1/5 218/1/5
f 220/2/5 217/2/5 216/2/5
f 221/2/5 217/2/5 220/2/5
f 222/2/6 223/2/6 227/2/6
f 226/2/6 227/2/6 229/2/6
f 228/2/6 229/2/6 231/2/6
f 229/2/6 227/2/6 232/2/6
f 231/2/6 229/2/6 232/2/6
f 223/3/6 224/3/6 233/3/6
f 232/2/6 227/2/6 233/2/6
f 227/2/6 223/2/6 233/2/6
f 224/2/6 225/2/6 234/2/6
f 233/3/6 224/3/6 234/3/6
f 231/2/6 232/2/6 235/2/6
f 230/2/6 231/2/6 235/2/6
f 235/2/6 232/2/6 236/2/6
f 234/2/6 225/2/6 237/2/6
f 237/2/6 225/2/6 238/2/6
f 230/2/6 235/2/6 239/2/6
f 230/2/6 239/2/6 241/2/6
f 239/2/6 240/2/6 241/2/6
f 241/2/6 240/2/6 242/2/6
f 242/2/6 240/2/6 243/2/6
f 243/2/6 244/2/6 245/2/6
f 242/2/6 243/2/6 245/2/6
f 245/2/6 244/2/6 246/2/6
f 246/2/6 244/2/6 247/2/6
f 247/2/6 244/2/6 248/2/6
f 249/2/6 250/2/6 252/2/6
f 250/3/6 251/3/6 253/3/6
f 252/2/6 250/2/6 253/2/6
f 253/3/6 251/3/6 254/3/6
f 255/2/6 256/2/6 257/2/6
f 257/2/6 256/2/6 258/2/6
f 259/1/6 260/1/6 263/1/6
f 263/1/6 260/1/6 264/1/6
f 261/2/6 262/2/6 268/2/6
f 268/2/6 262/2/6 269/2/6
f 269/2/6 262/2/6 270/2/6
f 267/2/6 268/2/6 271/2/6
f 268/2/6 269/2/6 271/2/6
f 271/2/6 269/2/6 272/2/6
f 265/2/6 266/2/6 273/2/6
f 265/2/6 273/2/6 275/2/6
f 273/2/6 274/2/6 275/2/6
f 275/2/6 274/2/6 276/2/6
f 277/2/6 278/2/6 281/2/6
f 278/3/6 279/3/6 282/3/6
f 281/2/6 278/2/6 282/2/6
f 279/2/6 280/2/6 283/2/6
f 282/3/6 279/3/6 283/3/6
f 283/2/6 280/2/6 284/2/6
f 282/3/6 283/3/6 285/3/6
f 282/3/6 285/3/6 287/3/6
f 285/3/6 286/3/6 287/3/6
f 287/3/6 286/3/6 288/3/6
